<svg width="72" height="72" viewBox="0 0 72 72" fill="none" xmlns="http://www.w3.org/2000/svg">
<path d="M15 24C15.0312 16.0668 15.324 11.823 18.0717 9.07538C21.147 6 26.0968 6 35.9963 6C45.8958 6 50.8455 6 53.9209 9.07538C56.6685 11.823 56.9613 16.0668 56.9926 24M15 48C15.0312 55.9332 15.324 60.177 18.0717 62.9246C21.147 66 26.0968 66 35.9963 66C45.8958 66 50.8455 66 53.9209 62.9246C56.6685 60.177 56.9613 55.9332 56.9926 48" stroke="#141B34" stroke-width="3" stroke-linecap="round"/>
<path d="M33 57H39" stroke="#141B34" stroke-width="3" stroke-linecap="round" stroke-linejoin="round"/>
<path d="M48 30L51.6796 33.1716C53.2265 34.5049 54 35.1716 54 36C54 36.8284 53.2265 37.4951 51.6796 38.8284L48 42" stroke="#141B34" stroke-width="3" stroke-linecap="round" stroke-linejoin="round"/>
<path d="M24 30L20.3204 33.1716C18.7735 34.5049 18 35.1716 18 36C18 36.8284 18.7735 37.4951 20.3204 38.8284L24 42" stroke="#141B34" stroke-width="3" stroke-linecap="round" stroke-linejoin="round"/>
<path d="M39 27L33 45" stroke="#141B34" stroke-width="3" stroke-linecap="round" stroke-linejoin="round"/>
</svg>
