<svg width="72" height="72" viewBox="0 0 72 72" fill="none" xmlns="http://www.w3.org/2000/svg">
<path d="M66 33.8108C66 49.9316 52.5685 63 36 63C19.4315 63 6 49.9316 6 33.8108C6 24.9399 10.0671 16.9933 16.486 11.6399C17.1343 11.0992 17.4584 10.8289 17.9743 10.6016C18.4901 10.3742 18.9577 10.3107 19.8929 10.1835C23.0053 9.76047 29.5034 9 36 9C42.4966 9 48.9947 9.76047 52.107 10.1835C53.0423 10.3107 53.5099 10.3742 54.0257 10.6016C54.5416 10.8289 54.8657 11.0992 55.514 11.6399C61.9329 16.9933 66 24.9399 66 33.8108Z" stroke="#141B34" stroke-width="3" stroke-linecap="round" stroke-linejoin="round"/>
<path d="M54 12C54 15.3137 45.9411 18 36 18C26.0589 18 18 15.3137 18 12" stroke="#141B34" stroke-width="3" stroke-linecap="round" stroke-linejoin="round"/>
</svg>
