<svg width="72" height="72" viewBox="0 0 72 72" fill="none" xmlns="http://www.w3.org/2000/svg">
<path d="M52.5 52.5L66 66" stroke="#141B34" stroke-width="3" stroke-linecap="round" stroke-linejoin="round"/>
<path d="M60 33C60 18.0883 47.9117 6 33 6C18.0883 6 6 18.0883 6 33C6 47.9117 18.0883 60 33 60C47.9117 60 60 47.9117 60 33Z" stroke="#141B34" stroke-width="3" stroke-linejoin="round"/>
<path d="M43.5 28.5L46.2597 30.8787C47.4199 31.8787 48 32.3787 48 33C48 33.6213 47.4199 34.1213 46.2597 35.1213L43.5 37.5" stroke="#141B34" stroke-width="3" stroke-linecap="round" stroke-linejoin="round"/>
<path d="M22.5 28.5L19.7403 30.8787C18.5801 31.8787 18 32.3787 18 33C18 33.6213 18.5801 34.1213 19.7403 35.1213L22.5 37.5" stroke="#141B34" stroke-width="3" stroke-linecap="round" stroke-linejoin="round"/>
<path d="M36 25.5L30 40.5" stroke="#141B34" stroke-width="3" stroke-linecap="round" stroke-linejoin="round"/>
</svg>
