<svg width="72" height="72" viewBox="0 0 72 72" fill="none" xmlns="http://www.w3.org/2000/svg">
<path d="M21 54L21 48" stroke="#141B34" stroke-width="3" stroke-linecap="round"/>
<path d="M36 54L36 45" stroke="#141B34" stroke-width="3" stroke-linecap="round"/>
<path d="M51 54L51 39" stroke="#141B34" stroke-width="3" stroke-linecap="round"/>
<path d="M18 33C17.1716 33 16.5 33.6716 16.5 34.5C16.5 35.3284 17.1716 36 18 36V33ZM49.3024 20.2442C49.7134 19.5249 49.4635 18.6086 48.7442 18.1976C48.0249 17.7866 47.1087 18.0365 46.6976 18.7558L49.3024 20.2442ZM41.7559 17.4043C40.9385 17.5392 40.3852 18.3111 40.52 19.1285C40.6548 19.9458 41.4267 20.4992 42.2441 20.3643L41.7559 17.4043ZM45.8029 18.257L45.5588 16.777L45.5588 16.777L45.8029 18.257ZM50.0456 20.6686L48.6036 21.0817L50.0456 20.6686ZM49.558 24.4131C49.7862 25.2095 50.6167 25.6701 51.4131 25.442C52.2095 25.2138 52.6701 24.3833 52.442 23.5869L49.558 24.4131ZM48.8224 18.2146L49.5636 16.9106L49.5636 16.9106L48.8224 18.2146ZM18 36C31.8483 36 42.9528 31.3559 49.3024 20.2442L46.6976 18.7558C41.0472 28.6441 31.1517 33 18 33V36ZM42.2441 20.3643L46.0471 19.737L45.5588 16.777L41.7559 17.4043L42.2441 20.3643ZM48.6036 21.0817L49.558 24.4131L52.442 23.5869L51.4876 20.2555L48.6036 21.0817ZM46.0471 19.737C46.8826 19.5992 47.3795 19.5197 47.7476 19.5029C47.9161 19.4952 48.0069 19.5042 48.0516 19.5122C48.0722 19.5158 48.0812 19.5189 48.0825 19.5194C48.0833 19.5197 48.0832 19.5197 48.0825 19.5193C48.0822 19.5192 48.0818 19.519 48.0816 19.5189C48.0813 19.5187 48.0811 19.5187 48.0812 19.5187L49.5636 16.9106C48.9092 16.5386 48.2326 16.4777 47.6108 16.5061C47.0242 16.5328 46.322 16.6511 45.5588 16.777L46.0471 19.737ZM51.4876 20.2555C51.2993 19.5982 51.117 18.9486 50.8837 18.4317C50.624 17.8564 50.2384 17.2941 49.5636 16.9106L48.0812 19.5187C48.0812 19.5187 48.0808 19.5185 48.0799 19.5179C48.0791 19.5174 48.078 19.5167 48.0766 19.5157C48.0738 19.5138 48.0706 19.5113 48.0673 19.5086C48.0601 19.5025 48.0573 19.4987 48.0591 19.501C48.0644 19.5074 48.0965 19.5488 48.1493 19.666C48.272 19.9376 48.3907 20.3385 48.6036 21.0817L51.4876 20.2555Z" fill="#141B34"/>
<path d="M7.5 36C7.5 22.565 7.5 15.8475 11.6737 11.6737C15.8475 7.5 22.565 7.5 36 7.5C49.435 7.5 56.1525 7.5 60.3263 11.6737C64.5 15.8475 64.5 22.565 64.5 36C64.5 49.435 64.5 56.1525 60.3263 60.3263C56.1525 64.5 49.435 64.5 36 64.5C22.565 64.5 15.8475 64.5 11.6737 60.3263C7.5 56.1525 7.5 49.435 7.5 36Z" stroke="#141B34" stroke-width="3"/>
</svg>
