<svg width="72" height="73" viewBox="0 0 72 73" fill="none" xmlns="http://www.w3.org/2000/svg">
<path d="M43.5 50C43.5 54.1421 40.1421 57.5 36 57.5C31.8579 57.5 28.5 54.1421 28.5 50C28.5 45.8579 31.8579 42.5 36 42.5C40.1421 42.5 43.5 45.8579 43.5 50Z" stroke="#141B34" stroke-width="3"/>
<path d="M30.8571 6.5H41.1429C47.3664 6.5 48 9.27482 48 14C48 18.7252 47.3664 21.5 41.1429 21.5H30.8571C24.6336 21.5 24 18.7252 24 14C24 9.27482 24.6336 6.5 30.8571 6.5Z" stroke="#141B34" stroke-width="3"/>
<path d="M12 39.5C12.7429 34.6309 15.7341 33.5 23.9628 33.5H48.046C56.2747 33.5 59.2571 34.6309 60 39.5" stroke="#141B34" stroke-width="3" stroke-linecap="round" stroke-linejoin="round"/>
<path d="M6 45.5C6 42.6716 6 41.2574 6.87868 40.3787C7.75736 39.5 9.17157 39.5 12 39.5C14.8284 39.5 16.2426 39.5 17.1213 40.3787C18 41.2574 18 42.6716 18 45.5C18 48.3284 18 49.7426 17.1213 50.6213C16.2426 51.5 14.8284 51.5 12 51.5C9.17157 51.5 7.75736 51.5 6.87868 50.6213C6 49.7426 6 48.3284 6 45.5Z" stroke="#141B34" stroke-width="3"/>
<path d="M54 45.5C54 42.6716 54 41.2574 54.8787 40.3787C55.7574 39.5 57.1716 39.5 60 39.5C62.8284 39.5 64.2426 39.5 65.1213 40.3787C66 41.2574 66 42.6716 66 45.5C66 48.3284 66 49.7426 65.1213 50.6213C64.2426 51.5 62.8284 51.5 60 51.5C57.1716 51.5 55.7574 51.5 54.8787 50.6213C54 49.7426 54 48.3284 54 45.5Z" stroke="#141B34" stroke-width="3"/>
<path d="M36 21.5L36 42.5" stroke="#141B34" stroke-width="3" stroke-linecap="round" stroke-linejoin="round"/>
<path d="M36 57.5L36 66.5" stroke="#141B34" stroke-width="3" stroke-linecap="round" stroke-linejoin="round"/>
</svg>
