<svg width="72" height="72" viewBox="0 0 72 72" fill="none" xmlns="http://www.w3.org/2000/svg">
<path d="M18.596 28.8H14.404C8.37712 28.8 4.31372 35.2451 6.68781 41.0389C7.01853 41.8459 7.7773 42.3692 8.61685 42.3692H10.0931C10.5907 42.3692 11.0244 42.7234 11.1451 43.2283L13.0456 51.1791C13.4419 52.837 14.8661 54 16.5 54C18.1339 54 19.5581 52.837 19.9544 51.1791L21.8549 43.2283C21.9756 42.7234 22.4093 42.3692 22.9069 42.3692H24.3831C25.2227 42.3692 25.9815 41.8459 26.3122 41.0389C28.6863 35.2451 24.6229 28.8 18.596 28.8Z" stroke="#141B34" stroke-width="3"/>
<path d="M21.75 23.4C21.75 26.3823 19.3995 28.8 16.5 28.8C13.6005 28.8 11.25 26.3823 11.25 23.4C11.25 20.4177 13.6005 18 16.5 18C19.3995 18 21.75 20.4177 21.75 23.4Z" stroke="#141B34" stroke-width="3"/>
<path d="M48 15C48 10.7574 48 8.63604 49.318 7.31802C50.636 6 52.7574 6 57 6C61.2426 6 63.364 6 64.682 7.31802C66 8.63604 66 10.7574 66 15C66 19.2426 66 21.364 64.682 22.682C63.364 24 61.2426 24 57 24C52.7574 24 50.636 24 49.318 22.682C48 21.364 48 19.2426 48 15Z" stroke="#141B34" stroke-width="3"/>
<path d="M48 57C48 52.7574 48 50.636 49.318 49.318C50.636 48 52.7574 48 57 48C61.2426 48 63.364 48 64.682 49.318C66 50.636 66 52.7574 66 57C66 61.2426 66 63.364 64.682 64.682C63.364 66 61.2426 66 57 66C52.7574 66 50.636 66 49.318 64.682C48 63.364 48 61.2426 48 57Z" stroke="#141B34" stroke-width="3"/>
<path d="M48 15H45C37.641 15.5484 36 18.6094 36 28.9583L36 43.0417C36 53.3906 37.641 56.4516 45 57H48" stroke="#141B34" stroke-width="3" stroke-linecap="round" stroke-linejoin="round"/>
</svg>
