<svg width="72" height="72" viewBox="0 0 72 72" fill="none" xmlns="http://www.w3.org/2000/svg">
<path d="M45 15C45 19.9706 39.7254 25.5 36 25.5C32.2746 25.5 27 19.9706 27 15C27 10.0294 31.0294 6 36 6C40.9706 6 45 10.0294 45 15Z" stroke="#141B34" stroke-width="3"/>
<path d="M48.1244 27C52.6934 31.0059 55.6539 37.7906 52.9953 44.1155C52.4225 45.4782 51.1082 46.3618 49.6541 46.3618C48.1755 46.3618 45.7468 45.8879 45.275 47.8123L41.9832 61.237C41.2968 64.0363 38.83 66 36 66C33.17 66 30.7031 64.0363 30.0168 61.237L26.725 47.8123C26.2531 45.8879 23.8245 46.3618 22.3459 46.3618C20.8917 46.3618 19.5775 45.4782 19.0046 44.1155C16.346 37.7906 19.3067 31.0059 23.8757 27" stroke="#141B34" stroke-width="3" stroke-linecap="round"/>
</svg>
