<svg width="72" height="72" viewBox="0 0 72 72" fill="none" xmlns="http://www.w3.org/2000/svg">
<path d="M36 34.5C37.4866 34.5 38.8686 33.9045 41.6325 32.7135L43.627 31.8541C48.5423 29.7361 51 28.6771 51 27C51 25.3229 48.5423 24.2639 43.627 22.1459L41.6325 21.2865C38.8686 20.0955 37.4866 19.5 36 19.5C34.5134 19.5 33.1314 20.0955 30.3675 21.2865L28.373 22.1459C23.4577 24.2639 21 25.3229 21 27C21 28.6771 23.4577 29.7361 28.373 31.8541L30.3675 32.7135C33.1314 33.9045 34.5134 34.5 36 34.5ZM36 34.5V52.5" stroke="#141B34" stroke-width="3" stroke-linejoin="round"/>
<path d="M51 27V45C51 46.6771 48.5423 47.7361 43.627 49.8541L41.6325 50.7135C38.8686 51.9045 37.4866 52.5 36 52.5C34.5134 52.5 33.1314 51.9045 30.3675 50.7135L28.373 49.8541C23.4577 47.7361 21 46.6771 21 45V27" stroke="#141B34" stroke-width="3" stroke-linejoin="round"/>
<path d="M27.4328 7.5C19.4617 7.68225 14.8059 8.44367 11.6248 11.6248C8.44367 14.8059 7.68225 19.4617 7.5 27.4328M44.5672 7.5C52.5383 7.68225 57.1941 8.44367 60.3752 11.6248C63.5563 14.8059 64.3177 19.4617 64.5 27.4328M44.5672 64.5C52.5383 64.3177 57.1941 63.5563 60.3752 60.3752C63.5563 57.1941 64.3177 52.5383 64.5 44.5672M27.4328 64.5C19.4617 64.3177 14.8059 63.5563 11.6248 60.3752C8.44367 57.1941 7.68225 52.5383 7.5 44.5672" stroke="#141B34" stroke-width="3" stroke-linecap="round" stroke-linejoin="round"/>
</svg>
