<svg width="72" height="72" viewBox="0 0 72 72" fill="none" xmlns="http://www.w3.org/2000/svg">
<path d="M21 16.5C21 18.9853 18.9853 21 16.5 21C14.0147 21 12 18.9853 12 16.5C12 14.0147 14.0147 12 16.5 12C18.9853 12 21 14.0147 21 16.5Z" stroke="#141B34" stroke-width="3"/>
<path d="M26.8454 42H24.4169C21.978 42 20.7585 42 19.9154 41.2891C19.0722 40.5781 18.8717 39.3809 18.4708 36.9864L18.2406 35.6115C18.0252 34.3251 17.9175 33.6819 18.0749 33.0692C18.2324 32.4564 18.6371 31.9437 19.4466 30.9182L23.1939 26.1711M29.3571 18L26.0919 22.5L23.1939 26.1711M29.3571 18L35.8876 9M29.3571 18L42.8576 28.5M42.8576 28.5L60 9M42.8576 28.5L38.9016 37.5M23.1939 26.1711L38.9016 37.5M38.9016 37.5V63" stroke="#141B34" stroke-width="3" stroke-linecap="round" stroke-linejoin="round"/>
</svg>
