<svg width="72" height="72" viewBox="0 0 72 72" fill="none" xmlns="http://www.w3.org/2000/svg">
<path d="M42 6H30C20.1623 6 15.2435 6 11.7567 8.44145C10.4667 9.34471 9.34471 10.4667 8.44145 11.7567C6 15.2435 6 20.1623 6 30C6 39.8377 6 44.7565 8.44145 48.2433C9.34471 49.5333 10.4667 50.6553 11.7567 51.5586C15.2435 54 20.1623 54 30 54H42C51.8377 54 56.7565 54 60.2433 51.5586C61.5333 50.6553 62.6553 49.5333 63.5586 48.2433C66 44.7565 66 39.8377 66 30" stroke="#141B34" stroke-width="3" stroke-linecap="round"/>
<path d="M56.4884 8.26254C57.3827 7.2937 57.8298 6.80928 58.3049 6.52671C59.4513 5.84491 60.8629 5.82371 62.0284 6.47079C62.5115 6.73896 62.9723 7.20974 63.894 8.15131C64.8158 9.09288 65.2766 9.56367 65.5391 10.0571C66.1726 11.2477 66.1518 12.6897 65.4844 13.8608C65.2078 14.3462 64.7336 14.8029 63.7852 15.7164L52.5008 26.5852C50.7035 28.3162 49.8048 29.1818 48.6817 29.6205C47.5585 30.0592 46.3238 30.0269 43.8544 29.9623L43.5185 29.9535C42.7667 29.9339 42.3908 29.924 42.1723 29.6761C41.9538 29.4281 41.9836 29.0452 42.0433 28.2794L42.0757 27.8636C42.2436 25.7083 42.3276 24.6306 42.7484 23.6619C43.1693 22.6931 43.8953 21.9066 45.3473 20.3334L56.4884 8.26254Z" stroke="#141B34" stroke-width="3" stroke-linejoin="round"/>
<path d="M43.9672 66L42.7106 64.7434C39.8779 61.9107 39.1756 57.5831 40.9672 54" stroke="#141B34" stroke-width="3" stroke-linecap="round"/>
<path d="M27.0015 66L28.2581 64.7434C31.0908 61.9107 31.7931 57.5831 30.0015 54" stroke="#141B34" stroke-width="3" stroke-linecap="round"/>
<path d="M21 66H51" stroke="#141B34" stroke-width="3" stroke-linecap="round"/>
<path d="M24 30H45" stroke="#141B34" stroke-width="3" stroke-linecap="round" stroke-linejoin="round"/>
</svg>
