<svg width="96" height="96" viewBox="0 0 96 96" fill="none" xmlns="http://www.w3.org/2000/svg">
<path d="M14.8602 57.6377L17.778 56.9403L14.8602 57.6377ZM17.3941 68.2388L14.4763 68.9363L17.3941 68.2388ZM26.6059 68.2388L29.5237 68.9363L26.6059 68.2388ZM29.1398 57.6377L32.0576 58.3352L29.1398 57.6377ZM8.91709 54.7185L11.6931 53.581H11.6931L8.91709 54.7185ZM35.0829 54.7185L32.3069 53.581H32.3069L35.0829 54.7185ZM60 20V17C59.9256 17 59.8512 17.0028 59.7771 17.0083L60 20ZM60 76L59.7771 78.9917C59.8512 78.9972 59.9256 79 60 79V76ZM19.2053 41.4H24.7947V35.4H19.2053V41.4ZM13.4575 53.4923H11.4891V59.4923H13.4575V53.4923ZM32.5109 53.4923H30.5425V59.4923H32.5109V53.4923ZM11.9424 58.3352L14.4763 68.9363L20.312 67.5414L17.778 56.9403L11.9424 58.3352ZM29.5237 68.9363L32.0576 58.3352L26.222 56.9403L23.6881 67.5414L29.5237 68.9363ZM22 75C25.6509 75 28.6925 72.4133 29.5237 68.9363L23.6881 67.5414C23.4624 68.4853 22.7061 69 22 69V75ZM14.4763 68.9363C15.3075 72.4133 18.3491 75 22 75V69C21.2939 69 20.5376 68.4853 20.3119 67.5414L14.4763 68.9363ZM30.5425 53.4923C28.4067 53.4923 26.6857 55.0006 26.222 56.9403L32.0576 58.3352C31.9158 58.9285 31.3515 59.4923 30.5425 59.4923V53.4923ZM13.4575 59.4923C12.6485 59.4923 12.0842 58.9285 11.9424 58.3352L17.778 56.9403C17.3143 55.0006 15.5933 53.4923 13.4575 53.4923V59.4923ZM6.1411 55.856C7.02011 58.0011 9.09113 59.4923 11.4891 59.4923V53.4923C11.5601 53.4923 11.6177 53.5157 11.6519 53.5393C11.6851 53.5622 11.6937 53.5824 11.6931 53.581L6.1411 55.856ZM32.3069 53.581C32.3063 53.5824 32.3149 53.5622 32.3481 53.5393C32.3823 53.5157 32.4399 53.4923 32.5109 53.4923V59.4923C34.9089 59.4923 36.9799 58.0011 37.8589 55.856L32.3069 53.581ZM24.7947 41.4C30.4952 41.4 34.7417 47.6392 32.3069 53.581L37.8589 55.856C41.7551 46.3478 35.1658 35.4 24.7947 35.4V41.4ZM19.2053 35.4C8.8342 35.4 2.24494 46.3477 6.1411 55.856L11.6931 53.581C9.25832 47.6392 13.5048 41.4 19.2053 41.4V35.4ZM26 31.2C26 33.5998 24.13 35.4 22 35.4V41.4C27.602 41.4 32 36.7531 32 31.2H26ZM22 35.4C19.87 35.4 18 33.5998 18 31.2H12C12 36.7531 16.398 41.4 22 41.4V35.4ZM18 31.2C18 28.8002 19.87 27 22 27V21C16.398 21 12 25.6469 12 31.2H18ZM22 27C24.13 27 26 28.8002 26 31.2H32C32 25.6469 27.602 21 22 21V27ZM76 29C73.0868 29 71.2036 28.9936 69.8161 28.8071C68.5149 28.6321 68.1071 28.3497 67.8787 28.1213L63.636 32.364C65.165 33.8929 67.0501 34.4892 69.0166 34.7536C70.8969 35.0064 73.2564 35 76 35V29ZM61 20C61 22.7436 60.9936 25.1031 61.2464 26.9834C61.5108 28.9499 62.1071 30.835 63.636 32.364L67.8787 28.1213C67.6503 27.8929 67.3679 27.4851 67.1929 26.1839C67.0064 24.7964 67 22.9132 67 20H61ZM85 20C85 22.9132 84.9936 24.7964 84.8071 26.1839C84.6321 27.4851 84.3497 27.893 84.1213 28.1213L88.364 32.364C89.893 30.835 90.4892 28.9499 90.7536 26.9834C91.0064 25.1031 91 22.7436 91 20H85ZM76 35C78.7436 35 81.1031 35.0064 82.9834 34.7536C84.9499 34.4892 86.835 33.893 88.364 32.364L84.1213 28.1213C83.893 28.3497 83.4851 28.6321 82.1839 28.8071C80.7964 28.9936 78.9132 29 76 29V35ZM76 11C78.9132 11 80.7964 11.0064 82.1839 11.1929C83.4851 11.3679 83.893 11.6503 84.1213 11.8787L88.364 7.63604C86.835 6.10705 84.9499 5.51082 82.9834 5.24642C81.1031 4.99363 78.7436 5 76 5V11ZM91 20C91 17.2564 91.0064 14.8969 90.7536 13.0166C90.4892 11.0501 89.893 9.16503 88.364 7.63604L84.1213 11.8787C84.3497 12.1071 84.6321 12.5149 84.8071 13.8161C84.9936 15.2036 85 17.0868 85 20H91ZM76 5C73.2564 5 70.8969 4.99363 69.0166 5.24642C67.0501 5.51082 65.165 6.10705 63.636 7.63604L67.8787 11.8787C68.1071 11.6503 68.5149 11.3679 69.8161 11.1929C71.2036 11.0064 73.0868 11 76 11V5ZM67 20C67 17.0868 67.0064 15.2036 67.1929 13.8161C67.3679 12.5149 67.6503 12.1071 67.8787 11.8787L63.636 7.63604C62.1071 9.16503 61.5108 11.0501 61.2464 13.0166C60.9936 14.8969 61 17.2564 61 20H67ZM76 85C73.0868 85 71.2036 84.9936 69.8161 84.8071C68.5149 84.6321 68.1071 84.3497 67.8787 84.1213L63.636 88.364C65.165 89.8929 67.0501 90.4892 69.0166 90.7536C70.8969 91.0064 73.2564 91 76 91V85ZM61 76C61 78.7436 60.9936 81.1031 61.2464 82.9834C61.5108 84.9499 62.1071 86.835 63.636 88.364L67.8787 84.1213C67.6503 83.8929 67.3679 83.4851 67.1929 82.1839C67.0064 80.7964 67 78.9132 67 76H61ZM85 76C85 78.9132 84.9936 80.7964 84.8071 82.1839C84.6321 83.4851 84.3497 83.8929 84.1213 84.1213L88.364 88.364C89.893 86.835 90.4892 84.9499 90.7536 82.9834C91.0064 81.1031 91 78.7436 91 76H85ZM76 91C78.7436 91 81.1031 91.0064 82.9834 90.7536C84.9499 90.4892 86.835 89.8929 88.364 88.364L84.1213 84.1213C83.893 84.3497 83.4851 84.6321 82.1839 84.8071C80.7964 84.9936 78.9132 85 76 85V91ZM76 67C78.9132 67 80.7964 67.0064 82.1839 67.1929C83.4851 67.3679 83.893 67.6503 84.1213 67.8787L88.364 63.636C86.835 62.1071 84.9499 61.5108 82.9834 61.2464C81.1031 60.9936 78.7436 61 76 61V67ZM91 76C91 73.2564 91.0064 70.8969 90.7536 69.0166C90.4892 67.0501 89.893 65.165 88.364 63.636L84.1213 67.8787C84.3497 68.1071 84.6321 68.5149 84.8071 69.8161C84.9936 71.2036 85 73.0868 85 76H91ZM76 61C73.2564 61 70.8969 60.9936 69.0166 61.2464C67.0501 61.5108 65.165 62.1071 63.636 63.636L67.8787 67.8787C68.1071 67.6503 68.5149 67.3679 69.8161 67.1929C71.2036 67.0064 73.0868 67 76 67V61ZM67 76C67 73.0868 67.0064 71.2036 67.1929 69.8161C67.3679 68.5149 67.6503 68.1071 67.8787 67.8787L63.636 63.636C62.1071 65.165 61.5108 67.0501 61.2464 69.0166C60.9936 70.8969 61 73.2564 61 76H67ZM51 57.3889V38.6111H45V57.3889H51ZM51 38.6111C51 31.6302 51.6064 28.0075 52.8643 25.9957C53.8685 24.3895 55.6335 23.3337 60.2229 22.9917L59.7771 17.0083C54.5546 17.3975 50.3195 18.748 47.7768 22.8149C45.4876 26.4763 45 31.7935 45 38.6111H51ZM45 57.3889C45 64.2065 45.4876 69.5237 47.7768 73.1851C50.3195 77.252 54.5546 78.6025 59.7771 78.9917L60.2229 73.0083C55.6335 72.6663 53.8685 71.6105 52.8643 70.0043C51.6064 67.9925 51 64.3698 51 57.3889H45ZM60 23H64V17H60V23ZM60 79H64V73H60V79Z" fill="url(#paint0_linear_1883_14067)"/>
<defs>
<linearGradient id="paint0_linear_1883_14067" x1="-31.51" y1="47.755" x2="48" y2="127.755" gradientUnits="userSpaceOnUse">
<stop stop-color="#9168CD"/>
<stop offset="0.424673" stop-color="#5556FF"/>
<stop offset="0.73499" stop-color="#45ADCD"/>
<stop offset="1" stop-color="#3EC4CD"/>
</linearGradient>
</defs>
</svg>
