<svg width="72" height="72" viewBox="0 0 72 72" fill="none" xmlns="http://www.w3.org/2000/svg">
<path d="M39 9H33C20.2721 9 13.9081 9 9.95406 12.9541C6 16.9081 6 23.2721 6 36C6 48.7279 6 55.0919 9.95406 59.0459C13.9081 63 20.2721 63 33 63H39C51.7279 63 58.0919 63 62.0459 59.0459C66 55.0919 66 48.7279 66 36C66 23.2721 66 16.9081 62.0459 12.9541C58.0919 9 51.7279 9 39 9Z" stroke="#141B34" stroke-width="3" stroke-linecap="round"/>
<path d="M33 30L27.7361 41.7368C26.7604 43.9123 26.2725 45 25.5 45C24.7275 45 24.2396 43.9123 23.2639 41.7368L18 30M42 45V39M42 39V33C42 31.5858 42 30.8787 42.4393 30.4393C42.8787 30 43.5858 30 45 30H49.5C51.9853 30 54 32.0147 54 34.5C54 36.9853 51.9853 39 49.5 39M42 39H49.5M49.5 39L52.5 45" stroke="#141B34" stroke-width="3" stroke-linecap="round" stroke-linejoin="round"/>
</svg>
