<svg width="72" height="72" viewBox="0 0 72 72" fill="none" xmlns="http://www.w3.org/2000/svg">
<path d="M39 9H33C20.2721 9 13.9081 9 9.95406 12.9541C6 16.9081 6 23.2721 6 36C6 48.7279 6 55.0919 9.95406 59.0459C13.9081 63 20.2721 63 33 63H39C51.7279 63 58.0919 63 62.0459 59.0459C66 55.0919 66 48.7279 66 36C66 23.2721 66 16.9081 62.0459 12.9541C58.0919 9 51.7279 9 39 9Z" stroke="#141B34" stroke-width="3" stroke-linecap="round"/>
<path d="M18 42L23.2639 30.2632C24.2396 28.0877 24.7275 27 25.5 27C26.2725 27 26.7604 28.0877 27.7361 30.2632L33 42M42 42V36M42 36V30.6C42 28.9029 42 28.0544 42.5272 27.5272C43.0544 27 43.9029 27 45.6 27H49.5C51.9853 27 54 29.0147 54 31.5C54 33.9853 51.9853 36 49.5 36M42 36H49.5M49.5 36L52.5 42" stroke="#141B34" stroke-width="3" stroke-linecap="round" stroke-linejoin="round"/>
</svg>
