<svg width="72" height="72" viewBox="0 0 72 72" fill="none" xmlns="http://www.w3.org/2000/svg">
<path d="M51 27H21C15.3923 27 12.5885 27 10.5 28.3263C9.13183 29.1953 7.99569 30.445 7.20577 31.95C6 34.2473 6 37.3315 6 43.5C6 49.6685 6 52.7527 7.20577 55.05C7.99569 56.555 9.13183 57.8047 10.5 58.6737C12.5885 60 15.3923 60 21 60C22.84 60 23.7599 60 24.6309 59.8586C26.9549 59.4815 29.1271 58.3624 30.8782 56.64C31.5345 55.9944 32.1235 55.217 33.3014 53.6622L34.3039 52.3389C34.9002 51.5517 35.1984 51.1581 35.5628 51.0041C35.8655 50.8762 36.1978 50.8596 36.5098 50.9568C36.8854 51.0739 37.2147 51.4362 37.8734 52.1608L40.7574 55.3331C41.4728 56.1201 41.8305 56.5136 42.2027 56.8612C44.1168 58.6494 46.4927 59.7319 48.9957 59.9564C49.4823 60 49.9882 60 51 60C56.6077 60 59.4115 60 61.5 58.6737C62.8682 57.8047 64.0043 56.555 64.7942 55.05C66 52.7527 66 49.6685 66 43.5C66 37.3315 66 34.2473 64.7942 31.95C64.0043 30.445 62.8682 29.1953 61.5 28.3263C59.4115 27 56.6077 27 51 27Z" stroke="#141B34" stroke-width="3" stroke-linecap="round"/>
<path d="M48 39H54" stroke="#141B34" stroke-width="3" stroke-linecap="round"/>
<path d="M66 45V37.3567C66 34.4168 66 32.9468 65.768 31.5258C65.6533 30.823 65.4966 30.1314 65.2991 29.4566C64.8999 28.0923 64.281 26.8318 63.0435 24.3108C60.5629 19.2578 59.3226 16.7313 57.5144 15.0342C56.6267 14.201 55.6479 13.5236 54.6066 13.0219C52.4856 12 50.0749 12 45.2536 12H26.7464C21.9251 12 19.5144 12 17.3934 13.0219C16.3521 13.5236 15.3733 14.201 14.4856 15.0342C12.6774 16.7313 11.4371 19.2578 8.95651 24.3108C7.71893 26.8318 7.10014 28.0923 6.70091 29.4566C6.50344 30.1314 6.34672 30.823 6.23198 31.5258C6 32.9468 6 34.4168 6 37.3567V45" stroke="#141B34" stroke-width="3" stroke-linecap="round"/>
</svg>
