<svg width="72" height="72" viewBox="0 0 72 72" fill="none" xmlns="http://www.w3.org/2000/svg">
<path d="M66 36H65.9731M54.0269 36H54" stroke="#141B34" stroke-width="3" stroke-linecap="round" stroke-linejoin="round"/>
<path d="M31.5318 22.5L31.5049 22.5" stroke="#141B34" stroke-width="3" stroke-linecap="round" stroke-linejoin="round"/>
<path d="M6 36C6 50.9117 17.8282 63 32.4191 63C39.8198 63 46.5098 59.8901 51.3061 54.8792C53.2277 52.8715 54.1886 51.8676 53.9693 50.2255C53.7499 48.5834 52.3583 47.7624 49.5751 46.1206L47.3013 44.7793C40.6911 40.8798 37.3859 38.93 37.3859 36C37.3859 33.07 40.6911 31.1202 47.3013 27.2207L49.5751 25.8794C52.3583 24.2376 53.7499 23.4166 53.9693 21.7745C54.1886 20.1324 53.2277 19.1285 51.3061 17.1208C46.5098 12.1099 39.8198 9 32.4191 9C17.8282 9 6 21.0883 6 36Z" stroke="#141B34" stroke-width="3"/>
</svg>
