<svg width="152" height="152" viewBox="0 0 152 152" fill="none" xmlns="http://www.w3.org/2000/svg">
<path d="M72.1351 71.8775C70.8117 70.8807 68.9307 71.1453 67.9338 72.4687C66.9369 73.7921 67.2016 75.6731 68.525 76.67L72.1351 71.8775ZM83.0102 87.5813C84.3335 88.5782 86.2145 88.3135 87.2114 86.9901C88.2083 85.6667 87.9436 83.7858 86.6202 82.7889L83.0102 87.5813ZM41.4784 102.375C40.5808 103.767 40.9821 105.624 42.3747 106.522C43.7674 107.419 45.624 107.018 46.5216 105.625L41.4784 102.375ZM64.8799 77.142C65.7775 75.7494 65.3762 73.8928 63.9835 72.9952C62.5909 72.0975 60.7343 72.4989 59.8367 73.8915L64.8799 77.142ZM91.0365 83.8771C90.3141 85.3682 90.9372 87.1626 92.4283 87.8849C93.9194 88.6073 95.7137 87.9842 96.4361 86.4931L91.0365 83.8771ZM106.7 65.308C107.422 63.8169 106.799 62.0226 105.308 61.3002C103.817 60.5778 102.023 61.2009 101.3 62.692L106.7 65.308ZM112 115C113.657 115 115 113.657 115 112C115 110.343 113.657 109 112 109V115ZM43 40C43 38.3431 41.6569 37 40 37C38.3431 37 37 38.3431 37 40H43ZM44.1005 107.899L41.9792 110.021L41.9792 110.021L44.1005 107.899ZM69 70C69 71.6569 67.6569 73 66 73V79C70.9706 79 75 74.9706 75 70H69ZM66 73C64.3431 73 63 71.6569 63 70H57C57 74.9706 61.0294 79 66 79V73ZM63 70C63 68.3431 64.3431 67 66 67V61C61.0294 61 57 65.0294 57 70H63ZM66 67C67.6569 67 69 68.3431 69 70H75C75 65.0294 70.9706 61 66 61V67ZM93 90C93 91.6569 91.6569 93 90 93V99C94.9706 99 99 94.9706 99 90H93ZM90 93C88.3431 93 87 91.6569 87 90H81C81 94.9706 85.0294 99 90 99V93ZM87 90C87 88.3431 88.3431 87 90 87V81C85.0294 81 81 85.0294 81 90H87ZM90 87C91.6569 87 93 88.3431 93 90H99C99 85.0294 94.9706 81 90 81V87ZM109 58C109 59.6569 107.657 61 106 61V67C110.971 67 115 62.9706 115 58H109ZM106 61C104.343 61 103 59.6569 103 58H97C97 62.9706 101.029 67 106 67V61ZM103 58C103 56.3431 104.343 55 106 55V49C101.029 49 97 53.0294 97 58H103ZM106 55C107.657 55 109 56.3431 109 58H115C115 53.0294 110.971 49 106 49V55ZM68.525 76.67L83.0102 87.5813L86.6202 82.7889L72.1351 71.8775L68.525 76.67ZM46.5216 105.625L64.8799 77.142L59.8367 73.8915L41.4784 102.375L46.5216 105.625ZM96.4361 86.4931L106.7 65.308L101.3 62.692L91.0365 83.8771L96.4361 86.4931ZM112 109H68V115H112V109ZM43 84V40H37V84H43ZM68 109C61.3155 109 56.604 108.994 53.0379 108.514C49.5582 108.046 47.6218 107.178 46.2218 105.778L41.9792 110.021C44.6797 112.721 48.0934 113.903 52.2385 114.461C56.2972 115.006 61.4851 115 68 115V109ZM37 84C37 90.5149 36.9936 95.7028 37.5393 99.7615C38.0966 103.907 39.2786 107.32 41.9792 110.021L46.2218 105.778C44.8219 104.378 43.9536 102.442 43.4858 98.9621C43.0064 95.396 43 90.6845 43 84H37Z" fill="url(#paint0_linear_2482_15959)"/>
<rect x="4" y="4" width="144" height="144" rx="72" stroke="url(#paint1_linear_2482_15959)" stroke-width="8"/>
<defs>
<linearGradient id="paint0_linear_2482_15959" x1="4.44097" y1="75.7795" x2="76" y2="147.779" gradientUnits="userSpaceOnUse">
<stop stop-color="#9168CD"/>
<stop offset="0.424673" stop-color="#5556FF"/>
<stop offset="0.73499" stop-color="#45ADCD"/>
<stop offset="1" stop-color="#3EC4CD"/>
</linearGradient>
<linearGradient id="paint1_linear_2482_15959" x1="-75.0691" y1="75.5345" x2="76.0001" y2="227.534" gradientUnits="userSpaceOnUse">
<stop stop-color="#9168CD"/>
<stop offset="0.424673" stop-color="#5556FF"/>
<stop offset="0.73499" stop-color="#45ADCD"/>
<stop offset="1" stop-color="#3EC4CD"/>
</linearGradient>
</defs>
</svg>
