<svg width="110" height="110" viewBox="0 0 110 110" fill="none" xmlns="http://www.w3.org/2000/svg">
<path d="M25.2365 50.9994L22.6986 49.3996L25.2365 50.9994ZM84.7661 50.9993L87.304 49.3996L87.304 49.3996L84.7661 50.9993ZM74.4793 34.6802L71.9415 36.2799L71.9415 36.2799L74.4793 34.6802ZM35.5233 34.6802L38.0611 36.2799L35.5233 34.6802ZM16.043 65.75C14.3861 65.75 13.043 67.0931 13.043 68.75C13.043 70.4069 14.3861 71.75 16.043 71.75V65.75ZM36.668 71.75C38.3248 71.75 39.668 70.4069 39.668 68.75C39.668 67.0931 38.3248 65.75 36.668 65.75V71.75ZM32.0846 38.25C30.4278 38.25 29.0846 39.5931 29.0846 41.25C29.0846 42.9069 30.4278 44.25 32.0846 44.25V38.25ZM77.918 44.25C79.5748 44.25 80.918 42.9069 80.918 41.25C80.918 39.5931 79.5748 38.25 77.918 38.25V44.25ZM73.0016 57.3109C71.7466 56.2292 69.8523 56.3697 68.7706 57.6247C67.6889 58.8797 67.8293 60.774 69.0843 61.8557L73.0016 57.3109ZM76.6646 64.4288L74.706 66.7012L74.706 66.7012L76.6646 64.4288ZM76.6646 73.0712L74.706 70.7988L74.706 70.7988L76.6646 73.0712ZM69.0843 75.6443C67.8293 76.726 67.6889 78.6203 68.7706 79.8753C69.8523 81.1303 71.7466 81.2708 73.0016 80.1891L69.0843 75.6443ZM59.2516 61.8557C60.5066 60.774 60.6471 58.8797 59.5654 57.6247C58.4836 56.3697 56.5893 56.2292 55.3343 57.3109L59.2516 61.8557ZM51.6713 64.4288L53.63 66.7012L53.63 66.7012L51.6713 64.4288ZM51.6713 73.0712L53.63 70.7988L53.63 70.7988L51.6713 73.0712ZM55.3343 80.1891C56.5893 81.2708 58.4836 81.1303 59.5654 79.8753C60.6471 78.6203 60.5066 76.726 59.2516 75.6443L55.3343 80.1891ZM71.9415 36.2799L82.2282 52.5991L87.304 49.3996L77.0172 33.0804L71.9415 36.2799ZM61.3925 93.25H48.6101V99.25H61.3925V93.25ZM27.7744 52.5991L38.0611 36.2799L32.9854 33.0804L22.6986 49.3996L27.7744 52.5991ZM48.6101 93.25C37.0708 93.25 28.7762 93.2413 22.8479 92.3261C16.9566 91.4166 14.328 89.7466 13.0132 87.2012L7.6824 89.9548C10.3305 95.0815 15.3999 97.2474 21.9325 98.2559C28.4281 99.2587 37.2832 99.25 48.6101 99.25V93.25ZM22.6986 49.3996C16.4675 59.2849 11.6085 66.9791 8.85264 73.168C6.09387 79.3634 5.05942 84.8768 7.6824 89.9548L13.0132 87.2012C11.6734 84.6073 11.7994 81.3002 14.3338 75.6087C16.871 69.9108 21.4379 62.6516 27.7744 52.5991L22.6986 49.3996ZM82.2282 52.5991C88.5647 62.6516 93.1316 69.9108 95.6688 75.6087C98.2032 81.3002 98.3292 84.6073 96.9894 87.2012L102.32 89.9548C104.943 84.8768 103.909 79.3634 101.15 73.168C98.3941 66.9791 93.5351 59.2849 87.304 49.3996L82.2282 52.5991ZM61.3925 99.25C72.7194 99.25 81.5745 99.2587 88.0701 98.2559C94.6027 97.2474 99.6721 95.0815 102.32 89.9548L96.9894 87.2012C95.6746 89.7466 93.046 91.4166 87.1547 92.3261C81.2264 93.2413 72.9318 93.25 61.3925 93.25V99.25ZM77.0172 33.0804C72.6722 26.1873 69.2395 20.7271 66.0784 17.0323C62.8935 13.3097 59.4626 10.75 55.0013 10.75L55.0013 16.75C56.8248 16.75 58.7352 17.6787 61.5192 20.9328C64.327 24.2147 67.491 29.2195 71.9415 36.2799L77.0172 33.0804ZM38.0611 36.2799C42.5116 29.2195 45.6756 24.2147 48.4834 20.9328C51.2674 17.6787 53.1778 16.75 55.0013 16.75L55.0013 10.75C50.54 10.75 47.1091 13.3097 43.9242 17.0323C40.7631 20.7272 37.3304 26.1874 32.9854 33.0804L38.0611 36.2799ZM16.043 71.75H36.668V65.75H16.043V71.75ZM32.0846 44.25H77.918V38.25H32.0846V44.25ZM69.0843 61.8557L74.706 66.7012L78.6232 62.1564L73.0016 57.3109L69.0843 61.8557ZM74.706 70.7988L69.0843 75.6443L73.0016 80.1891L78.6233 75.3436L74.706 70.7988ZM74.706 66.7012C75.9545 67.7773 76.6529 68.3879 77.077 68.8671C77.4616 69.3015 77.2096 69.1832 77.2096 68.75H83.2096C83.2096 67.0512 82.3668 65.7907 81.5697 64.8902C80.8122 64.0345 79.7381 63.1173 78.6232 62.1564L74.706 66.7012ZM78.6233 75.3436C79.7381 74.3827 80.8122 73.4655 81.5697 72.6098C82.3669 71.7093 83.2096 70.4488 83.2096 68.75H77.2096C77.2096 68.3169 77.4616 68.1985 77.077 68.6329C76.6529 69.1121 75.9545 69.7227 74.706 70.7988L78.6233 75.3436ZM55.3343 57.3109L49.7127 62.1564L53.63 66.7012L59.2516 61.8557L55.3343 57.3109ZM49.7127 75.3436L55.3343 80.1891L59.2516 75.6443L53.63 70.7988L49.7127 75.3436ZM49.7127 62.1564C48.5979 63.1173 47.5237 64.0345 46.7662 64.8902C45.9691 65.7907 45.1263 67.0512 45.1263 68.75H51.1263C51.1263 69.1831 50.8744 69.3015 51.2589 68.8671C51.6831 68.3879 52.3815 67.7773 53.63 66.7012L49.7127 62.1564ZM53.63 70.7988C52.3814 69.7227 51.6831 69.1121 51.2589 68.6329C50.8744 68.1985 51.1263 68.3169 51.1263 68.75H45.1263C45.1263 70.4488 45.9691 71.7093 46.7662 72.6098C47.5237 73.4655 48.5978 74.3827 49.7127 75.3436L53.63 70.7988Z" fill="url(#paint0_linear_2098_14995)"/>
<defs>
<linearGradient id="paint0_linear_2098_14995" x1="-36.1039" y1="54.7473" x2="45.3853" y2="145.849" gradientUnits="userSpaceOnUse">
<stop stop-color="#9168CD"/>
<stop offset="0.424673" stop-color="#5556FF"/>
<stop offset="0.73499" stop-color="#45ADCD"/>
<stop offset="1" stop-color="#3EC4CD"/>
</linearGradient>
</defs>
</svg>
