<svg width="110" height="110" viewBox="0 0 110 110" fill="none" xmlns="http://www.w3.org/2000/svg">
<path d="M98.5404 44.2497C100.197 44.2497 101.54 42.9065 101.54 41.2497C101.54 39.5928 100.197 38.2497 98.5404 38.2497V44.2497ZM59.582 56.583C57.9252 56.583 56.582 57.9262 56.582 59.583C56.582 61.2399 57.9252 62.583 59.582 62.583V56.583ZM77.9154 62.583C79.5722 62.583 80.9154 61.2399 80.9154 59.583C80.9154 57.9262 79.5722 56.583 77.9154 56.583V62.583ZM59.582 74.9163C57.9252 74.9163 56.582 76.2595 56.582 77.9163C56.582 79.5732 57.9252 80.9163 59.582 80.9163V74.9163ZM68.7487 80.9163C70.4056 80.9163 71.7487 79.5732 71.7487 77.9163C71.7487 76.2595 70.4056 74.9163 68.7487 74.9163V80.9163ZM32.0811 24.4997C30.4243 24.4997 29.0811 25.8428 29.0811 27.4997C29.0811 29.1565 30.4243 30.4997 32.0811 30.4997V24.4997ZM32.1223 30.4997C33.7792 30.4997 35.1223 29.1565 35.1223 27.4997C35.1223 25.8428 33.7792 24.4997 32.1223 24.4997V30.4997ZM50.4145 24.4997C48.7576 24.4997 47.4145 25.8428 47.4145 27.4997C47.4145 29.1565 48.7576 30.4997 50.4145 30.4997V24.4997ZM50.4556 30.4997C52.1125 30.4997 53.4556 29.1565 53.4556 27.4997C53.4556 25.8428 52.1125 24.4997 50.4556 24.4997V30.4997ZM44.2487 41.2497C44.2487 39.5928 42.9056 38.2497 41.2487 38.2497C39.5918 38.2497 38.2487 39.5928 38.2487 41.2497H44.2487ZM38.2487 98.5413C38.2487 100.198 39.5918 101.541 41.2487 101.541C42.9056 101.541 44.2487 100.198 44.2487 98.5413H38.2487ZM54.9987 95.5413C44.651 95.5413 37.1921 95.535 31.5099 94.771C25.9141 94.0187 22.4928 92.5814 19.9549 90.0435L15.7122 94.2861C19.5508 98.1247 24.4493 99.8757 30.7104 100.718C36.8853 101.548 44.8206 101.541 54.9987 101.541V95.5413ZM8.45703 54.9997C8.45703 65.1777 8.45066 73.1131 9.28085 79.2879C10.1226 85.5491 11.8737 90.4476 15.7122 94.2861L19.9549 90.0435C17.4169 87.5055 15.9797 84.0843 15.2273 78.4885C14.4634 72.8063 14.457 65.3474 14.457 54.9997H8.45703ZM95.5404 54.9997C95.5404 65.3474 95.534 72.8063 94.77 78.4885C94.0177 84.0843 92.5805 87.5055 90.0425 90.0435L94.2852 94.2861C98.1237 90.4476 99.8748 85.5491 100.717 79.2879C101.547 73.1131 101.54 65.1777 101.54 54.9997H95.5404ZM54.9987 101.541C65.1768 101.541 73.1121 101.548 79.287 100.718C85.5481 99.8757 90.4466 98.1247 94.2852 94.2861L90.0425 90.0435C87.5046 92.5814 84.0833 94.0187 78.4875 94.771C72.8053 95.535 65.3464 95.5413 54.9987 95.5413V101.541ZM54.9987 14.458C65.3464 14.458 72.8053 14.4644 78.4875 15.2283C84.0833 15.9807 87.5046 17.4179 90.0425 19.9559L94.2852 15.7132C90.4466 11.8746 85.5481 10.1236 79.287 9.28183C73.1121 8.45164 65.1768 8.45801 54.9987 8.45801V14.458ZM101.54 54.9997C101.54 44.8216 101.547 36.8863 100.717 30.7114C99.8748 24.4502 98.1237 19.5518 94.2852 15.7132L90.0425 19.9559C92.5805 22.4938 94.0177 25.9151 94.77 31.5109C95.534 37.193 95.5404 44.652 95.5404 54.9997H101.54ZM54.9987 8.45801C44.8206 8.45801 36.8853 8.45164 30.7104 9.28183C24.4493 10.1236 19.5508 11.8746 15.7122 15.7132L19.9549 19.9559C22.4928 17.4179 25.9141 15.9807 31.5099 15.2283C37.1921 14.4644 44.651 14.458 54.9987 14.458V8.45801ZM14.457 54.9997C14.457 44.652 14.4634 37.193 15.2273 31.5109C15.9797 25.9151 17.4169 22.4938 19.9549 19.9559L15.7122 15.7132C11.8737 19.5518 10.1226 24.4502 9.28085 30.7114C8.45066 36.8863 8.45703 44.8216 8.45703 54.9997H14.457ZM11.457 44.2497H98.5404V38.2497H11.457V44.2497ZM59.582 62.583H77.9154V56.583H59.582V62.583ZM59.582 80.9163H68.7487V74.9163H59.582V80.9163ZM32.0811 30.4997H32.1223V24.4997H32.0811V30.4997ZM50.4145 30.4997H50.4556V24.4997H50.4145V30.4997ZM38.2487 41.2497V98.5413H44.2487V41.2497H38.2487Z" fill="url(#paint0_linear_2098_14987)"/>
<defs>
<linearGradient id="paint0_linear_2098_14987" x1="-31.5513" y1="54.733" x2="54.9987" y2="141.816" gradientUnits="userSpaceOnUse">
<stop stop-color="#9168CD"/>
<stop offset="0.424673" stop-color="#5556FF"/>
<stop offset="0.73499" stop-color="#45ADCD"/>
<stop offset="1" stop-color="#3EC4CD"/>
</linearGradient>
</defs>
</svg>
