<svg width="152" height="152" viewBox="0 0 152 152" fill="none" xmlns="http://www.w3.org/2000/svg">
<path d="M42.8602 85.6377L45.778 84.9403L45.778 84.9403L42.8602 85.6377ZM45.3941 96.2388L42.4763 96.9363L42.4763 96.9363L45.3941 96.2388ZM54.6059 96.2388L57.5237 96.9363L57.5237 96.9363L54.6059 96.2388ZM57.1398 85.6377L60.0576 86.3352L60.0576 86.3352L57.1398 85.6377ZM36.9171 82.7185L39.6931 81.581L39.6931 81.581L36.9171 82.7185ZM63.0829 82.7185L60.3069 81.581L60.3069 81.581L63.0829 82.7185ZM88 48V45C87.9256 45 87.8512 45.0028 87.777 45.0083L88 48ZM88 104L87.7771 106.992C87.8512 106.997 87.9256 107 88 107V104ZM47.2053 69.4H52.7947V63.4H47.2053V69.4ZM41.4575 81.4923H39.4891V87.4923H41.4575V81.4923ZM60.5109 81.4923H58.5425V87.4923H60.5109V81.4923ZM39.9424 86.3352L42.4763 96.9363L48.312 95.5414L45.778 84.9403L39.9424 86.3352ZM57.5237 96.9363L60.0576 86.3352L54.222 84.9403L51.6881 95.5414L57.5237 96.9363ZM50 103C53.6509 103 56.6925 100.413 57.5237 96.9363L51.6881 95.5414C51.4624 96.4853 50.7061 97 50 97V103ZM42.4763 96.9363C43.3075 100.413 46.3491 103 50 103V97C49.2939 97 48.5376 96.4853 48.312 95.5414L42.4763 96.9363ZM58.5425 81.4923C56.4067 81.4923 54.6857 83.0006 54.222 84.9403L60.0576 86.3352C59.9158 86.9285 59.3515 87.4923 58.5425 87.4923V81.4923ZM41.4575 87.4923C40.6485 87.4923 40.0842 86.9285 39.9424 86.3352L45.778 84.9403C45.3143 83.0006 43.5933 81.4923 41.4575 81.4923V87.4923ZM34.1411 83.856C35.0201 86.0011 37.0911 87.4923 39.4891 87.4923V81.4923C39.5601 81.4923 39.6177 81.5157 39.6519 81.5393C39.6851 81.5622 39.6937 81.5824 39.6931 81.581L34.1411 83.856ZM60.3069 81.581C60.3063 81.5824 60.3149 81.5622 60.3481 81.5393C60.3823 81.5157 60.4399 81.4923 60.5109 81.4923V87.4923C62.9089 87.4923 64.9799 86.0011 65.8589 83.856L60.3069 81.581ZM52.7947 69.4C58.4952 69.4 62.7417 75.6392 60.3069 81.581L65.8589 83.856C69.7551 74.3478 63.1658 63.4 52.7947 63.4V69.4ZM47.2053 63.4C36.8342 63.4 30.2449 74.3477 34.1411 83.856L39.6931 81.581C37.2583 75.6392 41.5048 69.4 47.2053 69.4V63.4ZM54 59.2C54 61.5998 52.13 63.4 50 63.4V69.4C55.602 69.4 60 64.7531 60 59.2H54ZM50 63.4C47.87 63.4 46 61.5998 46 59.2H40C40 64.7531 44.398 69.4 50 69.4V63.4ZM46 59.2C46 56.8002 47.87 55 50 55V49C44.398 49 40 53.6469 40 59.2H46ZM50 55C52.13 55 54 56.8002 54 59.2H60C60 53.6469 55.602 49 50 49V55ZM104 57C101.087 57 99.2036 56.9936 97.8161 56.8071C96.5149 56.6321 96.1071 56.3497 95.8787 56.1213L91.636 60.364C93.165 61.8929 95.0501 62.4892 97.0166 62.7536C98.8969 63.0064 101.256 63 104 63V57ZM89 48C89 50.7436 88.9936 53.1031 89.2464 54.9834C89.5108 56.9499 90.1071 58.835 91.636 60.364L95.8787 56.1213C95.6503 55.8929 95.3679 55.4851 95.1929 54.1839C95.0064 52.7964 95 50.9132 95 48H89ZM113 48C113 50.9132 112.994 52.7964 112.807 54.1839C112.632 55.4851 112.35 55.8929 112.121 56.1213L116.364 60.364C117.893 58.835 118.489 56.9499 118.754 54.9834C119.006 53.1031 119 50.7436 119 48H113ZM104 63C106.744 63 109.103 63.0064 110.983 62.7536C112.95 62.4892 114.835 61.8929 116.364 60.364L112.121 56.1213C111.893 56.3497 111.485 56.6321 110.184 56.8071C108.796 56.9936 106.913 57 104 57V63ZM104 39C106.913 39 108.796 39.0064 110.184 39.1929C111.485 39.3679 111.893 39.6503 112.121 39.8787L116.364 35.636C114.835 34.1071 112.95 33.5108 110.983 33.2464C109.103 32.9936 106.744 33 104 33V39ZM119 48C119 45.2564 119.006 42.8969 118.754 41.0166C118.489 39.0501 117.893 37.165 116.364 35.636L112.121 39.8787C112.35 40.1071 112.632 40.5149 112.807 41.8161C112.994 43.2036 113 45.0868 113 48H119ZM104 33C101.256 33 98.8969 32.9936 97.0166 33.2464C95.0501 33.5108 93.165 34.1071 91.636 35.636L95.8787 39.8787C96.1071 39.6503 96.5149 39.3679 97.8161 39.1929C99.2036 39.0064 101.087 39 104 39V33ZM95 48C95 45.0868 95.0064 43.2036 95.1929 41.8161C95.3679 40.5149 95.6503 40.1071 95.8787 39.8787L91.636 35.636C90.1071 37.165 89.5108 39.0501 89.2464 41.0166C88.9936 42.8969 89 45.2564 89 48H95ZM104 113C101.087 113 99.2036 112.994 97.8161 112.807C96.5149 112.632 96.1071 112.35 95.8787 112.121L91.636 116.364C93.165 117.893 95.0501 118.489 97.0166 118.754C98.8969 119.006 101.256 119 104 119V113ZM89 104C89 106.744 88.9936 109.103 89.2464 110.983C89.5108 112.95 90.1071 114.835 91.636 116.364L95.8787 112.121C95.6503 111.893 95.3679 111.485 95.1929 110.184C95.0064 108.796 95 106.913 95 104H89ZM113 104C113 106.913 112.994 108.796 112.807 110.184C112.632 111.485 112.35 111.893 112.121 112.121L116.364 116.364C117.893 114.835 118.489 112.95 118.754 110.983C119.006 109.103 119 106.744 119 104H113ZM104 119C106.744 119 109.103 119.006 110.983 118.754C112.95 118.489 114.835 117.893 116.364 116.364L112.121 112.121C111.893 112.35 111.485 112.632 110.184 112.807C108.796 112.994 106.913 113 104 113V119ZM104 95C106.913 95 108.796 95.0064 110.184 95.1929C111.485 95.3679 111.893 95.6503 112.121 95.8787L116.364 91.636C114.835 90.1071 112.95 89.5108 110.983 89.2464C109.103 88.9936 106.744 89 104 89V95ZM119 104C119 101.256 119.006 98.8969 118.754 97.0166C118.489 95.0501 117.893 93.165 116.364 91.636L112.121 95.8787C112.35 96.1071 112.632 96.5149 112.807 97.8161C112.994 99.2036 113 101.087 113 104H119ZM104 89C101.256 89 98.8969 88.9936 97.0166 89.2464C95.0501 89.5108 93.165 90.1071 91.636 91.636L95.8787 95.8787C96.1071 95.6503 96.5149 95.3679 97.8161 95.1929C99.2036 95.0064 101.087 95 104 95V89ZM95 104C95 101.087 95.0064 99.2036 95.1929 97.8161C95.3679 96.5149 95.6503 96.1071 95.8787 95.8787L91.636 91.636C90.1071 93.165 89.5108 95.0501 89.2464 97.0166C88.9936 98.8969 89 101.256 89 104H95ZM79 85.3889V66.6111H73V85.3889H79ZM79 66.6111C79 59.6302 79.6064 56.0075 80.8643 53.9957C81.8685 52.3895 83.6335 51.3337 88.2229 50.9917L87.777 45.0083C82.5546 45.3975 78.3195 46.748 75.7768 50.8149C73.4876 54.4763 73 59.7935 73 66.6111H79ZM73 85.3889C73 92.2065 73.4876 97.5237 75.7768 101.185C78.3195 105.252 82.5546 106.603 87.7771 106.992L88.2229 101.008C83.6335 100.666 81.8685 99.6105 80.8643 98.0043C79.6064 95.9925 79 92.3698 79 85.3889H73ZM88 51H92V45H88V51ZM88 107H92V101H88V107Z" fill="url(#paint0_linear_2483_15965)"/>
<rect x="4" y="4" width="144" height="144" rx="72" stroke="url(#paint1_linear_2483_15965)" stroke-width="8"/>
<defs>
<linearGradient id="paint0_linear_2483_15965" x1="-3.51004" y1="75.755" x2="76" y2="155.755" gradientUnits="userSpaceOnUse">
<stop stop-color="#9168CD"/>
<stop offset="0.424673" stop-color="#5556FF"/>
<stop offset="0.73499" stop-color="#45ADCD"/>
<stop offset="1" stop-color="#3EC4CD"/>
</linearGradient>
<linearGradient id="paint1_linear_2483_15965" x1="-75.0691" y1="75.5345" x2="76.0001" y2="227.534" gradientUnits="userSpaceOnUse">
<stop stop-color="#9168CD"/>
<stop offset="0.424673" stop-color="#5556FF"/>
<stop offset="0.73499" stop-color="#45ADCD"/>
<stop offset="1" stop-color="#3EC4CD"/>
</linearGradient>
</defs>
</svg>
