<svg width="110" height="110" viewBox="0 0 110 110" fill="none" xmlns="http://www.w3.org/2000/svg">
<path d="M14.4478 95.174L11.6761 96.322L11.6761 96.322L14.4478 95.174ZM19.4087 100.135L18.2607 102.907L18.2607 102.907L19.4087 100.135ZM19.4087 74.0305L18.2607 71.2588L18.2607 71.2588L19.4087 74.0305ZM14.4478 78.9914L11.6761 77.8434L14.4478 78.9914ZM96.25 76.3327C97.9069 76.3327 99.25 74.9895 99.25 73.3327C99.25 71.6758 97.9069 70.3327 96.25 70.3327V76.3327ZM96.25 103.833C97.9069 103.833 99.25 102.49 99.25 100.833C99.25 99.1758 97.9069 97.8327 96.25 97.8327V103.833ZM55 31.722L53.6351 34.3935C54.4923 34.8315 55.5077 34.8315 56.3649 34.3935L55 31.722ZM65 73.3327L65 70.3327L64.9999 70.3327L65 73.3327ZM52 29.791C52 31.4479 53.3431 32.791 55 32.791C56.6569 32.791 58 31.4479 58 29.791H52ZM43.5328 10.9327C41.9772 10.3623 40.2538 11.161 39.6834 12.7166C39.113 14.2722 39.9117 15.9956 41.4672 16.566L43.5328 10.9327ZM57.5 27.4993H54.5C54.5 28.4863 54.9854 29.4101 55.7982 29.97C56.611 30.5298 57.6471 30.6541 58.5693 30.3023L57.5 27.4993ZM71.0078 9.16602L73.8 8.06882C73.4282 7.12284 72.6028 6.42941 71.6069 6.22644C70.611 6.02347 69.58 6.33857 68.8677 7.06363L71.0078 9.16602ZM10.75 87.0827C10.75 89.1772 10.7484 90.8983 10.8442 92.3025C10.9418 93.7336 11.1506 95.0532 11.6761 96.322L17.2194 94.0259C17.0472 93.6101 16.9071 93.0197 16.8303 91.8941C16.7516 90.7415 16.75 89.2593 16.75 87.0827H10.75ZM27.5 97.8327C25.3234 97.8327 23.8412 97.8311 22.6886 97.7524C21.563 97.6756 20.9726 97.5355 20.5568 97.3633L18.2607 102.907C19.5294 103.432 20.8491 103.641 22.2802 103.739C23.6843 103.834 25.4055 103.833 27.5 103.833V97.8327ZM11.6761 96.322C12.911 99.3032 15.2795 101.672 18.2607 102.907L20.5568 97.3633C19.0458 96.7374 17.8453 95.5369 17.2194 94.0259L11.6761 96.322ZM27.5 70.3327C25.4055 70.3327 23.6843 70.3311 22.2802 70.4269C20.8491 70.5245 19.5294 70.7333 18.2607 71.2588L20.5568 76.8021C20.9726 76.6299 21.563 76.4897 22.6886 76.4129C23.8412 76.3343 25.3234 76.3327 27.5 76.3327V70.3327ZM16.75 87.0827C16.75 84.9061 16.7516 83.4239 16.8303 82.2713C16.9071 81.1457 17.0472 80.5553 17.2194 80.1395L11.6761 77.8434C11.1506 79.1121 10.9418 80.4318 10.8442 81.8629C10.7484 83.267 10.75 84.9882 10.75 87.0827H16.75ZM18.2607 71.2588C15.2795 72.4937 12.911 74.8622 11.6761 77.8434L17.2194 80.1395C17.8453 78.6285 19.0458 77.428 20.5568 76.8021L18.2607 71.2588ZM96.25 70.3327H91.6667V76.3327H96.25V70.3327ZM91.6667 70.3327H27.5V76.3327H91.6667V70.3327ZM27.5 103.833H91.6667V97.8327H27.5V103.833ZM91.6667 103.833H96.25V97.8327H91.6667V103.833ZM91.6667 97.8327C90.4505 97.8327 88.9823 97.0932 87.681 95.1413C86.3937 93.2104 85.5 90.37 85.5 87.0827H79.5C79.5 91.3893 80.6583 95.4239 82.6887 98.4695C84.7051 101.494 87.8202 103.833 91.6667 103.833V97.8327ZM85.5 87.0827C85.5 83.7954 86.3937 80.955 87.681 79.0241C88.9823 77.0722 90.4505 76.3327 91.6667 76.3327V70.3327C87.8202 70.3327 84.7051 72.6713 82.6887 75.6959C80.6583 78.7414 79.5 82.7761 79.5 87.0827H85.5ZM55 31.722C56.3649 29.0505 56.364 29.05 56.3629 29.0495C56.3624 29.0492 56.3612 29.0486 56.3602 29.0481C56.3582 29.0471 56.3557 29.0458 56.3529 29.0444C56.3472 29.0415 56.3398 29.0377 56.3308 29.0332C56.3127 29.0241 56.2881 29.0117 56.257 28.9963C56.195 28.9654 56.1072 28.9222 55.9956 28.8683C55.7724 28.7606 55.4531 28.6097 55.0512 28.4285C54.2486 28.0668 53.1102 27.5811 51.7456 27.0754C49.047 26.0754 45.3292 24.946 41.5186 24.6035C37.7649 24.2661 33.4348 24.6504 29.9935 27.2388C26.419 29.9275 24.5 34.4488 24.5 40.8285H30.5C30.5 35.6298 32.0185 33.2236 33.6002 32.0338C35.3152 30.7438 37.8601 30.2988 40.9814 30.5794C44.0458 30.8548 47.203 31.7908 49.6607 32.7015C50.8742 33.1512 51.8842 33.5824 52.5855 33.8985C52.9356 34.0563 53.207 34.1847 53.3867 34.2714C53.4765 34.3148 53.5432 34.3477 53.5852 34.3685C53.6062 34.379 53.621 34.3864 53.6294 34.3906C53.6335 34.3928 53.6361 34.3941 53.6371 34.3946C53.6376 34.3948 53.6376 34.3948 53.6373 34.3947C53.6371 34.3946 53.6366 34.3943 53.6365 34.3943C53.6358 34.3939 53.6351 34.3935 55 31.722ZM24.5 40.8285C24.5 52.9603 27.784 61.7147 31.9419 67.5127C34.012 70.3994 36.3025 72.5565 38.5082 74.0135C40.6435 75.424 42.94 76.3327 45 76.3327V70.3327C44.5665 70.3327 43.4287 70.0729 41.8152 69.0071C40.2721 67.9879 38.4993 66.3609 36.8178 64.0161C33.4725 59.3513 30.5 51.8537 30.5 40.8285H24.5ZM45 76.3327C48.1397 76.3327 50.4993 74.4802 51.9118 73.4223C53.6817 72.0968 54.3526 71.7095 55 71.7095V65.7095C51.9721 65.7095 49.6319 67.6337 48.3152 68.6198C46.6411 69.8736 45.8383 70.3327 45 70.3327V76.3327ZM55 31.722C56.3649 34.3935 56.3642 34.3939 56.3635 34.3943C56.3634 34.3943 56.3629 34.3946 56.3627 34.3947C56.3624 34.3948 56.3624 34.3948 56.3629 34.3946C56.3639 34.3941 56.3665 34.3928 56.3706 34.3906C56.379 34.3864 56.3938 34.379 56.4148 34.3685C56.4568 34.3477 56.5235 34.3148 56.6133 34.2714C56.793 34.1847 57.0644 34.0563 57.4145 33.8985C58.1158 33.5824 59.1258 33.1512 60.3393 32.7015C62.797 31.7908 65.9542 30.8548 69.0186 30.5794C72.1399 30.2988 74.6848 30.7438 76.3998 32.0338C77.9815 33.2236 79.5 35.6298 79.5 40.8285H85.5C85.5 34.4488 83.581 29.9275 80.0065 27.2388C76.5652 24.6504 72.2351 24.2661 68.4814 24.6035C64.6708 24.946 60.953 26.0754 58.2544 27.0754C56.8898 27.5811 55.7514 28.0668 54.9488 28.4285C54.5469 28.6097 54.2276 28.7606 54.0044 28.8683C53.8928 28.9222 53.8051 28.9654 53.743 28.9963C53.7119 29.0117 53.6873 29.0241 53.6692 29.0332C53.6602 29.0377 53.6528 29.0415 53.6471 29.0444C53.6443 29.0458 53.6418 29.0471 53.6398 29.0481C53.6388 29.0486 53.6376 29.0492 53.6371 29.0495C53.636 29.05 53.6351 29.0505 55 31.722ZM79.5 40.8285C79.5 51.8537 76.5275 59.3513 73.1822 64.0161C71.5007 66.3609 69.7279 67.9879 68.1848 69.0071C66.5713 70.0729 65.4335 70.3327 65 70.3327V76.3327C67.06 76.3327 69.3565 75.424 71.4918 74.0135C73.6975 72.5565 75.988 70.3994 78.0581 67.5127C82.216 61.7147 85.5 52.9603 85.5 40.8285H79.5ZM64.9999 70.3327C63.5948 70.3327 62.7111 69.7673 61.4006 68.6973C60.2871 67.7881 58.1354 65.7095 55 65.7095V71.7095C55.54 71.7095 55.8883 71.9425 57.6059 73.3449C59.1266 74.5866 61.4052 76.3328 65.0001 76.3327L64.9999 70.3327ZM58 29.791C58 22.8404 54.1764 18.0609 50.6591 15.1592C48.8935 13.7026 47.142 12.6607 45.836 11.9823C45.1795 11.6413 44.6262 11.3873 44.2272 11.2148C44.0274 11.1285 43.8655 11.0623 43.7479 11.0155C43.689 10.9921 43.6412 10.9736 43.6051 10.9598C43.587 10.953 43.5719 10.9473 43.5598 10.9428C43.5538 10.9405 43.5485 10.9385 43.544 10.9369C43.5417 10.936 43.5397 10.9353 43.5378 10.9346C43.5369 10.9342 43.5356 10.9338 43.5351 10.9336C43.5339 10.9331 43.5328 10.9327 42.5 13.7493C41.4672 16.566 41.4662 16.5656 41.4652 16.5652C41.4649 16.5651 41.4639 16.5648 41.4633 16.5645C41.4622 16.5641 41.4613 16.5638 41.4606 16.5635C41.4591 16.563 41.4583 16.5627 41.4583 16.5627C41.4582 16.5627 41.461 16.5637 41.4667 16.5658C41.4779 16.5701 41.5002 16.5787 41.5329 16.5917C41.5983 16.6177 41.705 16.6612 41.847 16.7225C42.1316 16.8455 42.5548 17.0391 43.0702 17.3068C44.108 17.8458 45.4815 18.6659 46.8409 19.7874C49.5736 22.042 52 25.2833 52 29.791H58ZM60.5 27.4993C60.5 23.1367 61.0428 20.4257 61.7508 18.7086C62.4189 17.0886 63.2575 16.2886 64.133 15.7521C65.1752 15.1134 66.273 14.8109 67.968 14.2315C69.501 13.7075 71.4954 12.9505 73.1479 11.2684L68.8677 7.06363C68.2689 7.67322 67.4492 8.06799 66.0273 8.55399C64.7676 8.98461 62.7698 9.5504 60.9978 10.6364C59.0592 11.8245 57.3651 13.6056 56.204 16.4212C55.0829 19.1398 54.5 22.7191 54.5 27.4993H60.5ZM58.5693 30.3023C61.5306 29.1727 64.2781 28.1264 66.589 27.0262C68.8884 25.9314 71.0164 24.6663 72.6149 22.9776C74.2967 21.2009 75.3111 19.0406 75.4761 16.4095C75.6338 13.8949 75.0048 11.1348 73.8 8.06882L68.2156 10.2632C69.2621 12.9264 69.5683 14.7511 69.4878 16.0339C69.4147 17.2003 69.0176 18.05 68.2575 18.8529C67.4142 19.7438 66.0701 20.6279 64.0097 21.6088C61.9609 22.5843 59.4613 23.5403 56.4307 24.6964L58.5693 30.3023Z" fill="url(#paint0_linear_2587_15765)"/>
<defs>
<linearGradient id="paint0_linear_2587_15765" x1="-26.9947" y1="54.7186" x2="63.6657" y2="136.816" gradientUnits="userSpaceOnUse">
<stop stop-color="#9168CD"/>
<stop offset="0.424673" stop-color="#5556FF"/>
<stop offset="0.73499" stop-color="#45ADCD"/>
<stop offset="1" stop-color="#3EC4CD"/>
</linearGradient>
</defs>
</svg>
