<svg width="111" height="110" viewBox="0 0 111 110" fill="none" xmlns="http://www.w3.org/2000/svg">
<path d="M31.1586 50.286C31.0864 48.6307 29.6861 47.3473 28.0308 47.4195C26.3755 47.4917 25.0921 48.8921 25.1643 50.5473L31.1586 50.286ZM29.3129 76.8275L26.3158 76.9582L29.3129 76.8275ZM86.1586 50.5473C86.2308 48.8921 84.9474 47.4917 83.2921 47.4195C81.6368 47.3473 80.2365 48.6307 80.1643 50.286L86.1586 50.5473ZM82.01 76.8275L85.0072 76.9582V76.9582L82.01 76.8275ZM32.1355 81.6035L33.883 79.1649H33.883L32.1355 81.6035ZM79.1874 81.6035L77.4399 79.1649L79.1874 81.6035ZM81.9654 77.1624L79.0445 76.4782L79.0444 76.4782L81.9654 77.1624ZM29.3575 77.1624L26.4366 77.8466L29.3575 77.1624ZM97.6198 43.5417C97.6198 41.8848 96.2766 40.5417 94.6198 40.5417C92.9629 40.5417 91.6198 41.8848 91.6198 43.5417H97.6198ZM88.0722 90.5824L85.1534 89.889L88.0722 90.5824ZM101.167 90.5824L104.086 89.889L101.167 90.5824ZM12.8281 36.6667C12.8281 37.0201 12.7049 37.1327 12.8252 36.9305C12.934 36.7478 13.1618 36.4442 13.5772 36.0231C14.4088 35.1801 15.7087 34.1488 17.4446 32.9799C20.8942 30.6571 25.6654 28.0563 30.784 25.6086C35.8892 23.1673 41.2495 20.9215 45.8407 19.2934C48.1375 18.4789 50.2094 17.8307 51.9406 17.3896C53.725 16.935 54.961 16.75 55.6615 16.75V10.75C54.1919 10.75 52.3681 11.089 50.4592 11.5753C48.4972 12.0752 46.2424 12.7849 43.8354 13.6384C39.0192 15.3463 33.4636 17.6765 28.1955 20.1957C22.9408 22.7084 17.8812 25.4525 14.0933 28.003C12.2105 29.2709 10.5399 30.5584 9.30579 31.8095C8.68836 32.4354 8.10946 33.1226 7.66975 33.8612C7.24162 34.5803 6.82812 35.5445 6.82812 36.6667H12.8281ZM104.495 36.6667C104.495 35.5445 104.081 34.5803 103.653 33.8612C103.213 33.1226 102.635 32.4354 102.017 31.8095C100.783 30.5584 99.1124 29.2709 97.2296 28.003C93.4417 25.4525 88.3821 22.7084 83.1274 20.1957C77.8593 17.6765 72.3037 15.3463 67.4875 13.6384C65.0805 12.7849 62.8257 12.0752 60.8637 11.5753C58.9548 11.089 57.131 10.75 55.6615 10.75V16.75C56.3619 16.75 57.5979 16.935 59.3823 17.3896C61.1135 17.8307 63.1854 18.4789 65.4822 19.2934C70.0734 20.9215 75.4337 23.1673 80.5389 25.6086C85.6575 28.0563 90.4287 30.6571 93.8783 32.9799C95.6142 34.1488 96.9141 35.1801 97.7457 36.0231C98.1611 36.4442 98.3889 36.7478 98.4977 36.9305C98.618 37.1327 98.4948 37.0201 98.4948 36.6667H104.495ZM98.4948 36.6667C98.4948 36.3132 98.618 36.2007 98.4977 36.4028C98.3889 36.5855 98.1611 36.8891 97.7457 37.3102C96.9141 38.1532 95.6142 39.1846 93.8783 40.3534C90.4287 42.6763 85.6575 45.277 80.5389 47.7247C75.4337 50.166 70.0734 52.4118 65.4822 54.0399C63.1854 54.8544 61.1135 55.5027 59.3823 55.9437C57.5979 56.3984 56.3619 56.5833 55.6615 56.5833V62.5833C57.131 62.5833 58.9548 62.2443 60.8637 61.758C62.8257 61.2581 65.0805 60.5484 67.4875 59.6949C72.3037 57.987 77.8593 55.6568 83.1274 53.1377C88.3821 50.6249 93.4417 47.8809 97.2296 45.3303C99.1124 44.0624 100.783 42.7749 102.017 41.5239C102.635 40.898 103.213 40.2107 103.653 39.4722C104.081 38.7531 104.495 37.7888 104.495 36.6667H98.4948ZM6.82812 36.6667C6.82812 37.7888 7.24162 38.7531 7.66975 39.4722C8.10946 40.2107 8.68836 40.898 9.30579 41.5239C10.5399 42.7749 12.2105 44.0624 14.0933 45.3303C17.8812 47.8808 22.9408 50.6249 28.1955 53.1377C33.4636 55.6568 39.0192 57.987 43.8354 59.6949C46.2424 60.5484 48.4972 61.2581 50.4592 61.758C52.3681 62.2443 54.1919 62.5833 55.6615 62.5833V56.5833C54.961 56.5833 53.725 56.3984 51.9406 55.9437C50.2094 55.5027 48.1375 54.8544 45.8407 54.0399C41.2495 52.4118 35.8892 50.166 30.784 47.7247C25.6654 45.277 20.8942 42.6763 17.4446 40.3534C15.7087 39.1846 14.4088 38.1532 13.5772 37.3102C13.1618 36.8891 12.934 36.5855 12.8252 36.4028C12.7049 36.2007 12.8281 36.3132 12.8281 36.6667H6.82812ZM25.1643 50.5473L26.3158 76.9582L32.3101 76.6968L31.1586 50.286L25.1643 50.5473ZM80.1643 50.286L79.0129 76.6968L85.0072 76.9582L86.1586 50.5473L80.1643 50.286ZM30.388 84.042C33.3916 86.1944 37.4026 87.682 41.7015 88.6413C46.0394 89.6094 50.8687 90.0833 55.6615 90.0833C60.4542 90.0833 65.2835 89.6094 69.6214 88.6413C73.9203 87.682 77.9313 86.1944 80.9349 84.042L77.4399 79.1649C75.3456 80.6658 72.2006 81.9181 68.3145 82.7854C64.4674 83.6439 60.0828 84.0833 55.6615 84.0833C51.2402 84.0833 46.8555 83.6439 43.0084 82.7854C39.1223 81.9181 35.9773 80.6658 33.883 79.1649L30.388 84.042ZM79.0444 76.4782C78.7518 77.7276 78.1698 78.6419 77.4399 79.1649L80.9349 84.042C83.1411 82.461 84.3555 80.1129 84.8863 77.8466L79.0444 76.4782ZM26.4366 77.8466C26.9674 80.1129 28.1819 82.461 30.388 84.042L33.883 79.1649C33.1531 78.6419 32.5711 77.7276 32.2785 76.4782L26.4366 77.8466ZM79.0129 76.6968C79.0149 76.6501 79.0219 76.5746 79.0445 76.4782L84.8863 77.8466C84.9604 77.5304 84.9953 77.2304 85.0072 76.9582L79.0129 76.6968ZM26.3158 76.9582C26.3276 77.2304 26.3625 77.5304 26.4366 77.8466L32.2785 76.4782C32.3011 76.5746 32.308 76.6501 32.3101 76.6968L26.3158 76.9582ZM91.6198 43.5417V75.658H97.6198V43.5417H91.6198ZM90.9909 91.2758C91.6667 88.431 92.8269 85.8409 94.0554 83.4369C95.1946 81.2075 96.635 78.7226 97.4101 76.76L91.8295 74.556C91.192 76.1703 90.1155 77.9612 88.7125 80.7066C87.3989 83.2774 85.9915 86.361 85.1534 89.889L90.9909 91.2758ZM104.086 89.889C103.248 86.361 101.841 83.2774 100.527 80.7066C99.1241 77.9612 98.0476 76.1703 97.4101 74.556L91.8295 76.76C92.6046 78.7226 94.045 81.2075 95.1842 83.4369C96.4127 85.8409 97.5728 88.431 98.2487 91.2758L104.086 89.889ZM96.0656 93.25H93.174V99.25H96.0656V93.25ZM85.1534 89.889C84.5904 92.2587 84.311 95.1869 86.3747 97.2567C87.3446 98.2295 88.5507 98.6965 89.6448 98.9392C90.7358 99.1811 91.9463 99.25 93.174 99.25V93.25C92.1154 93.25 91.4086 93.1846 90.9439 93.0815C90.4822 92.9791 90.494 92.8904 90.6237 93.0204C90.8009 93.1982 90.7732 93.3421 90.7529 93.1259C90.7265 92.8433 90.7532 92.2765 90.9909 91.2758L85.1534 89.889ZM98.2487 91.2758C98.4864 92.2765 98.5131 92.8433 98.4867 93.1259C98.4664 93.3421 98.4387 93.1982 98.6159 93.0204C98.7456 92.8904 98.7574 92.9791 98.2957 93.0815C97.8309 93.1846 97.1242 93.25 96.0656 93.25V99.25C97.2933 99.25 98.5038 99.1811 99.5948 98.9392C100.689 98.6965 101.895 98.2295 102.865 97.2567C104.929 95.1869 104.649 92.2587 104.086 89.889L98.2487 91.2758Z" fill="url(#paint0_linear_3047_12656)"/>
<defs>
<linearGradient id="paint0_linear_3047_12656" x1="-35.4438" y1="54.7473" x2="46.0454" y2="145.849" gradientUnits="userSpaceOnUse">
<stop stop-color="#9168CD"/>
<stop offset="0.424673" stop-color="#5556FF"/>
<stop offset="0.73499" stop-color="#45ADCD"/>
<stop offset="1" stop-color="#3EC4CD"/>
</linearGradient>
</defs>
</svg>
