<svg width="110" height="110" viewBox="0 0 110 110" fill="none" xmlns="http://www.w3.org/2000/svg">
<path d="M80.0426 34.5509C78.8743 33.3761 76.9748 33.3708 75.8 34.5391C74.6251 35.7074 74.6198 37.6069 75.7881 38.7817L80.0426 34.5509ZM86.3478 45.1459L84.2206 47.2613L84.2206 47.2613L86.3478 45.1459ZM86.3478 60.2701L88.475 62.3855L88.475 62.3855L86.3478 60.2701ZM75.7881 66.6343C74.6198 67.8091 74.6251 69.7086 75.8 70.8769C76.9748 72.0452 78.8743 72.0399 80.0426 70.8651L75.7881 66.6343ZM34.2092 38.7817C35.3776 37.6069 35.3723 35.7074 34.1974 34.5391C33.0226 33.3708 31.1231 33.3761 29.9548 34.5509L34.2092 38.7817ZM23.6496 45.1459L25.7768 47.2613L25.7768 47.2613L23.6496 45.1459ZM23.6496 60.2701L21.5223 62.3855L21.5223 62.3855L23.6496 60.2701ZM29.9548 70.8651C31.1231 72.0399 33.0226 72.0452 34.1974 70.8769C35.3723 69.7086 35.3776 67.8091 34.2092 66.6343L29.9548 70.8651ZM69.3205 19.2278C69.8147 17.6464 68.9333 15.9638 67.3519 15.4696C65.7704 14.9754 64.0878 15.8567 63.5936 17.4382L69.3205 19.2278ZM40.6769 90.7715C40.1827 92.3529 41.0641 94.0356 42.6455 94.5298C44.227 95.024 45.9096 94.1426 46.4038 92.5612L40.6769 90.7715ZM75.7881 38.7817L84.2206 47.2613L88.475 43.0305L80.0426 34.5509L75.7881 38.7817ZM84.2206 58.1547L75.7881 66.6343L80.0426 70.8651L88.475 62.3855L84.2206 58.1547ZM84.2206 47.2613C86.0528 49.1037 87.2099 50.2763 87.946 51.2465C88.6291 52.1468 88.6654 52.5151 88.6654 52.708H94.6654C94.6654 50.686 93.8153 49.0557 92.7259 47.6198C91.6895 46.2539 90.1879 44.7529 88.475 43.0305L84.2206 47.2613ZM88.475 62.3855C90.1879 60.6631 91.6895 59.1621 92.7259 57.7962C93.8153 56.3603 94.6654 54.73 94.6654 52.708H88.6654C88.6654 52.9009 88.6291 53.2692 87.946 54.1695C87.2099 55.1397 86.0528 56.3123 84.2206 58.1547L88.475 62.3855ZM29.9548 34.5509L21.5223 43.0305L25.7768 47.2613L34.2092 38.7817L29.9548 34.5509ZM21.5223 62.3855L29.9548 70.8651L34.2092 66.6343L25.7768 58.1547L21.5223 62.3855ZM21.5223 43.0305C19.8095 44.7529 18.3079 46.2539 17.2715 47.6198C16.1821 49.0557 15.332 50.686 15.332 52.708H21.332C21.332 52.5151 21.3683 52.1468 22.0514 51.2465C22.7875 50.2763 23.9446 49.1037 25.7768 47.2613L21.5223 43.0305ZM25.7768 58.1547C23.9446 56.3123 22.7875 55.1397 22.0514 54.1695C21.3683 53.2692 21.332 52.9009 21.332 52.708H15.332C15.332 54.73 16.1821 56.3603 17.2715 57.7962C18.3079 59.1621 19.8095 60.6631 21.5223 62.3855L25.7768 58.1547ZM63.5936 17.4382L40.6769 90.7715L46.4038 92.5612L69.3205 19.2278L63.5936 17.4382Z" fill="url(#paint0_linear_2098_15001)"/>
<defs>
<linearGradient id="paint0_linear_2098_15001" x1="-17.8855" y1="54.7751" x2="54.9987" y2="128.108" gradientUnits="userSpaceOnUse">
<stop stop-color="#9168CD"/>
<stop offset="0.424673" stop-color="#5556FF"/>
<stop offset="0.73499" stop-color="#45ADCD"/>
<stop offset="1" stop-color="#3EC4CD"/>
</linearGradient>
</defs>
</svg>
