<svg width="110" height="110" viewBox="0 0 110 110" fill="none" xmlns="http://www.w3.org/2000/svg">
<path d="M39.5872 20.4202C38.2086 21.3392 37.8361 23.2019 38.7551 24.5804C39.6742 25.959 41.5368 26.3315 42.9154 25.4125L39.5872 20.4202ZM48.1263 18.333H51.1263C51.1263 17.2266 50.5173 16.21 49.5419 15.688C48.5664 15.1659 47.3828 15.2231 46.4622 15.8369L48.1263 18.333ZM45.1263 45.833C45.1263 47.4899 46.4694 48.833 48.1263 48.833C49.7832 48.833 51.1263 47.4899 51.1263 45.833H45.1263ZM7.50387 66.2535C6.12528 67.1726 5.75276 69.0352 6.67182 70.4138C7.59088 71.7924 9.45348 72.1649 10.8321 71.2458L7.50387 66.2535ZM16.043 64.1663H19.043C19.043 63.06 18.434 62.0434 17.4585 61.5213C16.4831 60.9993 15.2994 61.0565 14.3789 61.6702L16.043 64.1663ZM13.043 91.6663C13.043 93.3232 14.3861 94.6663 16.043 94.6663C17.6998 94.6663 19.043 93.3232 19.043 91.6663H13.043ZM92.2955 20.4202C90.917 21.3392 90.5444 23.2019 91.4635 24.5804C92.3825 25.959 94.2452 26.3315 95.6237 25.4125L92.2955 20.4202ZM100.835 18.333H103.835C103.835 17.2266 103.226 16.21 102.25 15.688C101.275 15.1659 100.091 15.2231 99.1705 15.8369L100.835 18.333ZM97.8346 45.833C97.8346 47.4899 99.1778 48.833 100.835 48.833C102.491 48.833 103.835 47.4899 103.835 45.833H97.8346ZM92.2955 66.2535C90.917 67.1726 90.5444 69.0352 91.4635 70.4138C92.3825 71.7924 94.2452 72.1649 95.6237 71.2458L92.2955 66.2535ZM100.835 64.1663H103.835C103.835 63.06 103.226 62.0434 102.25 61.5213C101.275 60.9993 100.091 61.0565 99.1705 61.6702L100.835 64.1663ZM97.8346 91.6663C97.8346 93.3232 99.1778 94.6663 100.835 94.6663C102.491 94.6663 103.835 93.3232 103.835 91.6663H97.8346ZM24.5013 27.4997V36.6663H30.5013V27.4997H24.5013ZM12.168 36.6663V27.4997H6.16797V36.6663H12.168ZM18.3346 42.833C16.0892 42.833 14.707 42.8266 13.7052 42.692C12.7898 42.5689 12.6526 42.3902 12.6317 42.3693L8.38908 46.6119C9.7106 47.9334 11.325 48.4259 12.9057 48.6385C14.4002 48.8394 16.2588 48.833 18.3346 48.833V42.833ZM6.16797 36.6663C6.16797 38.7421 6.1616 40.6008 6.36252 42.0952C6.57505 43.676 7.06756 45.2904 8.38908 46.6119L12.6317 42.3693C12.6108 42.3484 12.4321 42.2112 12.309 41.2958C12.1743 40.294 12.168 38.9118 12.168 36.6663H6.16797ZM24.5013 36.6663C24.5013 38.9118 24.4949 40.294 24.3602 41.2958C24.2372 42.2112 24.0585 42.3484 24.0376 42.3693L28.2802 46.6119C29.6017 45.2904 30.0942 43.676 30.3067 42.0952C30.5077 40.6008 30.5013 38.7421 30.5013 36.6663H24.5013ZM18.3346 48.833C20.4104 48.833 22.2691 48.8394 23.7635 48.6385C25.3443 48.4259 26.9587 47.9334 28.2802 46.6119L24.0376 42.3693C24.0166 42.3902 23.8795 42.5689 22.9641 42.692C21.9623 42.8266 20.58 42.833 18.3346 42.833V48.833ZM18.3346 21.333C20.58 21.333 21.9623 21.3394 22.9641 21.4741C23.8795 21.5971 24.0166 21.7758 24.0376 21.7968L28.2802 17.5541C26.9587 16.2326 25.3443 15.7401 23.7635 15.5276C22.2691 15.3266 20.4104 15.333 18.3346 15.333V21.333ZM30.5013 27.4997C30.5013 25.4239 30.5077 23.5652 30.3067 22.0708C30.0942 20.49 29.6017 18.8756 28.2802 17.5541L24.0376 21.7968C24.0585 21.8177 24.2372 21.9548 24.3602 22.8703C24.4949 23.872 24.5013 25.2543 24.5013 27.4997H30.5013ZM18.3346 15.333C16.2588 15.333 14.4002 15.3266 12.9057 15.5276C11.325 15.7401 9.7106 16.2326 8.38908 17.5541L12.6317 21.7968C12.6526 21.7758 12.7898 21.5971 13.7052 21.4741C14.707 21.3394 16.0892 21.333 18.3346 21.333V15.333ZM12.168 27.4997C12.168 25.2543 12.1743 23.872 12.309 22.8703C12.4321 21.9548 12.6108 21.8177 12.6317 21.7968L8.38908 17.5541C7.06756 18.8756 6.57505 20.49 6.36252 22.0708C6.1616 23.5652 6.16797 25.4239 6.16797 27.4997H12.168ZM45.1263 73.333V82.4997H51.1263V73.333H45.1263ZM32.793 82.4997V73.333H26.793V82.4997H32.793ZM38.9596 88.6663C36.7142 88.6663 35.332 88.66 34.3302 88.5253C33.4148 88.4022 33.2776 88.2235 33.2567 88.2026L29.0141 92.4452C30.3356 93.7667 31.95 94.2592 33.5307 94.4718C35.0252 94.6727 36.8838 94.6663 38.9596 94.6663V88.6663ZM26.793 82.4997C26.793 84.5755 26.7866 86.4341 26.9875 87.9286C27.2001 89.5093 27.6926 91.1237 29.0141 92.4452L33.2567 88.2026C33.2358 88.1817 33.0571 88.0445 32.934 87.1291C32.7993 86.1273 32.793 84.7451 32.793 82.4997H26.793ZM45.1263 82.4997C45.1263 84.7451 45.1199 86.1273 44.9853 87.1291C44.8622 88.0445 44.6835 88.1817 44.6626 88.2026L48.9052 92.4452C50.2267 91.1237 50.7192 89.5093 50.9317 87.9286C51.1327 86.4341 51.1263 84.5755 51.1263 82.4997H45.1263ZM38.9596 94.6663C41.0354 94.6663 42.8941 94.6727 44.3885 94.4718C45.9693 94.2592 47.5837 93.7667 48.9052 92.4452L44.6626 88.2026C44.6416 88.2235 44.5045 88.4022 43.5891 88.5253C42.5873 88.66 41.205 88.6663 38.9596 88.6663V94.6663ZM38.9596 67.1663C41.2051 67.1663 42.5873 67.1727 43.5891 67.3074C44.5045 67.4305 44.6416 67.6092 44.6626 67.6301L48.9052 63.3874C47.5837 62.0659 45.9693 61.5734 44.3885 61.3609C42.8941 61.16 41.0354 61.1663 38.9596 61.1663V67.1663ZM51.1263 73.333C51.1263 71.2572 51.1327 69.3986 50.9317 67.9041C50.7192 66.3233 50.2267 64.709 48.9052 63.3874L44.6626 67.6301C44.6835 67.651 44.8622 67.7881 44.9853 68.7036C45.1199 69.7053 45.1263 71.0876 45.1263 73.333H51.1263ZM38.9596 61.1663C36.8838 61.1663 35.0252 61.16 33.5307 61.3609C31.95 61.5734 30.3356 62.0659 29.0141 63.3874L33.2567 67.6301C33.2776 67.6092 33.4148 67.4305 34.3302 67.3074C35.332 67.1727 36.7142 67.1663 38.9596 67.1663V61.1663ZM32.793 73.333C32.793 71.0876 32.7993 69.7053 32.934 68.7036C33.0571 67.7881 33.2358 67.651 33.2567 67.6301L29.0141 63.3874C27.6926 64.709 27.2001 66.3233 26.9875 67.9041C26.7866 69.3986 26.793 71.2572 26.793 73.333H32.793ZM77.2096 27.4997V36.6663H83.2096V27.4997H77.2096ZM64.8763 36.6663V27.4997H58.8763V36.6663H64.8763ZM71.043 42.833C68.7976 42.833 67.4153 42.8266 66.4135 42.692C65.4981 42.5689 65.361 42.3902 65.34 42.3693L61.0974 46.6119C62.4189 47.9334 64.0333 48.4259 65.6141 48.6385C67.1085 48.8394 68.9672 48.833 71.043 48.833V42.833ZM58.8763 36.6663C58.8763 38.7421 58.8699 40.6008 59.0709 42.0952C59.2834 43.676 59.7759 45.2904 61.0974 46.6119L65.34 42.3693C65.3191 42.3484 65.1404 42.2112 65.0174 41.2958C64.8827 40.294 64.8763 38.9118 64.8763 36.6663H58.8763ZM77.2096 36.6663C77.2096 38.9118 77.2033 40.294 77.0686 41.2958C76.9455 42.2112 76.7668 42.3483 76.7459 42.3693L80.9885 46.6119C82.3101 45.2904 82.8026 43.676 83.0151 42.0952C83.216 40.6008 83.2096 38.7421 83.2096 36.6663H77.2096ZM71.043 48.833C73.1188 48.833 74.9774 48.8394 76.4719 48.6385C78.0526 48.4259 79.667 47.9334 80.9885 46.6119L76.7459 42.3693C76.725 42.3902 76.5878 42.5689 75.6724 42.692C74.6706 42.8266 73.2884 42.833 71.043 42.833V48.833ZM71.043 21.333C73.2884 21.333 74.6706 21.3394 75.6724 21.4741C76.5878 21.5971 76.725 21.7758 76.7459 21.7968L80.9885 17.5541C79.667 16.2326 78.0526 15.7401 76.4719 15.5276C74.9774 15.3266 73.1188 15.333 71.043 15.333V21.333ZM83.2096 27.4997C83.2096 25.4239 83.216 23.5652 83.0151 22.0708C82.8026 20.49 82.3101 18.8756 80.9885 17.5541L76.7459 21.7968C76.7668 21.8177 76.9455 21.9548 77.0686 22.8703C77.2033 23.872 77.2096 25.2543 77.2096 27.4997H83.2096ZM71.043 15.333C68.9672 15.333 67.1085 15.3266 65.6141 15.5276C64.0333 15.7401 62.4189 16.2326 61.0974 17.5541L65.34 21.7968C65.361 21.7758 65.4981 21.5971 66.4135 21.4741C67.4153 21.3394 68.7976 21.333 71.043 21.333V15.333ZM64.8763 27.4997C64.8763 25.2543 64.8827 23.872 65.0174 22.8703C65.1404 21.9548 65.3191 21.8177 65.34 21.7968L61.0974 17.5541C59.7759 18.8756 59.2834 20.49 59.0709 22.0708C58.8699 23.5652 58.8763 25.4239 58.8763 27.4997H64.8763ZM77.2096 73.333V82.4997H83.2096V73.333H77.2096ZM64.8763 82.4997V73.333H58.8763V82.4997H64.8763ZM71.043 88.6663C68.7976 88.6663 67.4153 88.66 66.4135 88.5253C65.4981 88.4022 65.361 88.2235 65.34 88.2026L61.0974 92.4452C62.4189 93.7667 64.0333 94.2592 65.6141 94.4718C67.1085 94.6727 68.9672 94.6663 71.043 94.6663V88.6663ZM58.8763 82.4997C58.8763 84.5755 58.8699 86.4341 59.0709 87.9286C59.2834 89.5093 59.7759 91.1237 61.0974 92.4452L65.34 88.2026C65.3191 88.1817 65.1404 88.0445 65.0174 87.1291C64.8827 86.1273 64.8763 84.7451 64.8763 82.4997H58.8763ZM77.2096 82.4997C77.2096 84.7451 77.2033 86.1273 77.0686 87.1291C76.9455 88.0445 76.7668 88.1817 76.7459 88.2026L80.9885 92.4452C82.31 91.1237 82.8026 89.5093 83.0151 87.9286C83.216 86.4341 83.2096 84.5755 83.2096 82.4997H77.2096ZM71.043 94.6663C73.1188 94.6663 74.9774 94.6727 76.4719 94.4718C78.0526 94.2592 79.667 93.7667 80.9885 92.4452L76.7459 88.2026C76.725 88.2235 76.5878 88.4022 75.6724 88.5253C74.6706 88.66 73.2884 88.6663 71.043 88.6663V94.6663ZM71.043 67.1663C73.2884 67.1663 74.6706 67.1727 75.6724 67.3074C76.5878 67.4305 76.725 67.6092 76.7459 67.6301L80.9885 63.3874C79.667 62.0659 78.0526 61.5734 76.4719 61.3609C74.9774 61.16 73.1188 61.1663 71.043 61.1663V67.1663ZM83.2096 73.333C83.2096 71.2572 83.216 69.3986 83.0151 67.9041C82.8026 66.3233 82.3101 64.709 80.9885 63.3874L76.7459 67.6301C76.7668 67.651 76.9455 67.7881 77.0686 68.7036C77.2033 69.7053 77.2096 71.0876 77.2096 73.333H83.2096ZM71.043 61.1663C68.9672 61.1663 67.1085 61.16 65.6141 61.3609C64.0333 61.5734 62.4189 62.0659 61.0974 63.3874L65.34 67.6301C65.361 67.6092 65.4981 67.4305 66.4135 67.3074C67.4153 67.1727 68.7976 67.1663 71.043 67.1663V61.1663ZM64.8763 73.333C64.8763 71.0876 64.8827 69.7053 65.0174 68.7036C65.1404 67.7881 65.3191 67.651 65.34 67.6301L61.0974 63.3874C59.7759 64.709 59.2834 66.3233 59.0709 67.9041C58.8699 69.3986 58.8763 71.2572 58.8763 73.333H64.8763ZM42.9154 25.4125L49.7904 20.8292L46.4622 15.8369L39.5872 20.4202L42.9154 25.4125ZM45.1263 18.333V45.833H51.1263V18.333H45.1263ZM10.8321 71.2458L17.7071 66.6625L14.3789 61.6702L7.50387 66.2535L10.8321 71.2458ZM13.043 64.1663V91.6663H19.043V64.1663H13.043ZM95.6237 25.4125L102.499 20.8292L99.1705 15.8369L92.2955 20.4202L95.6237 25.4125ZM97.8346 18.333V45.833H103.835V18.333H97.8346ZM95.6237 71.2458L102.499 66.6625L99.1705 61.6702L92.2955 66.2535L95.6237 71.2458ZM97.8346 64.1663V91.6663H103.835V64.1663H97.8346Z" fill="url(#paint0_linear_2098_14989)"/>
<defs>
<linearGradient id="paint0_linear_2098_14989" x1="-36.104" y1="54.7751" x2="34.9069" y2="144.086" gradientUnits="userSpaceOnUse">
<stop stop-color="#9168CD"/>
<stop offset="0.424673" stop-color="#5556FF"/>
<stop offset="0.73499" stop-color="#45ADCD"/>
<stop offset="1" stop-color="#3EC4CD"/>
</linearGradient>
</defs>
</svg>
