<svg width="110" height="110" viewBox="0 0 110 110" fill="none" xmlns="http://www.w3.org/2000/svg">
<path d="M97.4648 63.7658L95.6345 66.1427L95.6345 66.1427L97.4648 63.7658ZM103.832 77.3166L106.161 79.2072L106.161 79.2072L103.832 77.3166ZM95.213 79.4997C93.5561 79.4997 92.213 80.8428 92.213 82.4997C92.213 84.1565 93.5561 85.4997 95.213 85.4997V79.4997ZM87.3523 56.5952C85.7021 56.4459 84.2434 57.6626 84.0942 59.3127C83.9449 60.9628 85.1615 62.4215 86.8117 62.5708L87.3523 56.5952ZM12.5325 63.7658L14.3629 66.1427L14.3629 66.1427L12.5325 63.7658ZM6.16578 77.3166L3.83645 79.2072L3.83645 79.2072L6.16578 77.3166ZM14.7843 85.4997C16.4412 85.4997 17.7843 84.1565 17.7843 82.4997C17.7843 80.8428 16.4412 79.4997 14.7843 79.4997V85.4997ZM23.1857 62.5708C24.8358 62.4215 26.0524 60.9628 25.9032 59.3127C25.7539 57.6626 24.2952 56.4459 22.6451 56.5952L23.1857 62.5708ZM25.207 53.4163C26.8639 53.4163 28.207 52.0732 28.207 50.4163C28.207 48.7595 26.8639 47.4163 25.207 47.4163V53.4163ZM25.207 30.4997C26.8639 30.4997 28.207 29.1565 28.207 27.4997C28.207 25.8428 26.8639 24.4997 25.207 24.4997V30.4997ZM37.0493 69.2593L35.4715 66.7077L35.4715 66.7077L37.0493 69.2593ZM72.9478 69.2593L74.5255 66.7077L74.5255 66.7077L72.9478 69.2593ZM27.5659 85.467L25.456 87.5997L25.456 87.5997L27.5659 85.467ZM82.4312 85.467L80.3212 83.3344L80.3212 83.3344L82.4312 85.467ZM95.6345 66.1427C97.5127 67.589 99.8342 69.0627 101.356 70.989C102.064 71.8853 102.359 72.6106 102.408 73.1826C102.448 73.6604 102.351 74.3807 101.502 75.426L106.161 79.2072C107.823 77.1594 108.578 74.942 108.386 72.6773C108.203 70.507 107.182 68.685 106.064 67.2696C103.933 64.5723 100.561 62.3636 99.2952 61.3888L95.6345 66.1427ZM101.502 75.426C99.2085 78.2521 97.2481 79.4997 95.213 79.4997V85.4997C100.046 85.4997 103.549 82.4248 106.161 79.2072L101.502 75.426ZM86.8117 62.5708C89.8334 62.8442 92.8662 64.011 95.6345 66.1427L99.2952 61.3888C95.6712 58.5982 91.5669 56.9765 87.3523 56.5952L86.8117 62.5708ZM90.957 38.958C90.957 43.6294 87.17 47.4163 82.4986 47.4163V53.4163C90.4837 53.4163 96.957 46.9431 96.957 38.958H90.957ZM82.4986 30.4997C87.17 30.4997 90.957 34.2866 90.957 38.958H96.957C96.957 30.9729 90.4837 24.4997 82.4986 24.4997V30.4997ZM10.7021 61.3888C9.43629 62.3636 6.06405 64.5723 3.93323 67.2696C2.81508 68.685 1.79438 70.507 1.61094 72.6773C1.41952 74.942 2.17447 77.1594 3.83645 79.2072L8.49512 75.426C7.64668 74.3807 7.54924 73.6604 7.58962 73.1826C7.63797 72.6106 7.93324 71.8853 8.64137 70.989C10.1631 69.0627 12.4846 67.589 14.3629 66.1427L10.7021 61.3888ZM3.83645 79.2072C6.44802 82.4248 9.95087 85.4997 14.7843 85.4997V79.4997C12.7492 79.4997 10.7888 78.2521 8.49512 75.426L3.83645 79.2072ZM22.6451 56.5952C18.4305 56.9765 14.3261 58.5982 10.7021 61.3888L14.3629 66.1427C17.1311 64.011 20.1639 62.8442 23.1857 62.5708L22.6451 56.5952ZM10.7487 38.958C10.7487 46.9431 17.2219 53.4163 25.207 53.4163V47.4163C20.5356 47.4163 16.7487 43.6294 16.7487 38.958H10.7487ZM25.207 24.4997C17.2219 24.4997 10.7487 30.9729 10.7487 38.958H16.7487C16.7487 34.2866 20.5356 30.4997 25.207 30.4997V24.4997ZM38.6271 71.8109C48.6421 65.6182 61.355 65.6182 71.37 71.8109L74.5255 66.7077C62.5767 59.3192 47.4203 59.3192 35.4715 66.7077L38.6271 71.8109ZM40.4035 94.6663H69.5936V88.6663H40.4035V94.6663ZM29.6758 83.3344C28.2607 81.9343 28.1655 81.0292 28.2176 80.5344C28.2874 79.8713 28.7324 78.9504 29.8855 77.7784C32.2698 75.3548 35.961 73.4594 38.6271 71.8109L35.4715 66.7077C33.4544 67.955 28.6646 70.4639 25.6084 73.5705C24.0411 75.1635 22.526 77.2892 22.2505 79.9063C21.9574 82.6916 23.1318 85.3002 25.456 87.5997L29.6758 83.3344ZM71.37 71.8109C74.036 73.4594 77.7273 75.3548 80.1116 77.7784C81.2647 78.9504 81.7097 79.8713 81.7795 80.5344C81.8316 81.0292 81.7363 81.9343 80.3212 83.3344L84.5411 87.5997C86.8653 85.3002 88.0397 82.6916 87.7465 79.9063C87.4711 77.2892 85.9559 75.1635 84.3887 73.5705C81.3325 70.4639 76.5426 67.955 74.5255 66.7077L71.37 71.8109ZM80.3212 83.3344C76.9261 86.6933 73.5757 88.6663 69.5936 88.6663V94.6663C75.8425 94.6663 80.6296 91.4695 84.5411 87.5997L80.3212 83.3344ZM25.456 87.5997C29.3674 91.4695 34.1546 94.6663 40.4035 94.6663V88.6663C36.4214 88.6663 33.071 86.6933 29.6758 83.3344L25.456 87.5997ZM68.0402 34.3747C68.0402 41.5774 62.2012 47.4163 54.9985 47.4163V53.4163C65.515 53.4163 74.0402 44.8911 74.0402 34.3747H68.0402ZM54.9985 47.4163C47.7958 47.4163 41.9569 41.5774 41.9569 34.3747H35.9569C35.9569 44.8911 44.4821 53.4163 54.9985 53.4163V47.4163ZM41.9569 34.3747C41.9569 27.172 47.7958 21.333 54.9985 21.333V15.333C44.4821 15.333 35.9569 23.8583 35.9569 34.3747H41.9569ZM54.9985 21.333C62.2012 21.333 68.0402 27.172 68.0402 34.3747H74.0402C74.0402 23.8583 65.515 15.333 54.9985 15.333V21.333Z" fill="url(#paint0_linear_2108_16757)"/>
<defs>
<linearGradient id="paint0_linear_2108_16757" x1="-45.217" y1="54.7751" x2="23.9905" y2="150.522" gradientUnits="userSpaceOnUse">
<stop stop-color="#9168CD"/>
<stop offset="0.424673" stop-color="#5556FF"/>
<stop offset="0.73499" stop-color="#45ADCD"/>
<stop offset="1" stop-color="#3EC4CD"/>
</linearGradient>
</defs>
</svg>
