<svg width="111" height="110" viewBox="0 0 111 110" fill="none" xmlns="http://www.w3.org/2000/svg">
<path d="M44.0731 27.3885C44.013 26.0091 42.846 24.9396 41.4666 24.9998C40.0872 25.0599 39.0178 26.2269 39.0779 27.6063L44.0731 27.3885ZM42.1475 40.6181L44.6452 40.5092L42.1475 40.6181ZM71.5731 27.6063C71.6333 26.2269 70.5638 25.0599 69.1844 24.9998C67.805 24.9396 66.638 26.0091 66.5779 27.3885L71.5731 27.6063ZM68.5035 40.6181L66.0059 40.5092V40.5092L68.5035 40.6181ZM43.5625 43.0908L45.0188 41.0587L45.0188 41.0587L43.5625 43.0908ZM67.0885 43.0908L65.6323 41.0587L65.6323 41.0587L67.0885 43.0908ZM68.4574 40.9526L70.8812 41.5654L70.8812 41.5654L68.4574 40.9526ZM42.1936 40.9526L44.6174 40.3399L42.1936 40.9526ZM77.3047 24.0599C77.3047 22.6792 76.1854 21.5599 74.8047 21.5599C73.424 21.5599 72.3047 22.6792 72.3047 24.0599H77.3047ZM71.5309 47.5803L69.0986 47.0024L71.5309 47.5803ZM78.0785 47.5803L80.5108 47.0024L78.0785 47.5803ZM23.2422 98.3307C19.9421 98.3307 17.6771 98.327 15.9768 98.1365C14.3087 97.9496 13.5661 97.6153 13.1063 97.2321L9.90537 101.073C11.4592 102.368 13.3439 102.873 15.4201 103.105C17.4641 103.334 20.0604 103.331 23.2422 103.331V98.3307ZM6.99219 89.3724C6.99219 91.9888 6.9846 94.2521 7.27581 96.057C7.58725 97.9875 8.28569 99.7235 9.90537 101.073L13.1063 97.2321C12.7123 96.9038 12.4039 96.4505 12.212 95.2607C11.9998 93.9454 11.9922 92.1575 11.9922 89.3724H6.99219ZM34.4922 89.3724C34.4922 92.1575 34.4846 93.9454 34.2724 95.2607C34.0804 96.4505 33.772 96.9038 33.3781 97.2321L36.579 101.073C38.1987 99.7235 38.8971 97.9875 39.2086 96.057C39.4998 94.2521 39.4922 91.9888 39.4922 89.3724H34.4922ZM23.2422 103.331C26.424 103.331 29.0203 103.334 31.0643 103.105C33.1405 102.873 35.0252 102.368 36.579 101.073L33.3781 97.2321C32.9183 97.6153 32.1757 97.9496 30.5076 98.1365C28.8073 98.327 26.5422 98.3307 23.2422 98.3307V103.331ZM23.2422 80.4141C26.5422 80.4141 28.8073 80.4178 30.5076 80.6083C32.1757 80.7952 32.9183 81.1295 33.3781 81.5126L36.579 77.6715C35.0252 76.3767 33.1405 75.872 31.0643 75.6394C29.0203 75.4104 26.424 75.4141 23.2422 75.4141V80.4141ZM39.4922 89.3724C39.4922 86.756 39.4998 84.4927 39.2086 82.6878C38.8971 80.7573 38.1987 79.0213 36.579 77.6715L33.3781 81.5126C33.772 81.841 34.0804 82.2943 34.2724 83.4841C34.4846 84.7994 34.4922 86.5873 34.4922 89.3724H39.4922ZM23.2422 75.4141C20.0604 75.4141 17.4641 75.4104 15.4201 75.6394C13.3439 75.872 11.4592 76.3767 9.90537 77.6715L13.1063 81.5126C13.5661 81.1295 14.3087 80.7952 15.9768 80.6083C17.6771 80.4178 19.9421 80.4141 23.2422 80.4141V75.4141ZM11.9922 89.3724C11.9922 86.5873 11.9998 84.7994 12.212 83.4841C12.4039 82.2943 12.7123 81.841 13.1063 81.5126L9.90537 77.6715C8.28569 79.0213 7.58725 80.7573 7.27581 82.6878C6.9846 84.4927 6.99219 86.756 6.99219 89.3724H11.9922ZM87.4089 98.3307C84.1088 98.3307 81.8438 98.327 80.1435 98.1365C78.4753 97.9496 77.7328 97.6153 77.273 97.2321L74.072 101.073C75.6259 102.368 77.5106 102.873 79.5868 103.105C81.6308 103.334 84.2271 103.331 87.4089 103.331V98.3307ZM71.1589 89.3724C71.1589 91.9888 71.1513 94.2521 71.4425 96.057C71.7539 97.9875 72.4524 99.7235 74.072 101.073L77.273 97.2321C76.879 96.9038 76.5706 96.4505 76.3786 95.2607C76.1664 93.9454 76.1589 92.1575 76.1589 89.3724H71.1589ZM98.6589 89.3724C98.6589 92.1575 98.6513 93.9454 98.4391 95.2607C98.2471 96.4505 97.9387 96.9038 97.5448 97.2321L100.746 101.073C102.365 99.7235 103.064 97.9875 103.375 96.057C103.666 94.2521 103.659 91.9888 103.659 89.3724H98.6589ZM87.4089 103.331C90.5906 103.331 93.187 103.334 95.231 103.105C97.3071 102.873 99.1918 102.368 100.746 101.073L97.5448 97.2321C97.0849 97.6153 96.3424 97.9496 94.6742 98.1365C92.9739 98.327 90.7089 98.3307 87.4089 98.3307V103.331ZM87.4089 80.4141C90.7089 80.4141 92.9739 80.4178 94.6742 80.6083C96.3424 80.7952 97.0849 81.1295 97.5448 81.5126L100.746 77.6715C99.1918 76.3767 97.3071 75.872 95.231 75.6394C93.187 75.4104 90.5906 75.4141 87.4089 75.4141V80.4141ZM103.659 89.3724C103.659 86.756 103.666 84.4927 103.375 82.6878C103.064 80.7573 102.365 79.0213 100.746 77.6715L97.5448 81.5126C97.9387 81.841 98.2471 82.2943 98.4391 83.4841C98.6513 84.7994 98.6589 86.5873 98.6589 89.3724H103.659ZM87.4089 75.4141C84.2271 75.4141 81.6308 75.4104 79.5868 75.6394C77.5106 75.872 75.6259 76.3767 74.072 77.6715L77.273 81.5126C77.7328 81.1295 78.4753 80.7952 80.1435 80.6083C81.8438 80.4178 84.1088 80.4141 87.4089 80.4141V75.4141ZM76.1589 89.3724C76.1589 86.5873 76.1664 84.7994 76.3786 83.4841C76.5706 82.2943 76.879 81.841 77.273 81.5126L74.072 77.6715C72.4524 79.0213 71.7539 80.7573 71.4425 82.6878C71.1513 84.4927 71.1589 86.756 71.1589 89.3724H76.1589ZM42.9858 66.6641H67.6653V61.6641H42.9858V66.6641ZM42.9858 61.6641C38.8656 61.6641 35.4387 61.8121 32.6316 62.2415C29.8342 62.6695 27.4508 63.4047 25.5598 64.7216C21.5462 67.5168 20.7422 72.1763 20.7422 77.9141H25.7422C25.7422 72.276 26.6427 70.0605 28.4173 68.8246C29.4204 68.126 30.9519 67.5567 33.3878 67.184C35.814 66.8128 38.9387 66.6641 42.9858 66.6641V61.6641ZM67.6653 66.6641C71.7124 66.6641 74.837 66.8128 77.2632 67.184C79.6991 67.5567 81.2307 68.126 82.2338 68.8246C84.0083 70.0605 84.9089 72.276 84.9089 77.9141H89.9089C89.9089 72.1763 89.1049 67.5168 85.0912 64.7216C83.2003 63.4047 80.8168 62.6695 78.0194 62.2415C75.2123 61.8121 71.7854 61.6641 67.6653 61.6641V66.6641ZM34.9089 20.6224C34.9089 20.8411 34.8678 21.0081 34.8344 21.1082C34.8015 21.2071 34.7698 21.2606 34.7667 21.2659C34.7659 21.2672 34.8213 21.1793 34.9953 21.0029C35.344 20.6494 35.9322 20.1764 36.7756 19.6085C38.4441 18.485 40.7816 17.2085 43.3182 15.9955C45.8437 14.7879 48.4912 13.679 50.7494 12.8783C51.8794 12.4775 52.8849 12.1636 53.712 11.9529C54.5834 11.7309 55.1035 11.6641 55.3255 11.6641V6.66406C54.4625 6.66406 53.4527 6.85923 52.4775 7.10769C51.458 7.36744 50.3001 7.7325 49.0783 8.16578C46.6327 9.03301 43.8223 10.2122 41.1612 11.4847C38.5111 12.752 35.9332 14.1479 33.9829 15.4611C33.017 16.1115 32.1199 16.798 31.4358 17.4915C31.0934 17.8386 30.7454 18.2462 30.4704 18.7081C30.2051 19.1538 29.9089 19.8154 29.9089 20.6224H34.9089ZM80.7422 20.6224C80.7422 19.8154 80.446 19.1538 80.1806 18.7081C79.9056 18.2462 79.5576 17.8386 79.2153 17.4915C78.5311 16.798 77.6341 16.1115 76.6681 15.4611C74.7178 14.1479 72.1399 12.752 69.4899 11.4847C66.8287 10.2122 64.0184 9.03301 61.5727 8.16578C60.3509 7.7325 59.1931 7.36744 58.1735 7.10769C57.1983 6.85923 56.1885 6.66406 55.3255 6.66406V11.6641C55.5475 11.6641 56.0676 11.7309 56.9391 11.9529C57.7661 12.1636 58.7716 12.4775 59.9017 12.8783C62.1598 13.679 64.8074 14.7879 67.3329 15.9955C69.8695 17.2085 72.207 18.485 73.8754 19.6085C74.7189 20.1764 75.307 20.6494 75.6557 21.0029C75.8298 21.1793 75.8852 21.2672 75.8844 21.2659C75.8812 21.2606 75.8495 21.2071 75.8166 21.1082C75.7833 21.0081 75.7422 20.8411 75.7422 20.6224H80.7422ZM75.7422 20.6224C75.7422 20.4037 75.7833 20.2367 75.8166 20.1366C75.8495 20.0377 75.8812 19.9842 75.8844 19.9789C75.8852 19.9776 75.8298 20.0655 75.6557 20.2419C75.307 20.5954 74.7189 21.0684 73.8754 21.6363C72.207 22.7598 69.8695 24.0363 67.3329 25.2493C64.8074 26.4569 62.1598 27.5658 59.9017 28.3665C58.7716 28.7673 57.7661 29.0812 56.9391 29.2919C56.0676 29.5139 55.5475 29.5807 55.3255 29.5807V34.5807C56.1885 34.5807 57.1983 34.3856 58.1735 34.1371C59.1931 33.8773 60.3509 33.5123 61.5727 33.079C64.0184 32.2118 66.8287 31.0326 69.4899 29.76C72.1399 28.4928 74.7178 27.0969 76.6681 25.7837C77.6341 25.1333 78.5311 24.4468 79.2153 23.7533C79.5576 23.4062 79.9056 22.9986 80.1806 22.5367C80.446 22.091 80.7422 21.4294 80.7422 20.6224H75.7422ZM29.9089 20.6224C29.9089 21.4294 30.2051 22.091 30.4704 22.5367C30.7454 22.9986 31.0934 23.4062 31.4358 23.7533C32.1199 24.4468 33.017 25.1333 33.9829 25.7837C35.9332 27.0969 38.5111 28.4928 41.1612 29.76C43.8223 31.0326 46.6327 32.2118 49.0783 33.079C50.3001 33.5123 51.458 33.8773 52.4775 34.1371C53.4527 34.3856 54.4625 34.5807 55.3255 34.5807V29.5807C55.1035 29.5807 54.5834 29.5139 53.712 29.2919C52.8849 29.0812 51.8794 28.7673 50.7494 28.3665C48.4912 27.5658 45.8437 26.4569 43.3182 25.2493C40.7816 24.0363 38.4441 22.7598 36.7756 21.6363C35.9322 21.0684 35.344 20.5954 34.9953 20.2419C34.8213 20.0655 34.7659 19.9776 34.7667 19.9789C34.7698 19.9842 34.8015 20.0377 34.8344 20.1366C34.8678 20.2367 34.9089 20.4037 34.9089 20.6224H29.9089ZM39.0779 27.6063L39.6499 40.727L44.6452 40.5092L44.0731 27.3885L39.0779 27.6063ZM66.5779 27.3885L66.0059 40.5092L71.0011 40.727L71.5731 27.6063L66.5779 27.3885ZM42.1063 45.1229C43.7597 46.3077 45.9095 47.0907 48.1277 47.5857C50.3785 48.088 52.8673 48.3307 55.3255 48.3307C57.7838 48.3307 60.2725 48.088 62.5233 47.5857C64.7415 47.0907 66.8914 46.3077 68.5447 45.1229L65.6323 41.0587C64.7367 41.7005 63.3085 42.2875 61.4342 42.7058C59.5925 43.1168 57.4743 43.3307 55.3255 43.3307C53.1768 43.3307 51.0585 43.1168 49.2168 42.7058C47.3425 42.2875 45.9144 41.7005 45.0188 41.0587L42.1063 45.1229ZM66.0337 40.3399C65.9249 40.7701 65.7473 40.9762 65.6323 41.0587L68.5447 45.1229C69.8517 44.1863 70.5615 42.8299 70.8812 41.5654L66.0337 40.3399ZM39.7699 41.5654C40.0896 42.8299 40.7993 44.1863 42.1063 45.1229L45.0188 41.0587C44.9037 40.9762 44.7261 40.7701 44.6174 40.3399L39.7699 41.5654ZM66.0059 40.5092C66.0063 40.4986 66.0096 40.4353 66.0337 40.3399L70.8812 41.5654C70.9606 41.2511 70.9908 40.9631 71.0011 40.727L66.0059 40.5092ZM39.6499 40.727C39.6602 40.9631 39.6904 41.2511 39.7699 41.5654L44.6174 40.3399C44.6415 40.4353 44.6447 40.4986 44.6452 40.5092L39.6499 40.727ZM72.3047 24.0599V40.1181H77.3047V24.0599H72.3047ZM73.9632 48.1581C74.274 46.8496 74.8129 45.6368 75.4129 44.4625C75.9386 43.4339 76.7194 42.0757 77.1299 41.0364L72.4795 39.1997C72.1836 39.9488 71.706 40.7286 70.9606 42.1873C70.2896 43.5005 69.5447 45.1246 69.0986 47.0024L73.9632 48.1581ZM80.5108 47.0024C80.0647 45.1246 79.3198 43.5005 78.6488 42.1873C77.9034 40.7286 77.4258 39.9488 77.1299 39.1997L72.4795 41.0364C72.8899 42.0757 73.6708 43.4339 74.1964 44.4625C74.7965 45.6368 75.3353 46.8496 75.6462 48.1581L80.5108 47.0024ZM75.5276 47.9141H74.0818V52.9141H75.5276V47.9141ZM69.0986 47.0024C68.8113 48.2117 68.5343 50.1795 69.974 51.6235C70.6422 52.2937 71.4482 52.5902 72.1007 52.7349C72.7505 52.879 73.4397 52.9141 74.0818 52.9141V47.9141C73.8422 47.9141 73.6487 47.9069 73.4926 47.8944C73.3351 47.8819 73.237 47.8654 73.1832 47.8535C73.1289 47.8415 73.1472 47.8399 73.209 47.8696C73.2759 47.9018 73.3917 47.9698 73.5148 48.0932C73.5753 48.1539 73.6313 48.2218 73.6806 48.2954C73.7298 48.3688 73.7678 48.4412 73.7963 48.5084C73.8533 48.6426 73.8649 48.7372 73.8669 48.7588C73.8686 48.7774 73.8634 48.7416 73.8753 48.6326C73.8871 48.5249 73.9128 48.3702 73.9632 48.1581L69.0986 47.0024ZM75.6462 48.1581C75.6966 48.3702 75.7223 48.5249 75.7341 48.6326C75.746 48.7416 75.7407 48.7774 75.7425 48.7588C75.7445 48.7372 75.756 48.6426 75.813 48.5084C75.8416 48.4412 75.8796 48.3688 75.9288 48.2954C75.9781 48.2218 76.0341 48.1539 76.0946 48.0932C76.2177 47.9698 76.3335 47.9018 76.4004 47.8696C76.4622 47.8399 76.4805 47.8415 76.4261 47.8535C76.3724 47.8654 76.2742 47.8819 76.1168 47.8944C75.9607 47.9069 75.7672 47.9141 75.5276 47.9141V52.9141C76.1696 52.9141 76.8588 52.879 77.5087 52.7349C78.1611 52.5902 78.9672 52.2937 79.6354 51.6235C81.075 50.1795 80.7981 48.2117 80.5108 47.0024L75.6462 48.1581Z" fill="url(#paint0_linear_3047_12664)"/>
<defs>
<linearGradient id="paint0_linear_3047_12664" x1="-35.7797" y1="54.7167" x2="55.3256" y2="146.383" gradientUnits="userSpaceOnUse">
<stop stop-color="#9168CD"/>
<stop offset="0.424673" stop-color="#5556FF"/>
<stop offset="0.73499" stop-color="#45ADCD"/>
<stop offset="1" stop-color="#3EC4CD"/>
</linearGradient>
</defs>
</svg>
