<svg width="110" height="110" viewBox="0 0 110 110" fill="none" xmlns="http://www.w3.org/2000/svg">
<path d="M55.0013 82.5003L53.7318 79.7822L53.7318 79.7822L55.0013 82.5003ZM18.3346 85.5831L19.0044 82.6588L19.0044 82.6588L18.3346 85.5831ZM91.668 79.4176L90.9982 82.3418L90.9982 82.3418L91.668 79.4176ZM91.668 10.6676L92.3378 7.74329L92.3378 7.74329L91.668 10.6676ZM18.3346 16.8331L19.0044 13.9088L18.3346 16.8331ZM99.9449 16.1321L102.654 14.8428L102.654 14.8428L99.9449 16.1321ZM97.356 12.8831L95.4944 15.2357L95.4944 15.2357L97.356 12.8831ZM10.0577 80.1185L7.34884 81.4078L7.34884 81.4078L10.0577 80.1185ZM12.6466 83.3676L14.5082 81.015L14.5082 81.0149L12.6466 83.3676ZM55.0013 96.2503L56.2708 98.9685L56.2708 98.9685L55.0013 96.2503ZM10.4375 93.5322C8.93629 92.831 7.15095 93.4796 6.44982 94.9808C5.74869 96.482 6.39726 98.2673 7.89845 98.9685L10.4375 93.5322ZM99.5651 98.9685C101.066 99.6696 102.852 99.021 103.553 97.5198C104.254 96.0186 103.605 94.2333 102.104 93.5322L99.5651 98.9685ZM28.2096 52.7087C28.2096 51.0518 26.8665 49.7087 25.2096 49.7087C23.5528 49.7087 22.2096 51.0518 22.2096 52.7087H28.2096ZM22.2096 52.7498C22.2096 54.4067 23.5528 55.7498 25.2096 55.7498C26.8665 55.7498 28.2096 54.4067 28.2096 52.7498H22.2096ZM87.793 43.5062C87.793 41.8493 86.4498 40.5062 84.793 40.5062C83.1361 40.5062 81.793 41.8493 81.793 43.5062H87.793ZM81.793 43.5474C81.793 45.2042 83.1361 46.5474 84.793 46.5474C86.4498 46.5474 87.793 45.2042 87.793 43.5474H81.793ZM32.0846 90.0837C41.2369 90.0837 49.7047 88.2852 56.2708 85.2185L53.7318 79.7822C48.083 82.4204 40.5055 84.0837 32.0846 84.0837V90.0837ZM56.2708 85.2185C61.9196 82.5802 69.4971 80.917 77.918 80.917V74.917C68.7657 74.917 60.298 76.7154 53.7318 79.7822L56.2708 85.2185ZM32.0846 21.3337C41.2369 21.3337 49.7047 19.5352 56.2708 16.4685L53.7318 11.0322C48.083 13.6704 40.5055 15.3337 32.0846 15.3337V21.3337ZM56.2708 16.4685C61.9196 13.8302 69.4971 12.167 77.918 12.167V6.16699C68.7657 6.16699 60.298 7.96545 53.7318 11.0322L56.2708 16.4685ZM97.8346 23.4394V72.8113H103.835V23.4394H97.8346ZM6.16797 23.4394V72.8113H12.168V23.4394H6.16797ZM17.6648 88.5074C22.1091 89.5253 26.9835 90.0837 32.0846 90.0837V84.0837C27.4148 84.0837 22.9907 83.5718 19.0044 82.6588L17.6648 88.5074ZM77.918 80.917C82.5878 80.917 87.0119 81.4288 90.9982 82.3418L92.3378 76.4933C87.8935 75.4754 83.0191 74.917 77.918 74.917V80.917ZM77.918 12.167C82.5878 12.167 87.0119 12.6788 90.9982 13.5918L92.3378 7.74329C87.8935 6.72536 83.0191 6.16699 77.918 6.16699V12.167ZM17.6648 19.7574C22.1091 20.7753 26.9835 21.3337 32.0846 21.3337V15.3337C27.4148 15.3337 22.9907 14.8218 19.0044 13.9088L17.6648 19.7574ZM103.835 23.4394C103.835 20.0201 103.894 17.4484 102.654 14.8428L97.2361 17.4214C97.7754 18.5544 97.8346 19.608 97.8346 23.4394H103.835ZM90.9982 13.5918C93.7774 14.2284 94.4758 14.4297 95.4944 15.2357L99.2175 10.5305C96.9892 8.76732 94.9779 8.348 92.3378 7.74329L90.9982 13.5918ZM102.654 14.8428C101.949 13.3621 100.503 11.5481 99.2175 10.5305L95.4944 15.2357C96.0603 15.6834 96.926 16.7699 97.2361 17.4214L102.654 14.8428ZM97.8346 72.8113C97.8346 74.9957 95.2717 77.1653 92.3378 76.4933L90.9982 82.3418C96.8639 83.6854 103.835 79.6545 103.835 72.8113H97.8346ZM12.168 23.4394C12.168 21.255 14.7309 19.0854 17.6648 19.7574L19.0044 13.9088C13.1387 12.5653 6.16797 16.5961 6.16797 23.4394H12.168ZM6.16797 72.8113C6.16797 76.2306 6.10871 78.8023 7.34884 81.4078L12.7665 78.8293C12.2272 77.6962 12.168 76.6426 12.168 72.8113H6.16797ZM19.0044 82.6588C16.2252 82.0222 15.5268 81.8209 14.5082 81.015L10.7851 85.7202C13.0134 87.4833 15.0247 87.9027 17.6648 88.5074L19.0044 82.6588ZM7.34884 81.4078C8.05361 82.8886 9.49911 84.7026 10.7851 85.7202L14.5082 81.0149C13.9423 80.5672 13.0766 79.4808 12.7665 78.8293L7.34884 81.4078ZM32.0846 103.834C41.2369 103.834 49.7047 102.035 56.2708 98.9685L53.7318 93.5322C48.083 96.1704 40.5055 97.8337 32.0846 97.8337V103.834ZM7.89845 98.9685C14.4646 102.035 22.9324 103.834 32.0846 103.834V97.8337C23.6638 97.8337 16.0863 96.1704 10.4375 93.5322L7.89845 98.9685ZM77.918 94.667C86.3389 94.667 93.9163 96.3302 99.5651 98.9685L102.104 93.5322C95.538 90.4654 87.0702 88.667 77.918 88.667V94.667ZM56.2708 98.9685C61.9196 96.3302 69.4971 94.667 77.918 94.667V88.667C68.7657 88.667 60.298 90.4654 53.7318 93.5322L56.2708 98.9685ZM63.4596 48.1253C63.4596 52.7967 59.6727 56.5837 55.0013 56.5837V62.5837C62.9864 62.5837 69.4596 56.1104 69.4596 48.1253H63.4596ZM55.0013 56.5837C50.3299 56.5837 46.543 52.7967 46.543 48.1253H40.543C40.543 56.1104 47.0162 62.5837 55.0013 62.5837V56.5837ZM46.543 48.1253C46.543 43.4539 50.3299 39.667 55.0013 39.667V33.667C47.0162 33.667 40.543 40.1402 40.543 48.1253H46.543ZM55.0013 39.667C59.6727 39.667 63.4596 43.4539 63.4596 48.1253H69.4596C69.4596 40.1402 62.9864 33.667 55.0013 33.667V39.667ZM22.2096 52.7087V52.7498H28.2096V52.7087H22.2096ZM81.793 43.5062V43.5474H87.793V43.5062H81.793Z" fill="url(#paint0_linear_2108_16761)"/>
<defs>
<linearGradient id="paint0_linear_2108_16761" x1="-36.104" y1="54.7196" x2="55.0013" y2="146.386" gradientUnits="userSpaceOnUse">
<stop stop-color="#9168CD"/>
<stop offset="0.424673" stop-color="#5556FF"/>
<stop offset="0.73499" stop-color="#45ADCD"/>
<stop offset="1" stop-color="#3EC4CD"/>
</linearGradient>
</defs>
</svg>
