<svg width="110" height="110" viewBox="0 0 110 110" fill="none" xmlns="http://www.w3.org/2000/svg">
<path d="M50.3082 50.6258C48.9848 49.6289 47.1039 49.8936 46.107 51.217C45.1101 52.5404 45.3748 54.4214 46.6982 55.4182L50.3082 50.6258ZM63.2957 67.9208C64.6191 68.9177 66.5001 68.653 67.4969 67.3296C68.4938 66.0062 68.2291 64.1253 66.9057 63.1284L63.2957 67.9208ZM15.8117 85.4581C14.9141 86.8507 15.3154 88.7073 16.7081 89.605C18.1007 90.5026 19.9573 90.1012 20.8549 88.7086L15.8117 85.4581ZM41.8905 56.0715C42.7881 54.6789 42.3868 52.8223 40.9941 51.9247C39.6015 51.0271 37.7449 51.4284 36.8473 52.821L41.8905 56.0715ZM72.623 64.2166C71.9006 65.7077 72.5238 67.5021 74.0148 68.2244C75.5059 68.9468 77.3003 68.3237 78.0227 66.8326L72.623 64.2166ZM89.7832 42.558C90.5056 41.0669 89.8824 39.2726 88.3913 38.5502C86.9003 37.8278 85.1059 38.4509 84.3835 39.942L89.7832 42.558ZM96.25 99.25C97.9069 99.25 99.25 97.9069 99.25 96.25C99.25 94.5931 97.9069 93.25 96.25 93.25V99.25ZM16.75 13.75C16.75 12.0931 15.4069 10.75 13.75 10.75C12.0931 10.75 10.75 12.0931 10.75 13.75H16.75ZM18.4485 91.5515L16.3272 93.6728L16.3272 93.6728L18.4485 91.5515ZM47.4167 48.125C47.4167 50.2651 45.6818 52 43.5417 52V58C48.9955 58 53.4167 53.5788 53.4167 48.125H47.4167ZM43.5417 52C41.4016 52 39.6667 50.2651 39.6667 48.125H33.6667C33.6667 53.5788 38.0879 58 43.5417 58V52ZM39.6667 48.125C39.6667 45.9849 41.4016 44.25 43.5417 44.25V38.25C38.0879 38.25 33.6667 42.6712 33.6667 48.125H39.6667ZM43.5417 44.25C45.6818 44.25 47.4167 45.9849 47.4167 48.125H53.4167C53.4167 42.6712 48.9955 38.25 43.5417 38.25V44.25ZM74.9167 71.0417C74.9167 73.1818 73.1818 74.9167 71.0417 74.9167V80.9167C76.4955 80.9167 80.9167 76.4955 80.9167 71.0417H74.9167ZM71.0417 74.9167C68.9016 74.9167 67.1667 73.1818 67.1667 71.0417H61.1667C61.1667 76.4955 65.5879 80.9167 71.0417 80.9167V74.9167ZM67.1667 71.0417C67.1667 68.9016 68.9016 67.1667 71.0417 67.1667V61.1667C65.5879 61.1667 61.1667 65.5879 61.1667 71.0417H67.1667ZM71.0417 67.1667C73.1818 67.1667 74.9167 68.9016 74.9167 71.0417H80.9167C80.9167 65.5878 76.4955 61.1667 71.0417 61.1667V67.1667ZM93.25 34.375C93.25 36.5151 91.5151 38.25 89.375 38.25V44.25C94.8288 44.25 99.25 39.8288 99.25 34.375H93.25ZM89.375 38.25C87.2349 38.25 85.5 36.5151 85.5 34.375H79.5C79.5 39.8288 83.9212 44.25 89.375 44.25V38.25ZM85.5 34.375C85.5 32.2349 87.2349 30.5 89.375 30.5V24.5C83.9212 24.5 79.5 28.9212 79.5 34.375H85.5ZM89.375 30.5C91.5151 30.5 93.25 32.2349 93.25 34.375H99.25C99.25 28.9212 94.8288 24.5 89.375 24.5V30.5ZM46.6982 55.4182L63.2957 67.9208L66.9057 63.1284L50.3082 50.6258L46.6982 55.4182ZM20.8549 88.7086L41.8905 56.0715L36.8473 52.821L15.8117 85.4581L20.8549 88.7086ZM78.0227 66.8326L89.7832 42.558L84.3835 39.942L72.623 64.2166L78.0227 66.8326ZM96.25 93.25H45.8333V99.25H96.25V93.25ZM16.75 64.1667V13.75H10.75V64.1667H16.75ZM45.8333 93.25C38.1864 93.25 32.753 93.2436 28.631 92.6894C24.5953 92.1469 22.2688 91.1291 20.5698 89.4302L16.3272 93.6728C19.3267 96.6724 23.1305 98.0039 27.8315 98.6359C32.4463 99.2564 38.356 99.25 45.8333 99.25V93.25ZM10.75 64.1667C10.75 71.644 10.7436 77.5537 11.3641 82.1685C11.9961 86.8695 13.3276 90.6733 16.3272 93.6728L20.5698 89.4302C18.8709 87.7313 17.8531 85.4047 17.3106 81.369C16.7564 77.247 16.75 71.8136 16.75 64.1667H10.75Z" fill="url(#paint0_linear_2098_14999)"/>
<defs>
<linearGradient id="paint0_linear_2098_14999" x1="-26.9947" y1="54.7473" x2="55" y2="137.247" gradientUnits="userSpaceOnUse">
<stop stop-color="#9168CD"/>
<stop offset="0.424673" stop-color="#5556FF"/>
<stop offset="0.73499" stop-color="#45ADCD"/>
<stop offset="1" stop-color="#3EC4CD"/>
</linearGradient>
</defs>
</svg>
