<svg width="72" height="72" viewBox="0 0 72 72" fill="none" xmlns="http://www.w3.org/2000/svg">
<g clip-path="url(#clip0_2637_15785)">
<path d="M6 24C6 28.0253 30.3185 39 36 39C41.6815 39 66 28.0253 66 24C66 19.9747 41.6815 9 36 9C30.3185 9 6 19.9747 6 24Z" stroke="#141B34" stroke-width="4.5" stroke-linecap="round" stroke-linejoin="round"/>
<path d="M18 33L18.7511 50.2286C18.756 50.3413 18.7698 50.4536 18.7965 50.5633C19.0719 51.6921 19.6562 52.736 20.6012 53.4132C27.2749 58.1956 44.7251 58.1956 51.3988 53.4132C52.3438 52.736 52.9281 51.6921 53.2035 50.5633C53.2302 50.4536 53.244 50.3413 53.2489 50.2286L54 33" stroke="#141B34" stroke-width="4.5" stroke-linecap="round" stroke-linejoin="round"/>
<path d="M63.75 28.5C63.75 27.2574 62.7426 26.25 61.5 26.25C60.2574 26.25 59.25 27.2574 59.25 28.5H63.75ZM57.2143 59.2903L59.4034 59.8103L57.2143 59.2903ZM65.7857 59.2903L67.9748 58.7702L67.9748 58.7702L65.7857 59.2903ZM59.25 28.5V49.5216H63.75V28.5H59.25ZM59.4034 59.8103C59.838 57.9809 60.5855 56.3091 61.3856 54.7435C62.1186 53.3089 63.0788 51.6493 63.5927 50.3481L59.4073 48.6951C58.9966 49.7351 58.3093 50.8742 57.3784 52.6958C56.5145 54.3865 55.5815 56.4284 55.0252 58.7702L59.4034 59.8103ZM67.9748 58.7702C67.4185 56.4284 66.4855 54.3865 65.6216 52.6958C64.6907 50.8742 64.0034 49.7351 63.5927 48.6951L59.4073 50.3481C59.9212 51.6493 60.8814 53.3089 61.6144 54.7435C62.4145 56.3091 63.162 57.9809 63.5966 59.8103L67.9748 58.7702ZM62.4463 60.75H60.5537V65.25H62.4463V60.75ZM55.0252 58.7702C54.6551 60.3283 54.4329 62.3892 55.9004 63.8611C56.5878 64.5505 57.4353 64.8742 58.1816 65.0397C58.9256 65.2047 59.742 65.25 60.5537 65.25V60.75C59.8688 60.75 59.4303 60.7073 59.1559 60.6465C58.8839 60.5862 58.9498 60.5462 59.0871 60.6839C59.2602 60.8575 59.2626 61.0193 59.2541 60.9284C59.2409 60.7877 59.2511 60.4513 59.4034 59.8103L55.0252 58.7702ZM63.5966 59.8103C63.7489 60.4513 63.7591 60.7877 63.7459 60.9284C63.7374 61.0193 63.7398 60.8575 63.9129 60.6839C64.0502 60.5462 64.1161 60.5862 63.8441 60.6465C63.5697 60.7073 63.1312 60.75 62.4463 60.75V65.25C63.258 65.25 64.0744 65.2047 64.8184 65.0397C65.5647 64.8742 66.4122 64.5505 67.0996 63.8611C68.5671 62.3892 68.3449 60.3283 67.9748 58.7702L63.5966 59.8103Z" fill="#141B34"/>
</g>
<defs>
<clipPath id="clip0_2637_15785">
<rect width="72" height="72" fill="white"/>
</clipPath>
</defs>
</svg>
