<svg width="110" height="110" viewBox="0 0 110 110" fill="none" xmlns="http://www.w3.org/2000/svg">
<path d="M17.0286 66.0436L19.9464 65.3461L19.9464 65.3461L17.0286 66.0436ZM19.9321 78.1907L17.0143 78.8881L17.0143 78.8881L19.9321 78.1907ZM30.4872 78.1907L33.405 78.8881L33.405 78.8881L30.4872 78.1907ZM33.3907 66.0436L36.3085 66.741L36.3085 66.741L33.3907 66.0436ZM10.2188 62.6986L12.9948 61.5611L12.9948 61.5611L10.2188 62.6986ZM40.2005 62.6986L37.4245 61.5611L37.4245 61.5611L40.2005 62.6986ZM68.7513 22.917L68.7513 19.917C68.6769 19.917 68.6025 19.9198 68.5284 19.9253L68.7513 22.917ZM68.7513 87.0837L68.5284 90.0754C68.6025 90.0809 68.6769 90.0837 68.7513 90.0837V87.0837ZM22.0074 47.0003H28.4119V41.0003H22.0074V47.0003ZM15.4213 61.7311H13.1659V67.7311H15.4213V61.7311ZM37.2533 61.7311H34.9979V67.7311H37.2533V61.7311ZM14.1108 66.741L17.0143 78.8881L22.8499 77.4932L19.9464 65.3461L14.1108 66.741ZM33.405 78.8881L36.3085 66.741L30.4729 65.3461L27.5694 77.4932L33.405 78.8881ZM25.2096 85.5003C29.1782 85.5003 32.4968 82.6874 33.405 78.8881L27.5694 77.4932C27.2667 78.7595 26.2335 79.5003 25.2096 79.5003V85.5003ZM17.0143 78.8881C17.9225 82.6874 21.241 85.5003 25.2096 85.5003V79.5003C24.1858 79.5003 23.1526 78.7595 22.8499 77.4932L17.0143 78.8881ZM34.9979 61.7311C32.7653 61.7311 30.96 63.3083 30.4729 65.3461L36.3085 66.741C36.1901 67.2362 35.7101 67.7311 34.9979 67.7311V61.7311ZM15.4213 67.7311C14.7092 67.7311 14.2291 67.2362 14.1108 66.741L19.9464 65.3461C19.4593 63.3083 17.6539 61.7311 15.4213 61.7311V67.7311ZM7.44281 63.8361C8.38612 66.1382 10.6047 67.7311 13.1659 67.7311V61.7311C13.1553 61.7311 13.1352 61.7291 13.104 61.7076C13.0719 61.6854 13.0275 61.641 12.9948 61.5611L7.44281 63.8361ZM37.4245 61.5611C37.3917 61.641 37.3473 61.6854 37.3152 61.7076C37.2841 61.7291 37.264 61.7311 37.2533 61.7311V67.7311C39.8146 67.7311 42.0331 66.1381 42.9765 63.8361L37.4245 61.5611ZM28.4119 47.0003C35.2843 47.0003 40.3209 54.4927 37.4245 61.5611L42.9765 63.8361C47.3342 53.2013 39.9549 41.0003 28.4119 41.0003V47.0003ZM22.0074 41.0003C10.4644 41.0003 3.08502 53.2013 7.44281 63.8361L12.9948 61.5611C10.0984 54.4927 15.135 47.0003 22.0074 47.0003V41.0003ZM30.2305 35.7503C30.2305 38.73 27.9035 41.0003 25.2096 41.0003V47.0003C31.3754 47.0003 36.2305 41.8833 36.2305 35.7503H30.2305ZM25.2096 41.0003C22.5158 41.0003 20.1888 38.73 20.1888 35.7503H14.1888C14.1888 41.8833 19.0439 47.0003 25.2096 47.0003V41.0003ZM20.1888 35.7503C20.1888 32.7706 22.5158 30.5003 25.2096 30.5003V24.5003C19.0439 24.5003 14.1888 29.6173 14.1888 35.7503H20.1888ZM25.2096 30.5003C27.9035 30.5003 30.2305 32.7706 30.2305 35.7503H36.2305C36.2305 29.6173 31.3754 24.5003 25.2096 24.5003V30.5003ZM87.0846 33.667C83.7589 33.667 81.5664 33.6606 79.9406 33.442C78.4011 33.2351 77.8261 32.8885 77.4696 32.532L73.227 36.7747C74.8841 38.4318 76.9363 39.0921 79.1412 39.3885C81.2597 39.6734 83.9285 39.667 87.0846 39.667V33.667ZM70.3346 22.917C70.3346 26.0731 70.3283 28.742 70.6131 30.8605C70.9095 33.0653 71.5698 35.1175 73.227 36.7747L77.4696 32.532C77.1131 32.1755 76.7666 31.6005 76.5596 30.061C76.341 28.4352 76.3346 26.2427 76.3346 22.917H70.3346ZM97.8346 22.917C97.8346 26.2427 97.8283 28.4352 97.6097 30.061C97.4027 31.6005 97.0562 32.1755 96.6997 32.532L100.942 36.7747C102.599 35.1175 103.26 33.0653 103.556 30.8605C103.841 28.742 103.835 26.0731 103.835 22.917H97.8346ZM87.0846 39.667C90.2407 39.667 92.9096 39.6734 95.0281 39.3885C97.233 39.0921 99.2852 38.4318 100.942 36.7747L96.6997 32.532C96.3432 32.8885 95.7681 33.2351 94.2286 33.442C92.6028 33.6606 90.4104 33.667 87.0846 33.667V39.667ZM87.0846 12.167C90.4104 12.167 92.6028 12.1734 94.2286 12.3919C95.7681 12.5989 96.3432 12.9454 96.6997 13.302L100.942 9.05931C99.2852 7.40219 97.233 6.74188 95.0281 6.44545C92.9096 6.16062 90.2407 6.16699 87.0846 6.16699V12.167ZM103.835 22.917C103.835 19.7609 103.841 17.092 103.556 14.9735C103.26 12.7687 102.599 10.7164 100.942 9.05931L96.6997 13.302C97.0562 13.6585 97.4027 14.2335 97.6097 15.773C97.8283 17.3988 97.8346 19.5913 97.8346 22.917H103.835ZM87.0846 6.16699C83.9285 6.16699 81.2597 6.16062 79.1412 6.44545C76.9363 6.74188 74.8841 7.40219 73.227 9.05931L77.4696 13.302C77.8261 12.9454 78.4011 12.5989 79.9406 12.3919C81.5664 12.1734 83.7589 12.167 87.0846 12.167V6.16699ZM76.3346 22.917C76.3346 19.5913 76.341 17.3988 76.5596 15.773C76.7666 14.2335 77.1131 13.6585 77.4696 13.302L73.227 9.05931C71.5698 10.7164 70.9095 12.7687 70.6131 14.9735C70.3283 17.092 70.3346 19.7609 70.3346 22.917H76.3346ZM87.0846 97.8337C83.7589 97.8337 81.5664 97.8273 79.9406 97.6087C78.4011 97.4017 77.8261 97.0552 77.4696 96.6987L73.227 100.941C74.8841 102.598 76.9363 103.259 79.1412 103.555C81.2597 103.84 83.9285 103.834 87.0846 103.834V97.8337ZM70.3346 87.0837C70.3346 90.2398 70.3283 92.9086 70.6131 95.0272C70.9095 97.232 71.5698 99.2842 73.227 100.941L77.4696 96.6987C77.1131 96.3422 76.7666 95.7672 76.5596 94.2277C76.341 92.6019 76.3346 90.4094 76.3346 87.0837H70.3346ZM97.8346 87.0837C97.8346 90.4094 97.8283 92.6019 97.6097 94.2277C97.4027 95.7672 97.0562 96.3422 96.6997 96.6987L100.942 100.941C102.599 99.2842 103.26 97.232 103.556 95.0272C103.841 92.9086 103.835 90.2398 103.835 87.0837H97.8346ZM87.0846 103.834C90.2407 103.834 92.9096 103.84 95.0281 103.555C97.233 103.259 99.2852 102.598 100.942 100.941L96.6997 96.6987C96.3432 97.0552 95.7681 97.4017 94.2286 97.6087C92.6028 97.8273 90.4104 97.8337 87.0846 97.8337V103.834ZM87.0846 76.3337C90.4104 76.3337 92.6028 76.34 94.2286 76.5586C95.7681 76.7656 96.3432 77.1121 96.6997 77.4686L100.942 73.226C99.2852 71.5689 97.233 70.9086 95.0281 70.6121C92.9096 70.3273 90.2407 70.3337 87.0846 70.3337V76.3337ZM103.835 87.0837C103.835 83.9276 103.841 81.2587 103.556 79.1402C103.26 76.9354 102.599 74.8831 100.942 73.226L96.6997 77.4686C97.0562 77.8251 97.4027 78.4002 97.6097 79.9397C97.8283 81.5655 97.8346 83.7579 97.8346 87.0837H103.835ZM87.0846 70.3337C83.9285 70.3337 81.2597 70.3273 79.1412 70.6121C76.9363 70.9086 74.8841 71.5689 73.227 73.226L77.4696 77.4686C77.8261 77.1121 78.4011 76.7656 79.9406 76.5586C81.5664 76.34 83.7589 76.3337 87.0846 76.3337V70.3337ZM76.3346 87.0837C76.3346 83.7579 76.341 81.5655 76.5596 79.9397C76.7666 78.4002 77.1131 77.8251 77.4696 77.4686L73.227 73.226C71.5698 74.8831 70.9095 76.9354 70.6131 79.1402C70.3283 81.2587 70.3346 83.9276 70.3346 87.0837H76.3346ZM58.0013 65.7584V44.2422H52.0013V65.7584H58.0013ZM58.0013 44.2422C58.0013 36.2552 58.6875 31.9806 60.204 29.5552C61.4669 27.5353 63.6693 26.304 68.9742 25.9087L68.5284 19.9253C62.5904 20.3678 57.9179 21.8938 55.1165 26.3743C52.5687 30.4494 52.0013 36.4185 52.0013 44.2422H58.0013ZM52.0013 65.7584C52.0013 73.5822 52.5687 79.5513 55.1165 83.6263C57.9179 88.1069 62.5904 89.6329 68.5284 90.0754L68.9742 84.092C63.6693 83.6966 61.4669 82.4654 60.204 80.4455C58.6875 78.0201 58.0013 73.7455 58.0013 65.7584H52.0013ZM68.7513 25.917L73.3346 25.917L73.3346 19.917L68.7513 19.917L68.7513 25.917ZM68.7513 90.0837H73.3346V84.0837H68.7513V90.0837Z" fill="url(#paint0_linear_2098_14993)"/>
<defs>
<linearGradient id="paint0_linear_2098_14993" x1="-36.104" y1="54.7196" x2="55.0013" y2="146.386" gradientUnits="userSpaceOnUse">
<stop stop-color="#9168CD"/>
<stop offset="0.424673" stop-color="#5556FF"/>
<stop offset="0.73499" stop-color="#45ADCD"/>
<stop offset="1" stop-color="#3EC4CD"/>
</linearGradient>
</defs>
</svg>
