<svg width="110" height="110" viewBox="0 0 110 110" fill="none" xmlns="http://www.w3.org/2000/svg">
<path d="M85.4987 9.16699C85.4987 7.51014 84.1556 6.16699 82.4987 6.16699C80.8418 6.16699 79.4987 7.51014 79.4987 9.16699H85.4987ZM79.4987 18.3337C79.4987 19.9905 80.8418 21.3337 82.4987 21.3337C84.1556 21.3337 85.4987 19.9905 85.4987 18.3337H79.4987ZM30.4987 9.16699C30.4987 7.51014 29.1556 6.16699 27.4987 6.16699C25.8418 6.16699 24.4987 7.51014 24.4987 9.16699H30.4987ZM24.4987 18.3337C24.4987 19.9905 25.8418 21.3337 27.4987 21.3337C29.1556 21.3337 30.4987 19.9905 30.4987 18.3337H24.4987ZM54.9781 56.5837C53.3213 56.5837 51.9781 57.9268 51.9781 59.5837C51.9781 61.2405 53.3213 62.5837 54.9781 62.5837V56.5837ZM55.0193 62.5837C56.6761 62.5837 58.0193 61.2405 58.0193 59.5837C58.0193 57.9268 56.6761 56.5837 55.0193 56.5837V62.5837ZM54.9781 74.917C53.3213 74.917 51.9781 76.2601 51.9781 77.917C51.9781 79.5738 53.3213 80.917 54.9781 80.917V74.917ZM55.0193 80.917C56.6761 80.917 58.0193 79.5738 58.0193 77.917C58.0193 76.2601 56.6761 74.917 55.0193 74.917V80.917ZM73.2909 56.5837C71.6341 56.5837 70.2909 57.9268 70.2909 59.5837C70.2909 61.2405 71.6341 62.5837 73.2909 62.5837V56.5837ZM73.332 62.5837C74.9889 62.5837 76.332 61.2405 76.332 59.5837C76.332 57.9268 74.9889 56.5837 73.332 56.5837V62.5837ZM36.6654 56.5837C35.0085 56.5837 33.6654 57.9268 33.6654 59.5837C33.6654 61.2405 35.0085 62.5837 36.6654 62.5837V56.5837ZM36.7065 62.5837C38.3633 62.5837 39.7065 61.2405 39.7065 59.5837C39.7065 57.9268 38.3633 56.5837 36.7065 56.5837V62.5837ZM36.6654 74.917C35.0085 74.917 33.6654 76.2601 33.6654 77.917C33.6654 79.5738 35.0085 80.917 36.6654 80.917V74.917ZM36.7065 80.917C38.3633 80.917 39.7065 79.5738 39.7065 77.917C39.7065 76.2601 38.3633 74.917 36.7065 74.917V80.917ZM16.0404 33.667C14.3835 33.667 13.0404 35.0101 13.0404 36.667C13.0404 38.3238 14.3835 39.667 16.0404 39.667V33.667ZM93.957 39.667C95.6139 39.667 96.957 38.3238 96.957 36.667C96.957 35.0101 95.6139 33.667 93.957 33.667V39.667ZM13.7487 33.667C12.0918 33.667 10.7487 35.0101 10.7487 36.667C10.7487 38.3238 12.0918 39.667 13.7487 39.667V33.667ZM96.2487 39.667C97.9055 39.667 99.2487 38.3238 99.2487 36.667C99.2487 35.0101 97.9055 33.667 96.2487 33.667V39.667ZM79.4987 9.16699V18.3337H85.4987V9.16699H79.4987ZM24.4987 9.16699V18.3337H30.4987V9.16699H24.4987ZM54.9781 62.5837H55.0193V56.5837H54.9781V62.5837ZM54.9781 80.917H55.0193V74.917H54.9781V80.917ZM73.2909 62.5837H73.332V56.5837H73.2909V62.5837ZM36.6654 62.5837H36.7065V56.5837H36.6654V62.5837ZM36.6654 80.917H36.7065V74.917H36.6654V80.917ZM16.0404 39.667H93.957V33.667H16.0404V39.667ZM50.6445 16.7503H59.3529V10.7503H50.6445V16.7503ZM95.5404 56.1152V58.4688H101.54V56.1152H95.5404ZM59.3529 97.8337H50.6445V103.834H59.3529V97.8337ZM14.457 58.4688V56.1152H8.45703V58.4688H14.457ZM50.6445 97.8337C41.3165 97.8337 34.6463 97.8262 29.5764 97.0893C24.6182 96.3687 21.6295 95.0045 19.3982 92.5923L14.9936 96.6666C18.5012 100.459 23.0002 102.197 28.7134 103.027C34.3147 103.841 41.4994 103.834 50.6445 103.834V97.8337ZM8.45703 58.4688C8.45703 68.3757 8.45157 76.0853 9.19732 82.0819C9.95103 88.1424 11.5168 92.9078 14.9936 96.6666L19.3982 92.5923C17.1362 90.1469 15.8325 86.8175 15.1515 81.3414C14.4625 75.8015 14.457 68.5329 14.457 58.4688H8.45703ZM95.5404 58.4688C95.5404 68.5329 95.5349 75.8015 94.8459 81.3414C94.1649 86.8175 92.8612 90.1469 90.5992 92.5923L95.0038 96.6666C98.4806 92.9078 100.046 88.1424 100.8 82.0819C101.546 76.0853 101.54 68.3757 101.54 58.4688H95.5404ZM59.3529 103.834C68.498 103.834 75.6827 103.841 81.284 103.027C86.9972 102.197 91.4962 100.459 95.0038 96.6666L90.5992 92.5923C88.3679 95.0045 85.3792 96.3687 80.421 97.0893C75.3511 97.8262 68.6809 97.8337 59.3529 97.8337V103.834ZM59.3529 16.7503C68.6809 16.7503 75.3511 16.7577 80.421 17.4947C85.3792 18.2153 88.3679 19.5795 90.5992 21.9916L95.0038 17.9174C91.4962 14.1254 86.9972 12.3874 81.284 11.557C75.6827 10.7429 68.498 10.7503 59.3529 10.7503V16.7503ZM101.54 56.1152C101.54 46.2083 101.546 38.4987 100.8 32.5021C100.046 26.4416 98.4806 21.6761 95.0038 17.9174L90.5992 21.9916C92.8612 24.4371 94.1649 27.7665 94.8459 33.2425C95.5349 38.7825 95.5404 46.0511 95.5404 56.1152H101.54ZM50.6445 10.7503C41.4994 10.7503 34.3147 10.7429 28.7134 11.557C23.0002 12.3874 18.5012 14.1254 14.9936 17.9174L19.3982 21.9916C21.6295 19.5795 24.6182 18.2153 29.5764 17.4947C34.6463 16.7577 41.3165 16.7503 50.6445 16.7503V10.7503ZM14.457 56.1152C14.457 46.0511 14.4625 38.7825 15.1515 33.2425C15.8325 27.7665 17.1362 24.4371 19.3982 21.9916L14.9936 17.9174C11.5168 21.6761 9.95103 26.4416 9.19732 32.5021C8.45157 38.4987 8.45703 46.2083 8.45703 56.1152H14.457ZM13.7487 39.667H96.2487V33.667H13.7487V39.667Z" fill="url(#paint0_linear_2108_16753)"/>
<defs>
<linearGradient id="paint0_linear_2108_16753" x1="-31.5513" y1="54.7196" x2="59.4629" y2="141.716" gradientUnits="userSpaceOnUse">
<stop stop-color="#9168CD"/>
<stop offset="0.424673" stop-color="#5556FF"/>
<stop offset="0.73499" stop-color="#45ADCD"/>
<stop offset="1" stop-color="#3EC4CD"/>
</linearGradient>
</defs>
</svg>
