<svg width="152" height="152" viewBox="0 0 152 152" fill="none" xmlns="http://www.w3.org/2000/svg">
<path d="M69 36C69 34.3431 67.6569 33 66 33C64.3431 33 63 34.3431 63 36H69ZM63 44C63 45.6569 64.3431 47 66 47C67.6569 47 69 45.6569 69 44H63ZM89 36C89 34.3431 87.6569 33 86 33C84.3431 33 83 34.3431 83 36H89ZM83 44C83 45.6569 84.3431 47 86 47C87.6569 47 89 45.6569 89 44H83ZM69 108C69 106.343 67.6569 105 66 105C64.3431 105 63 106.343 63 108H69ZM63 116C63 117.657 64.3431 119 66 119C67.6569 119 69 117.657 69 116H63ZM89 108C89 106.343 87.6569 105 86 105C84.3431 105 83 106.343 83 108H89ZM83 116C83 117.657 84.3431 119 86 119C87.6569 119 89 117.657 89 116H83ZM82.1213 66.1213C83.2929 64.9497 83.2929 63.0503 82.1213 61.8787C80.9497 60.7071 79.0503 60.7071 77.8787 61.8787L82.1213 66.1213ZM61.8787 77.8787C60.7071 79.0503 60.7071 80.9497 61.8787 82.1213C63.0503 83.2929 64.9497 83.2929 66.1213 82.1213L61.8787 77.8787ZM90.1213 82.1213C91.2929 80.9497 91.2929 79.0503 90.1213 77.8787C88.9497 76.7071 87.0503 76.7071 85.8787 77.8787L90.1213 82.1213ZM77.8787 85.8787C76.7071 87.0503 76.7071 88.9497 77.8787 90.1213C79.0503 91.2929 80.9497 91.2929 82.1213 90.1213L77.8787 85.8787ZM116 89C117.657 89 119 87.6569 119 86C119 84.3431 117.657 83 116 83V89ZM108 83C106.343 83 105 84.3431 105 86C105 87.6569 106.343 89 108 89V83ZM44 69C45.6569 69 47 67.6569 47 66C47 64.3431 45.6569 63 44 63V69ZM36 63C34.3431 63 33 64.3431 33 66C33 67.6569 34.3431 69 36 69V63ZM44 89C45.6569 89 47 87.6569 47 86C47 84.3431 45.6569 83 44 83V89ZM36 83C34.3431 83 33 84.3431 33 86C33 87.6569 34.3431 89 36 89V83ZM116 69C117.657 69 119 67.6569 119 66C119 64.3431 117.657 63 116 63V69ZM108 63C106.343 63 105 64.3431 105 66C105 67.6569 106.343 69 108 69V63ZM76 105C68.3727 105 62.9541 104.994 58.8434 104.441C54.819 103.9 52.5005 102.885 50.8076 101.192L46.565 105.435C49.5584 108.428 53.3542 109.757 58.0439 110.387C62.6473 111.006 68.5423 111 76 111V105ZM41 76C41 83.4577 40.9936 89.3527 41.6125 93.9561C42.2431 98.6458 43.5715 102.442 46.565 105.435L50.8076 101.192C49.1148 99.4995 48.1001 97.181 47.559 93.1566C47.0064 89.0459 47 83.6273 47 76H41ZM105 76C105 83.6273 104.994 89.0459 104.441 93.1566C103.9 97.181 102.885 99.4995 101.192 101.192L105.435 105.435C108.428 102.442 109.757 98.6458 110.387 93.9561C111.006 89.3527 111 83.4577 111 76H105ZM76 111C83.4577 111 89.3527 111.006 93.9561 110.387C98.6458 109.757 102.442 108.428 105.435 105.435L101.192 101.192C99.4995 102.885 97.181 103.9 93.1566 104.441C89.0459 104.994 83.6273 105 76 105V111ZM76 47C83.6273 47 89.0459 47.0064 93.1566 47.559C97.181 48.1001 99.4995 49.1148 101.192 50.8076L105.435 46.565C102.442 43.5715 98.6458 42.2431 93.9561 41.6125C89.3527 40.9936 83.4577 41 76 41V47ZM111 76C111 68.5423 111.006 62.6473 110.387 58.0439C109.757 53.3542 108.428 49.5584 105.435 46.565L101.192 50.8076C102.885 52.5005 103.9 54.819 104.441 58.8434C104.994 62.9541 105 68.3727 105 76H111ZM76 41C68.5423 41 62.6473 40.9936 58.0439 41.6125C53.3542 42.2431 49.5584 43.5715 46.565 46.565L50.8076 50.8076C52.5005 49.1148 54.819 48.1001 58.8434 47.559C62.9541 47.0064 68.3727 47 76 47V41ZM47 76C47 68.3727 47.0064 62.9541 47.559 58.8434C48.1001 54.819 49.1148 52.5005 50.8076 50.8076L46.565 46.565C43.5715 49.5584 42.2431 53.3542 41.6125 58.0439C40.9936 62.6473 41 68.5423 41 76H47ZM63 36V44H69V36H63ZM83 36V44H89V36H83ZM63 108V116H69V108H63ZM83 108V116H89V108H83ZM77.8787 61.8787L61.8787 77.8787L66.1213 82.1213L82.1213 66.1213L77.8787 61.8787ZM85.8787 77.8787L77.8787 85.8787L82.1213 90.1213L90.1213 82.1213L85.8787 77.8787ZM116 83H108V89H116V83ZM44 63H36V69H44V63ZM44 83H36V89H44V83ZM116 63H108V69H116V63Z" fill="url(#paint0_linear_2483_15962)"/>
<rect x="4" y="4" width="144" height="144" rx="72" stroke="url(#paint1_linear_2483_15962)" stroke-width="8"/>
<defs>
<linearGradient id="paint0_linear_2483_15962" x1="-3.51004" y1="75.755" x2="76" y2="155.755" gradientUnits="userSpaceOnUse">
<stop stop-color="#9168CD"/>
<stop offset="0.424673" stop-color="#5556FF"/>
<stop offset="0.73499" stop-color="#45ADCD"/>
<stop offset="1" stop-color="#3EC4CD"/>
</linearGradient>
<linearGradient id="paint1_linear_2483_15962" x1="-75.0691" y1="75.5345" x2="76.0001" y2="227.534" gradientUnits="userSpaceOnUse">
<stop stop-color="#9168CD"/>
<stop offset="0.424673" stop-color="#5556FF"/>
<stop offset="0.73499" stop-color="#45ADCD"/>
<stop offset="1" stop-color="#3EC4CD"/>
</linearGradient>
</defs>
</svg>
