<svg width="110" height="110" viewBox="0 0 110 110" fill="none" xmlns="http://www.w3.org/2000/svg">
<path d="M30.4985 50.286C30.4263 48.6307 29.0259 47.3473 27.3706 47.4195C25.7154 47.4917 24.432 48.8921 24.5041 50.5473L30.4985 50.286ZM28.6527 76.8275L25.6556 76.9582L25.6556 76.9582L28.6527 76.8275ZM85.4984 50.5473C85.5706 48.8921 84.2872 47.4917 82.632 47.4195C80.9767 47.3473 79.5763 48.6307 79.5041 50.286L85.4984 50.5473ZM81.3499 76.8275L84.347 76.9582L84.347 76.9582L81.3499 76.8275ZM31.4754 81.6035L33.2228 79.1649L33.2228 79.1649L31.4754 81.6035ZM78.5273 81.6035L76.7798 79.1649L76.7798 79.1649L78.5273 81.6035ZM81.3052 77.1624L78.3843 76.4782L78.3843 76.4782L81.3052 77.1624ZM28.6974 77.1624L25.7764 77.8466L25.7764 77.8466L28.6974 77.1624ZM96.9596 43.5417C96.9596 41.8848 95.6165 40.5417 93.9596 40.5417C92.3028 40.5417 90.9596 41.8848 90.9596 43.5417H96.9596ZM87.412 90.5824L84.4932 89.889L87.412 90.5824ZM100.507 90.5824L103.426 89.889L103.426 89.889L100.507 90.5824ZM12.168 36.6667C12.168 37.0201 12.0447 37.1327 12.1651 36.9305C12.2738 36.7478 12.5016 36.4442 12.9171 36.0231C13.7487 35.1801 15.0485 34.1488 16.7844 32.9799C20.2341 30.6571 25.0052 28.0563 30.1238 25.6086C35.2291 23.1673 40.5893 20.9215 45.1806 19.2934C47.4774 18.4789 49.5493 17.8307 51.2804 17.3896C53.0648 16.935 54.3009 16.75 55.0013 16.75V10.75C53.5317 10.75 51.708 11.089 49.7991 11.5753C47.837 12.0752 45.5822 12.7849 43.1753 13.6384C38.3591 15.3463 32.8035 17.6765 27.5354 20.1957C22.2807 22.7084 17.221 25.4525 13.4332 28.003C11.5503 29.2709 9.87974 30.5584 8.64564 31.8095C8.02821 32.4354 7.4493 33.1226 7.0096 33.8612C6.58146 34.5803 6.16797 35.5445 6.16797 36.6667H12.168ZM103.835 36.6667C103.835 35.5445 103.421 34.5803 102.993 33.8612C102.553 33.1226 101.974 32.4354 101.357 31.8095C100.123 30.5584 98.4523 29.2709 96.5694 28.003C92.7816 25.4525 87.7219 22.7084 82.4672 20.1957C77.1991 17.6765 71.6435 15.3463 66.8273 13.6384C64.4204 12.7849 62.1656 12.0752 60.2035 11.5753C58.2946 11.089 56.4709 10.75 55.0013 10.75V16.75C55.7017 16.75 56.9378 16.935 58.7222 17.3896C60.4533 17.8307 62.5252 18.4789 64.822 19.2934C69.4133 20.9215 74.7735 23.1673 79.8788 25.6086C84.9974 28.0563 89.7685 30.6571 93.2182 32.9799C94.9541 34.1488 96.2539 35.1801 97.0855 36.0231C97.501 36.4442 97.7288 36.7478 97.8375 36.9305C97.9579 37.1327 97.8346 37.0201 97.8346 36.6667H103.835ZM97.8346 36.6667C97.8346 36.3132 97.9579 36.2007 97.8375 36.4028C97.7288 36.5855 97.501 36.8891 97.0855 37.3102C96.2539 38.1532 94.9541 39.1846 93.2182 40.3534C89.7685 42.6763 84.9974 45.277 79.8788 47.7247C74.7735 50.166 69.4133 52.4118 64.822 54.0399C62.5252 54.8544 60.4533 55.5027 58.7222 55.9437C56.9378 56.3984 55.7017 56.5833 55.0013 56.5833V62.5833C56.4709 62.5833 58.2946 62.2443 60.2035 61.758C62.1656 61.2581 64.4204 60.5484 66.8273 59.6949C71.6435 57.987 77.1991 55.6568 82.4672 53.1377C87.7219 50.6249 92.7816 47.8809 96.5694 45.3303C98.4523 44.0624 100.123 42.7749 101.357 41.5239C101.974 40.898 102.553 40.2107 102.993 39.4722C103.421 38.7531 103.835 37.7888 103.835 36.6667H97.8346ZM6.16797 36.6667C6.16797 37.7888 6.58146 38.7531 7.0096 39.4722C7.4493 40.2107 8.02821 40.898 8.64564 41.5239C9.87974 42.7749 11.5503 44.0624 13.4332 45.3303C17.221 47.8808 22.2807 50.6249 27.5354 53.1377C32.8035 55.6568 38.3591 57.987 43.1753 59.6949C45.5822 60.5484 47.837 61.2581 49.7991 61.758C51.708 62.2443 53.5317 62.5833 55.0013 62.5833V56.5833C54.3009 56.5833 53.0648 56.3984 51.2804 55.9437C49.5493 55.5027 47.4774 54.8544 45.1806 54.0399C40.5893 52.4118 35.2291 50.166 30.1238 47.7247C25.0052 45.277 20.2341 42.6763 16.7844 40.3534C15.0485 39.1846 13.7487 38.1532 12.9171 37.3102C12.5016 36.8891 12.2738 36.5855 12.1651 36.4028C12.0447 36.2007 12.168 36.3132 12.168 36.6667H6.16797ZM24.5041 50.5473L25.6556 76.9582L31.6499 76.6968L30.4985 50.286L24.5041 50.5473ZM79.5041 50.286L78.3527 76.6968L84.347 76.9582L85.4984 50.5473L79.5041 50.286ZM29.7279 84.042C32.7315 86.1944 36.7425 87.682 41.0414 88.6413C45.3793 89.6094 50.2086 90.0833 55.0013 90.0833C59.794 90.0833 64.6233 89.6094 68.9612 88.6413C73.2601 87.682 77.2711 86.1944 80.2747 84.042L76.7798 79.1649C74.6855 80.6658 71.5405 81.9181 67.6544 82.7854C63.8073 83.6439 59.4226 84.0833 55.0013 84.0833C50.58 84.0833 46.1953 83.6439 42.3482 82.7854C38.4621 81.9181 35.3172 80.6658 33.2228 79.1649L29.7279 84.042ZM78.3843 76.4782C78.0916 77.7276 77.5097 78.6419 76.7798 79.1649L80.2747 84.042C82.4809 82.461 83.6953 80.1129 84.2262 77.8466L78.3843 76.4782ZM25.7764 77.8466C26.3073 80.1129 27.5217 82.461 29.7279 84.042L33.2228 79.1649C32.4929 78.6419 31.911 77.7276 31.6183 76.4782L25.7764 77.8466ZM78.3527 76.6968C78.3547 76.6501 78.3617 76.5746 78.3843 76.4782L84.2262 77.8466C84.3002 77.5304 84.3351 77.2304 84.347 76.9582L78.3527 76.6968ZM25.6556 76.9582C25.6675 77.2304 25.7024 77.5304 25.7764 77.8466L31.6183 76.4782C31.6409 76.5746 31.6479 76.6501 31.6499 76.6968L25.6556 76.9582ZM90.9596 43.5417V75.658H96.9596V43.5417H90.9596ZM90.3308 91.2758C91.0066 88.431 92.1667 85.8409 93.3952 83.4369C94.5344 81.2075 95.9748 78.7226 96.7499 76.76L91.1694 74.556C90.5318 76.1703 89.4553 77.9612 88.0524 80.7066C86.7387 83.2773 85.3314 86.361 84.4932 89.889L90.3308 91.2758ZM103.426 89.889C102.588 86.361 101.181 83.2773 99.8669 80.7066C98.4639 77.9612 97.3875 76.1703 96.7499 74.556L91.1694 76.76C91.9445 78.7226 93.3848 81.2075 94.5241 83.4369C95.7526 85.8409 96.9127 88.431 97.5885 91.2758L103.426 89.889ZM95.4054 93.25H92.5138V99.25H95.4054V93.25ZM84.4932 89.889C83.9303 92.2587 83.6509 95.1869 85.7146 97.2567C86.6845 98.2295 87.8906 98.6965 88.9846 98.9392C90.0756 99.1811 91.2861 99.25 92.5138 99.25V93.25C91.4553 93.25 90.7485 93.1846 90.2837 93.0815C89.822 92.9791 89.8339 92.8904 89.9635 93.0204C90.1408 93.1982 90.113 93.3421 90.0928 93.1259C90.0663 92.8433 90.093 92.2765 90.3308 91.2758L84.4932 89.889ZM97.5885 91.2758C97.8262 92.2765 97.853 92.8433 97.8265 93.1259C97.8063 93.3421 97.7785 93.1982 97.9558 93.0204C98.0854 92.8904 98.0972 92.9791 97.6356 93.0815C97.1708 93.1846 96.464 93.25 95.4054 93.25V99.25C96.6332 99.25 97.8437 99.1811 98.9346 98.9392C100.029 98.6965 101.235 98.2295 102.205 97.2567C104.268 95.1869 103.989 92.2587 103.426 89.889L97.5885 91.2758Z" fill="url(#paint0_linear_2108_16755)"/>
<defs>
<linearGradient id="paint0_linear_2108_16755" x1="-36.104" y1="54.7473" x2="45.3853" y2="145.849" gradientUnits="userSpaceOnUse">
<stop stop-color="#9168CD"/>
<stop offset="0.424673" stop-color="#5556FF"/>
<stop offset="0.73499" stop-color="#45ADCD"/>
<stop offset="1" stop-color="#3EC4CD"/>
</linearGradient>
</defs>
</svg>
