<svg width="152" height="152" viewBox="0 0 152 152" fill="none" xmlns="http://www.w3.org/2000/svg">
<path d="M63.1641 12.667C63.1641 11.0101 61.8209 9.66699 60.1641 9.66699C58.5072 9.66699 57.1641 11.0101 57.1641 12.667H63.1641ZM57.1641 25.3337C57.1641 26.9905 58.5072 28.3337 60.1641 28.3337C61.8209 28.3337 63.1641 26.9905 63.1641 25.3337H57.1641ZM94.8307 12.667C94.8307 11.0101 93.4876 9.66699 91.8307 9.66699C90.1739 9.66699 88.8307 11.0101 88.8307 12.667H94.8307ZM88.8307 25.3337C88.8307 26.9905 90.1739 28.3337 91.8307 28.3337C93.4876 28.3337 94.8307 26.9905 94.8307 25.3337H88.8307ZM63.1641 126.667C63.1641 125.01 61.8209 123.667 60.1641 123.667C58.5072 123.667 57.1641 125.01 57.1641 126.667H63.1641ZM57.1641 139.334C57.1641 140.991 58.5072 142.334 60.1641 142.334C61.8209 142.334 63.1641 140.991 63.1641 139.334H57.1641ZM94.8307 126.667C94.8307 125.01 93.4876 123.667 91.8307 123.667C90.1739 123.667 88.8307 125.01 88.8307 126.667H94.8307ZM88.8307 139.334C88.8307 140.991 90.1739 142.334 91.8307 142.334C93.4876 142.334 94.8307 140.991 94.8307 139.334H88.8307ZM84.452 59.1216C85.6236 57.9501 85.6236 56.0506 84.452 54.879C83.2805 53.7074 81.381 53.7074 80.2094 54.879L84.452 59.1216ZM54.8761 80.2123C53.7045 81.3839 53.7045 83.2834 54.8761 84.455C56.0476 85.6265 57.9471 85.6265 59.1187 84.455L54.8761 80.2123ZM97.1187 84.455C98.2903 83.2834 98.2903 81.3839 97.1187 80.2123C95.9471 79.0408 94.0477 79.0408 92.8761 80.2123L97.1187 84.455ZM80.2094 92.879C79.0378 94.0506 79.0378 95.9501 80.2094 97.1216C81.381 98.2932 83.2805 98.2932 84.4521 97.1216L80.2094 92.879ZM139.331 94.8337C140.988 94.8337 142.331 93.4905 142.331 91.8337C142.331 90.1768 140.988 88.8337 139.331 88.8337V94.8337ZM126.664 88.8337C125.007 88.8337 123.664 90.1768 123.664 91.8337C123.664 93.4905 125.007 94.8337 126.664 94.8337V88.8337ZM25.3307 63.167C26.9876 63.167 28.3307 61.8238 28.3307 60.167C28.3307 58.5101 26.9876 57.167 25.3307 57.167V63.167ZM12.6641 57.167C11.0072 57.167 9.66406 58.5101 9.66406 60.167C9.66406 61.8238 11.0072 63.167 12.6641 63.167V57.167ZM25.3307 94.8337C26.9876 94.8337 28.3307 93.4905 28.3307 91.8337C28.3307 90.1768 26.9876 88.8337 25.3307 88.8337V94.8337ZM12.6641 88.8337C11.0072 88.8337 9.66406 90.1768 9.66406 91.8337C9.66406 93.4905 11.0072 94.8337 12.6641 94.8337V88.8337ZM139.331 63.167C140.988 63.167 142.331 61.8238 142.331 60.167C142.331 58.5101 140.988 57.167 139.331 57.167V63.167ZM126.664 57.167C125.007 57.167 123.664 58.5101 123.664 60.167C123.664 61.8238 125.007 63.167 126.664 63.167V57.167ZM75.9974 123.667C63.9703 123.667 55.2518 123.661 48.5996 122.766C42.0336 121.883 37.9317 120.185 34.872 117.126L30.6294 121.368C34.9897 125.729 40.5688 127.741 47.8001 128.713C54.9451 129.673 64.14 129.667 75.9974 129.667V123.667ZM22.3307 76.0003C22.3307 87.8578 22.3244 97.0526 23.285 104.198C24.2572 111.429 26.2691 117.008 30.6294 121.368L34.872 117.126C31.8123 114.066 30.1142 109.964 29.2315 103.398C28.3371 96.7459 28.3307 88.0274 28.3307 76.0003H22.3307ZM123.664 76.0003C123.664 88.0274 123.658 96.7459 122.763 103.398C121.881 109.964 120.182 114.066 117.123 117.126L121.365 121.368C125.726 117.008 127.738 111.429 128.71 104.198C129.67 97.0526 129.664 87.8578 129.664 76.0003H123.664ZM75.9974 129.667C87.8548 129.667 97.0497 129.673 104.195 128.713C111.426 127.741 117.005 125.729 121.365 121.368L117.123 117.126C114.063 120.185 109.961 121.883 103.395 122.766C96.743 123.661 88.0245 123.667 75.9974 123.667V129.667ZM75.9974 28.3337C88.0245 28.3337 96.743 28.34 103.395 29.2344C109.961 30.1172 114.063 31.8153 117.123 34.8749L121.365 30.6323C117.005 26.272 111.426 24.2601 104.195 23.2879C97.0497 22.3273 87.8548 22.3337 75.9974 22.3337V28.3337ZM129.664 76.0003C129.664 64.1429 129.67 54.948 128.71 47.803C127.738 40.5717 125.726 34.9926 121.365 30.6323L117.123 34.8749C120.182 37.9346 121.881 42.0366 122.763 48.6025C123.658 55.2548 123.664 63.9733 123.664 76.0003H129.664ZM75.9974 22.3337C64.14 22.3337 54.9451 22.3273 47.8001 23.2879C40.5688 24.2601 34.9897 26.272 30.6294 30.6323L34.872 34.8749C37.9317 31.8153 42.0336 30.1172 48.5996 29.2344C55.2518 28.34 63.9703 28.3337 75.9974 28.3337V22.3337ZM28.3307 76.0003C28.3307 63.9733 28.3371 55.2548 29.2315 48.6025C30.1142 42.0366 31.8123 37.9346 34.872 34.8749L30.6294 30.6323C26.2691 34.9926 24.2572 40.5717 23.285 47.803C22.3244 54.948 22.3307 64.1429 22.3307 76.0003H28.3307ZM57.1641 12.667V25.3337H63.1641V12.667H57.1641ZM88.8307 12.667V25.3337H94.8307V12.667H88.8307ZM57.1641 126.667V139.334H63.1641V126.667H57.1641ZM88.8307 126.667V139.334H94.8307V126.667H88.8307ZM80.2094 54.879L54.8761 80.2123L59.1187 84.455L84.452 59.1216L80.2094 54.879ZM92.8761 80.2123L80.2094 92.879L84.4521 97.1216L97.1187 84.455L92.8761 80.2123ZM139.331 88.8337H126.664V94.8337H139.331V88.8337ZM25.3307 57.167H12.6641V63.167H25.3307V57.167ZM25.3307 88.8337H12.6641V94.8337H25.3307V88.8337ZM139.331 57.167H126.664V63.167H139.331V57.167Z" fill="url(#paint0_linear_2625_17065)"/>
<defs>
<linearGradient id="paint0_linear_2625_17065" x1="-49.8935" y1="75.6124" x2="75.9974" y2="202.279" gradientUnits="userSpaceOnUse">
<stop stop-color="#9168CD"/>
<stop offset="0.424673" stop-color="#5556FF"/>
<stop offset="0.73499" stop-color="#45ADCD"/>
<stop offset="1" stop-color="#3EC4CD"/>
</linearGradient>
</defs>
</svg>
