<svg width="152" height="152" viewBox="0 0 152 152" fill="none" xmlns="http://www.w3.org/2000/svg">
<path d="M95.4853 76.5664L98.4684 76.885L98.4684 76.885L95.4853 76.5664ZM56.5095 76.5664L53.5264 76.885L53.5264 76.885L56.5095 76.5664ZM102.504 68.5073L102.229 65.52L102.229 65.52L102.504 68.5073ZM49.4904 68.5073L49.2147 71.4946L49.2147 71.4946L49.4904 68.5073ZM75.9962 73C74.3393 73 72.9962 74.3431 72.9962 76C72.9962 77.6569 74.3393 79 75.9962 79V73ZM76.0531 79C77.7099 79 79.0531 77.6569 79.0531 76C79.0531 74.3431 77.7099 73 76.0531 73V79ZM25.3307 16C23.6739 16 22.3307 17.3431 22.3307 19C22.3307 20.6569 23.6739 22 25.3307 22V16ZM50.6641 22C52.3209 22 53.6641 20.6569 53.6641 19C53.6641 17.3431 52.3209 16 50.6641 16V22ZM34.9974 44.3333C34.9974 45.9902 36.3405 47.3333 37.9974 47.3333C39.6543 47.3333 40.9974 45.9902 40.9974 44.3333H34.9974ZM101.331 16C99.6739 16 98.3307 17.3431 98.3307 19C98.3307 20.6569 99.6739 22 101.331 22V16ZM126.664 22C128.321 22 129.664 20.6569 129.664 19C129.664 17.3431 128.321 16 126.664 16V22ZM110.997 44.3333C110.997 45.9902 112.341 47.3333 113.997 47.3333C115.654 47.3333 116.997 45.9902 116.997 44.3333H110.997ZM28.6641 133C28.6641 134.657 30.0072 136 31.6641 136C33.3209 136 34.6641 134.657 34.6641 133H28.6641ZM117.331 133C117.331 134.657 118.674 136 120.331 136C121.988 136 123.331 134.657 123.331 133H117.331ZM88.6641 88.8333C87.0072 88.8333 85.6641 90.1765 85.6641 91.8333C85.6641 93.4902 87.0072 94.8333 88.6641 94.8333V88.8333ZM63.3307 94.8333C64.9876 94.8333 66.3307 93.4902 66.3307 91.8333C66.3307 90.1765 64.9876 88.8333 63.3307 88.8333V94.8333ZM15.6641 57C15.6641 57.2165 15.5412 57.0877 16.0477 56.5927C16.5591 56.0928 17.4744 55.4669 18.9235 54.7816C21.8066 53.4184 26.1701 52.1115 31.8023 50.9851C43.0174 48.742 58.6443 47.3333 75.9974 47.3333V41.3333C58.3725 41.3333 42.3327 42.7601 30.6256 45.1016C24.7968 46.2673 19.8853 47.6899 16.3587 49.3575C14.603 50.1877 13.0297 51.1525 11.8539 52.3018C10.673 53.4559 9.66406 55.0346 9.66406 57H15.6641ZM75.9974 47.3333C93.3505 47.3333 108.977 48.742 120.192 50.9851C125.825 52.1115 130.188 53.4184 133.071 54.7816C134.52 55.4669 135.436 56.0928 135.947 56.5927C136.454 57.0877 136.331 57.2165 136.331 57H142.331C142.331 55.0346 141.322 53.4559 140.141 52.3018C138.965 51.1525 137.392 50.1877 135.636 49.3575C132.109 47.6899 127.198 46.2673 121.369 45.1016C109.662 42.7601 93.6223 41.3333 75.9974 41.3333V47.3333ZM92.5023 76.2478C91.5588 85.0811 84.5107 92 75.9974 92V98C87.954 98 97.2407 88.3787 98.4684 76.885L92.5023 76.2478ZM75.9974 92C67.4841 92 60.436 85.0811 59.4925 76.2478L53.5264 76.885C54.754 88.3787 64.0408 98 75.9974 98V92ZM136.331 57C136.331 56.699 136.518 57.1476 134.978 58.1671C133.571 59.0983 131.319 60.088 128.191 61.0464C121.978 62.9501 112.997 64.5261 102.229 65.52L102.78 71.4946C113.751 70.482 123.184 68.8558 129.949 66.7832C133.31 65.7534 136.188 64.5614 138.29 63.1701C140.258 61.8672 142.331 59.8525 142.331 57H136.331ZM49.7661 65.52C38.9975 64.5261 30.0173 62.9501 23.8038 61.0464C20.6758 60.088 18.4236 59.0983 17.0171 58.1671C15.4771 57.1476 15.6641 56.6989 15.6641 57H9.66406C9.66406 59.8525 11.7369 61.8672 13.705 63.1701C15.8067 64.5614 18.6849 65.7534 22.0461 66.7832C28.8109 68.8558 38.2439 70.482 49.2147 71.4946L49.7661 65.52ZM59.4925 76.2478C58.9852 71.4979 55.6147 66.0597 49.7661 65.52L49.2147 71.4946C51.1966 71.6775 53.1986 73.8156 53.5264 76.885L59.4925 76.2478ZM98.4684 76.885C98.7962 73.8156 100.798 71.6775 102.78 71.4946L102.229 65.52C96.3801 66.0598 93.0096 71.4979 92.5023 76.2478L98.4684 76.885ZM75.9962 79H76.0531V73H75.9962V79ZM25.3307 22H37.9974V16H25.3307V22ZM37.9974 22H50.6641V16H37.9974V22ZM34.9974 19V44.3333H40.9974V19H34.9974ZM101.331 22H113.997V16H101.331V22ZM113.997 22H126.664V16H113.997V22ZM110.997 19V44.3333H116.997V19H110.997ZM28.6641 123.5V133H34.6641V123.5H28.6641ZM117.331 123.5V133H123.331V123.5H117.331ZM88.6641 94.8333C104.496 94.8333 117.331 107.668 117.331 123.5H123.331C123.331 104.354 107.81 88.8333 88.6641 88.8333V94.8333ZM63.3307 88.8333C44.1849 88.8333 28.6641 104.354 28.6641 123.5H34.6641C34.6641 107.668 47.4986 94.8333 63.3307 94.8333V88.8333Z" fill="url(#paint0_linear_2625_17058)"/>
<defs>
<linearGradient id="paint0_linear_2625_17058" x1="-49.8935" y1="75.6509" x2="62.7098" y2="201.537" gradientUnits="userSpaceOnUse">
<stop stop-color="#9168CD"/>
<stop offset="0.424673" stop-color="#5556FF"/>
<stop offset="0.73499" stop-color="#45ADCD"/>
<stop offset="1" stop-color="#3EC4CD"/>
</linearGradient>
</defs>
</svg>
