<svg width="152" height="152" viewBox="0 0 152 152" fill="none" xmlns="http://www.w3.org/2000/svg">
<path d="M69.4974 44.3337C69.4974 42.6768 68.1542 41.3337 66.4974 41.3337C64.8405 41.3337 63.4974 42.6768 63.4974 44.3337H69.4974ZM63.4974 82.3337C63.4974 83.9905 64.8405 85.3337 66.4974 85.3337C68.1542 85.3337 69.4974 83.9905 69.4974 82.3337H63.4974ZM44.1641 44.3337C44.1641 42.6768 42.8209 41.3337 41.1641 41.3337C39.5072 41.3337 38.1641 42.6768 38.1641 44.3337H44.1641ZM82.4974 82.3337C82.4974 83.9905 83.8405 85.3337 85.4974 85.3337C87.1542 85.3337 88.4974 83.9905 88.4974 82.3337H82.4974ZM88.4974 44.3337C88.4974 42.6768 87.1542 41.3337 85.4974 41.3337C83.8405 41.3337 82.4974 42.6768 82.4974 44.3337H88.4974ZM112.631 46.7337C113.956 45.7395 114.225 43.8591 113.231 42.5337C112.237 41.2082 110.356 40.9395 109.031 41.9337L112.631 46.7337ZM109.031 84.7337C110.356 85.7278 112.237 85.4591 113.231 84.1337C114.225 82.8082 113.956 80.9278 112.631 79.9337L109.031 84.7337ZM99.9043 141.973C101.362 142.761 103.182 142.218 103.97 140.76C104.758 139.303 104.215 137.482 102.757 136.694L99.9043 141.973ZM49.2376 136.694C47.78 137.482 47.2371 139.303 48.0249 140.76C48.8127 142.218 50.6329 142.761 52.0905 141.973L49.2376 136.694ZM63.4974 44.3337V63.3337H69.4974V44.3337H63.4974ZM63.4974 63.3337V82.3337H69.4974V63.3337H63.4974ZM38.1641 44.3337V50.667H44.1641V44.3337H38.1641ZM38.1641 50.667C38.1641 53.5677 38.1577 56.0451 38.4227 58.0161C38.6993 60.0734 39.3199 62.0222 40.8977 63.6L45.1404 59.3573C44.8632 59.0802 44.5563 58.6086 44.3692 57.2166C44.1704 55.7383 44.1641 53.7374 44.1641 50.667H38.1641ZM53.8307 60.3337C50.7604 60.3337 48.7594 60.3273 47.2811 60.1285C45.8891 59.9414 45.4176 59.6345 45.1404 59.3573L40.8977 63.6C42.4755 65.1778 44.4243 65.7984 46.4816 66.075C48.4526 66.34 50.93 66.3337 53.8307 66.3337V60.3337ZM53.8307 66.3337H66.4974V60.3337H53.8307V66.3337ZM88.4974 82.3337V63.3337H82.4974V82.3337H88.4974ZM88.4974 63.3337V44.3337H82.4974V63.3337H88.4974ZM87.2974 65.7337L112.631 46.7337L109.031 41.9337L83.6974 60.9337L87.2974 65.7337ZM83.6974 65.7337L109.031 84.7337L112.631 79.9337L87.2974 60.9337L83.6974 65.7337ZM63.3307 15.667H88.6641V9.66699H63.3307V15.667ZM88.6641 111H63.3307V117H88.6641V111ZM63.3307 111C51.3037 111 42.5852 110.994 35.9329 110.1C29.367 109.217 25.265 107.519 22.2053 104.459L17.9627 108.702C22.323 113.062 27.9021 115.074 35.1334 116.046C42.2784 117.007 51.4733 117 63.3307 117V111ZM9.66406 63.3337C9.66406 75.1911 9.65769 84.386 10.6183 91.531C11.5905 98.7622 13.6024 104.341 17.9627 108.702L22.2053 104.459C19.1457 101.399 17.4476 97.2974 16.5648 90.7315C15.6704 84.0792 15.6641 75.3607 15.6641 63.3337H9.66406ZM136.331 63.3337C136.331 75.3607 136.324 84.0792 135.43 90.7315C134.547 97.2974 132.849 101.399 129.789 104.459L134.032 108.702C138.392 104.341 140.404 98.7622 141.376 91.531C142.337 84.386 142.331 75.1911 142.331 63.3337H136.331ZM88.6641 117C100.522 117 109.716 117.007 116.861 116.046C124.093 115.074 129.672 113.062 134.032 108.702L129.789 104.459C126.73 107.519 122.628 109.217 116.062 110.1C109.41 110.994 100.691 111 88.6641 111V117ZM88.6641 15.667C100.691 15.667 109.41 15.6734 116.062 16.5677C122.628 17.4505 126.73 19.1486 129.789 22.2083L134.032 17.9656C129.672 13.6053 124.093 11.5935 116.861 10.6212C109.716 9.66062 100.521 9.66699 88.6641 9.66699V15.667ZM142.331 63.3337C142.331 51.4762 142.337 42.2813 141.376 35.1364C140.404 27.9051 138.392 22.3259 134.032 17.9656L129.789 22.2083C132.849 25.2679 134.547 29.3699 135.43 35.9358C136.324 42.5881 136.331 51.3066 136.331 63.3337H142.331ZM63.3307 9.66699C51.4733 9.66699 42.2784 9.66062 35.1334 10.6212C27.9021 11.5935 22.323 13.6053 17.9627 17.9656L22.2053 22.2083C25.265 19.1486 29.367 17.4505 35.9329 16.5677C42.5852 15.6734 51.3037 15.667 63.3307 15.667V9.66699ZM15.6641 63.3337C15.6641 51.3066 15.6704 42.5881 16.5648 35.9358C17.4476 29.3699 19.1457 25.2679 22.2053 22.2083L17.9627 17.9656C13.6024 22.3259 11.5905 27.9051 10.6183 35.1364C9.65769 42.2813 9.66406 51.4762 9.66406 63.3337H15.6641ZM75.9974 136C84.7232 136 92.8858 138.179 99.9043 141.973L102.757 136.694C94.8708 132.432 85.7288 130 75.9974 130V136ZM52.0905 141.973C59.109 138.179 67.2716 136 75.9974 136V130C66.266 130 57.1239 132.432 49.2376 136.694L52.0905 141.973Z" fill="url(#paint0_linear_2625_17063)"/>
<defs>
<linearGradient id="paint0_linear_2625_17063" x1="-49.8935" y1="75.6124" x2="75.9975" y2="202.279" gradientUnits="userSpaceOnUse">
<stop stop-color="#9168CD"/>
<stop offset="0.424673" stop-color="#5556FF"/>
<stop offset="0.73499" stop-color="#45ADCD"/>
<stop offset="1" stop-color="#3EC4CD"/>
</linearGradient>
</defs>
</svg>
