<svg width="152" height="152" viewBox="0 0 152 152" fill="none" xmlns="http://www.w3.org/2000/svg">
<path d="M22.1641 123.866L23.7724 121.334L23.7724 121.334L22.1641 123.866ZM15.2096 116.216L12.5532 117.611L12.5532 117.611L15.2096 116.216ZM136.785 116.216L134.129 114.822L134.129 114.822L136.785 116.216ZM129.831 123.866L128.222 121.334L128.222 121.334L129.831 123.866ZM129.831 59.7997L128.222 62.3322L128.222 62.3322L129.831 59.7997ZM136.785 67.4497L134.129 68.8439L134.129 68.8439L136.785 67.4497ZM22.1641 59.7997L23.7724 62.3322L23.7724 62.3322L22.1641 59.7997ZM15.2096 67.4497L17.8659 68.8439L17.8659 68.8439L15.2096 67.4497ZM103.433 126.574L103.165 129.562L103.433 126.574ZM86.0407 116.814L83.8209 118.832L83.8209 118.832L86.0407 116.814ZM89.0919 120.04L91.1399 117.848L91.1399 117.848L89.0919 120.04ZM70.3003 113.286L67.909 111.475L67.909 111.475L70.3003 113.286ZM65.1847 119.573L63.081 117.434L63.081 117.434L65.1847 119.573ZM51.9961 126.368L52.4766 129.329L51.9961 126.368ZM72.4167 110.493L74.8079 112.304L74.8079 112.304L72.4167 110.493ZM75.0745 107.675L73.9066 104.912L75.0745 107.675ZM79.9524 110.117L82.1723 108.099L82.1723 108.099L79.9524 110.117ZM77.0736 107.575L76.1808 110.439L76.1808 110.439L77.0736 107.575ZM101.331 79.333C99.6739 79.333 98.3307 80.6762 98.3307 82.333C98.3307 83.9899 99.6739 85.333 101.331 85.333V79.333ZM113.997 85.333C115.654 85.333 116.997 83.9899 116.997 82.333C116.997 80.6762 115.654 79.333 113.997 79.333V85.333ZM136.331 94.9997C136.331 96.6565 137.674 97.9997 139.331 97.9997C140.988 97.9997 142.331 96.6565 142.331 94.9997H136.331ZM9.66406 94.9997C9.66406 96.6565 11.0072 97.9997 12.6641 97.9997C14.3209 97.9997 15.6641 96.6565 15.6641 94.9997H9.66406ZM18.9056 51.3225L16.2126 50.0005L16.2126 50.0005L18.9056 51.3225ZM14.1438 62.1859L11.2645 61.3434L11.2645 61.3434L14.1438 62.1859ZM13.1538 66.5542L10.193 66.0709L10.193 66.0709L13.1538 66.5542ZM133.089 51.3225L135.782 50.0005L135.782 50.0005L133.089 51.3225ZM137.851 62.1859L134.972 63.0284L134.972 63.0284L137.851 62.1859ZM138.841 66.5542L141.802 66.0709L141.802 66.0708L138.841 66.5542ZM36.7167 27.4904L38.0189 30.1931L36.7167 27.4904ZM30.5781 31.7384L32.6312 33.9259L32.6312 33.9259L30.5781 31.7384ZM115.278 27.4904L116.58 24.7878L116.58 24.7878L115.278 27.4904ZM121.417 31.7384L119.364 33.9259L119.364 33.9259L121.417 31.7384ZM44.3307 59.9997H107.664V53.9997H44.3307V59.9997ZM44.3307 123.666C38.3508 123.666 34.0864 123.663 30.7589 123.331C27.4848 123.005 25.4241 122.383 23.7724 121.334L20.5557 126.399C23.313 128.15 26.4164 128.928 30.1637 129.302C33.8577 129.67 38.4721 129.666 44.3307 129.666V123.666ZM9.66406 91.833C9.66406 98.2939 9.66168 103.322 9.99238 107.336C10.3257 111.381 11.0133 114.677 12.5532 117.611L17.8659 114.822C16.8603 112.906 16.2752 110.521 15.9721 106.843C15.6664 103.133 15.6641 98.3944 15.6641 91.833H9.66406ZM23.7724 121.334C21.3488 119.795 19.3021 117.558 17.8659 114.822L12.5532 117.611C14.4523 121.229 17.2026 124.269 20.5557 126.399L23.7724 121.334ZM136.331 91.833C136.331 98.3944 136.328 103.133 136.023 106.843C135.72 110.521 135.134 112.906 134.129 114.822L139.442 117.611C140.981 114.677 141.669 111.381 142.002 107.336C142.333 103.322 142.331 98.2939 142.331 91.833H136.331ZM107.664 129.666C113.523 129.666 118.137 129.67 121.831 129.302C125.578 128.928 128.682 128.15 131.439 126.399L128.222 121.334C126.571 122.383 124.51 123.005 121.236 123.331C117.908 123.663 113.644 123.666 107.664 123.666V129.666ZM134.129 114.822C132.693 117.558 130.646 119.795 128.222 121.334L131.439 126.399C134.792 124.269 137.542 121.229 139.442 117.611L134.129 114.822ZM107.664 59.9997C113.644 59.9997 117.908 60.0031 121.236 60.3349C124.51 60.6613 126.571 61.2832 128.222 62.3322L131.439 57.2673C128.682 55.5162 125.578 54.7381 121.831 54.3645C118.137 53.9962 113.523 53.9997 107.664 53.9997V59.9997ZM142.331 91.833C142.331 85.3721 142.333 80.344 142.002 76.3303C141.669 72.2851 140.981 68.9894 139.442 66.0555L134.129 68.8439C135.134 70.7598 135.72 73.1446 136.023 76.823C136.328 80.533 136.331 85.2716 136.331 91.833H142.331ZM128.222 62.3322C130.646 63.8714 132.693 66.1077 134.129 68.8439L139.442 66.0555C137.542 62.4373 134.792 59.3968 131.439 57.2673L128.222 62.3322ZM44.3307 53.9997C38.4721 53.9997 33.8577 53.9962 30.1637 54.3645C26.4164 54.7381 23.313 55.5162 20.5557 57.2673L23.7724 62.3322C25.4241 61.2832 27.4848 60.6613 30.7589 60.3349C34.0864 60.0031 38.3508 59.9997 44.3307 59.9997V53.9997ZM15.6641 91.833C15.6641 85.2716 15.6664 80.533 15.9721 76.823C16.2752 73.1446 16.8603 70.7598 17.8659 68.8439L12.5532 66.0555C11.0133 68.9894 10.3257 72.2851 9.99238 76.3303C9.66168 80.344 9.66406 85.3721 9.66406 91.833H15.6641ZM20.5557 57.2673C17.2026 59.3968 14.4523 62.4373 12.5532 66.0555L17.8659 68.8439C19.3021 66.1077 21.3488 63.8714 23.7724 62.3322L20.5557 57.2673ZM70.0254 108.681L67.909 111.475L72.6916 115.098L74.8079 112.304L70.0254 108.681ZM88.2605 114.796L82.1723 108.099L77.7326 112.135L83.8209 118.832L88.2605 114.796ZM107.664 123.666C105.475 123.666 104.563 123.664 103.701 123.586L103.165 129.562C104.357 129.669 105.581 129.666 107.664 129.666V123.666ZM83.8209 118.832C85.2981 120.457 86.1479 121.395 87.044 122.232L91.1399 117.848C90.4647 117.217 89.8041 116.494 88.2605 114.796L83.8209 118.832ZM103.701 123.586C99.1117 123.175 94.7149 121.188 91.1399 117.848L87.044 122.232C91.5509 126.443 97.1856 129.026 103.165 129.562L103.701 123.586ZM67.909 111.475C65.3676 114.83 64.2741 116.261 63.081 117.434L67.2884 121.712C68.8664 120.16 70.2596 118.308 72.6916 115.098L67.909 111.475ZM44.3307 129.666C48.1172 129.666 50.3433 129.675 52.4766 129.329L51.5155 123.407C49.9712 123.657 48.3129 123.666 44.3307 123.666V129.666ZM63.081 117.434C59.8066 120.655 55.7808 122.714 51.5155 123.407L52.4766 129.329C58.0235 128.429 63.1691 125.763 67.2884 121.712L63.081 117.434ZM74.8079 112.304C75.4693 111.431 75.8527 110.93 76.158 110.591C76.449 110.268 76.448 110.351 76.2423 110.438L73.9066 104.912C72.9316 105.324 72.2312 105.985 71.7003 106.575C71.1838 107.148 70.623 107.893 70.0254 108.681L74.8079 112.304ZM82.1723 108.099C81.5131 107.374 80.8907 106.685 80.3262 106.163C79.7448 105.625 78.9835 105.028 77.9664 104.711L76.1808 110.439C75.9566 110.369 75.9395 110.279 76.2517 110.567C76.5806 110.872 77.0012 111.33 77.7326 112.135L82.1723 108.099ZM76.2423 110.438C76.2409 110.439 76.2315 110.442 76.2162 110.443C76.2008 110.444 76.188 110.442 76.1808 110.439L77.9664 104.711C76.6264 104.293 75.1951 104.367 73.9066 104.912L76.2423 110.438ZM101.331 85.333H113.997V79.333H101.331V85.333ZM95.5327 22.333H56.4621V28.333H95.5327V22.333ZM136.331 78.8639V94.9997H142.331V78.8639H136.331ZM9.66406 78.8639V94.9997H15.6641V78.8639H9.66406ZM16.2126 50.0005C13.6418 55.2372 12.1961 58.1597 11.2645 61.3434L17.023 63.0285C17.777 60.4516 18.944 58.052 21.5986 52.6445L16.2126 50.0005ZM15.6641 78.8639C15.6641 72.5623 15.6731 69.742 16.1146 67.0376L10.193 66.0709C9.65503 69.3661 9.66406 72.7523 9.66406 78.8639H15.6641ZM11.2645 61.3434C10.8127 62.8874 10.4548 64.4674 10.193 66.0709L16.1146 67.0376C16.3373 65.6736 16.6411 64.3336 17.023 63.0285L11.2645 61.3434ZM130.396 52.6445C133.051 58.0518 134.218 60.4517 134.972 63.0284L140.73 61.3434C139.799 58.1597 138.353 55.237 135.782 50.0005L130.396 52.6445ZM142.331 78.8639C142.331 72.7523 142.34 69.3661 141.802 66.0709L135.88 67.0376C136.322 69.742 136.331 72.5623 136.331 78.8639H142.331ZM134.972 63.0284C135.354 64.3336 135.658 65.6736 135.88 67.0376L141.802 66.0708C141.54 64.4674 141.182 62.8874 140.73 61.3434L134.972 63.0284ZM56.4621 22.333C46.567 22.333 40.6528 22.2639 35.4146 24.7878L38.0189 30.1931C41.7361 28.4021 46.0004 28.333 56.4621 28.333V22.333ZM21.5986 52.6445C26.9493 41.7449 29.3114 37.0417 32.6312 33.9259L28.525 29.551C24.21 33.6009 21.3353 39.5652 16.2126 50.0005L21.5986 52.6445ZM35.4146 24.7878C32.9269 25.9864 30.6098 27.5943 28.525 29.551L32.6312 33.9259C34.2946 32.3647 36.11 31.1128 38.0189 30.1931L35.4146 24.7878ZM95.5327 28.333C105.994 28.333 110.259 28.4021 113.976 30.1931L116.58 24.7878C111.342 22.2639 105.428 22.333 95.5327 22.333V28.333ZM135.782 50.0005C130.659 39.5653 127.785 33.6009 123.47 29.551L119.364 33.9259C122.683 37.0417 125.045 41.7449 130.396 52.6445L135.782 50.0005ZM113.976 30.1931C115.885 31.1128 117.7 32.3647 119.364 33.9259L123.47 29.551C121.385 27.5943 119.068 25.9864 116.58 24.7878L113.976 30.1931Z" fill="url(#paint0_linear_2625_17067)"/>
<defs>
<linearGradient id="paint0_linear_2625_17067" x1="-49.8935" y1="75.6893" x2="48.2305" y2="199.1" gradientUnits="userSpaceOnUse">
<stop stop-color="#9168CD"/>
<stop offset="0.424673" stop-color="#5556FF"/>
<stop offset="0.73499" stop-color="#45ADCD"/>
<stop offset="1" stop-color="#3EC4CD"/>
</linearGradient>
</defs>
</svg>
