<svg width="110" height="110" viewBox="0 0 110 110" fill="none" xmlns="http://www.w3.org/2000/svg">
<path d="M58.0013 36.667C58.0013 35.0101 56.6582 33.667 55.0013 33.667C53.3444 33.667 52.0013 35.0101 52.0013 36.667H58.0013ZM55.0013 55.0003H52.0013C52.0013 55.796 52.3174 56.559 52.88 57.1216L55.0013 55.0003ZM62.0466 66.2883C63.2182 67.4599 65.1177 67.4599 66.2893 66.2883C67.4609 65.1167 67.4609 63.2172 66.2893 62.0457L62.0466 66.2883ZM97.8346 55.0003C97.8346 78.6565 78.6575 97.8337 55.0013 97.8337V103.834C81.9712 103.834 103.835 81.9702 103.835 55.0003H97.8346ZM55.0013 97.8337C31.3451 97.8337 12.168 78.6565 12.168 55.0003H6.16797C6.16797 81.9702 28.0314 103.834 55.0013 103.834V97.8337ZM12.168 55.0003C12.168 31.3441 31.3451 12.167 55.0013 12.167V6.16699C28.0314 6.16699 6.16797 28.0304 6.16797 55.0003H12.168ZM55.0013 12.167C78.6575 12.167 97.8346 31.3441 97.8346 55.0003H103.835C103.835 28.0304 81.9712 6.16699 55.0013 6.16699V12.167ZM52.0013 36.667V55.0003H58.0013V36.667H52.0013ZM52.88 57.1216L62.0466 66.2883L66.2893 62.0457L57.1226 52.879L52.88 57.1216Z" fill="url(#paint0_linear_2108_16751)"/>
<defs>
<linearGradient id="paint0_linear_2108_16751" x1="-36.104" y1="54.7196" x2="55.0013" y2="146.386" gradientUnits="userSpaceOnUse">
<stop stop-color="#9168CD"/>
<stop offset="0.424673" stop-color="#5556FF"/>
<stop offset="0.73499" stop-color="#45ADCD"/>
<stop offset="1" stop-color="#3EC4CD"/>
</linearGradient>
</defs>
</svg>
