<svg width="72" height="72" viewBox="0 0 72 72" fill="none" xmlns="http://www.w3.org/2000/svg">
<g clip-path="url(#clip0_2637_15799)">
<path d="M6.02476 47.4275C6.69343 36.9482 8.66212 29.2797 10.3303 24.8253C11.1726 22.5765 12.9845 20.9019 15.3043 20.3406C28.2044 17.2198 43.7957 17.2198 56.6958 20.3406C59.0156 20.9019 60.8276 22.5765 61.6698 24.8253C63.338 29.2797 65.3067 36.9482 65.9754 47.4275C66.3754 53.6966 61.8443 57.151 56.8288 59.6775C53.6341 61.2868 51.1774 56.5371 49.5464 52.8609C48.6554 50.8525 46.7002 49.6068 44.4842 49.6068H27.5159C25.2999 49.6068 23.3448 50.8525 22.4537 52.8609C20.8227 56.5371 18.366 61.2868 15.1713 59.6775C10.2064 57.1765 5.62153 53.747 6.02476 47.4275Z" stroke="#141B34" stroke-width="4.5" stroke-linecap="round" stroke-linejoin="round"/>
<path d="M15 13.5L20.8885 12M57 13.5L51 12" stroke="#141B34" stroke-width="4.5" stroke-linecap="round" stroke-linejoin="round"/>
<path d="M27 39L22.5 34.5M22.5 34.5L18 30M22.5 34.5L18 39M22.5 34.5L27 30" stroke="#141B34" stroke-width="4.5" stroke-linecap="round"/>
<path d="M47.9682 30H47.9951" stroke="#141B34" stroke-width="4.5" stroke-linecap="round" stroke-linejoin="round"/>
<path d="M53.9682 39H53.9951" stroke="#141B34" stroke-width="4.5" stroke-linecap="round" stroke-linejoin="round"/>
</g>
<defs>
<clipPath id="clip0_2637_15799">
<rect width="72" height="72" fill="white"/>
</clipPath>
</defs>
</svg>
