<svg width="110" height="110" viewBox="0 0 110 110" fill="none" xmlns="http://www.w3.org/2000/svg">
<g id="it_svg_logo (2) 2" clip-path="url(#clip0_2515_15742)">
<g id="&#208;&#161;&#208;&#187;&#208;&#190;&#208;&#185; 2">
<path id="&#208;&#161;&#208;&#187;&#208;&#190;&#208;&#185; 1" d="M109.275 55.0606C109.114 86.3917 83.5274 110.822 53.1186 109.976C23.9562 109.18 -0.391845 85.1135 2.6612e-05 54.2489C0.399896 23.3963 25.7369 -0.693106 55.9271 0.0146621C84.9056 0.698438 109.164 24.4 109.275 55.0606ZM24.384 53.7277C26.65 56.1816 27.1978 58.8207 25.9182 61.7371C25.6036 62.4582 25.9422 62.7195 26.3847 63.0953C30.6662 66.733 35.4186 69.7768 40.5134 72.1444C50.0756 76.6189 60.1657 78.3424 70.6769 77.7719C72.467 77.6719 73.9811 77.6106 74.409 75.1807C74.6263 73.9638 76.0845 72.9561 77.0188 71.8858C77.2534 71.6192 77.6293 71.4699 77.9598 71.2527C74.461 56.2349 66.8208 43.9136 54.8341 34.3141C51.2752 36.7493 48.3842 36.6 44.9853 33.7223C36.6807 38.7314 29.6335 45.5757 24.384 53.7304V53.7277ZM77.1254 83.7966C76.2164 82.6983 75.4393 81.7066 74.5929 80.7722C74.4689 80.6511 74.3215 80.5564 74.1597 80.4941C73.998 80.4318 73.8252 80.4031 73.6519 80.4097C67.465 81.1123 61.2086 80.908 55.0807 79.8032C43.5911 77.7572 33.4331 72.8721 24.5573 65.3253C23.8256 64.7068 23.3217 64.6348 22.4513 64.9907C21.5492 65.3549 20.5786 65.5182 19.6069 65.4692C18.5846 65.4053 18.2341 65.7865 17.9142 66.6688C16.0494 71.8798 14.8336 77.3007 14.294 82.8089C14.2531 83.388 14.4069 83.9641 14.7312 84.4457C17.766 88.6819 21.476 92.391 25.7129 95.4248C36.1797 102.874 47.8044 105.889 60.5869 104.471C63.2313 104.182 65.3266 103.483 67.0687 101.198C71.2181 95.7433 74.7462 89.9892 77.1254 83.7966ZM86.5664 74.449C91.746 72.6589 96.5418 70.137 101.107 67.1487C102.517 66.2263 103.274 65.1493 103.381 63.4912C103.466 62.1823 103.742 60.8827 103.862 59.5725C104.886 48.5734 102.453 38.3634 96.7724 28.9159C96.5559 28.5095 96.2129 28.1848 95.7953 27.9908C90.2698 26.1198 84.4895 25.1088 78.6569 24.9931C78.3904 24.9931 77.9745 25.0611 77.8692 25.2491C77.2961 26.2327 76.7749 27.2484 76.3017 28.2841C76.2111 28.484 76.363 28.8426 76.491 29.0838C83.2021 41.725 85.584 55.1739 83.7886 69.3373C83.6033 70.7955 83.5553 71.9138 85.0669 72.6989C85.66 72.9988 86.0079 73.7692 86.5664 74.449ZM19.8162 21.245C19.0631 21.501 18.0661 21.5396 17.5956 22.0568C13.6987 26.349 10.6479 31.3389 8.60388 36.764C8.41376 37.2615 8.39685 37.8085 8.55589 38.3168C10.5018 43.2724 13.1105 47.9414 16.3107 52.1962C16.508 52.4522 17.1304 52.5228 17.5396 52.4921C18.5033 52.4242 19.4936 52.0243 20.412 52.1629C21.5236 52.3295 22.0848 52.015 22.6779 51.1139C27.7279 43.493 34.3275 37.022 42.0463 32.1228C43.1046 31.4484 44.1083 30.9339 43.5125 29.4197C43.4318 29.1293 43.4521 28.8201 43.5698 28.5427C43.9243 27.6363 43.4818 27.2631 42.7154 26.9125C35.4551 23.6069 27.8576 21.8155 19.8162 21.245ZM66.1717 19.1564C61.6498 13.8535 56.3009 9.31603 50.3316 5.71946C49.9623 5.52916 49.5438 5.45615 49.1319 5.5102C40.7155 6.4039 32.6834 9.50027 25.8449 14.4873C24.1894 15.6869 22.6459 17.0278 21.0465 18.3047C29.3928 19.0032 37.5442 21.2041 45.1079 24.8012C48.4922 21.6902 52.1216 21.7569 55.2979 24.8292C55.477 24.9689 55.6835 25.0692 55.9041 25.1234C56.1246 25.1776 56.3541 25.1845 56.5775 25.1438C58.5569 24.6653 60.4962 24.0028 62.4862 23.5829C63.8111 23.3017 64.8495 23.0285 65.0307 21.389C65.1227 20.6466 65.7398 19.9668 66.169 19.1484L66.1717 19.1564ZM80.7523 69.8438C80.8616 69.164 80.9775 68.6269 81.0388 68.0817C81.7147 62.0234 81.5492 55.9006 80.547 49.8877C79.4223 43.2124 77.2248 36.7631 74.0398 30.7899C73.9164 30.6252 73.7549 30.4927 73.5693 30.4038C73.3836 30.3149 73.1792 30.2723 72.9735 30.2794C69.4106 30.8646 67.0901 29.7982 65.2427 26.7339C65.1016 26.5684 64.923 26.4391 64.7217 26.3568C64.5204 26.2745 64.3023 26.2415 64.0857 26.2607C62.4236 26.5953 60.7921 27.0818 59.1367 27.4523C57.7278 27.7696 56.5229 28.1788 56.8707 30.0355C56.9027 30.3784 56.8322 30.723 56.6681 31.0258C56.3456 31.7136 56.6681 32.0495 57.18 32.4814C66.2669 39.7572 73.2707 49.3042 77.4827 60.1563C78.7009 63.262 79.622 66.4862 80.7416 69.8451L80.7523 69.8438ZM55.4032 5.26361C55.5139 5.45821 55.5365 5.55285 55.5978 5.59417C60.2421 8.84272 64.4702 12.6491 68.187 16.9278C68.4203 17.1944 69.0721 17.2837 69.4666 17.1944C72.9401 16.4266 75.9432 17.8608 77.4094 21.1384C77.7332 21.8595 78.1424 21.9901 78.8489 22.0408C81.3921 22.2247 83.9365 22.422 86.4611 22.7672C88.7123 23.0738 90.9343 23.5829 93.2108 24.0108C84.7603 12.5852 69.5773 5.13165 55.4032 5.26361ZM11.5509 79.5886C11.7322 79.3327 11.8068 79.2767 11.8175 79.2021C12.5583 74.2418 13.8154 69.3725 15.5683 64.6735C15.5998 64.5248 15.5973 64.371 15.5608 64.2234C15.5243 64.0759 15.4549 63.9386 15.3577 63.8218C12.7239 61.008 12.5826 57.969 14.3353 54.9553C11.7802 50.6581 9.29565 46.4968 6.73782 42.2182C3.59085 55.2806 5.07437 67.6685 11.5509 79.5886ZM101.488 70.5822C97.1524 73.2086 92.5763 75.4161 87.8219 77.1747C87.6547 77.273 87.5121 77.4081 87.4049 77.5698C87.2977 77.7315 87.2288 77.9155 87.2035 78.1078C86.9476 80.8309 85.5427 82.7116 83.1102 83.8086C82.4917 84.0871 82.3171 84.3924 82.3024 85.0322C82.2531 87.3341 82.1691 89.636 82.0465 91.9246C81.9492 93.4801 81.7319 95.0276 81.5347 96.8563C91.2568 90.2491 97.908 81.6119 101.488 70.5822ZM70.341 102.394C72.5669 101.396 74.8275 100.335 77.1321 99.3715C78.0025 99.0076 78.3477 98.4198 78.465 97.5627C78.7009 95.7926 79.0182 94.0306 79.1888 92.2525C79.3714 90.3864 79.4247 88.5204 79.5247 86.8222L70.341 102.394Z" fill="white"/>
</g>
</g>
<defs>
<clipPath id="clip0_2515_15742">
<rect width="109.275" height="110" fill="white"/>
</clipPath>
</defs>
</svg>
