<svg width="72" height="72" viewBox="0 0 72 72" fill="none" xmlns="http://www.w3.org/2000/svg">
<g clip-path="url(#clip0_2637_15789)">
<path d="M19.7327 46.4448C15.4884 48.972 4.36009 54.1323 11.138 60.5897C14.4489 63.7441 18.1365 66 22.7726 66H49.2274C53.8635 66 57.5511 63.7441 60.862 60.5897C67.6399 54.1323 56.5116 48.972 52.2673 46.4448C42.3144 40.5184 29.6856 40.5184 19.7327 46.4448Z" stroke="white" stroke-width="4.5" stroke-linecap="round" stroke-linejoin="round"/>
<path d="M49.5 19.5C49.5 26.9558 43.4558 33 36 33C28.5442 33 22.5 26.9558 22.5 19.5C22.5 12.0442 28.5442 6 36 6C43.4558 6 49.5 12.0442 49.5 19.5Z" stroke="white" stroke-width="4.5"/>
</g>
<defs>
<clipPath id="clip0_2637_15789">
<rect width="72" height="72" fill="white"/>
</clipPath>
</defs>
</svg>
