<svg width="110" height="110" viewBox="0 0 110 110" fill="none" xmlns="http://www.w3.org/2000/svg">
<path d="M53.1074 77.916C53.1074 79.5729 54.4506 80.916 56.1074 80.916C57.7643 80.916 59.1074 79.5729 59.1074 77.916H53.1074ZM51.5241 47.416C49.8672 47.416 48.5241 48.7592 48.5241 50.416C48.5241 52.0729 49.8672 53.416 51.5241 53.416V47.416ZM54.9607 33.666C53.3038 33.666 51.9607 35.0092 51.9607 36.666C51.9607 38.3229 53.3038 39.666 54.9607 39.666V33.666ZM55.0019 39.666C56.6587 39.666 58.0019 38.3229 58.0019 36.666C58.0019 35.0092 56.6587 33.666 55.0019 33.666V39.666ZM103.831 54.9993C103.831 28.0294 81.9673 6.16602 54.9974 6.16602V12.166C78.6536 12.166 97.8307 31.3431 97.8307 54.9993H103.831ZM54.9974 6.16602C28.0275 6.16602 6.16406 28.0294 6.16406 54.9993H12.1641C12.1641 31.3431 31.3412 12.166 54.9974 12.166V6.16602ZM6.16406 54.9993C6.16406 81.9692 28.0275 103.833 54.9974 103.833V97.8327C31.3412 97.8327 12.1641 78.6555 12.1641 54.9993H6.16406ZM54.9974 103.833C81.9673 103.833 103.831 81.9692 103.831 54.9993H97.8307C97.8307 78.6555 78.6536 97.8327 54.9974 97.8327V103.833ZM53.1074 54.9993V77.916H59.1074V54.9993H53.1074ZM51.5241 53.416C52.0754 53.416 52.5068 53.4162 52.8768 53.4255C53.2483 53.4349 53.4834 53.4522 53.6389 53.4732C53.9303 53.5123 53.6296 53.5232 53.3149 53.2085L57.5575 48.9659C56.5716 47.98 55.3951 47.6553 54.4384 47.5267C53.568 47.4096 52.5196 47.416 51.5241 47.416V53.416ZM59.1074 54.9993C59.1074 54.0038 59.1138 52.9554 58.9968 52.085C58.8681 51.1283 58.5434 49.9518 57.5575 48.9659L53.3149 53.2085C53.0002 52.8938 53.0111 52.5931 53.0503 52.8845C53.0712 53.0401 53.0885 53.2751 53.0979 53.6466C53.1072 54.0166 53.1074 54.448 53.1074 54.9993H59.1074ZM54.9607 39.666H55.0019V33.666H54.9607V39.666Z" fill="url(#paint0_linear_2625_17133)"/>
<defs>
<linearGradient id="paint0_linear_2625_17133" x1="-36.1078" y1="54.7186" x2="54.9974" y2="146.385" gradientUnits="userSpaceOnUse">
<stop stop-color="#9168CD"/>
<stop offset="0.424673" stop-color="#5556FF"/>
<stop offset="0.73499" stop-color="#45ADCD"/>
<stop offset="1" stop-color="#3EC4CD"/>
</linearGradient>
</defs>
</svg>
