<svg width="110" height="110" viewBox="0 0 110 110" fill="none" xmlns="http://www.w3.org/2000/svg">
<g id="it_svg_logo (2) 1" clip-path="url(#clip0_2228_20084)">
<g id="&#208;&#161;&#208;&#187;&#208;&#190;&#208;&#185; 2">
<path id="&#208;&#161;&#208;&#187;&#208;&#190;&#208;&#185; 1" d="M109.639 55.0612C109.478 86.3923 83.8914 110.823 53.4827 109.977C24.3202 109.181 -0.0278315 85.114 0.36404 54.2494C0.763909 23.3969 26.101 -0.692564 56.2911 0.0152038C85.2696 0.69898 109.528 24.4006 109.639 55.0612ZM24.7481 53.7283C27.014 56.1821 27.5618 58.8213 26.2822 61.7377C25.9677 62.4588 26.3062 62.72 26.7487 63.0959C31.0302 66.7335 35.7826 69.7773 40.8774 72.1449C50.4397 76.6195 60.5297 78.3429 71.0409 77.7724C72.831 77.6724 74.3452 77.6111 74.773 75.1813C74.9903 73.9643 76.4485 72.9567 77.3828 71.8863C77.6174 71.6198 77.9933 71.4705 78.3239 71.2532C74.825 56.2355 67.1848 43.9142 55.1981 34.3146C51.6393 36.7498 48.7482 36.6006 45.3493 33.7228C37.0447 38.7319 29.9975 45.5762 24.7481 53.7309V53.7283ZM77.4895 83.7971C76.5804 82.6988 75.8033 81.7071 74.957 80.7728C74.8329 80.6516 74.6855 80.557 74.5238 80.4947C74.362 80.4323 74.1892 80.4036 74.0159 80.4102C67.829 81.1129 61.5726 80.9085 55.4447 79.8037C43.9551 77.7578 33.7971 72.8727 24.9213 65.3258C24.1896 64.7074 23.6857 64.6354 22.8154 64.9913C21.9132 65.3555 20.9426 65.5187 19.971 65.4698C18.9486 65.4058 18.5981 65.787 18.2782 66.6694C16.4134 71.8804 15.1976 77.3012 14.658 82.8094C14.6171 83.3885 14.771 83.9647 15.0952 84.4462C18.1301 88.6824 21.84 92.3915 26.077 95.4253C36.5438 102.874 48.1684 105.89 60.9509 104.472C63.5953 104.182 65.6907 103.484 67.4328 101.198C71.5821 95.7439 75.1102 89.9897 77.4895 83.7971ZM86.9304 74.4495C92.11 72.6594 96.9058 70.1376 101.471 67.1492C102.881 66.2269 103.638 65.1499 103.745 63.4918C103.83 62.1828 104.106 60.8833 104.226 59.573C105.25 48.574 102.817 38.364 97.1364 28.9164C96.9199 28.5101 96.5769 28.1853 96.1594 27.9914C90.6338 26.1204 84.8536 25.1094 79.021 24.9937C78.7544 24.9937 78.3385 25.0617 78.2332 25.2496C77.6601 26.2333 77.1389 27.249 76.6657 28.2846C76.5751 28.4845 76.727 28.8431 76.855 29.0844C83.5661 41.7255 85.948 55.1745 84.1526 69.3378C83.9673 70.796 83.9194 71.9143 85.4309 72.6994C86.024 72.9993 86.3719 73.7697 86.9304 74.4495ZM20.1802 21.2456C19.4271 21.5015 18.4301 21.5402 17.9596 22.0573C14.0627 26.3495 11.0119 31.3395 8.96789 36.7645C8.77777 37.262 8.76087 37.809 8.91991 38.3173C10.8658 43.273 13.4745 47.9419 16.6747 52.1968C16.872 52.4527 17.4944 52.5233 17.9036 52.4927C18.8673 52.4247 19.8577 52.0248 20.776 52.1635C21.8877 52.3301 22.4488 52.0155 23.042 51.1145C28.0919 43.4935 34.6915 37.0225 42.4103 32.1234C43.4686 31.4489 44.4723 30.9344 43.8765 29.4202C43.7959 29.1298 43.8161 28.8207 43.9338 28.5432C44.2883 27.6368 43.8458 27.2636 43.0794 26.9131C35.8191 23.6075 28.2216 21.8161 20.1802 21.2456ZM66.5357 19.1569C62.0139 13.854 56.6649 9.31658 50.6956 5.72C50.3263 5.52971 49.9078 5.45669 49.496 5.51074C41.0795 6.40444 33.0474 9.50081 26.2089 14.4878C24.5535 15.6874 23.01 17.0283 21.4105 18.3052C29.7568 19.0037 37.9082 21.2046 45.4719 24.8018C48.8562 21.6908 52.4856 21.7574 55.6619 24.8297C55.841 24.9694 56.0476 25.0697 56.2681 25.1239C56.4886 25.1781 56.7181 25.1851 56.9415 25.1443C58.9209 24.6658 60.8602 24.0033 62.8503 23.5835C64.1752 23.3022 65.2135 23.029 65.3948 21.3895C65.4867 20.6471 66.1039 19.9673 66.5331 19.1489L66.5357 19.1569ZM81.1163 69.8443C81.2256 69.1646 81.3415 68.6274 81.4028 68.0823C82.0787 62.0239 81.9132 55.9012 80.911 49.8882C79.7863 43.213 77.5888 36.7637 74.4038 30.7905C74.2804 30.6257 74.1189 30.4933 73.9333 30.4044C73.7476 30.3155 73.5432 30.2728 73.3375 30.28C69.7747 30.8651 67.4541 29.7988 65.6067 26.7345C65.4656 26.569 65.287 26.4397 65.0857 26.3573C64.8844 26.275 64.6663 26.2421 64.4497 26.2613C62.7876 26.5958 61.1561 27.0823 59.5007 27.4529C58.0918 27.7701 56.8869 28.1793 57.2348 30.036C57.2667 30.3789 57.1962 30.7236 57.0322 31.0264C56.7096 31.7142 57.0322 32.05 57.544 32.4819C66.6309 39.7577 73.6347 49.3047 77.8467 60.1568C79.0649 63.2625 79.986 66.4868 81.1056 69.8457L81.1163 69.8443ZM55.7672 5.26415C55.8779 5.45876 55.9005 5.55339 55.9618 5.59471C60.6062 8.84326 64.8342 12.6496 68.5511 16.9283C68.7843 17.1949 69.4361 17.2842 69.8306 17.1949C73.3042 16.4272 76.3072 17.8614 77.7734 21.139C78.0973 21.8601 78.5065 21.9907 79.2129 22.0413C81.7561 22.2253 84.3006 22.4225 86.8251 22.7678C89.0763 23.0743 91.2983 23.5835 93.5749 24.0113C85.1243 12.5858 69.9413 5.1322 55.7672 5.26415ZM11.9149 79.5891C12.0962 79.3332 12.1708 79.2773 12.1815 79.2026C12.9223 74.2423 14.1794 69.373 15.9323 64.674C15.9639 64.5254 15.9613 64.3715 15.9248 64.224C15.8884 64.0765 15.8189 63.9391 15.7217 63.8223C13.0879 61.0086 12.9466 57.9696 14.6993 54.9559C12.1442 50.6586 9.65966 46.4973 7.10183 42.2187C3.95486 55.2811 5.43838 67.6691 11.9149 79.5891ZM101.852 70.5828C97.5164 73.2091 92.9403 75.4166 88.186 77.1753C88.0187 77.2735 87.8761 77.4086 87.7689 77.5703C87.6617 77.732 87.5929 77.916 87.5675 78.1083C87.3116 80.8314 85.9067 82.7121 83.4742 83.8091C82.8557 84.0877 82.6811 84.3929 82.6664 85.0327C82.6171 87.3346 82.5331 89.6365 82.4105 91.9251C82.3132 93.4806 82.096 95.0281 81.8987 96.8568C91.6208 90.2497 98.272 81.6125 101.852 70.5828ZM70.705 102.395C72.931 101.397 75.1915 100.336 77.4961 99.372C78.3665 99.0081 78.7117 98.4203 78.829 97.5633C79.0649 95.7932 79.3822 94.0311 79.5528 92.253C79.7354 90.387 79.7887 88.5209 79.8887 86.8228L70.705 102.395Z" fill="#282A2B"/>
</g>
</g>
<defs>
<clipPath id="clip0_2228_20084">
<rect width="109.275" height="110" fill="white" transform="translate(0.363281)"/>
</clipPath>
</defs>
</svg>
