<svg width="110" height="110" viewBox="0 0 110 110" fill="none" xmlns="http://www.w3.org/2000/svg">
<path d="M9.16797 93.25C7.51111 93.25 6.16797 94.5932 6.16797 96.25C6.16797 97.9069 7.51111 99.25 9.16797 99.25V93.25ZM68.7513 35.0833C70.4082 35.0833 71.7513 33.7402 71.7513 32.0833C71.7513 30.4265 70.4082 29.0833 68.7513 29.0833V35.0833ZM33.5114 48.2075L30.6723 49.1767L30.6723 49.1767L33.5114 48.2075ZM44.4079 80.1258L41.5688 81.0951L41.5688 81.0951L44.4079 80.1258ZM49.6666 91.9366L51.9058 89.9401L51.9058 89.9401L49.6666 91.9366ZM65.2464 99.25C66.9033 99.25 68.2464 97.9069 68.2464 96.25C68.2464 94.5932 66.9033 93.25 65.2464 93.25V99.25ZM53.5741 94.9601L52.2244 97.6393L52.2244 97.6393L53.5741 94.9601ZM12.6729 29.0833C11.016 29.0833 9.67287 30.4265 9.67287 32.0833C9.67287 33.7402 11.016 35.0833 12.6729 35.0833V29.0833ZM24.3451 33.3732L22.9954 36.0524L22.9954 36.0524L24.3451 33.3732ZM28.2527 36.3967L26.0135 38.3933L26.0135 38.3933L28.2527 36.3967ZM82.5024 41.2493L80.7024 38.8493C79.6694 39.6241 79.248 40.9729 79.6564 42.198C80.0647 43.423 81.2111 44.2493 82.5024 44.2493V41.2493ZM100.836 44.2493C102.493 44.2493 103.836 42.9061 103.836 41.2493C103.836 39.5924 102.493 38.2493 100.836 38.2493V44.2493ZM97.1693 30.2491L95.3693 27.8491L95.3693 27.8491L97.1693 30.2491ZM91.6686 13.75L91.6686 10.75L91.6686 13.75ZM79.5013 22.9166C79.5013 24.5734 80.8445 25.9166 82.5013 25.9166C84.1582 25.9166 85.5013 24.5734 85.5013 22.9166H79.5013ZM9.16797 99.25C16.5282 99.25 22.5095 94.2813 27.4832 88.1057C32.5195 81.8525 37.131 73.5858 41.5782 65.6306L36.341 62.7028C31.8204 70.7892 27.4639 78.5642 22.8103 84.3422C18.0942 90.1979 13.6636 93.25 9.16797 93.25V99.25ZM41.5782 65.6306C46.0989 57.5441 50.4553 49.7692 55.1089 43.9911C59.825 38.1355 64.2556 35.0833 68.7513 35.0833V29.0833C61.3911 29.0833 55.4098 34.052 50.436 40.2276C45.3997 46.4808 40.7883 54.7476 36.341 62.7028L41.5782 65.6306ZM30.6723 49.1767L36.1205 65.1359L41.7988 63.1974L36.3505 47.2382L30.6723 49.1767ZM36.1205 65.1359L41.5688 81.0951L47.247 79.1566L41.7988 63.1974L36.1205 65.1359ZM41.5688 81.0951C42.6453 84.2486 43.5017 86.7626 44.3467 88.7596C45.2052 90.7884 46.1281 92.4759 47.4274 93.9331L51.9058 89.9401C51.2173 89.168 50.6012 88.1439 49.8724 86.4215C49.1302 84.6674 48.3511 82.3907 47.247 79.1566L41.5688 81.0951ZM65.2464 93.25C62.1575 93.25 60.0322 93.2474 58.3545 93.1002C56.7321 92.958 55.744 92.6941 54.9239 92.2809L52.2244 97.6393C53.9647 98.5161 55.7754 98.8971 57.8304 99.0773C59.8301 99.2527 62.2608 99.25 65.2464 99.25V93.25ZM47.4274 93.9331C48.7968 95.4689 50.4192 96.7299 52.2244 97.6393L54.9239 92.2809C53.8202 91.7249 52.7946 90.9369 51.9058 89.9401L47.4274 93.9331ZM12.6729 35.0833C15.7618 35.0833 17.8871 35.086 19.5647 35.2331C21.1872 35.3754 22.1753 35.6393 22.9954 36.0524L25.6949 30.694C23.9546 29.8173 22.1438 29.4362 20.0889 29.256C18.0891 29.0807 15.6585 29.0833 12.6729 29.0833V35.0833ZM36.3505 47.2382C35.2739 44.0847 34.4176 41.5707 33.5725 39.5737C32.7141 37.5449 31.7912 35.8575 30.4919 34.4002L26.0135 38.3933C26.7019 39.1654 27.318 40.1895 28.0469 41.9118C28.7891 43.6659 29.5682 45.9426 30.6723 49.1767L36.3505 47.2382ZM22.9954 36.0524C24.099 36.6084 25.1247 37.3964 26.0135 38.3933L30.4919 34.4002C29.1225 32.8644 27.5 31.6034 25.6949 30.694L22.9954 36.0524ZM82.5024 44.2493H100.836V38.2493H82.5024V44.2493ZM95.3693 27.8491L80.7024 38.8493L84.3024 43.6493L98.9693 32.6491L95.3693 27.8491ZM98.9693 32.6491C102.033 30.3515 103.836 26.7456 103.836 22.9162H97.8357C97.8357 24.857 96.9219 26.6846 95.3693 27.8491L98.9693 32.6491ZM103.836 22.9162C103.836 16.1966 98.3875 10.7499 91.6686 10.75L91.6687 16.75C95.0745 16.75 97.8357 19.511 97.8357 22.9162H103.836ZM91.6686 10.75C84.9496 10.7501 79.5013 16.1969 79.5013 22.9166H85.5013C85.5013 19.5112 88.2626 16.75 91.6687 16.75L91.6686 10.75Z" fill="url(#paint0_linear_2098_14997)"/>
<defs>
<linearGradient id="paint0_linear_2098_14997" x1="-36.1045" y1="54.7473" x2="45.3846" y2="145.85" gradientUnits="userSpaceOnUse">
<stop stop-color="#9168CD"/>
<stop offset="0.424673" stop-color="#5556FF"/>
<stop offset="0.73499" stop-color="#45ADCD"/>
<stop offset="1" stop-color="#3EC4CD"/>
</linearGradient>
</defs>
</svg>
