<svg width="110" height="110" viewBox="0 0 110 110" fill="none" xmlns="http://www.w3.org/2000/svg">
<path d="M46.543 9.16699C46.543 7.51014 45.1998 6.16699 43.543 6.16699C41.8861 6.16699 40.543 7.51014 40.543 9.16699H46.543ZM40.543 18.3337C40.543 19.9905 41.8861 21.3337 43.543 21.3337C45.1998 21.3337 46.543 19.9905 46.543 18.3337H40.543ZM69.4596 9.16699C69.4596 7.51014 68.1165 6.16699 66.4596 6.16699C64.8028 6.16699 63.4596 7.51014 63.4596 9.16699H69.4596ZM63.4596 18.3337C63.4596 19.9905 64.8028 21.3337 66.4596 21.3337C68.1165 21.3337 69.4596 19.9905 69.4596 18.3337H63.4596ZM46.543 91.667C46.543 90.0101 45.1998 88.667 43.543 88.667C41.8861 88.667 40.543 90.0101 40.543 91.667H46.543ZM40.543 100.834C40.543 102.491 41.8861 103.834 43.543 103.834C45.1998 103.834 46.543 102.491 46.543 100.834H40.543ZM69.4596 91.667C69.4596 90.0101 68.1165 88.667 66.4596 88.667C64.8028 88.667 63.4596 90.0101 63.4596 91.667H69.4596ZM63.4596 100.834C63.4596 102.491 64.8028 103.834 66.4596 103.834C68.1165 103.834 69.4596 102.491 69.4596 100.834H63.4596ZM61.706 43.3716C62.8775 42.2001 62.8775 40.3006 61.706 39.129C60.5344 37.9574 58.6349 37.9574 57.4633 39.129L61.706 43.3716ZM39.13 57.4623C37.9584 58.6339 37.9584 60.5334 39.13 61.705C40.3016 62.8765 42.201 62.8765 43.3726 61.705L39.13 57.4623ZM70.8726 61.705C72.0442 60.5334 72.0442 58.6339 70.8726 57.4623C69.701 56.2908 67.8016 56.2908 66.63 57.4623L70.8726 61.705ZM57.4633 66.629C56.2917 67.8006 56.2917 69.7001 57.4633 70.8716C58.6349 72.0432 60.5344 72.0432 61.706 70.8716L57.4633 66.629ZM100.835 69.4587C102.491 69.4587 103.835 68.1155 103.835 66.4587C103.835 64.8018 102.491 63.4587 100.835 63.4587V69.4587ZM91.668 63.4587C90.0111 63.4587 88.668 64.8018 88.668 66.4587C88.668 68.1155 90.0111 69.4587 91.668 69.4587V63.4587ZM18.3346 46.542C19.9915 46.542 21.3346 45.1988 21.3346 43.542C21.3346 41.8851 19.9915 40.542 18.3346 40.542V46.542ZM9.16797 40.542C7.51111 40.542 6.16797 41.8851 6.16797 43.542C6.16797 45.1988 7.51111 46.542 9.16797 46.542V40.542ZM18.3346 69.4587C19.9915 69.4587 21.3346 68.1155 21.3346 66.4587C21.3346 64.8018 19.9915 63.4587 18.3346 63.4587V69.4587ZM9.16797 63.4587C7.51111 63.4587 6.16797 64.8018 6.16797 66.4587C6.16797 68.1155 7.51111 69.4587 9.16797 69.4587V63.4587ZM100.835 46.542C102.491 46.542 103.835 45.1988 103.835 43.542C103.835 41.8851 102.491 40.542 100.835 40.542V46.542ZM91.668 40.542C90.0111 40.542 88.668 41.8851 88.668 43.542C88.668 45.1988 90.0111 46.542 91.668 46.542V40.542ZM55.0013 88.667C46.2741 88.667 40.0305 88.6606 35.2844 88.0225C30.6246 87.396 27.8602 86.2105 25.8257 84.176L21.583 88.4186C24.9182 91.7538 29.1598 93.2531 34.4849 93.969C39.7237 94.6734 46.4437 94.667 55.0013 94.667V88.667ZM15.3346 55.0003C15.3346 63.5579 15.3283 70.2779 16.0326 75.5167C16.7485 80.8418 18.2479 85.0834 21.583 88.4186L25.8257 84.176C23.7911 82.1414 22.6056 79.377 21.9791 74.7172C21.341 69.9712 21.3346 63.7276 21.3346 55.0003H15.3346ZM88.668 55.0003C88.668 63.7276 88.6616 69.9712 88.0235 74.7172C87.397 79.377 86.2115 82.1414 84.1769 84.176L88.4196 88.4186C91.7547 85.0834 93.2541 80.8418 93.97 75.5167C94.6743 70.2779 94.668 63.5579 94.668 55.0003H88.668ZM55.0013 94.667C63.5589 94.667 70.2789 94.6734 75.5177 93.969C80.8428 93.2531 85.0844 91.7538 88.4196 88.4186L84.1769 84.176C82.1424 86.2105 79.378 87.396 74.7182 88.0225C69.9722 88.6606 63.7285 88.667 55.0013 88.667V94.667ZM55.0013 21.3337C63.7285 21.3337 69.9722 21.34 74.7182 21.9781C79.378 22.6046 82.1424 23.7901 84.1769 25.8247L88.4196 21.582C85.0844 18.2469 80.8428 16.7476 75.5177 16.0316C70.2789 15.3273 63.5589 15.3337 55.0013 15.3337V21.3337ZM94.668 55.0003C94.668 46.4427 94.6743 39.7227 93.97 34.4839C93.2541 29.1588 91.7547 24.9172 88.4196 21.582L84.1769 25.8247C86.2115 27.8592 87.397 30.6237 88.0235 35.2834C88.6616 40.0295 88.668 46.2731 88.668 55.0003H94.668ZM55.0013 15.3337C46.4437 15.3337 39.7237 15.3273 34.4849 16.0316C29.1598 16.7476 24.9182 18.2469 21.583 21.582L25.8257 25.8247C27.8602 23.7901 30.6246 22.6046 35.2844 21.9781C40.0305 21.34 46.2741 21.3337 55.0013 21.3337V15.3337ZM21.3346 55.0003C21.3346 46.2731 21.341 40.0295 21.9791 35.2834C22.6056 30.6237 23.7911 27.8592 25.8257 25.8247L21.583 21.582C18.2479 24.9172 16.7485 29.1588 16.0326 34.4839C15.3283 39.7227 15.3346 46.4427 15.3346 55.0003H21.3346ZM40.543 9.16699V18.3337H46.543V9.16699H40.543ZM63.4596 9.16699V18.3337H69.4596V9.16699H63.4596ZM40.543 91.667V100.834H46.543V91.667H40.543ZM63.4596 91.667V100.834H69.4596V91.667H63.4596ZM57.4633 39.129L39.13 57.4623L43.3726 61.705L61.706 43.3716L57.4633 39.129ZM66.63 57.4623L57.4633 66.629L61.706 70.8716L70.8726 61.705L66.63 57.4623ZM100.835 63.4587H91.668V69.4587H100.835V63.4587ZM18.3346 40.542H9.16797V46.542H18.3346V40.542ZM18.3346 63.4587H9.16797V69.4587H18.3346V63.4587ZM100.835 40.542H91.668V46.542H100.835V40.542Z" fill="url(#paint0_linear_2098_14991)"/>
<defs>
<linearGradient id="paint0_linear_2098_14991" x1="-36.104" y1="54.7196" x2="55.0013" y2="146.386" gradientUnits="userSpaceOnUse">
<stop stop-color="#9168CD"/>
<stop offset="0.424673" stop-color="#5556FF"/>
<stop offset="0.73499" stop-color="#45ADCD"/>
<stop offset="1" stop-color="#3EC4CD"/>
</linearGradient>
</defs>
</svg>
