<svg width="110" height="110" viewBox="0 0 110 110" fill="none" xmlns="http://www.w3.org/2000/svg">
<path d="M48.1224 36.666H84.7891M48.1224 54.9994H59.5807M48.1224 73.3327H59.5807M73.3307 73.3327H84.7891M73.3307 54.9994H84.7891M32.0807 34.3743H27.4974C18.855 34.3743 14.5338 34.3743 11.8489 37.0592C9.16406 39.7441 9.16406 44.0653 9.16406 52.7077V82.4993C9.16406 88.8276 14.2941 93.9577 20.6224 93.9577M32.0807 34.3743V82.4993C32.0807 88.8276 26.9507 93.9577 20.6224 93.9577M32.0807 34.3743C32.0807 30.112 32.0807 27.9808 32.5492 26.2323C33.8207 21.4872 37.527 17.781 42.272 16.5095C44.0205 16.041 46.1517 16.041 50.4141 16.041H73.3307C86.2944 16.041 92.7762 16.041 96.8035 20.0683C100.831 24.0956 100.831 30.5774 100.831 43.541V66.4577C100.831 79.4213 100.831 85.9031 96.8035 89.9304C92.7762 93.9577 86.2944 93.9577 73.3307 93.9577H20.6224" stroke="url(#paint0_linear_2625_17135)" stroke-width="6" stroke-linecap="round" stroke-linejoin="round"/>
<defs>
<linearGradient id="paint0_linear_2625_17135" x1="-36.1079" y1="54.7607" x2="40.2445" y2="145.141" gradientUnits="userSpaceOnUse">
<stop stop-color="#9168CD"/>
<stop offset="0.424673" stop-color="#5556FF"/>
<stop offset="0.73499" stop-color="#45ADCD"/>
<stop offset="1" stop-color="#3EC4CD"/>
</linearGradient>
</defs>
</svg>
