<svg width="110" height="110" viewBox="0 0 110 110" fill="none" xmlns="http://www.w3.org/2000/svg">
<path d="M100.65 59.5412L97.6565 59.3477L97.6565 59.3477L100.65 59.5412ZM64.9499 95.7479L65.1489 98.7413L65.1489 98.7413L64.9499 95.7479ZM64.9499 11.7838L65.1489 8.79037L64.9499 11.7838ZM100.65 47.9905L97.6565 48.184L97.6565 48.184L100.65 47.9905ZM45.0527 11.7838L44.8537 8.79037L45.0527 11.7838ZM9.3524 47.9905L12.3462 48.184L9.3524 47.9905ZM45.0527 95.7479L45.2517 92.7545L45.2517 92.7545L45.0527 95.7479ZM9.3524 59.5412L6.35865 59.7347L6.35865 59.7347L9.3524 59.5412ZM16.6292 78.7166L19.2553 77.2662C19.2152 77.1936 19.1721 77.1227 19.1262 77.0538L16.6292 78.7166ZM38.2447 94.193L39.3872 91.4191L39.3871 91.4191L38.2447 94.193ZM30.9327 94.8042L32.7132 97.2187L32.7132 97.2187L30.9327 94.8042ZM34.1262 92.8159L33.7601 89.8383L33.76 89.8383L34.1262 92.8159ZM15.1273 91.6563L17.7805 93.0565L17.7805 93.0565L15.1273 91.6563ZM18.332 98.533L18.259 101.532L18.332 98.533ZM60.787 47.5281L63.3283 49.1225L63.3283 49.1225L60.787 47.5281ZM45.1263 43.7176C45.1263 45.3745 46.4694 46.7176 48.1263 46.7176C49.7832 46.7176 51.1263 45.3745 51.1263 43.7176H45.1263ZM52.0013 59.583C52.0013 61.2399 53.3444 62.583 55.0013 62.583C56.6582 62.583 58.0013 61.2399 58.0013 59.583H52.0013ZM55.0013 65.7497C53.3444 65.7497 52.0013 67.0928 52.0013 68.7497C52.0013 70.4065 53.3444 71.7497 55.0013 71.7497V65.7497ZM55.0425 71.7497C56.6993 71.7497 58.0425 70.4065 58.0425 68.7497C58.0425 67.0928 56.6993 65.7497 55.0425 65.7497V71.7497ZM97.6565 59.3477C96.4948 77.3221 82.3885 91.5821 64.7509 92.7545L65.1489 98.7413C85.8556 97.3649 102.292 80.6485 103.644 59.7347L97.6565 59.3477ZM64.7509 14.7772C82.3885 15.9496 96.4948 30.2096 97.6565 48.184L103.644 47.797C102.292 26.8832 85.8556 10.1668 65.1489 8.79037L64.7509 14.7772ZM44.8537 8.79037C24.147 10.1668 7.71024 26.8832 6.35865 47.797L12.3462 48.184C13.5078 30.2096 27.6141 15.9496 45.2517 14.7772L44.8537 8.79037ZM45.2517 14.7772C51.6468 14.3521 58.3428 14.3512 64.7509 14.7772L65.1489 8.79037C58.4755 8.34677 51.5135 8.34767 44.8537 8.79037L45.2517 14.7772ZM44.8537 98.7413C51.5136 99.184 58.4755 99.1849 65.1489 98.7413L64.7509 92.7545C58.3428 93.1805 51.6468 93.1796 45.2517 92.7545L44.8537 98.7413ZM97.6565 48.184C97.894 51.8602 97.894 55.6715 97.6565 59.3477L103.644 59.7347C103.898 55.8007 103.898 51.731 103.644 47.797L97.6565 48.184ZM6.35865 47.797C6.10441 51.731 6.10441 55.8007 6.35865 59.7347L12.3462 59.3477C12.1086 55.6715 12.1086 51.8602 12.3462 48.184L6.35865 47.797ZM19.1262 77.0538C15.5821 71.7319 12.756 65.6899 12.3462 59.3477L6.35865 59.7347C6.86412 67.556 10.302 74.628 14.1322 80.3795L19.1262 77.0538ZM45.2517 92.7545C43.3019 92.6249 41.1733 92.1548 39.3872 91.4191L37.1022 96.967C39.5363 97.9695 42.3079 98.5721 44.8537 98.7413L45.2517 92.7545ZM17.7805 93.0565C20.061 88.7349 22.2011 82.5997 19.2553 77.2662L14.0031 80.1671C15.3391 82.5858 14.6534 86.1263 12.474 90.2562L17.7805 93.0565ZM29.1523 92.3897C26.6056 94.2677 23.4058 95.6556 18.405 95.5339L18.259 101.532C24.6638 101.688 29.155 99.8426 32.7132 97.2187L29.1523 92.3897ZM39.3871 91.4191C38.2465 90.9493 37.2781 90.5494 36.5238 90.2842C35.9296 90.0753 34.8515 89.7041 33.7601 89.8383L34.4924 95.7935C34.1641 95.8338 33.9746 95.7784 34.0542 95.7957C34.1108 95.808 34.2548 95.8465 34.5337 95.9445C35.1025 96.1445 35.895 96.4698 37.1022 96.967L39.3871 91.4191ZM32.7132 97.2187C33.6117 96.5562 34.1731 96.1439 34.5848 95.8775C34.7824 95.7496 34.8735 95.7032 34.893 95.694C34.9171 95.6827 34.7659 95.7598 34.4924 95.7935L33.76 89.8383C32.7162 89.9667 31.8421 90.5057 31.3251 90.8402C30.7221 91.2304 29.9851 91.7756 29.1522 92.3897L32.7132 97.2187ZM12.474 90.2562C11.7156 91.6934 10.985 93.062 10.574 94.2124C10.1581 95.3765 9.76547 97.1267 10.7733 98.845L15.9487 95.8094C16.311 96.4271 15.9976 96.8653 16.2243 96.2309C16.4558 95.5827 16.9311 94.6661 17.7805 93.0565L12.474 90.2562ZM18.405 95.5339C17.6703 95.516 17.0898 95.5016 16.5946 95.4743C16.0953 95.4468 15.7812 95.4106 15.5771 95.3711C15.3741 95.3318 15.401 95.3111 15.5237 95.3831C15.6864 95.4787 15.8464 95.635 15.9487 95.8094L10.7733 98.845C11.7026 100.429 13.1881 101.02 14.4372 101.262C15.5448 101.476 16.9282 101.5 18.259 101.532L18.405 95.5339ZM58.8763 43.7176C58.8763 44.545 58.642 45.3021 58.2457 45.9338L63.3283 49.1225C64.3107 47.5565 64.8763 45.6977 64.8763 43.7176H58.8763ZM51.1263 43.7176C51.1263 41.4081 52.9323 39.6663 55.0013 39.6663V33.6663C49.4763 33.6663 45.1263 38.2385 45.1263 43.7176H51.1263ZM55.0013 39.6663C57.0703 39.6663 58.8763 41.4081 58.8763 43.7176H64.8763C64.8763 38.2385 60.5263 33.6663 55.0013 33.6663V39.6663ZM52.0013 57.8202V59.583H58.0013V57.8202H52.0013ZM58.2457 45.9338C57.8236 46.6067 57.292 47.3076 56.6559 48.1185C56.0502 48.8905 55.3259 49.7911 54.6768 50.7061C53.3959 52.5117 52.0013 54.9088 52.0013 57.8202H58.0013C58.0013 56.8373 58.4723 55.7258 59.5705 54.1777C60.111 53.4157 60.7047 52.6782 61.3765 51.8219C62.0178 51.0045 62.7231 50.087 63.3283 49.1225L58.2457 45.9338ZM55.0013 71.7497H55.0425V65.7497H55.0013V71.7497Z" fill="url(#paint0_linear_2108_16763)"/>
<defs>
<linearGradient id="paint0_linear_2108_16763" x1="-36.104" y1="54.733" x2="50.3051" y2="146.25" gradientUnits="userSpaceOnUse">
<stop stop-color="#9168CD"/>
<stop offset="0.424673" stop-color="#5556FF"/>
<stop offset="0.73499" stop-color="#45ADCD"/>
<stop offset="1" stop-color="#3EC4CD"/>
</linearGradient>
</defs>
</svg>
