<svg width="110" height="110" viewBox="0 0 110 110" fill="none" xmlns="http://www.w3.org/2000/svg">
<path d="M16.043 100.834H13.043C13.043 102.491 14.3861 103.834 16.043 103.834V100.834ZM93.9596 100.834V103.834C95.6165 103.834 96.9596 102.491 96.9596 100.834H93.9596ZM68.7513 100.834L68.7513 103.834H68.7513V100.834ZM9.16797 97.8337C7.51111 97.8337 6.16797 99.1768 6.16797 100.834C6.16797 102.491 7.51111 103.834 9.16797 103.834V97.8337ZM100.835 103.834C102.491 103.834 103.835 102.491 103.835 100.834C103.835 99.1768 102.491 97.8337 100.835 97.8337V103.834ZM58.1686 11.8147L55.4782 13.1419L55.481 13.1475L58.1686 11.8147ZM61.3949 18.3206L64.0934 17.0097C64.0898 17.0024 64.0862 16.9951 64.0826 16.9878L61.3949 18.3206ZM63.998 20.2613L63.5008 23.2198L63.5023 23.2201L63.998 20.2613ZM69.8457 21.2409L70.3428 18.2824L70.3413 18.2821L69.8457 21.2409ZM71.7705 27.3032L69.6476 25.1834L69.6404 25.1907L71.7705 27.3032ZM67.2243 31.887L65.0943 29.7744L65.0943 29.7744L67.2243 31.887ZM66.2711 35.2324L63.3426 35.8834C63.344 35.8899 63.3455 35.8965 63.347 35.9031L66.2711 35.2324ZM67.5726 40.9066L70.4972 40.2381L70.4967 40.2359L67.5726 40.9066ZM62.2932 44.788L60.7556 47.364L60.7581 47.3654L62.2932 44.788ZM56.8121 41.5165L55.2734 44.0918L55.2746 44.0925L56.8121 41.5165ZM53.1825 41.5165L51.6646 38.9289C51.658 38.9327 51.6515 38.9366 51.645 38.9405L53.1825 41.5165ZM47.7015 44.788L46.1639 42.2119L46.1611 42.2136L47.7015 44.788ZM42.422 40.9066L45.346 41.5776L45.3461 41.5773L42.422 40.9066ZM43.7236 35.2324L46.6476 35.9031C46.6491 35.8965 46.6506 35.8899 46.6521 35.8834L43.7236 35.2324ZM42.7703 31.887L40.6403 33.9995L40.6403 33.9995L42.7703 31.887ZM38.2242 27.3032L40.3542 25.1907L40.3542 25.1907L38.2242 27.3032ZM40.149 21.2409L39.6533 18.2821L39.6518 18.2824L40.149 21.2409ZM45.9966 20.2613L46.4923 23.2201L46.5029 23.2183L45.9966 20.2613ZM48.5814 18.3206L45.8937 16.9878C45.8901 16.9951 45.8865 17.0024 45.8829 17.0097L48.5814 18.3206ZM51.8077 11.8147L49.1228 10.4762L49.12 10.4818L51.8077 11.8147ZM29.793 71.7503H32.0846V65.7503H29.793V71.7503ZM38.2513 77.917V100.834H44.2513V77.917H38.2513ZM41.2513 97.8337H16.043V103.834H41.2513V97.8337ZM19.043 100.834V82.5003H13.043V100.834H19.043ZM32.0846 71.7503C34.33 71.7503 35.7123 71.7567 36.7141 71.8914C37.6295 72.0145 37.7666 72.1932 37.7876 72.2141L42.0302 67.9714C40.7087 66.6499 39.0943 66.1574 37.5135 65.9449C36.0191 65.744 34.1604 65.7503 32.0846 65.7503V71.7503ZM44.2513 77.917C44.2513 75.8412 44.2577 73.9826 44.0567 72.4881C43.8442 70.9073 43.3517 69.293 42.0302 67.9714L37.7876 72.2141C37.8085 72.235 37.9872 72.3721 38.1102 73.2876C38.2449 74.2893 38.2513 75.6716 38.2513 77.917H44.2513ZM29.793 65.7503C26.6369 65.7503 23.968 65.744 21.8495 66.0288C19.6447 66.3252 17.5924 66.9855 15.9353 68.6426L20.1779 72.8853C20.5344 72.5288 21.1095 72.1823 22.649 71.9753C24.2748 71.7567 26.4673 71.7503 29.793 71.7503V65.7503ZM19.043 82.5003C19.043 79.1746 19.0493 76.9821 19.2679 75.3563C19.4749 73.8168 19.8214 73.2418 20.1779 72.8853L15.9353 68.6426C14.2782 70.2998 13.6179 72.352 13.3214 74.5568C13.0366 76.6754 13.043 79.3442 13.043 82.5003H19.043ZM77.918 80.917H80.2096V74.917H77.918V80.917ZM90.9596 91.667V100.834H96.9596V91.667H90.9596ZM93.9596 97.8337H68.7513V103.834H93.9596V97.8337ZM71.7513 100.834V87.0837H65.7513V100.834H71.7513ZM80.2096 80.917C83.5353 80.917 85.7278 80.9234 87.3536 81.1419C88.8931 81.3489 89.4682 81.6954 89.8247 82.052L94.0673 77.8093C92.4102 76.1522 90.3579 75.4919 88.1531 75.1954C86.0346 74.9106 83.3657 74.917 80.2096 74.917V80.917ZM96.9596 91.667C96.9596 88.5109 96.966 85.842 96.6812 83.7235C96.3848 81.5187 95.7244 79.4664 94.0673 77.8093L89.8247 82.052C90.1812 82.4085 90.5277 82.9835 90.7347 84.523C90.9533 86.1488 90.9596 88.3413 90.9596 91.667H96.9596ZM77.918 74.917C75.8422 74.917 73.9835 74.9106 72.4891 75.1115C70.9083 75.3241 69.2939 75.8166 67.9724 77.1381L72.215 81.3807C72.236 81.3598 72.3731 81.1811 73.2885 81.058C74.2903 80.9234 75.6726 80.917 77.918 80.917V74.917ZM71.7513 87.0837C71.7513 84.8382 71.7577 83.456 71.8924 82.4542C72.0154 81.5388 72.1941 81.4016 72.215 81.3807L67.9724 77.1381C66.6509 78.4596 66.1584 80.074 65.9459 81.6548C65.7449 83.1492 65.7513 85.0079 65.7513 87.0837H71.7513ZM9.16797 103.834H100.835V97.8337H9.16797V103.834ZM65.7513 73.3337V100.834H71.7513V73.3337H65.7513ZM68.7513 97.8337L41.2513 97.8337L41.2513 103.834L68.7513 103.834L68.7513 97.8337ZM44.2513 100.834V73.3337H38.2513V100.834H44.2513ZM55.0013 62.5837C58.327 62.5837 60.5195 62.59 62.1453 62.8086C63.6848 63.0156 64.2598 63.3621 64.6163 63.7186L68.859 59.476C67.2019 57.8188 65.1496 57.1585 62.9448 56.8621C60.8263 56.5773 58.1574 56.5837 55.0013 56.5837V62.5837ZM71.7513 73.3337C71.7513 70.1776 71.7577 67.5087 71.4728 65.3902C71.1764 63.1853 70.5161 61.1331 68.859 59.476L64.6163 63.7186C64.9729 64.0751 65.3194 64.6502 65.5263 66.1897C65.7449 67.8154 65.7513 70.0079 65.7513 73.3337H71.7513ZM55.0013 56.5837C51.8452 56.5837 49.1763 56.5773 47.0578 56.8621C44.853 57.1585 42.8007 57.8189 41.1436 59.476L45.3863 63.7186C45.7428 63.3621 46.3178 63.0156 47.8573 62.8086C49.4831 62.59 51.6756 62.5837 55.0013 62.5837V56.5837ZM44.2513 73.3337C44.2513 70.0079 44.2577 67.8154 44.4763 66.1897C44.6832 64.6502 45.0297 64.0751 45.3863 63.7186L41.1436 59.476C39.4865 61.1331 38.8262 63.1853 38.5298 65.3902C38.2449 67.5087 38.2513 70.1776 38.2513 73.3337H44.2513ZM55.481 13.1475L58.7073 19.6534L64.0826 16.9878L60.8563 10.4818L55.481 13.1475ZM58.6965 19.6315C59.1827 20.6324 59.9593 21.4244 60.6996 21.9751C61.4406 22.5265 62.4162 23.0375 63.5008 23.2198L64.4952 17.3028C64.5626 17.3141 64.5623 17.3237 64.4997 17.2946C64.4417 17.2677 64.3639 17.223 64.2809 17.1612C64.1979 17.0994 64.1339 17.0387 64.0934 16.9929C64.0494 16.9433 64.0613 16.9437 64.0934 17.0097L58.6965 19.6315ZM63.5023 23.2201L69.35 24.1996L70.3413 18.2821L64.4936 17.3025L63.5023 23.2201ZM69.3485 24.1994C69.9689 24.3037 70.2876 24.4668 70.4103 24.5506C70.5135 24.6212 70.421 24.5901 70.3627 24.407C70.3044 24.2241 70.3622 24.1472 70.3176 24.2684C70.2648 24.4115 70.097 24.7334 69.6477 25.1834L73.8933 29.4231C75.617 27.6969 76.9183 25.2165 76.0792 22.5846C75.2395 19.9506 72.7416 18.6855 70.3428 18.2824L69.3485 24.1994ZM69.6404 25.1907L65.0943 29.7744L69.3543 33.9995L73.9005 29.4158L69.6404 25.1907ZM65.0943 29.7744C64.2622 30.6133 63.7545 31.6755 63.4837 32.6294C63.2122 33.5854 63.0897 34.7459 63.3426 35.8834L69.1996 34.5813C69.2108 34.6319 69.2013 34.6219 69.2059 34.5448C69.2103 34.4717 69.2253 34.3747 69.2555 34.2681C69.2858 34.1614 69.3233 34.0738 69.3556 34.0141C69.3899 33.9506 69.3986 33.9549 69.3543 33.9995L65.0943 29.7744ZM63.347 35.9031L64.6485 41.5773L70.4967 40.2359L69.1951 34.5616L63.347 35.9031ZM64.648 41.575C64.8463 42.4426 64.8273 42.9618 64.7842 43.197C64.7455 43.408 64.7307 43.2065 65.019 42.9945C65.3097 42.7808 65.5049 42.853 65.3052 42.8275C65.0783 42.7986 64.587 42.6623 63.8283 42.2105L60.7581 47.3654C62.9498 48.6708 66.0604 49.6756 68.5726 47.829C71.0723 45.9916 71.0666 42.7296 70.4972 40.2381L64.648 41.575ZM63.8307 42.2119L58.3497 38.9405L55.2746 44.0925L60.7556 47.364L63.8307 42.2119ZM58.3508 38.9412C57.2783 38.3003 56.0556 38.0729 55.0042 38.0729C53.9501 38.0729 52.7344 38.3013 51.6646 38.9289L54.7005 44.1041C54.6547 44.131 54.6592 44.1193 54.7313 44.1021C54.8 44.0857 54.8951 44.0729 55.0042 44.0729C55.1134 44.0729 55.2056 44.0857 55.2687 44.1009C55.3357 44.117 55.3303 44.1258 55.2734 44.0918L58.3508 38.9412ZM51.645 38.9405L46.1639 42.2119L49.239 47.364L54.7201 44.0925L51.645 38.9405ZM46.1611 42.2136C45.4106 42.6627 44.9247 42.7963 44.7024 42.8243C44.5076 42.8488 44.6988 42.7789 44.9835 42.9883C45.2654 43.1957 45.2506 43.3915 45.2119 43.1832C45.1689 42.9508 45.1489 42.4365 45.346 41.5776L39.4981 40.2355C38.9247 42.7338 38.9333 45.9861 41.4279 47.8213C43.9377 49.6677 47.0446 48.677 49.2418 47.3623L46.1611 42.2136ZM45.3461 41.5773L46.6476 35.9031L40.7995 34.5616L39.498 40.2359L45.3461 41.5773ZM46.6521 35.8834C46.9049 34.7459 46.7824 33.5854 46.511 32.6294C46.2401 31.6755 45.7324 30.6133 44.9004 29.7744L40.6403 33.9995C40.596 33.9549 40.6047 33.9506 40.6391 34.0141C40.6714 34.0738 40.7088 34.1614 40.7391 34.2681C40.7694 34.3747 40.7844 34.4717 40.7887 34.5448C40.7933 34.6219 40.7838 34.6319 40.7951 34.5813L46.6521 35.8834ZM44.9004 29.7744L40.3542 25.1907L36.0941 29.4158L40.6403 33.9995L44.9004 29.7744ZM40.3542 25.1907C39.908 24.7407 39.7396 24.4177 39.686 24.2717C39.6402 24.1468 39.6979 24.2205 39.6406 24.4016C39.5827 24.5843 39.4898 24.6171 39.5898 24.5486C39.7099 24.4664 40.0261 24.3036 40.6461 24.1994L39.6518 18.2824C37.2499 18.686 34.7556 19.9536 33.9206 22.59C33.0892 25.2149 34.3828 27.6903 36.0941 29.4158L40.3542 25.1907ZM40.6446 24.1996L46.4923 23.2201L45.501 17.3025L39.6533 18.2821L40.6446 24.1996ZM46.5029 23.2183C47.5814 23.0336 48.5513 22.5192 49.2846 21.971C50.0187 21.4222 50.794 20.6315 51.2798 19.6315L45.8829 17.0097C45.9149 16.9439 45.9265 16.944 45.8817 16.9946C45.8404 17.0413 45.7757 17.1029 45.6921 17.1654C45.6085 17.2279 45.5307 17.2728 45.4738 17.2995C45.4117 17.3287 45.4156 17.3171 45.4904 17.3043L46.5029 23.2183ZM51.269 19.6534L54.4953 13.1475L49.12 10.4818L45.8937 16.9878L51.269 19.6534ZM54.4926 13.1531C54.797 12.5424 55.0645 12.26 55.1916 12.1567C55.2992 12.0692 55.2264 12.167 54.995 12.167C54.7628 12.167 54.6871 12.0685 54.7902 12.1528C54.9135 12.2534 55.1777 12.5328 55.4782 13.1419L60.8591 10.4874C59.7775 8.29501 57.8306 6.16699 54.995 6.16699C52.1649 6.16699 50.2135 8.28828 49.1228 10.4762L54.4926 13.1531Z" fill="url(#paint0_linear_2108_16759)"/>
<defs>
<linearGradient id="paint0_linear_2108_16759" x1="-36.104" y1="54.7196" x2="55.0013" y2="146.386" gradientUnits="userSpaceOnUse">
<stop stop-color="#9168CD"/>
<stop offset="0.424673" stop-color="#5556FF"/>
<stop offset="0.73499" stop-color="#45ADCD"/>
<stop offset="1" stop-color="#3EC4CD"/>
</linearGradient>
</defs>
</svg>
