<svg width="110" height="110" viewBox="0 0 110 110" fill="none" xmlns="http://www.w3.org/2000/svg">
<path d="M78.9537 50.6785L76.995 52.9509L76.995 52.9509L78.9537 50.6785ZM78.9537 59.3209L76.995 57.0485L76.995 57.0485L78.9537 59.3209ZM31.0437 50.6785L33.0024 52.9509L33.0024 52.9509L31.0437 50.6785ZM31.0437 59.3209L33.0024 57.0485L33.0024 57.0485L31.0437 59.3209ZM62.4281 42.1984C62.952 40.6265 62.1025 38.9276 60.5307 38.4036C58.9589 37.8797 57.2599 38.7292 56.736 40.301L62.4281 42.1984ZM47.5693 67.801C47.0454 69.3728 47.8949 71.0718 49.4667 71.5957C51.0385 72.1197 52.7375 71.2702 53.2614 69.6984L47.5693 67.801ZM71.3734 48.1054L76.995 52.9509L80.9123 48.4061L75.2907 43.5606L71.3734 48.1054ZM76.995 57.0485L71.3734 61.894L75.2907 66.4387L80.9123 61.5933L76.995 57.0485ZM76.995 52.9509C78.2435 54.027 78.9419 54.6376 79.3661 55.1168C79.7506 55.5512 79.4987 55.4328 79.4987 54.9997H85.4987C85.4987 53.3009 84.6559 52.0404 83.8588 51.1399C83.1013 50.2842 82.0271 49.367 80.9123 48.4061L76.995 52.9509ZM80.9123 61.5933C82.0271 60.6324 83.1013 59.7152 83.8588 58.8595C84.6559 57.9589 85.4987 56.6985 85.4987 54.9997H79.4987C79.4987 54.5665 79.7506 54.4481 79.3661 54.8826C78.9419 55.3618 78.2435 55.9724 76.995 57.0485L80.9123 61.5933ZM34.7067 43.5606L29.0851 48.4061L33.0024 52.9509L38.624 48.1054L34.7067 43.5606ZM29.0851 61.5933L34.7067 66.4387L38.624 61.894L33.0024 57.0485L29.0851 61.5933ZM29.0851 48.4061C27.9703 49.367 26.8961 50.2842 26.1386 51.1399C25.3415 52.0404 24.4987 53.3009 24.4987 54.9997H30.4987C30.4987 55.4328 30.2467 55.5512 30.6313 55.1168C31.0555 54.6376 31.7538 54.027 33.0024 52.9509L29.0851 48.4061ZM33.0024 57.0485C31.7538 55.9724 31.0555 55.3618 30.6313 54.8826C30.2468 54.4481 30.4987 54.5665 30.4987 54.9997H24.4987C24.4987 56.6985 25.3415 57.9589 26.1386 58.8595C26.8961 59.7152 27.9702 60.6324 29.0851 61.5933L33.0024 57.0485ZM56.736 40.301L47.5693 67.801L53.2614 69.6984L62.4281 42.1984L56.736 40.301ZM54.9987 95.5413C44.651 95.5413 37.1921 95.535 31.5099 94.771C25.9141 94.0187 22.4928 92.5814 19.9549 90.0435L15.7122 94.2861C19.5508 98.1247 24.4493 99.8757 30.7104 100.718C36.8853 101.548 44.8206 101.541 54.9987 101.541V95.5413ZM8.45703 54.9997C8.45703 65.1777 8.45066 73.1131 9.28085 79.2879C10.1226 85.5491 11.8737 90.4476 15.7122 94.2861L19.9549 90.0435C17.4169 87.5055 15.9797 84.0843 15.2273 78.4885C14.4634 72.8063 14.457 65.3474 14.457 54.9997H8.45703ZM95.5404 54.9997C95.5404 65.3474 95.534 72.8063 94.77 78.4885C94.0177 84.0843 92.5805 87.5055 90.0425 90.0435L94.2852 94.2861C98.1237 90.4476 99.8748 85.5491 100.717 79.2879C101.547 73.1131 101.54 65.1777 101.54 54.9997H95.5404ZM54.9987 101.541C65.1768 101.541 73.1121 101.548 79.287 100.718C85.5481 99.8757 90.4466 98.1247 94.2852 94.2861L90.0425 90.0435C87.5046 92.5814 84.0833 94.0187 78.4875 94.771C72.8053 95.535 65.3464 95.5413 54.9987 95.5413V101.541ZM54.9987 14.458C65.3464 14.458 72.8053 14.4644 78.4875 15.2283C84.0833 15.9807 87.5046 17.4179 90.0425 19.9559L94.2852 15.7132C90.4466 11.8746 85.5481 10.1236 79.287 9.28183C73.1121 8.45164 65.1768 8.45801 54.9987 8.45801V14.458ZM101.54 54.9997C101.54 44.8216 101.547 36.8863 100.717 30.7114C99.8748 24.4502 98.1237 19.5518 94.2852 15.7132L90.0425 19.9559C92.5805 22.4938 94.0177 25.9151 94.77 31.5109C95.534 37.193 95.5404 44.652 95.5404 54.9997H101.54ZM54.9987 8.45801C44.8206 8.45801 36.8853 8.45164 30.7104 9.28183C24.4493 10.1236 19.5508 11.8746 15.7122 15.7132L19.9549 19.9559C22.4928 17.4179 25.9141 15.9807 31.5099 15.2283C37.1921 14.4644 44.651 14.458 54.9987 14.458V8.45801ZM14.457 54.9997C14.457 44.652 14.4634 37.193 15.2273 31.5109C15.9797 25.9151 17.4169 22.4938 19.9549 19.9559L15.7122 15.7132C11.8737 19.5518 10.1226 24.4502 9.28085 30.7114C8.45066 36.8863 8.45703 44.8216 8.45703 54.9997H14.457Z" fill="url(#paint0_linear_2098_14983)"/>
<defs>
<linearGradient id="paint0_linear_2098_14983" x1="-31.5513" y1="54.733" x2="54.9987" y2="141.816" gradientUnits="userSpaceOnUse">
<stop stop-color="#9168CD"/>
<stop offset="0.424673" stop-color="#5556FF"/>
<stop offset="0.73499" stop-color="#45ADCD"/>
<stop offset="1" stop-color="#3EC4CD"/>
</linearGradient>
</defs>
</svg>
