<svg width="110" height="110" viewBox="0 0 110 110" fill="none" xmlns="http://www.w3.org/2000/svg">
<path d="M100.835 50.417L100.237 53.3567C101.17 53.5468 102.139 53.2819 102.846 52.6433C103.553 52.0046 103.915 51.068 103.82 50.1199L100.835 50.417ZM8.41036 40.3494C7.91277 41.9297 8.79053 43.6142 10.3709 44.1118C11.9513 44.6094 13.6358 43.7317 14.1334 42.1513L8.41036 40.3494ZM92.2665 45.6116C90.6429 45.2811 89.0589 46.3294 88.7285 47.953C88.398 49.5766 89.4463 51.1606 91.0699 51.491L92.2665 45.6116ZM42.2211 42.2576L43.5931 44.9255L43.5931 44.9255L42.2211 42.2576ZM47.6564 39.4623L46.2844 36.7945L46.2844 36.7945L47.6564 39.4623ZM62.3466 39.4623L63.7187 36.7945L63.7187 36.7945L62.3466 39.4623ZM67.782 42.2576L66.4099 44.9255L66.4099 44.9255L67.782 42.2576ZM42.2211 58.5763L43.5931 55.9085L43.5931 55.9085L42.2211 58.5763ZM47.6564 61.3717L46.2844 64.0395L46.2844 64.0395L47.6564 61.3717ZM62.3466 61.3717L63.7187 64.0395L63.7187 64.0395L62.3466 61.3717ZM67.782 58.5763L66.4099 55.9085L66.4099 55.9085L67.782 58.5763ZM74.9182 64.167C74.9182 65.8238 76.2613 67.167 77.9182 67.167C79.575 67.167 80.9182 65.8238 80.9182 64.167H74.9182ZM54.8879 100.834L54.8879 97.8337L54.8879 100.834ZM9.16797 59.5836L9.76628 56.6439C8.8326 56.4539 7.86416 56.7187 7.15708 57.3574C6.44999 57.996 6.08835 58.9326 6.18272 59.8808L9.16797 59.5836ZM101.593 69.6513C102.09 68.0709 101.213 66.3864 99.6322 65.8888C98.0518 65.3912 96.3673 66.269 95.8697 67.8494L101.593 69.6513ZM17.7366 64.3891C19.3601 64.7195 20.9442 63.6712 21.2746 62.0477C21.605 60.4241 20.5567 58.8401 18.9332 58.5096L17.7366 64.3891ZM55.1152 12.167C77.389 12.167 95.6963 29.0779 97.8498 50.7141L103.82 50.1199C101.363 25.4339 80.4913 6.16699 55.1152 6.16699V12.167ZM14.1334 42.1513C19.6049 24.7736 35.8848 12.167 55.1152 12.167V6.16699C33.1989 6.16699 14.6485 20.5369 8.41036 40.3494L14.1334 42.1513ZM101.433 47.4773L92.2665 45.6116L91.0699 51.491L100.237 53.3567L101.433 47.4773ZM43.5931 44.9255L49.0285 42.1302L46.2844 36.7945L40.849 39.5898L43.5931 44.9255ZM60.9746 42.1302L66.4099 44.9255L69.154 39.5898L63.7187 36.7945L60.9746 42.1302ZM40.849 61.2442L46.2844 64.0395L49.0285 58.7038L43.5931 55.9085L40.849 61.2442ZM63.7187 64.0395L69.154 61.2442L66.4099 55.9085L60.9746 58.7038L63.7187 64.0395ZM46.2844 64.0395C48.0496 64.9473 49.5446 65.7193 50.8407 66.2468C52.188 66.7952 53.5197 67.167 55.0015 67.167V61.167C54.5736 61.167 54.0446 61.0729 53.1027 60.6895C52.1095 60.2853 50.8869 59.6595 49.0285 58.7038L46.2844 64.0395ZM60.9746 58.7038C59.1162 59.6595 57.8935 60.2853 56.9004 60.6895C55.9584 61.0729 55.4294 61.167 55.0015 61.167V67.167C56.4833 67.167 57.8151 66.7952 59.1624 66.2468C60.4584 65.7193 61.9535 64.9473 63.7187 64.0395L60.9746 58.7038ZM66.4099 44.9255C69.8852 46.7128 72.1597 47.8928 73.6117 48.956C75.0143 49.9832 74.9182 50.3737 74.9182 50.417H80.9182C80.9182 47.5138 79.1327 45.5623 77.1566 44.1152C75.2298 42.7042 72.4362 41.2778 69.154 39.5898L66.4099 44.9255ZM69.154 61.2442C72.4362 59.5562 75.2298 58.1297 77.1566 56.7188C79.1327 55.2716 80.9182 53.3201 80.9182 50.417H74.9182C74.9182 50.4603 75.0143 50.8508 73.6117 51.8779C72.1597 52.9412 69.8852 54.1212 66.4099 55.9085L69.154 61.2442ZM49.0285 42.1302C50.8869 41.1744 52.1095 40.5487 53.1027 40.1445C54.0446 39.7611 54.5736 39.667 55.0015 39.667V33.667C53.5197 33.667 52.188 34.0388 50.8407 34.5872C49.5446 35.1147 48.0496 35.8866 46.2844 36.7945L49.0285 42.1302ZM63.7187 36.7945C61.9535 35.8866 60.4584 35.1147 59.1624 34.5872C57.8151 34.0388 56.4833 33.667 55.0015 33.667V39.667C55.4295 39.667 55.9585 39.7611 56.9004 40.1445C57.8935 40.5487 59.1162 41.1744 60.9746 42.1302L63.7187 36.7945ZM40.849 39.5898C37.5668 41.2778 34.7733 42.7042 32.8465 44.1152C30.8703 45.5623 29.0849 47.5138 29.0849 50.417H35.0849C35.0849 50.3737 34.9887 49.9832 36.3914 48.956C37.8433 47.8928 40.1178 46.7128 43.5931 44.9255L40.849 39.5898ZM43.5931 55.9085C40.1178 54.1212 37.8433 52.9412 36.3914 51.8779C34.9887 50.8508 35.0849 50.4603 35.0849 50.417H29.0849C29.0849 53.3201 30.8703 55.2716 32.8465 56.7188C34.7733 58.1297 37.5668 59.5562 40.849 61.2442L43.5931 55.9085ZM65.7515 71.0185C65.7515 70.9186 65.6589 71.8488 63.6929 72.9899C61.9045 74.0279 59.009 74.917 55.0015 74.917V80.917C59.8537 80.917 63.8332 79.8459 66.7048 78.1791C69.399 76.6154 71.7515 74.0964 71.7515 71.0185H65.7515ZM55.0015 74.917C50.9941 74.917 48.0986 74.0279 46.3101 72.9899C44.3441 71.8488 44.2515 70.9186 44.2515 71.0185H38.2515C38.2515 74.0964 40.6041 76.6154 43.2982 78.1791C46.1699 79.8459 50.1494 80.917 55.0015 80.917V74.917ZM71.7515 71.0185V58.0773H65.7515V71.0185H71.7515ZM44.2515 71.0185V58.0773H38.2515V71.0185H44.2515ZM74.9182 50.417V64.167H80.9182V50.417H74.9182ZM54.8879 97.8337C32.614 97.8337 14.3067 80.9227 12.1532 59.2865L6.18272 59.8808C8.63975 84.5667 29.5117 103.834 54.8879 103.834L54.8879 97.8337ZM95.8697 67.8494C90.3981 85.2271 74.1182 97.8337 54.8879 97.8337L54.8879 103.834C76.8041 103.834 95.3546 89.4638 101.593 69.6513L95.8697 67.8494ZM8.56966 62.5234L17.7366 64.3891L18.9332 58.5096L9.76628 56.6439L8.56966 62.5234Z" fill="url(#paint0_linear_2108_16749)"/>
<defs>
<linearGradient id="paint0_linear_2108_16749" x1="-36.1042" y1="54.7196" x2="55.0011" y2="146.387" gradientUnits="userSpaceOnUse">
<stop stop-color="#9168CD"/>
<stop offset="0.424673" stop-color="#5556FF"/>
<stop offset="0.73499" stop-color="#45ADCD"/>
<stop offset="1" stop-color="#3EC4CD"/>
</linearGradient>
</defs>
</svg>
