<svg width="49" height="48" viewBox="0 0 49 48" fill="none" xmlns="http://www.w3.org/2000/svg">
<path d="M24.6641 41C28.2834 41 31.7543 40.6425 34.971 39.9868C38.9888 39.1677 40.9977 38.7582 42.8309 36.4013C44.6641 34.0443 44.6641 31.3385 44.6641 25.9271V22.0729C44.6641 16.6615 44.6641 13.9557 42.8309 11.5987C40.9977 9.24175 38.9888 8.83225 34.971 8.01325C31.7543 7.35755 28.2834 7 24.6641 7C21.0447 7 17.5738 7.35755 14.3572 8.01325C10.3394 8.83225 8.33048 9.24175 6.49727 11.5987C4.66406 13.9557 4.66406 16.6615 4.66406 22.0729V25.9271C4.66406 31.3385 4.66406 34.0443 6.49727 36.4013C8.33048 38.7582 10.3394 39.1677 14.3572 39.9868C17.5738 40.6425 21.0447 41 24.6641 41Z" stroke="white" stroke-width="2"/>
<path d="M18.6641 32V25.6M18.6641 25.6V19.2C18.6641 17.6915 18.6641 16.9373 19.1034 16.4686C19.5427 16 20.2499 16 21.6641 16H26.1641C28.6493 16 30.6641 18.149 30.6641 20.8C30.6641 23.451 28.6493 25.6 26.1641 25.6M18.6641 25.6H26.1641M26.1641 25.6L29.1641 32" stroke="white" stroke-width="2" stroke-linecap="round" stroke-linejoin="round"/>
<path d="M34.6641 14L34.6641 14.018" stroke="white" stroke-width="3" stroke-linecap="round" stroke-linejoin="round"/>
</svg>
