<svg width="523" height="100" viewBox="0 0 523 100" fill="none" xmlns="http://www.w3.org/2000/svg">
<g clip-path="url(#clip0_2225_17336)">
<g clip-path="url(#clip1_2225_17336)">
<path d="M19.8466 31.6299C19.4823 30.1246 19.5686 28.5331 19.7699 27.7085C20.278 25.3308 21.8984 22.675 26.6059 22.675C30.9779 22.675 33.5475 25.3883 33.5475 29.4535V34.0748H52.1764V28.8303C52.1668 12.5887 37.5264 10 26.9703 10C13.7009 10 2.86673 14.4008 0.882071 26.5964C0.33557 29.9425 0.249281 32.8859 1.03547 36.6635C4.26654 51.9271 30.8054 56.3471 34.6692 66.0019C35.3883 67.7948 35.1774 70.1055 34.813 71.5149C34.1994 74.0268 32.512 76.558 27.5168 76.558C22.8476 76.558 20.0575 73.8447 20.0575 69.7603L20.0288 62.5791H0V68.2838C0 84.976 13.1064 90 27.1429 90C41.1793 90 51.7162 85.3979 53.5187 72.9051C54.4199 66.4621 53.7392 62.2723 53.442 60.6807C50.2876 45.0144 21.9751 40.3643 19.8466 31.6299ZM262.675 31.8121C262.339 30.3356 262.435 28.7728 262.608 27.9482C263.145 25.5609 264.746 22.953 269.377 22.953C273.691 22.953 276.213 25.6376 276.213 29.674V34.2378H294.621V29.0316C294.621 12.9434 280.201 10.4123 269.751 10.4123C256.596 10.4123 245.858 14.7459 243.893 26.8552C243.375 30.1534 243.241 33.0777 244.075 36.8073C247.277 51.8984 273.547 56.28 277.363 65.8293C278.035 67.6414 277.843 69.9425 277.498 71.3039C276.922 73.7871 275.254 76.2895 270.297 76.2895C265.647 76.2895 262.857 73.6146 262.857 69.5877V62.4257H243.039V68.1208C243.039 84.6213 255.964 89.6069 269.895 89.6069C283.826 89.6069 294.247 85.0527 296.011 72.6941C296.855 66.3087 296.222 62.1572 295.877 60.5848C292.79 45.1007 264.784 40.4506 262.665 31.8025L262.675 31.8121ZM432.224 72.4928L414.64 12.3778H386.932V86.2704H405.264L404.199 24.2282L423.087 86.2704H449.664V12.3778H431.218L432.234 72.4928H432.224ZM79.9425 12.3778L66.1074 87.047H86.28L96.7018 17.9291L106.874 87.047H126.903L113.126 12.3778H79.9329H79.9425ZM192.723 12.3778L183.298 70.7478L173.883 12.3778H143.423L141.812 87.047H160.47L160.978 17.9291L173.816 87.047H192.752L205.599 17.9291L206.107 87.047H224.813L223.145 12.3778H192.723ZM366.232 12.3778H347.344V67.6127C347.373 68.5714 347.344 69.6548 347.181 70.4506C346.788 72.3011 345.216 75.8773 340.01 75.8773C334.803 75.8773 333.25 72.3106 332.886 70.4506C332.694 69.6548 332.675 68.5714 332.694 67.6127V12.3778H313.816V65.8965C313.797 67.2771 313.902 70.0959 313.979 70.8341C315.283 84.7843 326.27 89.3097 340 89.3097C353.73 89.3097 364.736 84.7843 366.069 70.8341C366.174 70.0959 366.309 67.2771 366.232 65.8965V12.3778ZM495.887 45.1294V56.0211H503.538V66.8265C503.557 67.7948 503.509 68.8303 503.346 69.6644C503.039 71.6778 501.131 75.1103 495.695 75.1103C490.259 75.1103 488.418 71.6778 488.092 69.6644C487.958 68.8303 487.9 67.7852 487.9 66.8265V32.7037C487.9 31.4957 487.987 30.1726 488.236 29.1755C488.61 27.3538 490.22 23.768 495.657 23.768C501.371 23.768 502.79 27.5455 503.116 29.1755C503.327 30.2493 503.346 32.0518 503.346 32.0518V36.1937H522.148V33.7488C522.148 33.7488 522.234 31.1889 522.004 28.8111C520.594 14.8035 509.051 10.3739 495.82 10.3739C482.589 10.3739 471.256 14.8418 469.607 28.8111C469.453 30.0863 469.233 32.3873 469.233 33.7488V65.139C469.233 66.5101 469.281 67.5647 469.53 70.0671C470.757 83.6913 482.56 88.5139 495.762 88.5139C508.965 88.5139 520.767 83.6817 522.023 70.0671C522.243 67.5647 522.272 66.5101 522.301 65.139V45.1294H495.887Z" fill="#1428A0"/>
</g>
</g>
<defs>
<clipPath id="clip0_2225_17336">
<rect width="522.301" height="100" fill="white"/>
</clipPath>
<clipPath id="clip1_2225_17336">
<rect width="522.301" height="80" fill="white" transform="translate(0 10)"/>
</clipPath>
</defs>
</svg>
