<svg width="152" height="152" viewBox="0 0 152 152" fill="none" xmlns="http://www.w3.org/2000/svg">
<path d="M43.6756 96.7447L45.3964 94.2873L45.3964 94.2873L43.6756 96.7447ZM39.2553 92.3244L41.7127 90.6036L41.7127 90.6036L39.2553 92.3244ZM112.745 92.3244L110.287 90.6036L110.287 90.6036L112.745 92.3244ZM108.324 96.7447L110.045 99.2022L110.045 99.2022L108.324 96.7447ZM108.324 39.2553L110.045 36.7978L110.045 36.7978L108.324 39.2553ZM112.745 43.6756L110.287 45.3964L110.287 45.3964L112.745 43.6756ZM43.6756 39.2553L41.9549 36.7978L41.9549 36.7978L43.6756 39.2553ZM39.2553 43.6756L36.7978 41.9549L36.7978 41.9549L39.2553 43.6756ZM93.9586 57.7276C92.7036 56.6459 90.8093 56.7864 89.7276 58.0414C88.6459 59.2964 88.7864 61.1907 90.0414 62.2724L93.9586 57.7276ZM96.9062 64.2288L94.9475 66.5012L94.9475 66.5012L96.9062 64.2288ZM96.9062 71.7712L94.9475 69.4988L94.9475 69.4988L96.9062 71.7712ZM90.0414 73.7276C88.7864 74.8093 88.6459 76.7036 89.7276 77.9586C90.8093 79.2136 92.7036 79.3541 93.9586 78.2724L90.0414 73.7276ZM61.9586 62.2724C63.2136 61.1907 63.3541 59.2964 62.2724 58.0414C61.1907 56.7864 59.2964 56.6459 58.0414 57.7276L61.9586 62.2724ZM55.0938 64.2288L57.0525 66.5012L57.0525 66.5012L55.0938 64.2288ZM55.0938 71.7712L57.0525 69.4988L57.0525 69.4988L55.0938 71.7712ZM58.0414 78.2724C59.2964 79.3541 61.1907 79.2136 62.2724 77.9586C63.3541 76.7036 63.2136 74.8093 61.9586 73.7276L58.0414 78.2724ZM82.846 56.9487C83.37 55.3769 82.5205 53.6779 80.9487 53.154C79.3769 52.63 77.6779 53.4795 77.154 55.0513L82.846 56.9487ZM69.154 79.0513C68.63 80.6231 69.4795 82.3221 71.0513 82.846C72.6231 83.37 74.3221 82.5205 74.846 80.9487L69.154 79.0513ZM84.9475 114.325L87.0688 112.203L87.0688 112.203L84.9475 114.325ZM84.5016 118.121C85.6732 119.293 87.5727 119.293 88.7443 118.121C89.9158 116.95 89.9158 115.05 88.7443 113.879L84.5016 118.121ZM85.3062 101.342C86.0472 99.8597 85.4465 98.0577 83.9646 97.3167C82.4827 96.5758 80.6806 97.1764 79.9397 98.6584L85.3062 101.342ZM65.6775 114.325L63.5562 112.203L63.5562 112.203L65.6775 114.325ZM61.8807 113.879C60.7092 115.05 60.7092 116.95 61.8807 118.121C63.0523 119.293 64.9518 119.293 66.1234 118.121L61.8807 113.879ZM70.6853 98.6584C69.9444 97.1764 68.1423 96.5758 66.6604 97.3167C65.1785 98.0577 64.5778 99.8597 65.3188 101.342L70.6853 98.6584ZM56 113C54.3431 113 53 114.343 53 116C53 117.657 54.3431 119 56 119V113ZM96 119C97.6569 119 99 117.657 99 116C99 114.343 97.6569 113 96 113V119ZM68 39H84V33H68V39ZM84 97H68V103H84V97ZM68 97C61.3767 97 56.6434 96.9961 52.9768 96.6096C49.3636 96.2288 47.1334 95.5036 45.3964 94.2873L41.9549 99.2022C44.8668 101.241 48.2403 102.144 52.3479 102.577C56.402 103.004 61.5064 103 68 103V97ZM33 68C33 74.4936 32.9961 79.598 33.4234 83.6521C33.8564 87.7597 34.7588 91.1332 36.7978 94.0451L41.7127 90.6036C40.4964 88.8666 39.7712 86.6364 39.3904 83.0232C39.0039 79.3566 39 74.6233 39 68H33ZM45.3964 94.2873C43.963 93.2837 42.7163 92.037 41.7127 90.6036L36.7978 94.0451C38.2029 96.0518 39.9482 97.7971 41.9549 99.2022L45.3964 94.2873ZM113 68C113 74.6233 112.996 79.3566 112.61 83.0232C112.229 86.6364 111.504 88.8666 110.287 90.6036L115.202 94.0451C117.241 91.1332 118.144 87.7597 118.577 83.6521C119.004 79.598 119 74.4936 119 68H113ZM84 103C90.4936 103 95.598 103.004 99.6521 102.577C103.76 102.144 107.133 101.241 110.045 99.2022L106.604 94.2873C104.867 95.5036 102.636 96.2288 99.0232 96.6096C95.3566 96.9961 90.6233 97 84 97V103ZM110.287 90.6036C109.284 92.037 108.037 93.2837 106.604 94.2873L110.045 99.2022C112.052 97.7971 113.797 96.0518 115.202 94.0451L110.287 90.6036ZM84 39C90.6233 39 95.3566 39.0039 99.0232 39.3904C102.636 39.7712 104.867 40.4964 106.604 41.7127L110.045 36.7978C107.133 34.7588 103.76 33.8564 99.6521 33.4234C95.598 32.9961 90.4936 33 84 33V39ZM119 68C119 61.5064 119.004 56.402 118.577 52.3479C118.144 48.2403 117.241 44.8668 115.202 41.9549L110.287 45.3964C111.504 47.1334 112.229 49.3636 112.61 52.9768C112.996 56.6434 113 61.3767 113 68H119ZM106.604 41.7127C108.037 42.7163 109.284 43.963 110.287 45.3964L115.202 41.9549C113.797 39.9482 112.052 38.2029 110.045 36.7978L106.604 41.7127ZM68 33C61.5064 33 56.402 32.9961 52.3479 33.4234C48.2403 33.8564 44.8668 34.7588 41.9549 36.7978L45.3964 41.7127C47.1334 40.4964 49.3636 39.7712 52.9768 39.3904C56.6434 39.0039 61.3767 39 68 39V33ZM39 68C39 61.3767 39.0039 56.6434 39.3904 52.9768C39.7712 49.3636 40.4964 47.1334 41.7127 45.3964L36.7978 41.9549C34.7588 44.8668 33.8564 48.2403 33.4234 52.3479C32.9961 56.402 33 61.5064 33 68H39ZM41.9549 36.7978C39.9482 38.2029 38.2029 39.9482 36.7978 41.9549L41.7127 45.3964C42.7163 43.963 43.963 42.7163 45.3964 41.7127L41.9549 36.7978ZM90.0414 62.2724L94.9475 66.5012L98.8648 61.9564L93.9586 57.7276L90.0414 62.2724ZM94.9475 69.4988L90.0414 73.7276L93.9586 78.2724L98.8648 74.0436L94.9475 69.4988ZM94.9475 66.5012C96.0456 67.4476 96.6312 67.961 96.9802 68.3553C97.2895 68.7048 97 68.5137 97 68H103C103 66.3817 102.195 65.1939 101.473 64.3784C100.791 63.6076 99.8292 62.7877 98.8648 61.9564L94.9475 66.5012ZM98.8648 74.0436C99.8292 73.2123 100.791 72.3924 101.473 71.6216C102.195 70.8061 103 69.6183 103 68H97C97 67.4863 97.2895 67.2952 96.9802 67.6447C96.6312 68.039 96.0456 68.5524 94.9475 69.4988L98.8648 74.0436ZM58.0414 57.7276L53.1352 61.9564L57.0525 66.5012L61.9586 62.2724L58.0414 57.7276ZM53.1352 74.0436L58.0414 78.2724L61.9586 73.7276L57.0525 69.4988L53.1352 74.0436ZM53.1352 61.9564C52.1708 62.7877 51.2094 63.6076 50.5271 64.3784C49.8052 65.1939 49 66.3817 49 68H55C55 68.5137 54.7105 68.7048 55.0198 68.3553C55.3688 67.961 55.9544 67.4476 57.0525 66.5012L53.1352 61.9564ZM57.0525 69.4988C55.9544 68.5524 55.3688 68.039 55.0198 67.6447C54.7105 67.2952 55 67.4863 55 68H49C49 69.6183 49.8052 70.8061 50.5271 71.6216C51.2094 72.3924 52.1708 73.2123 53.1352 74.0436L57.0525 69.4988ZM77.154 55.0513L69.154 79.0513L74.846 80.9487L82.846 56.9487L77.154 55.0513ZM82.8262 116.446L84.5016 118.121L88.7443 113.879L87.0688 112.203L82.8262 116.446ZM79.9397 98.6584C76.9734 104.591 78.1361 111.756 82.8262 116.446L87.0688 112.203C84.2049 109.339 83.495 104.964 85.3062 101.342L79.9397 98.6584ZM63.5562 112.203L61.8807 113.879L66.1234 118.121L67.7988 116.446L63.5562 112.203ZM65.3188 101.342C67.13 104.964 66.4201 109.339 63.5562 112.203L67.7988 116.446C72.4889 111.756 73.6516 104.591 70.6853 98.6584L65.3188 101.342ZM56 119H96V113H56V119Z" fill="url(#paint0_linear_2483_15968)"/>
<rect x="4" y="4" width="144" height="144" rx="72" stroke="url(#paint1_linear_2483_15968)" stroke-width="8"/>
<defs>
<linearGradient id="paint0_linear_2483_15968" x1="-3.51004" y1="75.755" x2="76" y2="155.755" gradientUnits="userSpaceOnUse">
<stop stop-color="#9168CD"/>
<stop offset="0.424673" stop-color="#5556FF"/>
<stop offset="0.73499" stop-color="#45ADCD"/>
<stop offset="1" stop-color="#3EC4CD"/>
</linearGradient>
<linearGradient id="paint1_linear_2483_15968" x1="-75.0691" y1="75.5345" x2="76.0001" y2="227.534" gradientUnits="userSpaceOnUse">
<stop stop-color="#9168CD"/>
<stop offset="0.424673" stop-color="#5556FF"/>
<stop offset="0.73499" stop-color="#45ADCD"/>
<stop offset="1" stop-color="#3EC4CD"/>
</linearGradient>
</defs>
</svg>
