<svg width="110" height="110" viewBox="0 0 110 110" fill="none" xmlns="http://www.w3.org/2000/svg">
<path d="M81.9735 78.438C80.9972 77.4617 79.4143 77.4617 78.438 78.438C77.4617 79.4143 77.4617 80.9972 78.438 81.9735L81.9735 78.438ZM99.063 102.599C100.039 103.575 101.622 103.575 102.599 102.599C103.575 101.622 103.575 100.039 102.599 99.063L99.063 102.599ZM39.1617 50.3052C39.1016 48.9258 37.9346 47.8563 36.5552 47.9164C35.1758 47.9766 34.1063 49.1436 34.1664 50.523L39.1617 50.3052ZM37.2361 63.5348L39.7337 63.4259L37.2361 63.5348ZM66.6617 50.523C66.7218 49.1436 65.6524 47.9766 64.273 47.9164C62.8936 47.8563 61.7266 48.9258 61.6664 50.3052L66.6617 50.523ZM63.592 63.5348L61.0944 63.4259V63.4259L63.592 63.5348ZM38.6511 66.0075L40.1073 63.9754L40.1073 63.9754L38.6511 66.0075ZM62.177 66.0075L60.7208 63.9754L60.7208 63.9754L62.177 66.0075ZM63.546 63.8693L65.9697 64.4821L65.9697 64.4821L63.546 63.8693ZM37.2822 63.8693L39.7059 63.2566L37.2822 63.8693ZM72.3932 46.9766C72.3932 45.5959 71.2739 44.4766 69.8932 44.4766C68.5125 44.4766 67.3932 45.5959 67.3932 46.9766H72.3932ZM66.6194 70.4969L64.1871 69.9191L66.6194 70.4969ZM73.167 70.4969L75.5993 69.9191L73.167 70.4969ZM78.438 81.9735L99.063 102.599L102.599 99.063L81.9735 78.438L78.438 81.9735ZM94.1641 50.4141C94.1641 26.2516 74.5765 6.66406 50.4141 6.66406V11.6641C71.8151 11.6641 89.1641 29.013 89.1641 50.4141H94.1641ZM50.4141 6.66406C26.2516 6.66406 6.66406 26.2516 6.66406 50.4141H11.6641C11.6641 29.013 29.013 11.6641 50.4141 11.6641V6.66406ZM6.66406 50.4141C6.66406 74.5765 26.2516 94.1641 50.4141 94.1641V89.1641C29.013 89.1641 11.6641 71.8151 11.6641 50.4141H6.66406ZM50.4141 94.1641C74.5765 94.1641 94.1641 74.5765 94.1641 50.4141H89.1641C89.1641 71.8151 71.8151 89.1641 50.4141 89.1641V94.1641ZM29.9974 43.5391C29.9974 43.7578 29.9563 43.9247 29.923 44.0249C29.8901 44.1237 29.8583 44.1773 29.8552 44.1826C29.8544 44.1838 29.9098 44.096 30.0839 43.9196C30.4326 43.5661 31.0207 43.0931 31.8641 42.5252C33.5326 41.4017 35.8701 40.1252 38.4067 38.9122C40.9322 37.7045 43.5798 36.5957 45.8379 35.7949C46.968 35.3942 47.9734 35.0803 48.8005 34.8696C49.672 34.6475 50.192 34.5807 50.4141 34.5807V29.5807C49.5511 29.5807 48.5412 29.7759 47.5661 30.0244C46.5465 30.2841 45.3887 30.6492 44.1668 31.0824C41.7212 31.9497 38.9109 33.1289 36.2497 34.4014C33.5997 35.6686 31.0217 37.0645 29.0715 38.3778C28.1055 39.0282 27.2085 39.7147 26.5243 40.4082C26.1819 40.7553 25.834 41.1628 25.559 41.6247C25.2936 42.0705 24.9974 42.732 24.9974 43.5391H29.9974ZM75.8307 43.5391C75.8307 42.732 75.5345 42.0705 75.2692 41.6247C74.9942 41.1628 74.6462 40.7553 74.3038 40.4082C73.6197 39.7147 72.7226 39.0282 71.7567 38.3778C69.8064 37.0645 67.2285 35.6686 64.5784 34.4014C61.9172 33.1289 59.1069 31.9497 56.6613 31.0824C55.4394 30.6492 54.2816 30.2841 53.2621 30.0244C52.2869 29.7759 51.2771 29.5807 50.4141 29.5807V34.5807C50.6361 34.5807 51.1562 34.6475 52.0276 34.8696C52.8547 35.0803 53.8602 35.3942 54.9902 35.7949C57.2483 36.5957 59.8959 37.7045 62.4214 38.9122C64.958 40.1252 67.2955 41.4017 68.964 42.5252C69.8074 43.0931 70.3955 43.5661 70.7443 43.9196C70.9183 44.096 70.9737 44.1838 70.9729 44.1826C70.9698 44.1773 70.938 44.1237 70.9052 44.0249C70.8718 43.9247 70.8307 43.7578 70.8307 43.5391H75.8307ZM70.8307 43.5391C70.8307 43.3204 70.8718 43.1534 70.9052 43.0532C70.938 42.9544 70.9698 42.9008 70.9729 42.8956C70.9737 42.8943 70.9183 42.9821 70.7443 43.1586C70.3955 43.5121 69.8074 43.985 68.964 44.553C67.2955 45.6764 64.958 46.9529 62.4214 48.1659C59.8959 49.3736 57.2484 50.4824 54.9902 51.2832C53.8602 51.6839 52.8547 51.9978 52.0276 52.2086C51.1562 52.4306 50.6361 52.4974 50.4141 52.4974V57.4974C51.2771 57.4974 52.2869 57.3022 53.2621 57.0538C54.2816 56.794 55.4394 56.429 56.6613 55.9957C59.1069 55.1285 61.9172 53.9493 64.5784 52.6767C67.2285 51.4095 69.8064 50.0136 71.7567 48.7004C72.7226 48.0499 73.6197 47.3634 74.3038 46.6699C74.6462 46.3229 74.9942 45.9153 75.2692 45.4534C75.5345 45.0077 75.8307 44.3461 75.8307 43.5391H70.8307ZM24.9974 43.5391C24.9974 44.3461 25.2936 45.0077 25.559 45.4534C25.834 45.9153 26.1819 46.3229 26.5243 46.6699C27.2085 47.3634 28.1055 48.0499 29.0715 48.7004C31.0217 50.0136 33.5997 51.4095 36.2497 52.6767C38.9109 53.9493 41.7212 55.1285 44.1668 55.9957C45.3887 56.429 46.5465 56.794 47.5661 57.0538C48.5412 57.3022 49.5511 57.4974 50.4141 57.4974V52.4974C50.192 52.4974 49.672 52.4306 48.8005 52.2086C47.9734 51.9978 46.968 51.6839 45.8379 51.2832C43.5798 50.4824 40.9322 49.3736 38.4067 48.1659C35.8701 46.9529 33.5326 45.6764 31.8641 44.553C31.0207 43.985 30.4326 43.5121 30.0839 43.1586C29.9098 42.9821 29.8544 42.8943 29.8552 42.8956C29.8583 42.9008 29.8901 42.9544 29.923 43.0532C29.9563 43.1534 29.9974 43.3204 29.9974 43.5391H24.9974ZM34.1664 50.523L34.7385 63.6437L39.7337 63.4259L39.1617 50.3052L34.1664 50.523ZM61.6664 50.3052L61.0944 63.4259L66.0897 63.6437L66.6617 50.523L61.6664 50.3052ZM37.1949 68.0396C38.8482 69.2244 40.998 70.0074 43.2163 70.5024C45.467 71.0047 47.9558 71.2474 50.4141 71.2474C52.8723 71.2474 55.3611 71.0047 57.6118 70.5024C59.8301 70.0074 61.9799 69.2244 63.6333 68.0396L60.7208 63.9754C59.8252 64.6172 58.397 65.2042 56.5228 65.6224C54.681 66.0335 52.5628 66.2474 50.4141 66.2474C48.2653 66.2474 46.1471 66.0335 44.3053 65.6224C42.4311 65.2042 41.0029 64.6172 40.1073 63.9754L37.1949 68.0396ZM61.1222 63.2565C61.0135 63.6868 60.8359 63.8929 60.7208 63.9754L63.6333 68.0396C64.9402 67.103 65.65 65.7465 65.9697 64.4821L61.1222 63.2565ZM34.8584 64.4821C35.1781 65.7465 35.8879 67.103 37.1949 68.0396L40.1073 63.9754C39.9922 63.8929 39.8147 63.6868 39.7059 63.2566L34.8584 64.4821ZM61.0944 63.4259C61.0949 63.4153 61.0981 63.352 61.1222 63.2566L65.9697 64.4821C66.0492 64.1677 66.0794 63.8797 66.0897 63.6436L61.0944 63.4259ZM34.7385 63.6437C34.7488 63.8797 34.779 64.1678 34.8584 64.4821L39.7059 63.2566C39.73 63.352 39.7333 63.4153 39.7337 63.4259L34.7385 63.6437ZM67.3932 46.9766V63.0347H72.3932V46.9766H67.3932ZM69.0517 71.0747C69.3626 69.7662 69.9014 68.5535 70.5015 67.3792C71.0271 66.3505 71.808 64.9924 72.2185 63.9531L67.568 62.1164C67.2722 62.8655 66.7946 63.6453 66.0491 65.104C65.3781 66.4171 64.6332 68.0413 64.1871 69.9191L69.0517 71.0747ZM75.5993 69.9191C75.1533 68.0413 74.4084 66.4171 73.7373 65.104C72.9919 63.6453 72.5143 62.8655 72.2185 62.1164L67.568 63.9531C67.9785 64.9924 68.7593 66.3505 69.285 67.3792C69.885 68.5535 70.4239 69.7662 70.7347 71.0747L75.5993 69.9191ZM70.6161 70.8307H69.1703V75.8307H70.6161V70.8307ZM64.1871 69.9191C63.8998 71.1284 63.6229 73.0962 65.0625 74.5401C65.7307 75.2103 66.5368 75.5069 67.1892 75.6516C67.8391 75.7957 68.5283 75.8307 69.1703 75.8307V70.8307C68.9307 70.8307 68.7372 70.8236 68.5812 70.8111C68.4237 70.7985 68.3256 70.7821 68.2718 70.7702C68.2174 70.7581 68.2357 70.7566 68.2975 70.7863C68.3644 70.8185 68.4803 70.8864 68.6033 71.0099C68.6639 71.0706 68.7198 71.1385 68.7691 71.2121C68.8183 71.2855 68.8563 71.3579 68.8849 71.4251C68.9419 71.5593 68.9534 71.6539 68.9554 71.6754C68.9572 71.694 68.952 71.6583 68.9639 71.5493C68.9756 71.4416 69.0013 71.2869 69.0517 71.0747L64.1871 69.9191ZM70.7347 71.0747C70.7851 71.2869 70.8109 71.4416 70.8226 71.5493C70.8345 71.6583 70.8293 71.694 70.831 71.6754C70.833 71.6539 70.8446 71.5593 70.9016 71.4251C70.9302 71.3579 70.9682 71.2855 71.0173 71.2121C71.0666 71.1385 71.1226 71.0706 71.1831 71.0099C71.3062 70.8864 71.422 70.8185 71.489 70.7863C71.5508 70.7566 71.569 70.7581 71.5147 70.7702C71.4609 70.7821 71.3628 70.7985 71.2053 70.8111C71.0492 70.8236 70.8557 70.8307 70.6161 70.8307V75.8307C71.2582 75.8307 71.9474 75.7957 72.5972 75.6516C73.2497 75.5069 74.0557 75.2103 74.7239 74.5401C76.1636 73.0962 75.8866 71.1284 75.5993 69.9191L70.7347 71.0747Z" fill="url(#paint0_linear_3047_12660)"/>
<defs>
<linearGradient id="paint0_linear_3047_12660" x1="-36.1079" y1="54.7167" x2="54.9974" y2="146.383" gradientUnits="userSpaceOnUse">
<stop stop-color="#9168CD"/>
<stop offset="0.424673" stop-color="#5556FF"/>
<stop offset="0.73499" stop-color="#45ADCD"/>
<stop offset="1" stop-color="#3EC4CD"/>
</linearGradient>
</defs>
</svg>
