<svg width="110" height="110" viewBox="0 0 110 110" fill="none" xmlns="http://www.w3.org/2000/svg">
<path d="M71.75 27.4997C71.75 25.8428 70.4069 24.4997 68.75 24.4997C67.0931 24.4997 65.75 25.8428 65.75 27.4997H71.75ZM44.25 27.4997C44.25 25.8428 42.9069 24.4997 41.25 24.4997C39.5931 24.4997 38.25 25.8428 38.25 27.4997H44.25ZM74.1199 88.2091L75.7102 85.6653L75.7102 85.6653L74.1199 88.2091ZM72.3472 86.6262L74.7078 84.7749L74.7078 84.7749L72.3472 86.6262ZM101.82 86.6262L99.4589 84.7749L99.4588 84.7749L101.82 86.6262ZM100.047 88.2091L101.637 90.7528L101.637 90.7528L100.047 88.2091ZM100.047 67.6236L101.637 65.0798L101.637 65.0798L100.047 67.6236ZM101.82 69.2064L99.4588 71.0577L99.4589 71.0577L101.82 69.2064ZM74.1199 67.6236L72.5296 65.0798L72.5296 65.0798L74.1199 67.6236ZM72.3472 69.2064L69.9865 67.3551L69.9865 67.3551L72.3472 69.2064ZM90.5876 97.8699L92.9839 96.0649L92.9839 96.0649L90.5876 97.8699ZM88.6975 100.347C89.6943 101.67 91.5753 101.935 92.8987 100.938C94.2221 99.9412 94.4869 98.0603 93.49 96.7368L88.6975 100.347ZM92.6929 93.1825C93.2769 91.6319 92.4933 89.9016 90.9428 89.3176C89.3922 88.7337 87.6619 89.5172 87.0779 91.0678L92.6929 93.1825ZM83.579 97.8699L85.9753 99.6748L85.9753 99.6748L83.579 97.8699ZM80.6766 96.7368C79.6798 98.0602 79.9445 99.9412 81.2679 100.938C82.5914 101.935 84.4723 101.67 85.4692 100.347L80.6766 96.7368ZM87.0887 91.0678C86.5048 89.5172 84.7744 88.7337 83.2239 89.3176C81.6733 89.9016 80.8898 91.6319 81.4737 93.1825L87.0887 91.0678ZM79.0625 95.5413C77.4056 95.5413 76.0625 96.8845 76.0625 98.5413C76.0625 100.198 77.4056 101.541 79.0625 101.541V95.5413ZM95.1042 101.541C96.761 101.541 98.1042 100.198 98.1042 98.5413C98.1042 96.8845 96.761 95.5413 95.1042 95.5413V101.541ZM9.95324 88.2091L11.5436 85.6653L11.5436 85.6653L9.95324 88.2091ZM8.1805 86.6262L10.5412 84.7749L10.5411 84.7749L8.1805 86.6262ZM37.6528 86.6262L35.2922 84.7749L35.2922 84.7749L37.6528 86.6262ZM35.8801 88.2091L37.4704 90.7528L37.4704 90.7528L35.8801 88.2091ZM35.8801 67.6236L37.4704 65.0798L37.4704 65.0798L35.8801 67.6236ZM37.6528 69.2064L35.2922 71.0577L35.2922 71.0577L37.6528 69.2064ZM9.95324 67.6236L8.36291 65.0798L8.36291 65.0798L9.95324 67.6236ZM8.1805 69.2064L5.81984 67.3551L5.81984 67.3551L8.1805 69.2064ZM26.421 97.8699L24.0247 99.6748L24.0247 99.6748L26.421 97.8699ZM24.5308 100.347C25.5277 101.67 27.4086 101.935 28.732 100.938C30.0555 99.9412 30.3202 98.0603 29.3234 96.7368L24.5308 100.347ZM28.5263 93.1825C29.1102 91.6319 28.3267 89.9016 26.7761 89.3176C25.2256 88.7337 23.4952 89.5172 22.9113 91.0678L28.5263 93.1825ZM19.4124 97.8699L21.8086 99.6748L21.8086 99.6748L19.4124 97.8699ZM16.51 96.7368C15.5131 98.0603 15.7779 99.9412 17.1013 100.938C18.4247 101.935 20.3057 101.67 21.3025 100.347L16.51 96.7368ZM22.9221 91.0678C22.3381 89.5172 20.6077 88.7337 19.0572 89.3176C17.5067 89.9016 16.7231 91.6319 17.3071 93.1825L22.9221 91.0678ZM14.8958 95.5413C13.239 95.5413 11.8958 96.8845 11.8958 98.5413C11.8958 100.198 13.239 101.541 14.8958 101.541V95.5413ZM30.9375 101.541C32.5944 101.541 33.9375 100.198 33.9375 98.5413C33.9375 96.8845 32.5944 95.5413 30.9375 95.5413V101.541ZM58 52.708C58 51.0512 56.6569 49.708 55 49.708C53.3431 49.708 52 51.0512 52 52.708H58ZM59.7537 70.871C60.9253 72.0426 62.8247 72.0426 63.9963 70.871C65.1679 69.6994 65.1679 67.7999 63.9963 66.6284L59.7537 70.871ZM46.0037 66.6284C44.8321 67.7999 44.8321 69.6994 46.0037 70.871C47.1753 72.0426 49.0747 72.0426 50.2463 70.871L46.0037 66.6284ZM65.75 16.2705C65.75 15.6842 66.0965 15.5514 65.7569 15.8325C65.4363 16.0977 64.7921 16.4707 63.7317 16.8419C61.6386 17.5745 58.5516 18.083 55 18.083V24.083C59.0423 24.083 62.8303 23.5142 65.7138 22.505C67.1416 22.0053 68.511 21.3413 69.582 20.455C70.634 19.5846 71.75 18.1858 71.75 16.2705H65.75ZM55 18.083C51.4484 18.083 48.3614 17.5745 46.2683 16.8419C45.2079 16.4707 44.5637 16.0977 44.2431 15.8325C43.9035 15.5514 44.25 15.6842 44.25 16.2705H38.25C38.25 18.1858 39.366 19.5846 40.418 20.455C41.489 21.3413 42.8584 22.0053 44.2862 22.505C47.1697 23.5142 50.9577 24.083 55 24.083V18.083ZM44.25 16.2705C44.25 16.8568 43.9035 16.9896 44.2431 16.7086C44.5637 16.4433 45.2079 16.0703 46.2683 15.6991C48.3614 14.9666 51.4484 14.458 55 14.458V8.45801C50.9577 8.45801 47.1697 9.02677 44.2862 10.036C42.8584 10.5357 41.489 11.1997 40.418 12.086C39.366 12.9564 38.25 14.3553 38.25 16.2705H44.25ZM55 14.458C58.5516 14.458 61.6386 14.9666 63.7317 15.6991C64.7921 16.0703 65.4363 16.4433 65.7569 16.7086C66.0965 16.9896 65.75 16.8568 65.75 16.2705H71.75C71.75 14.3553 70.634 12.9564 69.582 12.086C68.511 11.1997 67.1416 10.5357 65.7138 10.036C62.8303 9.02677 59.0423 8.45801 55 8.45801V14.458ZM65.75 27.4997C65.75 26.9134 66.0965 26.7806 65.7569 27.0616C65.4363 27.3269 64.792 27.6999 63.7317 28.0711C61.6386 28.8036 58.5516 29.3122 55 29.3122V35.3122C59.0423 35.3122 62.8303 34.7434 65.7138 33.7342C67.1416 33.2344 68.511 32.5705 69.582 31.6842C70.634 30.8137 71.75 29.4149 71.75 27.4997H65.75ZM55 29.3122C51.4484 29.3122 48.3614 28.8036 46.2683 28.0711C45.2079 27.6999 44.5637 27.3269 44.2431 27.0616C43.9035 26.7806 44.25 26.9134 44.25 27.4997H38.25C38.25 29.4149 39.366 30.8137 40.418 31.6842C41.489 32.5705 42.8584 33.2344 44.2862 33.7342C47.1697 34.7434 50.9577 35.3122 55 35.3122V29.3122ZM65.75 38.7288C65.75 38.1425 66.0965 38.0097 65.7569 38.2908C65.4363 38.5561 64.7921 38.9291 63.7317 39.3002C61.6386 40.0328 58.5516 40.5413 55 40.5413V46.5413C59.0423 46.5413 62.8303 45.9726 65.7138 44.9634C67.1416 44.4636 68.511 43.7996 69.582 42.9134C70.634 42.0429 71.75 40.6441 71.75 38.7288H65.75ZM55 40.5413C51.4484 40.5413 48.3614 40.0328 46.2683 39.3002C45.2079 38.9291 44.5637 38.5561 44.2431 38.2908C43.9035 38.0097 44.25 38.1425 44.25 38.7288H38.25C38.25 40.6441 39.366 42.0429 40.418 42.9134C41.489 43.7996 42.8584 44.4636 44.2862 44.9634C47.1697 45.9726 50.9577 46.5413 55 46.5413V40.5413ZM71.75 38.7288V16.2705H65.75V38.7288H71.75ZM44.25 38.7288V16.2705H38.25V38.7288H44.25ZM83.875 69.458H90.2917V63.458H83.875V69.458ZM90.2917 86.3747H83.875V92.3747H90.2917V86.3747ZM83.875 86.3747C81.1868 86.3747 79.3799 86.3716 78.0051 86.2422C76.6671 86.1163 76.0752 85.8935 75.7102 85.6653L72.5296 90.7528C74.029 91.6903 75.6845 92.0503 77.4429 92.2158C79.1643 92.3778 81.3028 92.3747 83.875 92.3747V86.3747ZM68.0417 77.9163C68.0417 80.1923 68.0368 82.1613 68.2255 83.7601C68.4231 85.4333 68.8636 87.0457 69.9865 88.4775L74.7078 84.7749C74.5252 84.5421 74.313 84.1479 74.1842 83.0566C74.0465 81.8909 74.0417 80.3372 74.0417 77.9163H68.0417ZM75.7102 85.6653C75.3037 85.4111 74.9677 85.1064 74.7078 84.7749L69.9865 88.4775C70.6926 89.3779 71.5566 90.1445 72.5296 90.7528L75.7102 85.6653ZM100.125 77.9163C100.125 80.3372 100.12 81.8909 99.9825 83.0566C99.8537 84.1479 99.6415 84.5421 99.4589 84.7749L104.18 88.4775C105.303 87.0457 105.744 85.4333 105.941 83.7601C106.13 82.1613 106.125 80.1923 106.125 77.9163H100.125ZM90.2917 92.3747C92.8639 92.3747 95.0023 92.3778 96.7238 92.2158C98.4822 92.0503 100.138 91.6903 101.637 90.7528L98.4564 85.6653C98.0914 85.8935 97.4996 86.1163 96.1616 86.2422C94.7868 86.3716 92.9799 86.3747 90.2917 86.3747V92.3747ZM99.4588 84.7749C99.1989 85.1064 98.863 85.4111 98.4564 85.6653L101.637 90.7528C102.61 90.1445 103.474 89.3779 104.18 88.4775L99.4588 84.7749ZM90.2917 69.458C92.9799 69.458 94.7868 69.4611 96.1616 69.5905C97.4995 69.7164 98.0914 69.9392 98.4564 70.1674L101.637 65.0798C100.138 64.1424 98.4822 63.7824 96.7238 63.6169C95.0023 63.4549 92.8639 63.458 90.2917 63.458V69.458ZM106.125 77.9163C106.125 75.6404 106.13 73.6714 105.941 72.0726C105.744 70.3993 105.303 68.787 104.18 67.3551L99.4589 71.0577C99.6415 71.2906 99.8537 71.6848 99.9825 72.7761C100.12 73.9418 100.125 75.4954 100.125 77.9163H106.125ZM98.4564 70.1674C98.863 70.4216 99.1989 70.7263 99.4588 71.0577L104.18 67.3551C103.474 66.4548 102.61 65.6882 101.637 65.0798L98.4564 70.1674ZM83.875 63.458C81.3028 63.458 79.1643 63.4549 77.4429 63.6169C75.6845 63.7824 74.029 64.1424 72.5296 65.0798L75.7102 70.1674C76.0752 69.9392 76.6671 69.7164 78.0051 69.5905C79.3799 69.4611 81.1868 69.458 83.875 69.458V63.458ZM74.0417 77.9163C74.0417 75.4954 74.0465 73.9418 74.1842 72.7761C74.313 71.6848 74.5252 71.2906 74.7078 71.0577L69.9865 67.3551C68.8636 68.787 68.4231 70.3993 68.2255 72.0726C68.0368 73.6714 68.0417 75.6404 68.0417 77.9163H74.0417ZM72.5296 65.0798C71.5566 65.6882 70.6926 66.4548 69.9865 67.3551L74.7078 71.0577C74.9677 70.7263 75.3037 70.4216 75.7102 70.1674L72.5296 65.0798ZM88.1914 99.6748L88.6975 100.347L93.49 96.7368L92.9839 96.0649L88.1914 99.6748ZM87.0779 91.0678C86.0287 93.8536 86.3755 97.2641 88.1914 99.6748L92.9839 96.0649C92.5179 95.4462 92.299 94.2286 92.6929 93.1825L87.0779 91.0678ZM81.1828 96.0649L80.6766 96.7368L85.4692 100.347L85.9753 99.6748L81.1828 96.0649ZM81.4737 93.1825C81.8677 94.2286 81.6488 95.4462 81.1828 96.0649L85.9753 99.6748C87.7912 97.2641 88.1379 93.8536 87.0887 91.0678L81.4737 93.1825ZM79.0625 101.541H95.1042V95.5413H79.0625V101.541ZM19.7083 69.458H26.125V63.458H19.7083V69.458ZM26.125 86.3747H19.7083V92.3747H26.125V86.3747ZM19.7083 86.3747C17.0201 86.3747 15.2132 86.3716 13.8384 86.2422C12.5004 86.1163 11.9086 85.8935 11.5436 85.6653L8.36291 90.7528C9.86236 91.6903 11.5178 92.0503 13.2762 92.2158C14.9977 92.3778 17.1361 92.3747 19.7083 92.3747V86.3747ZM3.875 77.9163C3.875 80.1923 3.87013 82.1613 4.05888 83.7601C4.25642 85.4333 4.69697 87.0457 5.81984 88.4775L10.5411 84.7749C10.3585 84.5421 10.1463 84.1479 10.0175 83.0566C9.87987 81.8909 9.875 80.3372 9.875 77.9163H3.875ZM11.5436 85.6653C11.137 85.4111 10.8011 85.1064 10.5412 84.7749L5.81984 88.4775C6.52592 89.3779 7.38991 90.1445 8.36291 90.7528L11.5436 85.6653ZM35.9583 77.9163C35.9583 80.3372 35.9535 81.8909 35.8158 83.0566C35.687 84.1479 35.4748 84.5421 35.2922 84.7749L40.0135 88.4775C41.1364 87.0457 41.5769 85.4333 41.7745 83.7601C41.9632 82.1613 41.9583 80.1923 41.9583 77.9163H35.9583ZM26.125 92.3747C28.6972 92.3747 30.8357 92.3778 32.5571 92.2158C34.3155 92.0503 35.971 91.6903 37.4704 90.7528L34.2898 85.6653C33.9248 85.8935 33.3329 86.1163 31.9949 86.2422C30.6201 86.3716 28.8132 86.3747 26.125 86.3747V92.3747ZM35.2922 84.7749C35.0323 85.1064 34.6963 85.4111 34.2898 85.6653L37.4704 90.7528C38.4434 90.1445 39.3074 89.3779 40.0135 88.4775L35.2922 84.7749ZM26.125 69.458C28.8132 69.458 30.6201 69.4611 31.9949 69.5905C33.3329 69.7164 33.9248 69.9392 34.2898 70.1674L37.4704 65.0798C35.971 64.1424 34.3155 63.7824 32.5571 63.6169C30.8357 63.4549 28.6972 63.458 26.125 63.458V69.458ZM41.9583 77.9163C41.9583 75.6404 41.9632 73.6714 41.7745 72.0726C41.5769 70.3993 41.1364 68.787 40.0135 67.3551L35.2922 71.0577C35.4748 71.2906 35.687 71.6848 35.8158 72.7761C35.9535 73.9418 35.9583 75.4954 35.9583 77.9163H41.9583ZM34.2898 70.1674C34.6963 70.4216 35.0323 70.7263 35.2922 71.0577L40.0135 67.3551C39.3074 66.4548 38.4434 65.6882 37.4704 65.0798L34.2898 70.1674ZM19.7083 63.458C17.1361 63.458 14.9977 63.4549 13.2762 63.6169C11.5178 63.7824 9.86236 64.1424 8.36291 65.0798L11.5436 70.1674C11.9086 69.9392 12.5004 69.7164 13.8384 69.5905C15.2132 69.4611 17.0201 69.458 19.7083 69.458V63.458ZM9.875 77.9163C9.875 75.4954 9.87987 73.9418 10.0175 72.7761C10.1463 71.6848 10.3585 71.2906 10.5411 71.0577L5.81984 67.3551C4.69697 68.787 4.25642 70.3993 4.05888 72.0726C3.87013 73.6714 3.875 75.6404 3.875 77.9163H9.875ZM8.36291 65.0798C7.3899 65.6882 6.52592 66.4548 5.81984 67.3551L10.5411 71.0577C10.8011 70.7263 11.137 70.4216 11.5436 70.1674L8.36291 65.0798ZM24.0247 99.6748L24.5308 100.347L29.3234 96.7368L28.8172 96.0649L24.0247 99.6748ZM22.9113 91.0678C21.8621 93.8536 22.2088 97.2641 24.0247 99.6748L28.8172 96.0649C28.3512 95.4462 28.1323 94.2286 28.5263 93.1825L22.9113 91.0678ZM17.0161 96.0649L16.51 96.7368L21.3025 100.347L21.8086 99.6748L17.0161 96.0649ZM17.3071 93.1825C17.701 94.2286 17.4821 95.4462 17.0161 96.0649L21.8086 99.6748C23.6245 97.2641 23.9713 93.8536 22.9221 91.0678L17.3071 93.1825ZM14.8958 101.541H30.9375V95.5413H14.8958V101.541ZM52 52.708V61.8747H58V52.708H52ZM52.8787 63.996L59.7537 70.871L63.9963 66.6284L57.1213 59.7534L52.8787 63.996ZM52.8787 59.7534L46.0037 66.6284L50.2463 70.871L57.1213 63.996L52.8787 59.7534Z" fill="url(#paint0_linear_2098_14985)"/>
<defs>
<linearGradient id="paint0_linear_2098_14985" x1="-40.6605" y1="54.7332" x2="45.4056" y2="150.445" gradientUnits="userSpaceOnUse">
<stop stop-color="#9168CD"/>
<stop offset="0.424673" stop-color="#5556FF"/>
<stop offset="0.73499" stop-color="#45ADCD"/>
<stop offset="1" stop-color="#3EC4CD"/>
</linearGradient>
</defs>
</svg>
