<svg width="49" height="48" viewBox="0 0 49 48" fill="none" xmlns="http://www.w3.org/2000/svg">
<path d="M24.3068 30.8166L30.7895 38.1871C33.1914 40.9179 34.3923 42.2833 35.6494 41.9509C36.9064 41.6185 37.3375 39.8215 38.1996 36.2277L42.9817 16.2918C44.3095 10.7566 44.9734 7.98907 43.4976 6.624C42.0219 5.25893 39.464 6.2745 34.3481 8.30563L10.6135 17.729C6.52179 19.3535 4.47595 20.1657 4.34607 21.5617C4.33278 21.7045 4.33256 21.8482 4.34541 21.9911C4.47102 23.3874 6.51437 24.2065 10.601 25.8446C12.4527 26.5869 13.3785 26.958 14.0423 27.6687C14.117 27.7486 14.1887 27.8314 14.2575 27.9168C14.8691 28.6767 15.1301 29.6741 15.6521 31.6689L16.629 35.402C17.1369 37.343 17.3909 38.3136 18.0561 38.4459C18.7213 38.5782 19.3004 37.7735 20.4587 36.1639L24.3068 30.8166ZM24.3068 30.8166L23.6712 30.1542C22.9478 29.4003 22.5861 29.0233 22.5861 28.5549C22.5861 28.0865 22.9478 27.7096 23.6712 26.9557L30.8171 19.5082" stroke="white" stroke-width="2" stroke-linecap="round" stroke-linejoin="round"/>
</svg>
