<svg width="110" height="110" viewBox="0 0 110 110" fill="none" xmlns="http://www.w3.org/2000/svg">
<path d="M13.75 38.25C12.0931 38.25 10.75 39.5931 10.75 41.25C10.75 42.9069 12.0931 44.25 13.75 44.25V38.25ZM59.5833 65.75C57.9265 65.75 56.5833 67.0931 56.5833 68.75C56.5833 70.4069 57.9265 71.75 59.5833 71.75V65.75ZM90.5913 68.0522L91.7393 70.8239L91.7393 70.8239L90.5913 68.0522ZM95.5522 63.0913L98.3239 64.2393L98.3239 64.2393L95.5522 63.0913ZM95.5522 46.9087L92.7806 48.0568L95.5522 46.9087ZM27.5 71.75C29.1569 71.75 30.5 70.4069 30.5 68.75C30.5 67.0931 29.1569 65.75 27.5 65.75V71.75ZM13.75 65.75C12.0931 65.75 10.75 67.0931 10.75 68.75C10.75 70.4069 12.0931 71.75 13.75 71.75V65.75ZM13.75 93.25C12.0931 93.25 10.75 94.5931 10.75 96.25C10.75 97.9069 12.0931 99.25 13.75 99.25V93.25ZM76.8413 95.5522L77.9893 98.3239L77.9893 98.3239L76.8413 95.5522ZM81.8022 90.5913L84.5739 91.7393L84.5739 91.7393L81.8022 90.5913ZM76.8413 69.4478L77.9893 66.6761L77.9893 66.6761L76.8413 69.4478ZM81.8022 74.4087L79.0306 75.5568L81.8022 74.4087ZM13.75 10.75C12.0931 10.75 10.75 12.0931 10.75 13.75C10.75 15.4069 12.0931 16.75 13.75 16.75V10.75ZM72.2579 40.5522L73.406 43.3239L73.406 43.3239L72.2579 40.5522ZM77.2189 35.5913L74.4473 34.4432L74.4473 34.4432L77.2189 35.5913ZM72.2579 14.4478L73.406 11.6761L73.406 11.6761L72.2579 14.4478ZM77.2189 19.4087L74.4473 20.5568L74.4473 20.5568L77.2189 19.4087ZM59.5833 69.623L56.5833 69.623V69.623H59.5833ZM62.5833 41.25C62.5833 39.5931 61.2402 38.25 59.5833 38.25C57.9265 38.25 56.5833 39.5931 56.5833 41.25L62.5833 41.25ZM35.0833 41.25C35.0833 39.5931 33.7402 38.25 32.0833 38.25C30.4265 38.25 29.0833 39.5931 29.0833 41.25H35.0833ZM40.1466 72.5554L42.4078 74.5269L42.4078 74.5269L40.1466 72.5554ZM42.3534 70.0243L40.0922 68.0528L40.0922 68.0528L42.3534 70.0243ZM49.3133 70.0243L47.052 71.9958L47.052 71.9958L49.3133 70.0243ZM51.5201 72.5554L53.7813 70.584L53.7813 70.584L51.5201 72.5554ZM33.5799 77.8264L34.6053 75.0071L34.6053 75.0071L33.5799 77.8264ZM58.0867 77.8264L57.0614 75.0071L57.0614 75.0071L58.0867 77.8264ZM82.5 38.25H13.75V44.25H82.5V38.25ZM59.5833 71.75H82.5V65.75H59.5833V71.75ZM82.5 71.75C84.5945 71.75 86.3157 71.7516 87.7198 71.6558C89.1509 71.5582 90.4706 71.3494 91.7393 70.8239L89.4432 65.2806C89.0274 65.4528 88.437 65.5929 87.3114 65.6697C86.1588 65.7484 84.6766 65.75 82.5 65.75V71.75ZM93.25 55C93.25 57.1766 93.2484 58.6588 93.1697 59.8114C93.0929 60.937 92.9528 61.5274 92.7806 61.9432L98.3239 64.2393C98.8494 62.9706 99.0582 61.6509 99.1558 60.2198C99.2516 58.8157 99.25 57.0945 99.25 55H93.25ZM91.7393 70.8239C94.7205 69.589 97.089 67.2205 98.3239 64.2393L92.7806 61.9432C92.1547 63.4542 90.9542 64.6547 89.4432 65.2806L91.7393 70.8239ZM82.5 44.25C84.6766 44.25 86.1588 44.2516 87.3114 44.3303C88.437 44.4071 89.0274 44.5472 89.4432 44.7194L91.7393 39.1761C90.4706 38.6506 89.1509 38.4418 87.7198 38.3442C86.3157 38.2484 84.5945 38.25 82.5 38.25V44.25ZM99.25 55C99.25 52.9055 99.2516 51.1843 99.1558 49.7802C99.0582 48.3491 98.8494 47.0294 98.3239 45.7607L92.7806 48.0568C92.9528 48.4726 93.0929 49.063 93.1697 50.1886C93.2484 51.3412 93.25 52.8234 93.25 55H99.25ZM89.4432 44.7194C90.9542 45.3453 92.1547 46.5458 92.7806 48.0568L98.3239 45.7607C97.089 42.7795 94.7205 40.411 91.7393 39.1761L89.4432 44.7194ZM27.5 65.75H13.75V71.75H27.5V65.75ZM68.75 65.75H59.5833V71.75H68.75V65.75ZM13.75 99.25H68.75V93.25H13.75V99.25ZM68.75 99.25C70.8445 99.25 72.5657 99.2516 73.9698 99.1558C75.4009 99.0582 76.7206 98.8494 77.9893 98.3239L75.6932 92.7806C75.2774 92.9528 74.687 93.0929 73.5614 93.1697C72.4088 93.2484 70.9266 93.25 68.75 93.25V99.25ZM79.5 82.5C79.5 84.6766 79.4984 86.1588 79.4197 87.3114C79.3429 88.437 79.2028 89.0274 79.0306 89.4432L84.5739 91.7393C85.0994 90.4706 85.3082 89.1509 85.4058 87.7198C85.5016 86.3157 85.5 84.5945 85.5 82.5H79.5ZM77.9893 98.3239C80.9705 97.089 83.339 94.7205 84.5739 91.7393L79.0306 89.4432C78.4047 90.9542 77.2042 92.1547 75.6932 92.7806L77.9893 98.3239ZM68.75 71.75C70.9266 71.75 72.4088 71.7516 73.5614 71.8303C74.687 71.9071 75.2774 72.0472 75.6932 72.2194L77.9893 66.6761C76.7206 66.1506 75.4009 65.9418 73.9698 65.8442C72.5657 65.7484 70.8445 65.75 68.75 65.75V71.75ZM85.5 82.5C85.5 80.4055 85.5016 78.6843 85.4058 77.2802C85.3082 75.8491 85.0994 74.5294 84.5739 73.2607L79.0306 75.5568C79.2028 75.9726 79.3429 76.563 79.4197 77.6886C79.4984 78.8412 79.5 80.3234 79.5 82.5H85.5ZM75.6932 72.2194C77.2042 72.8453 78.4047 74.0458 79.0306 75.5568L84.5739 73.2607C83.339 70.2795 80.9705 67.911 77.9893 66.6761L75.6932 72.2194ZM64.1667 10.75H13.75V16.75H64.1667V10.75ZM13.75 44.25H64.1667V38.25H13.75V44.25ZM64.1667 44.25C66.2612 44.25 67.9823 44.2516 69.3865 44.1558C70.8176 44.0582 72.1372 43.8494 73.406 43.3239L71.1099 37.7806C70.6941 37.9528 70.1036 38.0929 68.978 38.1697C67.8255 38.2484 66.3433 38.25 64.1667 38.25V44.25ZM74.9167 27.5C74.9167 29.6766 74.915 31.1588 74.8364 32.3114C74.7596 33.437 74.6195 34.0274 74.4473 34.4432L79.9905 36.7393C80.5161 35.4706 80.7248 34.1509 80.8225 32.7198C80.9183 31.3157 80.9167 29.5945 80.9167 27.5H74.9167ZM73.406 43.3239C76.3871 42.089 78.7557 39.7205 79.9905 36.7393L74.4473 34.4432C73.8214 35.9542 72.6209 37.1547 71.1099 37.7806L73.406 43.3239ZM64.1667 16.75C66.3433 16.75 67.8255 16.7516 68.978 16.8303C70.1036 16.9071 70.6941 17.0472 71.1099 17.2194L73.406 11.6761C72.1372 11.1506 70.8176 10.9418 69.3865 10.8442C67.9823 10.7484 66.2612 10.75 64.1667 10.75V16.75ZM80.9167 27.5C80.9167 25.4055 80.9183 23.6843 80.8225 22.2802C80.7248 20.8491 80.5161 19.5294 79.9905 18.2607L74.4473 20.5568C74.6195 20.9726 74.7596 21.563 74.8364 22.6886C74.915 23.8412 74.9167 25.3234 74.9167 27.5H80.9167ZM71.1099 17.2194C72.6209 17.8453 73.8214 19.0458 74.4473 20.5568L79.9905 18.2607C78.7557 15.2795 76.3871 12.911 73.406 11.6761L71.1099 17.2194ZM62.5833 69.623L62.5833 41.25L56.5833 41.25L56.5833 69.623L62.5833 69.623ZM29.0833 41.25V69.623H35.0833V41.25H29.0833ZM42.4078 74.5269L44.6147 71.9958L40.0922 68.0528L37.8853 70.584L42.4078 74.5269ZM47.052 71.9958L49.2588 74.5269L53.7813 70.584L51.5745 68.0528L47.052 71.9958ZM44.6147 71.9958C45.0266 71.5232 45.3523 71.15 45.6399 70.8372C45.929 70.5227 46.1257 70.3288 46.2673 70.2063C46.5389 69.9714 46.3273 70.2418 45.8333 70.2418V64.2418C44.2854 64.2418 43.1425 64.976 42.3419 65.6686C41.6077 66.3037 40.8411 67.1938 40.0922 68.0528L44.6147 71.9958ZM51.5745 68.0528C50.8256 67.1938 50.0589 66.3037 49.3248 65.6686C48.5242 64.976 47.3813 64.2418 45.8333 64.2418V70.2418C45.3394 70.2418 45.1278 69.9714 45.3993 70.2063C45.5409 70.3288 45.7377 70.5227 46.0268 70.8372C46.3143 71.15 46.64 71.5232 47.052 71.9958L51.5745 68.0528ZM29.0833 69.623C29.0833 72.0759 29.0761 74.2468 29.299 75.8488C29.4974 77.2746 30.0609 79.7389 32.5546 80.6458L34.6053 75.0071C35.6023 75.3697 35.4176 76.2853 35.2418 75.022C35.0905 73.9349 35.0833 72.2762 35.0833 69.623H29.0833ZM37.8853 70.584C36.1308 72.5964 35.0234 73.856 34.1838 74.5891C33.2071 75.4419 33.6353 74.6543 34.6053 75.0071L32.5546 80.6458C35.0211 81.5428 37.0426 80.0582 38.1301 79.1087C39.3547 78.0394 40.7824 76.3913 42.4078 74.5269L37.8853 70.584ZM56.5833 69.623C56.5833 72.2762 56.5761 73.9349 56.4249 75.022C56.2491 76.2853 56.0643 75.3697 57.0614 75.0071L59.1121 80.6458C61.6058 79.7389 62.1693 77.2746 62.3676 75.8488C62.5905 74.2468 62.5833 72.0759 62.5833 69.623H56.5833ZM49.2588 74.5269C50.8843 76.3913 52.312 78.0394 53.5366 79.1087C54.6241 80.0582 56.6455 81.5428 59.1121 80.6458L57.0614 75.0071C58.0314 74.6543 58.4596 75.4419 57.4829 74.5891C56.6433 73.856 55.5359 72.5964 53.7813 70.584L49.2588 74.5269Z" fill="url(#paint0_linear_2625_17137)"/>
<defs>
<linearGradient id="paint0_linear_2625_17137" x1="-26.9947" y1="54.7473" x2="55" y2="137.247" gradientUnits="userSpaceOnUse">
<stop stop-color="#9168CD"/>
<stop offset="0.424673" stop-color="#5556FF"/>
<stop offset="0.73499" stop-color="#45ADCD"/>
<stop offset="1" stop-color="#3EC4CD"/>
</linearGradient>
</defs>
</svg>
