<svg width="48" height="48" viewBox="0 0 48 48" fill="none" xmlns="http://www.w3.org/2000/svg">
<path d="M28 21.4971V14.1057C28 12.4405 27.6977 12.1057 26.0392 12.1057L21.3392 12.0002C19.8761 12.0002 19.1446 12.0002 18.8489 12.4745C18.5532 12.9487 18.8804 13.5974 19.5347 14.8946C19.8981 15.6151 20.0923 16.1369 20.0923 16.9444V22.2631C20.0923 23.945 20.0923 24.786 19.4533 25.0355C18.8142 25.285 18.2832 24.7205 17.221 23.5913C14.6177 20.8238 13.2627 17.3686 12.372 13.6028C12.1876 12.8228 12.0953 12.4329 11.82 12.2165C11.5447 12.0002 11.1526 12.0002 10.3684 12.0002H5.96985C5.00484 12.0002 4.52234 12.0002 4.22094 12.3414C3.91954 12.6826 3.97798 13.1178 4.09486 13.9882C5.14934 21.8414 12.056 34.719 24.8148 35.9474C27.0745 36.165 28 35.5543 28 33.0783C28 31.6748 27.9702 29.4057 29.7365 29.1084C30.6612 28.9527 31.2841 29.2811 32.3188 30.1489C34.111 31.6521 35.0495 33.4869 35.7034 34.8812C36.1373 35.8064 36.4597 36 37.4792 36H41.6276C43.7236 36 44.2947 35.4884 43.3611 33.5211C42.1791 31.0302 40.4968 29.0514 38.9672 27.7339C37.6969 26.6397 37.0617 26.0926 37.0262 25.69C36.9907 25.2873 37.4567 24.7172 38.3889 23.5769C40.1896 21.3742 42.6404 17.9156 43.7844 14.2456C44.3512 12.4275 43.8179 12.0002 41.9761 12.0002H38.2498C36.4448 12.0002 36.446 11.9377 36.0199 13.9856C35.3284 17.3085 33.0634 20.5023 30.9358 22.6764C29.9265 23.7077 29.3163 24.3289 28.6865 24.0758C28.0567 23.8227 28 23.0475 28 21.4971Z" stroke="white" stroke-width="2" stroke-linecap="round" stroke-linejoin="round"/>
</svg>
