<svg width="101" height="100" viewBox="0 0 101 100" fill="none" xmlns="http://www.w3.org/2000/svg">
<g clip-path="url(#clip0_2225_17344)">
<mask id="mask0_2225_17344" style="mask-type:luminance" maskUnits="userSpaceOnUse" x="0" y="0" width="101" height="100">
<path d="M100.5 0H0.5V100H100.5V0Z" fill="white"/>
</mask>
<g mask="url(#mask0_2225_17344)">
<path d="M0.5 48C0.5 25.3726 0.5 14.0589 7.52944 7.02944C14.5589 0 25.8726 0 48.5 0H52.5C75.1274 0 86.4411 0 93.4706 7.02944C100.5 14.0589 100.5 25.3726 100.5 48V52C100.5 74.6274 100.5 85.9411 93.4706 92.9706C86.4411 100 75.1274 100 52.5 100H48.5C25.8726 100 14.5589 100 7.52944 92.9706C0.5 85.9411 0.5 74.6274 0.5 52V48Z" fill="#0077FF"/>
<path d="M53.7083 72.042C30.9166 72.042 17.9167 56.417 17.375 30.417H28.7917C29.1667 49.5003 37.5832 57.5836 44.2498 59.2503V30.417H55.0002V46.8752C61.5835 46.1669 68.4993 38.667 70.8327 30.417H81.583C79.7913 40.5837 72.2913 48.0836 66.958 51.1669C72.2913 53.6669 80.8334 60.2086 84.0834 72.042H72.2497C69.708 64.1253 63.3752 58.0003 55.0002 57.1669V72.042H53.7083Z" fill="#F5F5F5"/>
</g>
</g>
<defs>
<clipPath id="clip0_2225_17344">
<rect width="101" height="100" fill="white"/>
</clipPath>
</defs>
</svg>
