<svg width="72" height="72" viewBox="0 0 72 72" fill="none" xmlns="http://www.w3.org/2000/svg">
<g clip-path="url(#clip0_2637_15801)">
<path d="M21 27H51C56.6077 27 59.4115 27 61.5 28.2058C62.8682 28.9957 64.0043 30.1318 64.7942 31.5C66 33.5885 66 36.3923 66 42C66 47.6077 66 50.4115 64.7942 52.5C64.0043 53.8682 62.8682 55.0043 61.5 55.7942C59.4115 57 56.6077 57 51 57H49.8189C47.7582 57 46.7278 57 45.7637 56.7858C44.4732 56.4992 43.2617 55.9317 42.2153 55.1238C41.4336 54.5203 40.774 53.7288 39.4547 52.1457C38.4036 50.8843 37.878 50.2537 37.2748 49.9705C36.4672 49.5914 35.5328 49.5914 34.7252 49.9705C34.122 50.2537 33.5964 50.8843 32.5453 52.1457C31.226 53.7288 30.5664 54.5203 29.7847 55.1238C28.7383 55.9317 27.5268 56.4992 26.2363 56.7858C25.2722 57 24.2418 57 22.1811 57H21C15.3923 57 12.5885 57 10.5 55.7942C9.13183 55.0043 7.99569 53.8682 7.20577 52.5C6 50.4115 6 47.6077 6 42C6 36.3923 6 33.5885 7.20577 31.5C7.99569 30.1318 9.13183 28.9957 10.5 28.2058C12.5885 27 15.3923 27 21 27Z" stroke="#141B34" stroke-width="4.5" stroke-linecap="round" stroke-linejoin="round"/>
<path d="M15 36H21" stroke="#141B34" stroke-width="4.5" stroke-linecap="round" stroke-linejoin="round"/>
<path d="M66 39V35.4853C66 32.0242 66 30.2937 65.5403 28.6811C65.2878 27.7952 64.9341 26.9413 64.4863 26.1364C63.671 24.671 62.4473 23.4473 60 21C57.5527 18.5527 56.329 17.329 54.8636 16.5137C54.0587 16.0659 53.2048 15.7122 52.3189 15.4597C50.7063 15 48.9758 15 45.5147 15H26.4853C23.0242 15 21.2937 15 19.6811 15.4597C18.7952 15.7122 17.9413 16.0659 17.1364 16.5137C15.671 17.329 14.4473 18.5527 12 21C9.55266 23.4473 8.32899 24.671 7.51372 26.1364C7.06587 26.9413 6.71219 27.7952 6.45967 28.6811C6 30.2937 6 32.0242 6 35.4853V39" stroke="#141B34" stroke-width="4.5" stroke-linecap="round" stroke-linejoin="round"/>
</g>
<defs>
<clipPath id="clip0_2637_15801">
<rect width="72" height="72" fill="white"/>
</clipPath>
</defs>
</svg>
