<svg width="72" height="73" viewBox="0 0 72 73" fill="none" xmlns="http://www.w3.org/2000/svg">
<g clip-path="url(#clip0_3099_10715)">
<path d="M21 27.5H51C56.6077 27.5 59.4115 27.5 61.5 28.7058C62.8682 29.4957 64.0043 30.6318 64.7942 32C66 34.0885 66 36.8923 66 42.5C66 48.1077 66 50.9115 64.7942 53C64.0043 54.3682 62.8682 55.5043 61.5 56.2942C59.4115 57.5 56.6077 57.5 51 57.5H49.8189C47.7582 57.5 46.7278 57.5 45.7637 57.2858C44.4732 56.9992 43.2617 56.4317 42.2153 55.6238C41.4336 55.0203 40.774 54.2288 39.4547 52.6457C38.4036 51.3843 37.878 50.7537 37.2748 50.4705C36.4672 50.0914 35.5328 50.0914 34.7252 50.4705C34.122 50.7537 33.5964 51.3843 32.5453 52.6457C31.226 54.2288 30.5664 55.0203 29.7847 55.6238C28.7383 56.4317 27.5268 56.9992 26.2363 57.2858C25.2722 57.5 24.2418 57.5 22.1811 57.5H21C15.3923 57.5 12.5885 57.5 10.5 56.2942C9.13183 55.5043 7.99569 54.3682 7.20577 53C6 50.9115 6 48.1077 6 42.5C6 36.8923 6 34.0885 7.20577 32C7.99569 30.6318 9.13183 29.4957 10.5 28.7058C12.5885 27.5 15.3923 27.5 21 27.5Z" stroke="white" stroke-width="4.5" stroke-linecap="round" stroke-linejoin="round"/>
<path d="M15 36.5H21" stroke="white" stroke-width="4.5" stroke-linecap="round" stroke-linejoin="round"/>
<path d="M66 39.5V35.9853C66 32.5242 66 30.7937 65.5403 29.1811C65.2878 28.2952 64.9341 27.4413 64.4863 26.6364C63.671 25.171 62.4473 23.9473 60 21.5C57.5527 19.0527 56.329 17.829 54.8636 17.0137C54.0587 16.5659 53.2048 16.2122 52.3189 15.9597C50.7063 15.5 48.9758 15.5 45.5147 15.5H26.4853C23.0242 15.5 21.2937 15.5 19.6811 15.9597C18.7952 16.2122 17.9413 16.5659 17.1364 17.0137C15.671 17.829 14.4473 19.0527 12 21.5C9.55266 23.9473 8.32899 25.171 7.51372 26.6364C7.06587 27.4413 6.71219 28.2952 6.45967 29.1811C6 30.7937 6 32.5242 6 35.9853V39.5" stroke="white" stroke-width="4.5" stroke-linecap="round" stroke-linejoin="round"/>
</g>
<defs>
<clipPath id="clip0_3099_10715">
<rect width="72" height="72" fill="white" transform="translate(0 0.5)"/>
</clipPath>
</defs>
</svg>
