<svg width="378" height="100" viewBox="0 0 378 100" fill="none" xmlns="http://www.w3.org/2000/svg">
<g clip-path="url(#clip0_2225_17355)">
<g clip-path="url(#clip1_2225_17355)">
<path d="M34.2318 19.2825H28.8621C19.0219 19.2825 13.852 24.2193 13.852 31.5287C13.852 39.8247 17.4318 43.675 24.787 48.616L30.8518 52.6661L13.3566 78.6404H0.332031L16.0415 55.43C6.99211 49.0114 1.92212 42.7884 1.92212 32.2238C1.92212 18.9869 11.1671 10 28.7664 10H46.2616V78.6404H34.2318V19.2825Z" fill="#FC3F1D"/>
<path d="M143.79 28.9639H109.29V33.2097C109.29 45.356 108.495 61.0613 104.32 69.3572H100.641V89.9993H111.576V78.6397H138.12V89.9993H149.055V69.3572H143.785V28.9639H143.79ZM131.96 69.3572H115.259C118.54 61.8522 119.435 48.3197 119.435 39.7282V38.2463H131.96V69.3572Z" fill="black"/>
<path d="M83.8422 48.6153H68.037V28.9639H56.207V78.6397H68.037V57.8977H83.8422V78.6397H95.6721V28.9639H83.8422V48.6153Z" fill="black"/>
<path d="M266.966 37.2607C271.541 37.2607 276.011 38.8425 278.401 40.3244V30.3509C275.916 28.9689 271.541 27.9824 265.676 27.9824C250.566 27.9824 242.711 38.7468 242.711 53.8568C242.711 70.4487 250.366 79.6355 266.171 79.6355C271.641 79.6355 275.516 78.6489 278.401 76.5718V66.9897C275.42 69.0626 271.84 70.3488 266.87 70.3488C258.42 70.3488 254.94 63.8303 254.94 53.5571C254.94 43.2839 259.215 37.2607 266.97 37.2607H266.966Z" fill="black"/>
<path d="M241.12 28.9639H229.191L212.486 51.8745V28.9639H200.656V78.6397H212.486V54.2472L229.986 78.6397H243.406L224.416 51.8745L241.12 28.9639Z" fill="black"/>
<path d="M173.216 27.9736C158.801 27.9736 151.941 38.9378 151.941 53.9479C151.941 71.2308 160.491 79.6267 175.601 79.6267C183.156 79.6267 188.726 77.6495 192.206 75.281V65.703C188.526 68.1714 182.365 70.3442 176.596 70.3442C167.946 70.3442 164.666 66.294 164.171 57.9981H192.705V51.7751C192.705 34.4922 185.05 27.9736 173.22 27.9736H173.216ZM180.671 49.3067H164.167C164.467 41.4062 167.347 37.2561 173.016 37.2561C178.686 37.2561 180.671 42.0972 180.671 48.316V49.3025V49.3067Z" fill="black"/>
</g>
</g>
<defs>
<clipPath id="clip0_2225_17355">
<rect width="377.333" height="100" fill="white" transform="translate(0.332031)"/>
</clipPath>
<clipPath id="clip1_2225_17355">
<rect width="278.066" height="80" fill="white" transform="translate(0.332031 10)"/>
</clipPath>
</defs>
</svg>
