<svg width="48" height="48" viewBox="0 0 48 48" fill="none" xmlns="http://www.w3.org/2000/svg">
<path d="M24 41C27.6194 41 31.0902 40.6425 34.3069 39.9868C38.3247 39.1677 40.3336 38.7582 42.1668 36.4013C44 34.0443 44 31.3385 44 25.9271V22.0729C44 16.6615 44 13.9557 42.1668 11.5987C40.3336 9.24175 38.3247 8.83225 34.3069 8.01325C31.0902 7.35755 27.6194 7 24 7C20.3806 7 16.9098 7.35755 13.6931 8.01325C9.67531 8.83225 7.66641 9.24175 5.83321 11.5987C4 13.9557 4 16.6615 4 22.0729V25.9271C4 31.3385 4 34.0443 5.83321 36.4013C7.66641 38.7582 9.67531 39.1677 13.6931 39.9868C16.9098 40.6425 20.3806 41 24 41Z" stroke="white" stroke-width="2"/>
<path d="M31.9243 24.6258C31.6275 25.8374 30.0482 26.7077 26.8897 28.4481C23.4545 30.3411 21.7369 31.2876 20.3456 30.9229C19.8744 30.7994 19.4404 30.5823 19.076 30.2876C18 29.4178 18 27.6118 18 24C18 20.3882 18 18.5822 19.076 17.7124C19.4404 17.4177 19.8744 17.2006 20.3456 17.0771C21.7369 16.7124 23.4545 17.6589 26.8897 19.5519C30.0482 21.2923 31.6275 22.1626 31.9243 23.3742C32.0252 23.7865 32.0252 24.2135 31.9243 24.6258Z" stroke="white" stroke-width="2" stroke-linejoin="round"/>
</svg>
