<svg width="96" height="96" viewBox="0 0 96 96" fill="none" xmlns="http://www.w3.org/2000/svg">
<path d="M44.1351 43.8775C42.8117 42.8807 40.9307 43.1453 39.9338 44.4687C38.9369 45.7921 39.2016 47.6731 40.525 48.67L44.1351 43.8775ZM55.0102 59.5813C56.3335 60.5782 58.2145 60.3135 59.2114 58.9901C60.2083 57.6667 59.9436 55.7858 58.6202 54.7889L55.0102 59.5813ZM13.4784 74.3747C12.5808 75.7674 12.9821 77.624 14.3747 78.5216C15.7674 79.4192 17.624 79.0179 18.5216 77.6253L13.4784 74.3747ZM36.8799 49.142C37.7775 47.7494 37.3762 45.8928 35.9835 44.9952C34.5909 44.0975 32.7343 44.4989 31.8367 45.8915L36.8799 49.142ZM63.0365 55.8771C62.3141 57.3682 62.9372 59.1626 64.4283 59.8849C65.9194 60.6073 67.7137 59.9842 68.4361 58.4931L63.0365 55.8771ZM78.6998 37.308C79.4222 35.8169 78.7991 34.0226 77.308 33.3002C75.8169 32.5778 74.0226 33.2009 73.3002 34.692L78.6998 37.308ZM84 87C85.6569 87 87 85.6569 87 84C87 82.3431 85.6569 81 84 81V87ZM15 12C15 10.3431 13.6569 9 12 9C10.3431 9 9 10.3431 9 12H15ZM16.1005 79.8995L13.9792 82.0208H13.9792L16.1005 79.8995ZM41 42C41 43.6569 39.6569 45 38 45V51C42.9706 51 47 46.9706 47 42H41ZM38 45C36.3431 45 35 43.6569 35 42H29C29 46.9706 33.0294 51 38 51V45ZM35 42C35 40.3431 36.3431 39 38 39V33C33.0294 33 29 37.0294 29 42H35ZM38 39C39.6569 39 41 40.3431 41 42H47C47 37.0294 42.9706 33 38 33V39ZM65 62C65 63.6569 63.6569 65 62 65V71C66.9706 71 71 66.9706 71 62H65ZM62 65C60.3431 65 59 63.6569 59 62H53C53 66.9706 57.0294 71 62 71V65ZM59 62C59 60.3431 60.3431 59 62 59V53C57.0294 53 53 57.0294 53 62H59ZM62 59C63.6569 59 65 60.3431 65 62H71C71 57.0294 66.9706 53 62 53V59ZM81 30C81 31.6569 79.6569 33 78 33V39C82.9706 39 87 34.9706 87 30H81ZM78 33C76.3431 33 75 31.6569 75 30H69C69 34.9706 73.0294 39 78 39V33ZM75 30C75 28.3431 76.3431 27 78 27V21C73.0294 21 69 25.0294 69 30H75ZM78 27C79.6569 27 81 28.3431 81 30H87C87 25.0294 82.9706 21 78 21V27ZM40.525 48.67L55.0102 59.5813L58.6202 54.7889L44.1351 43.8775L40.525 48.67ZM18.5216 77.6253L36.8799 49.142L31.8367 45.8915L13.4784 74.3747L18.5216 77.6253ZM68.4361 58.4931L78.6998 37.308L73.3002 34.692L63.0365 55.8771L68.4361 58.4931ZM84 81H40V87H84V81ZM15 56V12H9V56H15ZM40 81C33.3155 81 28.604 80.9936 25.0379 80.5142C21.5582 80.0463 19.6218 79.1781 18.2218 77.7782L13.9792 82.0208C16.6797 84.7214 20.0934 85.9034 24.2385 86.4607C28.2972 87.0064 33.4851 87 40 87V81ZM9 56C9 62.5149 8.99363 67.7028 9.53931 71.7616C10.0966 75.9066 11.2786 79.3203 13.9792 82.0208L18.2218 77.7782C16.8219 76.3782 15.9536 74.4418 15.4858 70.9621C15.0064 67.396 15 62.6845 15 56H9Z" fill="url(#paint0_linear_1883_14007)"/>
<defs>
<linearGradient id="paint0_linear_1883_14007" x1="-23.559" y1="47.7795" x2="48" y2="119.779" gradientUnits="userSpaceOnUse">
<stop stop-color="#9168CD"/>
<stop offset="0.424673" stop-color="#5556FF"/>
<stop offset="0.73499" stop-color="#45ADCD"/>
<stop offset="1" stop-color="#3EC4CD"/>
</linearGradient>
</defs>
</svg>
