<svg width="110" height="110" viewBox="0 0 110 110" fill="none" xmlns="http://www.w3.org/2000/svg">
<path d="M55 55L74.2305 48.9837C78.9423 47.5096 81.2982 46.7726 82.1759 44.938C83.0537 43.1034 82.0755 40.9611 80.119 36.6765L72.187 19.3057C70.9567 16.6112 70.3415 15.264 69.1183 14.507C67.8952 13.75 66.3334 13.75 63.21 13.75H46.79C43.6666 13.75 42.1048 13.75 40.8817 14.507C39.6585 15.264 39.0433 16.6112 37.8129 19.3057L29.881 36.6765C27.9245 40.9611 26.9463 43.1034 27.8241 44.938C28.7018 46.7726 31.0577 47.5096 35.7695 48.9837L55 55ZM55 55L41.25 16.0417M68.75 50.4167L55 13.75M58.5632 57.9786L62.1928 65.2978C62.6878 66.3167 64.0076 67.2939 65.1213 67.4811L71.6999 68.5831C75.907 69.2901 76.8968 72.3675 73.8653 75.4033L68.7509 80.56C67.8847 81.4333 67.4104 83.1175 67.6785 84.3235L69.1427 90.707C70.2976 95.7598 67.6372 97.7143 63.2034 95.0736L57.0372 91.3932C55.9235 90.7278 54.0881 90.7278 52.9539 91.3932L46.7877 95.0736C42.3744 97.7143 39.6935 95.739 40.8483 90.707L42.3125 84.3235C42.5806 83.1175 42.1063 81.4333 41.2402 80.56L36.1257 75.4033C33.1148 72.3675 34.0841 69.2901 38.2911 68.5831L44.8698 67.4811C45.9628 67.2939 47.2826 66.3167 47.7776 65.2978L51.4072 57.9786C53.3869 54.0071 56.6041 54.0071 58.5632 57.9786Z" stroke="url(#paint0_linear_2073_14994)" stroke-width="6" stroke-linecap="round" stroke-linejoin="round"/>
<defs>
<linearGradient id="paint0_linear_2073_14994" x1="0.33685" y1="54.7473" x2="76.2036" y2="105.637" gradientUnits="userSpaceOnUse">
<stop stop-color="#9168CD"/>
<stop offset="0.424673" stop-color="#5556FF"/>
<stop offset="0.73499" stop-color="#45ADCD"/>
<stop offset="1" stop-color="#3EC4CD"/>
</linearGradient>
</defs>
</svg>
