<svg width="110" height="110" viewBox="0 0 110 110" fill="none" xmlns="http://www.w3.org/2000/svg">
<path d="M50.418 45.8333L42.3759 63.7646C40.8852 67.0882 40.1399 68.75 38.9596 68.75C37.7794 68.75 37.034 67.0882 35.5434 63.7646L27.5013 45.8333M64.168 68.75V59.5833M64.168 59.5833V50.4167C64.168 48.2561 64.168 47.1758 64.8392 46.5045C65.5104 45.8333 66.5907 45.8333 68.7513 45.8333H75.6263C79.4233 45.8333 82.5013 48.9114 82.5013 52.7083C82.5013 56.5053 79.4233 59.5833 75.6263 59.5833M64.168 59.5833H75.6263M75.6263 59.5833L80.2096 68.75M50.418 13.75H59.5846C79.0301 13.75 88.7528 13.75 94.7937 19.7909C100.835 25.8318 100.835 35.5546 100.835 55C100.835 74.4454 100.835 84.1682 94.7937 90.2091C88.7528 96.25 79.0301 96.25 59.5846 96.25H50.418C30.9725 96.25 21.2498 96.25 15.2089 90.2091C9.16797 84.1682 9.16797 74.4454 9.16797 55C9.16797 35.5546 9.16797 25.8318 15.2089 19.7909C21.2498 13.75 30.9725 13.75 50.418 13.75Z" stroke="url(#paint0_linear_2498_16011)" stroke-width="6" stroke-linecap="round" stroke-linejoin="round"/>
<defs>
<linearGradient id="paint0_linear_2498_16011" x1="-36.1039" y1="54.7473" x2="45.3853" y2="145.849" gradientUnits="userSpaceOnUse">
<stop stop-color="#9168CD"/>
<stop offset="0.424673" stop-color="#5556FF"/>
<stop offset="0.73499" stop-color="#45ADCD"/>
<stop offset="1" stop-color="#3EC4CD"/>
</linearGradient>
</defs>
</svg>
