<svg width="111" height="110" viewBox="0 0 111 110" fill="none" xmlns="http://www.w3.org/2000/svg">
<path d="M64.5 68.75V59.5833M64.5 59.5833V50.4167C64.5 48.2561 64.5 47.1758 65.1712 46.5045C65.8424 45.8333 66.9227 45.8333 69.0833 45.8333H75.9583C79.7553 45.8333 82.8333 48.9114 82.8333 52.7083C82.8333 56.5053 79.7553 59.5833 75.9583 59.5833M64.5 59.5833H75.9583M75.9583 59.5833L80.5417 68.75M30.125 45.834L39.2917 57.2923M39.2917 57.2923L48.4583 68.7506M39.2917 57.2923L48.4583 45.834M39.2917 57.2923L30.125 68.7506M50.75 13.75H59.9167C79.3621 13.75 89.0848 13.75 95.1257 19.7909C101.167 25.8318 101.167 35.5546 101.167 55C101.167 74.4454 101.167 84.1682 95.1257 90.2091C89.0848 96.25 79.3621 96.25 59.9167 96.25H50.75C31.3046 96.25 21.5818 96.25 15.5409 90.2091C9.5 84.1682 9.5 74.4454 9.5 55C9.5 35.5546 9.5 25.8318 15.5409 19.7909C21.5818 13.75 31.3046 13.75 50.75 13.75Z" stroke="url(#paint0_linear_2498_16015)" stroke-width="6" stroke-linecap="round"/>
<defs>
<linearGradient id="paint0_linear_2498_16015" x1="-35.7719" y1="54.7473" x2="45.7173" y2="145.849" gradientUnits="userSpaceOnUse">
<stop stop-color="#9168CD"/>
<stop offset="0.424673" stop-color="#5556FF"/>
<stop offset="0.73499" stop-color="#45ADCD"/>
<stop offset="1" stop-color="#3EC4CD"/>
</linearGradient>
</defs>
</svg>
