<svg width="111" height="110" viewBox="0 0 111 110" fill="none" xmlns="http://www.w3.org/2000/svg">
<path d="M64.8359 68.75V59.5833M64.8359 59.5833V50.4167C64.8359 48.2561 64.8359 47.1758 65.5072 46.5045C66.1784 45.8333 67.2587 45.8333 69.4193 45.8333H76.2943C80.0912 45.8333 83.1693 48.9114 83.1693 52.7083C83.1693 56.5053 80.0912 59.5833 76.2943 59.5833M64.8359 59.5833H76.2943M76.2943 59.5833L80.8776 68.75M30.4609 68.75L31.9823 48.5836C32.1113 46.873 32.1758 46.0177 32.6516 45.858C33.1274 45.6984 33.6147 46.3686 34.5892 47.7089L38.4752 53.0538C39.0037 53.7808 39.268 54.1443 39.6204 54.1443C39.9729 54.1443 40.2372 53.7808 40.7657 53.0538L44.6539 47.706C45.6276 46.3667 46.1144 45.6971 46.5901 45.8565C47.0658 46.0159 47.1308 46.8704 47.2607 48.5796L48.7943 68.75M51.0859 13.75H60.2526C79.698 13.75 89.4208 13.75 95.4617 19.7909C101.503 25.8318 101.503 35.5546 101.503 55C101.503 74.4454 101.503 84.1682 95.4617 90.2091C89.4208 96.25 79.698 96.25 60.2526 96.25H51.0859C31.6405 96.25 21.9178 96.25 15.8769 90.2091C9.83594 84.1682 9.83594 74.4454 9.83594 55C9.83594 35.5546 9.83594 25.8318 15.8769 19.7909C21.9178 13.75 31.6405 13.75 51.0859 13.75Z" stroke="url(#paint0_linear_2498_16013)" stroke-width="6" stroke-linecap="round"/>
<defs>
<linearGradient id="paint0_linear_2498_16013" x1="-35.436" y1="54.7473" x2="46.0532" y2="145.849" gradientUnits="userSpaceOnUse">
<stop stop-color="#9168CD"/>
<stop offset="0.424673" stop-color="#5556FF"/>
<stop offset="0.73499" stop-color="#45ADCD"/>
<stop offset="1" stop-color="#3EC4CD"/>
</linearGradient>
</defs>
</svg>
