<svg width="111" height="110" viewBox="0 0 111 110" fill="none" xmlns="http://www.w3.org/2000/svg">
<path d="M18.6309 81.0617L16.9102 83.5191L16.9102 83.5191L18.6309 81.0617ZM13.5659 75.9967L16.0234 74.276L16.0234 74.276L13.5659 75.9967ZM92.7076 81.0617L94.4284 83.5191L94.4284 83.5191L92.7076 81.0617ZM97.7726 75.9967L95.3152 74.276L95.3152 74.276L97.7726 75.9967ZM18.6309 15.1883L16.9102 12.7309L16.9102 12.7309L18.6309 15.1883ZM13.5659 20.2533L11.1085 18.5326L11.1085 18.5326L13.5659 20.2533ZM51.0859 14.4583C52.7428 14.4583 54.0859 13.1152 54.0859 11.4583C54.0859 9.80148 52.7428 8.45833 51.0859 8.45833V14.4583ZM104.486 55.0242C104.499 53.3674 103.167 52.0135 101.51 52.0001C99.8531 51.9867 98.4991 53.319 98.4858 54.9758L104.486 55.0242ZM51.0859 68.0417C49.4291 68.0417 48.0859 69.3848 48.0859 71.0417C48.0859 72.6985 49.4291 74.0417 51.0859 74.0417V68.0417ZM60.2526 74.0417C61.9095 74.0417 63.2526 72.6985 63.2526 71.0417C63.2526 69.3848 61.9095 68.0417 60.2526 68.0417V74.0417ZM37.3359 100.125C35.6791 100.125 34.3359 101.468 34.3359 103.125C34.3359 104.782 35.6791 106.125 37.3359 106.125V100.125ZM75.8568 6.875C75.8568 5.21815 74.5136 3.875 72.8568 3.875C71.1999 3.875 69.8568 5.21815 69.8568 6.875H75.8568ZM69.8568 11.4583C69.8568 13.1152 71.1999 14.4583 72.8568 14.4583C74.5136 14.4583 75.8568 13.1152 75.8568 11.4583H69.8568ZM87.3151 6.875C87.3151 5.21815 85.972 3.875 84.3151 3.875C82.6583 3.875 81.3151 5.21815 81.3151 6.875H87.3151ZM81.3151 11.4583C81.3151 13.1152 82.6583 14.4583 84.3151 14.4583C85.972 14.4583 87.3151 13.1152 87.3151 11.4583H81.3151ZM75.8568 48.125C75.8568 46.4681 74.5136 45.125 72.8568 45.125C71.1999 45.125 69.8568 46.4681 69.8568 48.125H75.8568ZM69.8568 52.7083C69.8568 54.3652 71.1999 55.7083 72.8568 55.7083C74.5136 55.7083 75.8568 54.3652 75.8568 52.7083H69.8568ZM87.3151 48.125C87.3151 46.4681 85.972 45.125 84.3151 45.125C82.6583 45.125 81.3151 46.4681 81.3151 48.125H87.3151ZM81.3151 52.7083C81.3151 54.3652 82.6583 55.7083 84.3151 55.7083C85.972 55.7083 87.3151 54.3652 87.3151 52.7083H81.3151ZM101.503 38.5208C103.159 38.5208 104.503 37.1777 104.503 35.5208C104.503 33.864 103.159 32.5208 101.503 32.5208V38.5208ZM96.9193 32.5208C95.2624 32.5208 93.9193 33.864 93.9193 35.5208C93.9193 37.1777 95.2624 38.5208 96.9193 38.5208V32.5208ZM60.2526 27.0625C61.9095 27.0625 63.2526 25.7194 63.2526 24.0625C63.2526 22.4056 61.9095 21.0625 60.2526 21.0625V27.0625ZM55.6693 21.0625C54.0124 21.0625 52.6693 22.4056 52.6693 24.0625C52.6693 25.7194 54.0124 27.0625 55.6693 27.0625V21.0625ZM60.2526 38.5208C61.9095 38.5208 63.2526 37.1777 63.2526 35.5208C63.2526 33.864 61.9095 32.5208 60.2526 32.5208V38.5208ZM55.6693 32.5208C54.0124 32.5208 52.6693 33.864 52.6693 35.5208C52.6693 37.1777 54.0124 38.5208 55.6693 38.5208V32.5208ZM101.503 27.0625C103.159 27.0625 104.503 25.7194 104.503 24.0625C104.503 22.4056 103.159 21.0625 101.503 21.0625V27.0625ZM96.9193 21.0625C95.2624 21.0625 93.9193 22.4056 93.9193 24.0625C93.9193 25.7194 95.2624 27.0625 96.9193 27.0625V21.0625ZM75.3842 27.5856L73.069 25.6776L73.069 25.6776L75.3842 27.5856ZM81.7049 32.041L79.6153 29.8884L79.6153 29.8884L81.7049 32.041ZM76.0761 29.2712L75.4931 32.214L75.4931 32.214L76.0761 29.2712ZM81.0958 30.2656L81.6788 27.3228L81.6788 27.3228L81.0958 30.2656ZM64.8359 81.7917H46.5026V87.7917H64.8359V81.7917ZM46.5026 81.7917C38.9228 81.7917 33.4722 81.7878 29.2427 81.342C25.0665 80.9018 22.4277 80.0579 20.3517 78.6042L16.9102 83.5191C20.1611 85.7955 23.9432 86.8166 28.6137 87.3089C33.2308 87.7956 39.0526 87.7917 46.5026 87.7917V81.7917ZM6.83594 48.125C6.83594 55.575 6.83204 61.3968 7.31871 66.0139C7.81102 70.6844 8.83215 74.4665 11.1085 77.7174L16.0234 74.276C14.5697 72.1999 13.7259 69.5611 13.2857 65.3849C12.8398 61.1554 12.8359 55.7048 12.8359 48.125H6.83594ZM20.3517 78.6042C18.6675 77.425 17.2026 75.9601 16.0234 74.276L11.1085 77.7174C12.6892 79.9749 14.6527 81.9384 16.9102 83.5191L20.3517 78.6042ZM64.8359 87.7917C72.286 87.7917 78.1077 87.7956 82.7248 87.3089C87.3953 86.8166 91.1774 85.7955 94.4284 83.5191L90.9869 78.6042C88.9108 80.0579 86.272 80.9018 82.0959 81.342C77.8663 81.7878 72.4157 81.7917 64.8359 81.7917V87.7917ZM95.3152 74.276C94.1359 75.9601 92.6711 77.425 90.9869 78.6042L94.4284 83.5191C96.6858 81.9384 98.6494 79.9749 100.23 77.7174L95.3152 74.276ZM46.5026 8.45833C39.0526 8.45833 33.2308 8.45444 28.6137 8.94111C23.9432 9.43341 20.1611 10.4545 16.9102 12.7309L20.3517 17.6458C22.4277 16.1921 25.0665 15.3482 29.2427 14.9081C33.4722 14.4622 38.9228 14.4583 46.5026 14.4583V8.45833ZM12.8359 48.125C12.8359 40.5452 12.8398 35.0946 13.2857 30.8651C13.7259 26.6889 14.5697 24.0501 16.0234 21.974L11.1085 18.5326C8.83215 21.7835 7.81102 25.5656 7.31871 30.2361C6.83204 34.8532 6.83594 40.675 6.83594 48.125H12.8359ZM16.9102 12.7309C14.6527 14.3116 12.6892 16.2751 11.1085 18.5326L16.0234 21.974C17.2026 20.2899 18.6675 18.825 20.3517 17.6458L16.9102 12.7309ZM46.5026 14.4583H51.0859V8.45833H46.5026V14.4583ZM98.4858 54.9758C98.3988 65.7544 97.8019 70.7245 95.3152 74.276L100.23 77.7174C103.968 72.3798 104.402 65.4148 104.486 55.0242L98.4858 54.9758ZM51.0859 74.0417H60.2526V68.0417H51.0859V74.0417ZM52.6693 84.7917V103.125H58.6693V84.7917H52.6693ZM37.3359 106.125H74.0026V100.125H37.3359V106.125ZM69.8568 6.875V11.4583H75.8568V6.875H69.8568ZM81.3151 6.875V11.4583H87.3151V6.875H81.3151ZM69.8568 48.125V52.7083H75.8568V48.125H69.8568ZM81.3151 48.125V52.7083H87.3151V48.125H81.3151ZM101.503 32.5208H96.9193V38.5208H101.503V32.5208ZM60.2526 21.0625H55.6693V27.0625H60.2526V21.0625ZM60.2526 32.5208H55.6693V38.5208H60.2526V32.5208ZM101.503 21.0625H96.9193V27.0625H101.503V21.0625ZM77.861 19.8629L73.069 25.6776L77.6993 29.4935L82.4912 23.6787L77.861 19.8629ZM79.6153 29.8884L73.6698 35.6599L77.849 39.9651L83.7944 34.1936L79.6153 29.8884ZM75.4931 32.214L80.5128 33.2084L81.6788 27.3228L76.6591 26.3283L75.4931 32.214ZM83.7944 34.1936C84.9652 33.0571 85.2912 31.4306 84.8069 30.0189C84.3318 28.6343 83.1453 27.6133 81.6788 27.3228L80.5128 33.2084C79.939 33.0947 79.3692 32.6585 79.1315 31.9659C78.8846 31.2462 79.0688 30.4189 79.6153 29.8884L83.7944 34.1936ZM73.069 25.6776C70.8845 28.3285 72.7902 31.6785 75.4931 32.214L76.6591 26.3283C77.1986 26.4352 77.7382 26.8258 77.9988 27.4606C78.2692 28.1193 78.1738 28.9178 77.6993 29.4935L73.069 25.6776ZM78.5859 45.125C74.1799 45.125 71.1772 45.1186 68.9274 44.8161C66.7638 44.5253 65.7509 44.0109 65.0588 43.3188L60.8161 47.5615C62.8089 49.5542 65.299 50.3823 68.1279 50.7626C70.8704 51.1314 74.3495 51.125 78.5859 51.125V45.125ZM57.2526 29.7917C57.2526 34.0281 57.2462 37.5072 57.615 40.2497C57.9953 43.0786 58.8234 45.5687 60.8161 47.5615L65.0588 43.3188C64.3667 42.6267 63.8523 41.6138 63.5615 39.4503C63.259 37.2004 63.2526 34.1977 63.2526 29.7917H57.2526ZM93.9193 29.7917C93.9193 34.1977 93.9129 37.2004 93.6104 39.4502C93.3195 41.6138 92.8052 42.6267 92.1131 43.3188L96.3557 47.5615C98.3485 45.5687 99.1766 43.0786 99.5569 40.2497C99.9256 37.5072 99.9193 34.0281 99.9193 29.7917H93.9193ZM78.5859 51.125C82.8223 51.125 86.3014 51.1314 89.044 50.7626C91.8729 50.3823 94.363 49.5542 96.3557 47.5615L92.1131 43.3188C91.421 44.0109 90.4081 44.5253 88.2445 44.8161C85.9947 45.1186 82.992 45.125 78.5859 45.125V51.125ZM78.5859 14.4583C82.992 14.4583 85.9947 14.4647 88.2445 14.7672C90.4081 15.0581 91.421 15.5724 92.1131 16.2645L96.3557 12.0219C94.363 10.0291 91.8729 9.20102 89.044 8.82069C86.3014 8.45196 82.8223 8.45833 78.5859 8.45833V14.4583ZM99.9193 29.7917C99.9193 25.5553 99.9256 22.0762 99.5569 19.3336C99.1766 16.5047 98.3485 14.0146 96.3557 12.0219L92.1131 16.2645C92.8052 16.9566 93.3195 17.9695 93.6104 20.1331C93.9129 22.3829 93.9193 25.3857 93.9193 29.7917H99.9193ZM78.5859 8.45833C74.3495 8.45833 70.8704 8.45196 68.1279 8.82069C65.299 9.20102 62.8089 10.0291 60.8161 12.0219L65.0588 16.2645C65.7509 15.5724 66.7638 15.0581 68.9274 14.7672C71.1772 14.4647 74.1799 14.4583 78.5859 14.4583V8.45833ZM63.2526 29.7917C63.2526 25.3857 63.259 22.3829 63.5615 20.1331C63.8523 17.9695 64.3667 16.9566 65.0588 16.2645L60.8161 12.0219C58.8234 14.0146 57.9953 16.5047 57.615 19.3336C57.2462 22.0762 57.2526 25.5553 57.2526 29.7917H63.2526Z" fill="url(#paint0_linear_2498_16007)"/>
<defs>
<linearGradient id="paint0_linear_2498_16007" x1="-35.436" y1="54.7052" x2="60.1394" y2="146.29" gradientUnits="userSpaceOnUse">
<stop stop-color="#9168CD"/>
<stop offset="0.424673" stop-color="#5556FF"/>
<stop offset="0.73499" stop-color="#45ADCD"/>
<stop offset="1" stop-color="#3EC4CD"/>
</linearGradient>
</defs>
</svg>
