<svg width="110" height="110" viewBox="0 0 110 110" fill="none" xmlns="http://www.w3.org/2000/svg">
<path d="M16.043 89.64L17.6513 87.1075L17.6513 87.1075L16.043 89.64ZM11.0101 84.1038L8.35378 85.4981L8.35378 85.4981L11.0101 84.1038ZM98.9925 84.1038L96.3361 82.7096L96.3361 82.7096L98.9925 84.1038ZM93.9596 89.64L92.3513 87.1075L92.3513 87.1075L93.9596 89.64ZM93.9596 43.276L92.3513 45.8085L92.3513 45.8085L93.9596 43.276ZM98.9925 48.8122L96.3361 50.2064L96.3361 50.2064L98.9925 48.8122ZM16.043 43.276L17.6513 45.8085L17.6513 45.8085L16.043 43.276ZM11.0101 48.8122L13.6665 50.2064L13.6665 50.2064L11.0101 48.8122ZM74.8558 91.5997L74.5879 94.5877L74.8558 91.5997ZM62.2695 84.5364L60.0497 86.5544L60.0497 86.5544L62.2695 84.5364ZM64.4776 86.871L66.5256 84.6788L64.4776 86.871ZM50.8784 81.9836L48.4871 80.172L48.4871 80.172L50.8784 81.9836ZM47.1763 86.533L45.0726 84.3942L45.0726 84.3942L47.1763 86.533ZM37.6319 91.4504L38.1125 94.4116L37.6319 91.4504ZM52.41 79.9619L54.8013 81.7735L54.8013 81.7735L52.41 79.9619ZM54.3334 77.9226L55.5013 80.686L55.5013 80.686L54.3334 77.9226ZM57.8635 79.6898L60.0833 77.6718L60.0833 77.6718L57.8635 79.6898ZM55.7801 77.8504L54.8873 80.7145L55.7801 77.8504ZM73.3346 56.583C71.6778 56.583 70.3346 57.9262 70.3346 59.583C70.3346 61.2399 71.6778 62.583 73.3346 62.583V56.583ZM82.5013 62.583C84.1582 62.583 85.5013 61.2399 85.5013 59.583C85.5013 57.9262 84.1582 56.583 82.5013 56.583V62.583ZM97.8346 68.7497C97.8346 70.4065 99.1778 71.7497 100.835 71.7497C102.491 71.7497 103.835 70.4065 103.835 68.7497H97.8346ZM6.16797 68.7497C6.16797 70.4065 7.51111 71.7497 9.16797 71.7497C10.8248 71.7497 12.168 70.4065 12.168 68.7497H6.16797ZM13.6849 37.1412L10.9919 35.8192L10.9919 35.8192L13.6849 37.1412ZM10.2388 45.0029L7.35954 44.1603L7.35954 44.1603L10.2388 45.0029ZM9.52238 48.1642L6.56158 47.6808L6.56158 47.6808L9.52238 48.1642ZM96.3177 37.1412L93.6247 38.4632L93.6247 38.4632L96.3177 37.1412ZM99.7638 45.0029L96.8845 45.8454L96.8845 45.8454L99.7638 45.0029ZM100.48 48.1642L103.441 47.6808L103.441 47.6808L100.48 48.1642ZM26.5745 19.8943L25.2723 17.1916L25.2723 17.1916L26.5745 19.8943ZM22.1321 22.9685L20.079 20.7811L20.079 20.7811L22.1321 22.9685ZM83.4281 19.8943L84.7303 17.1916L84.7303 17.1916L83.4281 19.8943ZM87.8705 22.9685L85.8175 25.156L85.8175 25.156L87.8705 22.9685ZM32.0846 44.2497H77.918V38.2497H32.0846V44.2497ZM32.0846 88.6663C27.7403 88.6663 24.7026 88.6629 22.3452 88.4278C20.0411 88.1981 18.6938 87.7696 17.6513 87.1075L14.4346 92.1724C16.5828 93.5367 18.9727 94.1214 21.75 94.3982C24.4739 94.6698 27.8616 94.6663 32.0846 94.6663V88.6663ZM6.16797 66.458C6.16797 71.1198 6.16559 74.7986 6.40837 77.7451C6.65375 80.7233 7.16553 83.2341 8.35378 85.4981L13.6665 82.7096C13.0126 81.4638 12.6033 79.8638 12.3881 77.2524C12.1703 74.6095 12.168 71.2203 12.168 66.458H6.16797ZM17.6513 87.1075C16.0258 86.0752 14.6418 84.5679 13.6665 82.7096L8.35378 85.4981C9.79205 88.2383 11.8796 90.5498 14.4346 92.1724L17.6513 87.1075ZM97.8346 66.458C97.8346 71.2203 97.8322 74.6095 97.6145 77.2524C97.3993 79.8638 96.99 81.4638 96.3361 82.7096L101.649 85.4981C102.837 83.2341 103.349 80.7233 103.594 77.7451C103.837 74.7986 103.835 71.1198 103.835 66.458H97.8346ZM77.918 94.6663C82.141 94.6663 85.5287 94.6698 88.2526 94.3982C91.0299 94.1214 93.4198 93.5367 95.568 92.1724L92.3513 87.1075C91.3088 87.7696 89.9615 88.1981 87.6574 88.4278C85.3 88.6629 82.2623 88.6663 77.918 88.6663V94.6663ZM96.3361 82.7096C95.3608 84.5679 93.9768 86.0752 92.3513 87.1075L95.568 92.1724C98.123 90.5498 100.211 88.2383 101.649 85.4981L96.3361 82.7096ZM77.918 44.2497C82.2623 44.2497 85.3 44.2531 87.6574 44.4882C89.9615 44.7179 91.3088 45.1464 92.3513 45.8085L95.568 40.7436C93.4198 39.3793 91.0299 38.7946 88.2526 38.5178C85.5287 38.2462 82.141 38.2497 77.918 38.2497V44.2497ZM103.835 66.458C103.835 61.7962 103.837 58.1175 103.594 55.1709C103.349 52.1928 102.837 49.6819 101.649 47.418L96.3361 50.2064C96.99 51.4522 97.3993 53.0523 97.6145 55.6636C97.8322 58.3065 97.8346 61.6957 97.8346 66.458H103.835ZM92.3513 45.8085C93.9768 46.8408 95.3608 48.3481 96.3361 50.2064L101.649 47.418C100.211 44.6777 98.123 42.3662 95.568 40.7436L92.3513 45.8085ZM32.0846 38.2497C27.8616 38.2497 24.4739 38.2462 21.75 38.5178C18.9727 38.7946 16.5828 39.3793 14.4346 40.7436L17.6513 45.8085C18.6938 45.1464 20.0411 44.7179 22.3452 44.4882C24.7026 44.2531 27.7403 44.2497 32.0846 44.2497V38.2497ZM12.168 66.458C12.168 61.6957 12.1703 58.3065 12.3881 55.6636C12.6033 53.0523 13.0126 51.4522 13.6665 50.2064L8.35378 47.418C7.16553 49.6819 6.65375 52.1928 6.40837 55.1709C6.16559 58.1175 6.16797 61.7962 6.16797 66.458H12.168ZM14.4346 40.7436C11.8796 42.3662 9.79205 44.6777 8.35378 47.418L13.6665 50.2064C14.6418 48.3481 16.0258 46.8408 17.6513 45.8085L14.4346 40.7436ZM50.0187 78.1503L48.4871 80.172L53.2697 83.7951L54.8013 81.7735L50.0187 78.1503ZM64.4893 82.5183L60.0833 77.6718L55.6437 81.7078L60.0497 86.5544L64.4893 82.5183ZM77.918 88.6663C76.3188 88.6663 75.7024 88.6636 75.1237 88.6117L74.5879 94.5877C75.4961 94.6691 76.4256 94.6663 77.918 94.6663V88.6663ZM60.0497 86.5544C61.1095 87.7202 61.7507 88.4289 62.4297 89.0632L66.5256 84.6788C66.0674 84.2508 65.6156 83.7572 64.4893 82.5183L60.0497 86.5544ZM75.1237 88.6117C71.9948 88.3311 68.984 86.9754 66.5256 84.6788L62.4297 89.0632C65.82 92.2304 70.0688 94.1825 74.5879 94.5877L75.1237 88.6117ZM48.4871 80.172C46.6328 82.6197 45.8828 83.5973 45.0726 84.3942L49.28 88.6718C50.4752 87.4962 51.5248 86.0984 53.2697 83.7951L48.4871 80.172ZM32.0846 94.6663C34.7978 94.6663 36.4872 94.6754 38.1125 94.4116L37.1513 88.4891C36.1152 88.6573 34.9935 88.6663 32.0846 88.6663V94.6663ZM45.0726 84.3942C42.8197 86.6101 40.061 88.0169 37.1513 88.4891L38.1125 94.4116C42.3037 93.7315 46.1822 91.7187 49.28 88.6718L45.0726 84.3942ZM54.8013 81.7735C55.0333 81.4671 55.2167 81.2252 55.3782 81.019C55.5401 80.8124 55.6515 80.6784 55.7334 80.5875C55.9108 80.3906 55.8133 80.5541 55.5013 80.686L53.1656 75.1592C52.2968 75.5264 51.6931 76.1082 51.2757 76.5715C50.8728 77.0187 50.4423 77.5911 50.0187 78.1503L54.8013 81.7735ZM60.0833 77.6718C59.6163 77.1581 59.138 76.628 58.6969 76.2199C58.2389 75.7962 57.5805 75.2693 56.673 74.9863L54.8873 80.7145C54.5536 80.6105 54.4337 80.4497 54.6224 80.6242C54.7095 80.7049 54.8302 80.8257 55.0079 81.0148C55.1851 81.2035 55.3872 81.4257 55.6437 81.7078L60.0833 77.6718ZM55.5013 80.686C55.3143 80.7649 55.092 80.7783 54.8873 80.7145L56.673 74.9863C55.515 74.6254 54.2774 74.6893 53.1656 75.1592L55.5013 80.686ZM73.3346 62.583H82.5013V56.583H73.3346V62.583ZM69.1387 15.333H40.8639V21.333H69.1387V15.333ZM97.8346 57.0725V68.7497H103.835V57.0725H97.8346ZM6.16797 57.0725V68.7497H12.168V57.0725H6.16797ZM10.9919 35.8192C9.14302 39.5853 8.05828 41.7725 7.35954 44.1603L13.1181 45.8454C13.6392 44.0645 14.4452 42.4001 16.3779 38.4632L10.9919 35.8192ZM12.168 57.0725C12.168 52.4859 12.177 50.523 12.4832 48.6475L6.56158 47.6808C6.15894 50.1471 6.16797 52.6759 6.16797 57.0725H12.168ZM7.35954 44.1603C7.02291 45.3107 6.75642 46.4873 6.56158 47.6808L12.4832 48.6475C12.6389 47.6935 12.8513 46.7569 13.1181 45.8454L7.35954 44.1603ZM93.6247 38.4632C95.5574 42.4 96.3634 44.0645 96.8845 45.8454L102.643 44.1604C101.944 41.7725 100.86 39.5852 99.0107 35.8192L93.6247 38.4632ZM103.835 57.0725C103.835 52.6759 103.844 50.1471 103.441 47.6808L97.5194 48.6475C97.8256 50.523 97.8346 52.4859 97.8346 57.0725H103.835ZM96.8845 45.8454C97.1513 46.7569 97.3637 47.6935 97.5194 48.6475L103.441 47.6808C103.246 46.4873 102.98 45.3107 102.643 44.1603L96.8845 45.8454ZM40.8639 15.333C33.7813 15.333 29.2733 15.2639 25.2723 17.1916L27.8767 22.597C30.3566 21.4021 33.2146 21.333 40.8639 21.333V15.333ZM16.3779 38.4632C20.2816 30.5112 21.9202 27.2818 24.1851 25.156L20.079 20.7811C16.8188 23.841 14.6676 28.3315 10.9919 35.8192L16.3779 38.4632ZM25.2723 17.1916C23.3921 18.0976 21.646 19.3104 20.079 20.7811L24.1851 25.156C25.3307 24.0808 26.5752 23.224 27.8767 22.597L25.2723 17.1916ZM69.1387 21.333C76.788 21.333 79.646 21.4021 82.1259 22.597L84.7303 17.1916C80.7293 15.2639 76.2213 15.333 69.1387 15.333V21.333ZM99.0107 35.8192C95.335 28.3315 93.1838 23.841 89.9236 20.7811L85.8175 25.156C88.0824 27.2818 89.721 30.5111 93.6247 38.4632L99.0107 35.8192ZM82.1259 22.597C83.4274 23.224 84.6719 24.0808 85.8175 25.156L89.9236 20.7811C88.3566 19.3104 86.6105 18.0976 84.7303 17.1916L82.1259 22.597Z" fill="url(#paint0_linear_2498_16005)"/>
<defs>
<linearGradient id="paint0_linear_2498_16005" x1="-36.1039" y1="54.7751" x2="34.9069" y2="144.086" gradientUnits="userSpaceOnUse">
<stop stop-color="#9168CD"/>
<stop offset="0.424673" stop-color="#5556FF"/>
<stop offset="0.73499" stop-color="#45ADCD"/>
<stop offset="1" stop-color="#3EC4CD"/>
</linearGradient>
</defs>
</svg>
