<svg width="110" height="110" viewBox="0 0 110 110" fill="none" xmlns="http://www.w3.org/2000/svg">
<path d="M43.7489 27.3905C43.6888 26.0111 42.5218 24.9416 41.1424 25.0017C39.763 25.0619 38.6935 26.2288 38.7537 27.6082L43.7489 27.3905ZM41.8233 40.62L44.321 40.5112L44.321 40.5112L41.8233 40.62ZM71.2489 27.6082C71.3091 26.2288 70.2396 25.0619 68.8602 25.0017C67.4808 24.9416 66.3138 26.0111 66.2537 27.3905L71.2489 27.6082ZM68.1793 40.62L65.6816 40.5112L65.6816 40.5112L68.1793 40.62ZM43.2383 43.0927L44.6946 41.0606L44.6946 41.0606L43.2383 43.0927ZM66.7643 43.0927L65.3081 41.0607L65.3081 41.0607L66.7643 43.0927ZM68.1332 40.9546L70.5569 41.5674L70.557 41.5674L68.1332 40.9546ZM41.8694 40.9546L44.2931 40.3418L44.2931 40.3418L41.8694 40.9546ZM76.9805 24.0618C76.9805 22.6811 75.8612 21.5618 74.4805 21.5618C73.0998 21.5618 71.9805 22.6811 71.9805 24.0618H76.9805ZM71.2067 47.5822L68.7744 47.0044L71.2067 47.5822ZM77.7543 47.5822L80.1866 47.0044L80.1866 47.0044L77.7543 47.5822ZM22.918 98.3327C19.6179 98.3327 17.3529 98.329 15.6526 98.1385C13.9844 97.9516 13.2419 97.6173 12.7821 97.2341L9.58115 101.075C11.135 102.37 13.0197 102.875 15.0959 103.107C17.1399 103.336 19.7362 103.333 22.918 103.333V98.3327ZM6.66797 89.3744C6.66797 91.9908 6.66039 94.254 6.95159 96.059C7.26304 97.9894 7.96147 99.7255 9.58115 101.075L12.7821 97.2341C12.3881 96.9058 12.0797 96.4524 11.8878 95.2626C11.6756 93.9473 11.668 92.1594 11.668 89.3744H6.66797ZM34.168 89.3744C34.168 92.1594 34.1604 93.9473 33.9482 95.2626C33.7562 96.4524 33.4478 96.9058 33.0539 97.2341L36.2548 101.075C37.8745 99.7255 38.5729 97.9894 38.8844 96.059C39.1756 94.254 39.168 91.9908 39.168 89.3744H34.168ZM22.918 103.333C26.0997 103.333 28.6961 103.336 30.7401 103.107C32.8162 102.875 34.701 102.37 36.2548 101.075L33.0539 97.2341C32.5941 97.6173 31.8515 97.9516 30.1834 98.1385C28.483 98.329 26.218 98.3327 22.918 98.3327V103.333ZM22.918 80.416C26.218 80.416 28.483 80.4197 30.1834 80.6102C31.8515 80.7971 32.5941 81.1314 33.0539 81.5146L36.2548 77.6735C34.701 76.3786 32.8162 75.8739 30.7401 75.6413C28.6961 75.4123 26.0997 75.416 22.918 75.416V80.416ZM39.168 89.3744C39.168 86.7579 39.1756 84.4947 38.8844 82.6897C38.5729 80.7593 37.8745 79.0232 36.2548 77.6735L33.0539 81.5146C33.4478 81.8429 33.7562 82.2962 33.9482 83.4861C34.1604 84.8014 34.168 86.5893 34.168 89.3744H39.168ZM22.918 75.416C19.7362 75.416 17.1399 75.4123 15.0959 75.6413C13.0197 75.8739 11.135 76.3786 9.58115 77.6735L12.7821 81.5146C13.2419 81.1314 13.9844 80.7971 15.6526 80.6102C17.3529 80.4197 19.6179 80.416 22.918 80.416V75.416ZM11.668 89.3744C11.668 86.5893 11.6756 84.8014 11.8878 83.4861C12.0797 82.2962 12.3881 81.8429 12.7821 81.5146L9.58115 77.6735C7.96147 79.0232 7.26304 80.7593 6.95159 82.6897C6.66039 84.4947 6.66797 86.7579 6.66797 89.3744H11.668ZM87.0846 98.3327C83.7846 98.3327 81.5196 98.329 79.8193 98.1385C78.1511 97.9516 77.4086 97.6173 76.9487 97.2341L73.7478 101.075C75.3017 102.37 77.1864 102.875 79.2625 103.107C81.3065 103.336 83.9029 103.333 87.0846 103.333V98.3327ZM70.8346 89.3744C70.8346 91.9908 70.8271 94.254 71.1183 96.059C71.4297 97.9894 72.1281 99.7255 73.7478 101.075L76.9487 97.2341C76.5548 96.9058 76.2464 96.4524 76.0544 95.2626C75.8422 93.9473 75.8346 92.1594 75.8346 89.3744H70.8346ZM98.3346 89.3744C98.3346 92.1594 98.3271 93.9473 98.1149 95.2626C97.9229 96.4524 97.6145 96.9058 97.2205 97.2341L100.421 101.075C102.041 99.7255 102.74 97.9894 103.051 96.059C103.342 94.254 103.335 91.9908 103.335 89.3744H98.3346ZM87.0846 103.333C90.2664 103.333 92.8627 103.336 94.9067 103.107C96.9829 102.875 98.8676 102.37 100.421 101.075L97.2205 97.2341C96.7607 97.6173 96.0182 97.9516 94.35 98.1385C92.6497 98.329 90.3847 98.3327 87.0846 98.3327V103.333ZM87.0846 80.416C90.3847 80.416 92.6497 80.4197 94.35 80.6102C96.0182 80.7971 96.7607 81.1314 97.2205 81.5146L100.421 77.6735C98.8676 76.3786 96.9829 75.8739 94.9067 75.6413C92.8627 75.4123 90.2664 75.416 87.0846 75.416V80.416ZM103.335 89.3744C103.335 86.7579 103.342 84.4947 103.051 82.6897C102.74 80.7593 102.041 79.0232 100.421 77.6735L97.2205 81.5146C97.6145 81.8429 97.9229 82.2962 98.1148 83.4861C98.3271 84.8014 98.3346 86.5893 98.3346 89.3744H103.335ZM87.0846 75.416C83.9029 75.416 81.3065 75.4123 79.2625 75.6413C77.1864 75.8739 75.3017 76.3786 73.7478 77.6735L76.9487 81.5146C77.4086 81.1314 78.1511 80.7971 79.8193 80.6102C81.5196 80.4197 83.7846 80.416 87.0846 80.416V75.416ZM75.8346 89.3744C75.8346 86.5893 75.8422 84.8014 76.0544 83.4861C76.2464 82.2962 76.5548 81.8429 76.9487 81.5146L73.7478 77.6735C72.1281 79.0232 71.4297 80.7593 71.1183 82.6897C70.8271 84.4947 70.8346 86.7579 70.8346 89.3744H75.8346ZM42.6616 66.666H67.341V61.666H42.6616V66.666ZM42.6616 61.666C38.5414 61.666 35.1145 61.814 32.3074 62.2435C29.51 62.6715 27.1265 63.4066 25.2356 64.7236C21.222 67.5188 20.418 72.1783 20.418 77.916H25.418C25.418 72.2779 26.3185 70.0624 28.093 68.8266C29.0962 68.128 30.6277 67.5586 33.0636 67.186C35.4898 66.8148 38.6145 66.666 42.6616 66.666V61.666ZM67.341 66.666C71.3881 66.666 74.5128 66.8148 76.939 67.186C79.3749 67.5586 80.9064 68.128 81.9096 68.8266C83.6841 70.0624 84.5846 72.2779 84.5846 77.916H89.5846C89.5846 72.1783 88.7807 67.5188 84.767 64.7236C82.8761 63.4066 80.4926 62.6715 77.6952 62.2435C74.8881 61.814 71.4612 61.666 67.341 61.666V66.666ZM34.5846 20.6243C34.5846 20.8431 34.5435 21.01 34.5102 21.1102C34.4773 21.209 34.4456 21.2626 34.4424 21.2678C34.4417 21.2691 34.497 21.1813 34.6711 21.0049C35.0198 20.6513 35.608 20.1784 36.4514 19.6105C38.1199 18.487 40.4574 17.2105 42.994 15.9975C45.5194 14.7898 48.167 13.681 50.4252 12.8802C51.5552 12.4795 52.5607 12.1656 53.3878 11.9549C54.2592 11.7328 54.7793 11.666 55.0013 11.666V6.66602C54.1383 6.66602 53.1285 6.86118 52.1533 7.10964C51.1338 7.36939 49.9759 7.73446 48.7541 8.16773C46.3085 9.03496 43.4981 10.2141 40.8369 11.4867C38.1869 12.7539 35.609 14.1498 33.6587 15.4631C32.6928 16.1135 31.7957 16.8 31.1116 17.4935C30.7692 17.8405 30.4212 18.2481 30.1462 18.71C29.8808 19.1558 29.5846 19.8173 29.5846 20.6243H34.5846ZM80.418 20.6243C80.418 19.8173 80.1218 19.1558 79.8564 18.71C79.5814 18.2481 79.2334 17.8405 78.891 17.4935C78.2069 16.8 77.3098 16.1135 76.3439 15.4631C74.3936 14.1498 71.8157 12.7539 69.1657 11.4867C66.5045 10.2141 63.6941 9.03496 61.2485 8.16773C60.0267 7.73446 58.8688 7.36939 57.8493 7.10964C56.8741 6.86118 55.8643 6.66602 55.0013 6.66602V11.666C55.2233 11.666 55.7434 11.7328 56.6148 11.9549C57.4419 12.1656 58.4474 12.4795 59.5774 12.8802C61.8356 13.681 64.4832 14.7898 67.0086 15.9975C69.5452 17.2105 71.8827 18.487 73.5512 19.6105C74.3946 20.1784 74.9828 20.6513 75.3315 21.0049C75.5056 21.1813 75.5609 21.2691 75.5602 21.2678C75.557 21.2626 75.5253 21.209 75.4924 21.1102C75.4591 21.01 75.418 20.8431 75.418 20.6243H80.418ZM75.418 20.6243C75.418 20.4056 75.4591 20.2387 75.4924 20.1385C75.5253 20.0397 75.557 19.9861 75.5602 19.9809C75.5609 19.9796 75.5056 20.0674 75.3315 20.2438C74.9828 20.5974 74.3946 21.0703 73.5512 21.6382C71.8827 22.7617 69.5452 24.0382 67.0086 25.2512C64.4832 26.4589 61.8356 27.5677 59.5774 28.3685C58.4474 28.7692 57.4419 29.0831 56.6148 29.2938C55.7434 29.5159 55.2233 29.5827 55.0013 29.5827V34.5827C55.8643 34.5827 56.8741 34.3875 57.8493 34.1391C58.8688 33.8793 60.0267 33.5142 61.2485 33.081C63.6941 32.2137 66.5045 31.0346 69.1657 29.762C71.8157 28.4948 74.3936 27.0989 76.3439 25.7856C77.3098 25.1352 78.2069 24.4487 78.891 23.7552C79.2334 23.4081 79.5814 23.0006 79.8564 22.5387C80.1218 22.0929 80.418 21.4314 80.418 20.6243H75.418ZM29.5846 20.6243C29.5846 21.4314 29.8808 22.0929 30.1462 22.5387C30.4212 23.0006 30.7692 23.4081 31.1116 23.7552C31.7957 24.4487 32.6928 25.1352 33.6587 25.7856C35.609 27.0989 38.1869 28.4948 40.8369 29.762C43.4981 31.0346 46.3085 32.2137 48.7541 33.081C49.9759 33.5142 51.1338 33.8793 52.1533 34.1391C53.1285 34.3875 54.1383 34.5827 55.0013 34.5827V29.5827C54.7793 29.5827 54.2592 29.5159 53.3878 29.2938C52.5607 29.0831 51.5552 28.7692 50.4252 28.3685C48.167 27.5677 45.5194 26.4589 42.994 25.2512C40.4574 24.0382 38.1199 22.7617 36.4514 21.6382C35.608 21.0703 35.0198 20.5974 34.6711 20.2438C34.497 20.0674 34.4417 19.9796 34.4424 19.9809C34.4456 19.9861 34.4773 20.0397 34.5102 20.1385C34.5435 20.2387 34.5846 20.4056 34.5846 20.6243H29.5846ZM38.7537 27.6082L39.3257 40.7289L44.321 40.5112L43.7489 27.3905L38.7537 27.6082ZM66.2537 27.3905L65.6816 40.5112L70.6769 40.7289L71.2489 27.6082L66.2537 27.3905ZM41.7821 45.1248C43.4355 46.3097 45.5853 47.0926 47.8035 47.5877C50.0543 48.09 52.543 48.3327 55.0013 48.3327C57.4596 48.3327 59.9483 48.09 62.1991 47.5877C64.4173 47.0926 66.5672 46.3097 68.2205 45.1248L65.3081 41.0607C64.4124 41.7025 62.9843 42.2894 61.11 42.7077C59.2683 43.1187 57.15 43.3327 55.0013 43.3327C52.8526 43.3327 50.7343 43.1187 48.8926 42.7077C47.0183 42.2894 45.5902 41.7025 44.6946 41.0606L41.7821 45.1248ZM65.7095 40.3418C65.6007 40.7721 65.4231 40.9782 65.3081 41.0607L68.2205 45.1248C69.5275 44.1882 70.2373 42.8318 70.5569 41.5674L65.7095 40.3418ZM39.4457 41.5674C39.7653 42.8318 40.4751 44.1882 41.7821 45.1248L44.6946 41.0606C44.5795 40.9782 44.4019 40.7721 44.2931 40.3418L39.4457 41.5674ZM65.6816 40.5112C65.6821 40.5006 65.6853 40.4373 65.7095 40.3419L70.557 41.5674C70.6364 41.2531 70.6666 40.965 70.6769 40.7289L65.6816 40.5112ZM39.3257 40.7289C39.336 40.965 39.3662 41.2531 39.4457 41.5674L44.2931 40.3418C44.3173 40.4373 44.3205 40.5006 44.321 40.5112L39.3257 40.7289ZM71.9805 24.0618V40.12H76.9805V24.0618H71.9805ZM73.639 48.16C73.9498 46.8515 74.4887 45.6387 75.0887 44.4645C75.6144 43.4358 76.3952 42.0777 76.8057 41.0383L72.1552 39.2017C71.8594 39.9508 71.3818 40.7306 70.6364 42.1893C69.9653 43.5024 69.2205 45.1265 68.7744 47.0044L73.639 48.16ZM80.1866 47.0044C79.7405 45.1265 78.9956 43.5024 78.3246 42.1893C77.5791 40.7305 77.1015 39.9508 76.8057 39.2017L72.1552 41.0383C72.5657 42.0777 73.3466 43.4358 73.8722 44.4645C74.4723 45.6387 75.0111 46.8515 75.322 48.16L80.1866 47.0044ZM75.2034 47.916H73.7576V52.916H75.2034V47.916ZM68.7744 47.0044C68.4871 48.2137 68.2101 50.1815 69.6498 51.6254C70.318 52.2956 71.124 52.5922 71.7765 52.7369C72.4263 52.881 73.1155 52.916 73.7576 52.916V47.916C73.518 47.916 73.3245 47.9089 73.1684 47.8964C73.0109 47.8838 72.9128 47.8674 72.859 47.8555C72.8047 47.8434 72.8229 47.8419 72.8847 47.8716C72.9517 47.9038 73.0675 47.9717 73.1906 48.0952C73.2511 48.1559 73.3071 48.2238 73.3564 48.2974C73.4056 48.3708 73.4435 48.4431 73.4721 48.5104C73.5291 48.6446 73.5407 48.7392 73.5427 48.7607C73.5444 48.7793 73.5392 48.7435 73.5511 48.6346C73.5629 48.5269 73.5886 48.3722 73.639 48.16L68.7744 47.0044ZM75.322 48.16C75.3724 48.3722 75.3981 48.5269 75.4098 48.6346C75.4217 48.7435 75.4165 48.7793 75.4183 48.7607C75.4203 48.7392 75.4318 48.6446 75.4888 48.5104C75.5174 48.4431 75.5554 48.3708 75.6046 48.2974C75.6539 48.2238 75.7098 48.1559 75.7704 48.0952C75.8934 47.9717 76.0093 47.9038 76.0762 47.8716C76.138 47.8419 76.1563 47.8434 76.1019 47.8555C76.0481 47.8674 75.95 47.8838 75.7925 47.8964C75.6365 47.9089 75.443 47.916 75.2034 47.916V52.916C75.8454 52.916 76.5346 52.881 77.1845 52.7369C77.8369 52.5922 78.643 52.2956 79.3112 51.6254C80.7508 50.1815 80.4739 48.2137 80.1866 47.0044L75.322 48.16Z" fill="url(#paint0_linear_2073_15024)"/>
<defs>
<linearGradient id="paint0_linear_2073_15024" x1="-36.104" y1="54.7186" x2="55.0013" y2="146.385" gradientUnits="userSpaceOnUse">
<stop stop-color="#9168CD"/>
<stop offset="0.424673" stop-color="#5556FF"/>
<stop offset="0.73499" stop-color="#45ADCD"/>
<stop offset="1" stop-color="#3EC4CD"/>
</linearGradient>
</defs>
</svg>
