<svg width="96" height="96" viewBox="0 0 96 96" fill="none" xmlns="http://www.w3.org/2000/svg">
<path d="M41 8C41 6.34315 39.6569 5 38 5C36.3431 5 35 6.34315 35 8H41ZM35 16C35 17.6569 36.3431 19 38 19C39.6569 19 41 17.6569 41 16H35ZM61 8C61 6.34315 59.6569 5 58 5C56.3431 5 55 6.34315 55 8H61ZM55 16C55 17.6569 56.3431 19 58 19C59.6569 19 61 17.6569 61 16H55ZM41 80C41 78.3431 39.6569 77 38 77C36.3431 77 35 78.3431 35 80H41ZM35 88C35 89.6569 36.3431 91 38 91C39.6569 91 41 89.6569 41 88H35ZM61 80C61 78.3431 59.6569 77 58 77C56.3431 77 55 78.3431 55 80H61ZM55 88C55 89.6569 56.3431 91 58 91C59.6569 91 61 89.6569 61 88H55ZM54.1213 38.1213C55.2929 36.9497 55.2929 35.0503 54.1213 33.8787C52.9497 32.7071 51.0503 32.7071 49.8787 33.8787L54.1213 38.1213ZM33.8787 49.8787C32.7071 51.0503 32.7071 52.9497 33.8787 54.1213C35.0503 55.2929 36.9497 55.2929 38.1213 54.1213L33.8787 49.8787ZM62.1213 54.1213C63.2929 52.9497 63.2929 51.0503 62.1213 49.8787C60.9497 48.7071 59.0503 48.7071 57.8787 49.8787L62.1213 54.1213ZM49.8787 57.8787C48.7071 59.0503 48.7071 60.9497 49.8787 62.1213C51.0503 63.2929 52.9497 63.2929 54.1213 62.1213L49.8787 57.8787ZM88 61C89.6569 61 91 59.6569 91 58C91 56.3431 89.6569 55 88 55V61ZM80 55C78.3431 55 77 56.3431 77 58C77 59.6569 78.3431 61 80 61V55ZM16 41C17.6569 41 19 39.6569 19 38C19 36.3431 17.6569 35 16 35V41ZM8 35C6.34315 35 5 36.3431 5 38C5 39.6569 6.34315 41 8 41V35ZM16 61C17.6569 61 19 59.6569 19 58C19 56.3431 17.6569 55 16 55V61ZM8 55C6.34315 55 5 56.3431 5 58C5 59.6569 6.34315 61 8 61V55ZM88 41C89.6569 41 91 39.6569 91 38C91 36.3431 89.6569 35 88 35V41ZM80 35C78.3431 35 77 36.3431 77 38C77 39.6569 78.3431 41 80 41V35ZM48 77C40.3727 77 34.9541 76.9936 30.8434 76.441C26.819 75.8999 24.5005 74.8852 22.8076 73.1924L18.565 77.435C21.5584 80.4285 25.3542 81.757 30.0439 82.3875C34.6473 83.0064 40.5423 83 48 83V77ZM13 48C13 55.4577 12.9936 61.3527 13.6125 65.9561C14.2431 70.6458 15.5715 74.4416 18.565 77.435L22.8076 73.1924C21.1148 71.4995 20.1001 69.181 19.559 65.1566C19.0064 61.0459 19 55.6273 19 48H13ZM77 48C77 55.6273 76.9936 61.0459 76.441 65.1566C75.8999 69.181 74.8852 71.4995 73.1924 73.1924L77.435 77.435C80.4285 74.4416 81.757 70.6458 82.3875 65.9561C83.0064 61.3527 83 55.4577 83 48H77ZM48 83C55.4577 83 61.3527 83.0064 65.9561 82.3875C70.6458 81.757 74.4416 80.4285 77.435 77.435L73.1924 73.1924C71.4995 74.8852 69.181 75.8999 65.1566 76.441C61.0459 76.9936 55.6273 77 48 77V83ZM48 19C55.6273 19 61.0459 19.0064 65.1566 19.559C69.181 20.1001 71.4995 21.1148 73.1924 22.8076L77.435 18.565C74.4416 15.5715 70.6458 14.2431 65.9561 13.6125C61.3527 12.9936 55.4577 13 48 13V19ZM83 48C83 40.5423 83.0064 34.6473 82.3875 30.0439C81.757 25.3542 80.4285 21.5584 77.435 18.565L73.1924 22.8076C74.8852 24.5005 75.8999 26.819 76.441 30.8434C76.9936 34.9541 77 40.3727 77 48H83ZM48 13C40.5423 13 34.6473 12.9936 30.0439 13.6125C25.3542 14.2431 21.5584 15.5715 18.565 18.565L22.8076 22.8076C24.5005 21.1148 26.819 20.1001 30.8434 19.559C34.9541 19.0064 40.3727 19 48 19V13ZM19 48C19 40.3727 19.0064 34.9541 19.559 30.8434C20.1001 26.819 21.1148 24.5005 22.8076 22.8076L18.565 18.565C15.5715 21.5584 14.2431 25.3542 13.6125 30.0439C12.9936 34.6473 13 40.5423 13 48H19ZM35 8V16H41V8H35ZM55 8V16H61V8H55ZM35 80V88H41V80H35ZM55 80V88H61V80H55ZM49.8787 33.8787L33.8787 49.8787L38.1213 54.1213L54.1213 38.1213L49.8787 33.8787ZM57.8787 49.8787L49.8787 57.8787L54.1213 62.1213L62.1213 54.1213L57.8787 49.8787ZM88 55H80V61H88V55ZM16 35H8V41H16V35ZM16 55H8V61H16V55ZM88 35H80V41H88V35Z" fill="url(#paint0_linear_1883_14071)"/>
<defs>
<linearGradient id="paint0_linear_1883_14071" x1="-31.51" y1="47.755" x2="48" y2="127.755" gradientUnits="userSpaceOnUse">
<stop stop-color="#9168CD"/>
<stop offset="0.424673" stop-color="#5556FF"/>
<stop offset="0.73499" stop-color="#45ADCD"/>
<stop offset="1" stop-color="#3EC4CD"/>
</linearGradient>
</defs>
</svg>
