<svg width="24" height="24" viewBox="0 0 24 24" fill="none" xmlns="http://www.w3.org/2000/svg">
<path d="M24 12.0133C23.9646 18.8492 18.3453 24.1796 11.6669 23.9949C5.26228 23.8213 -0.0850384 18.5703 0.00102459 11.8362C0.0888439 5.10477 5.65337 -0.151105 12.2837 0.00331719C18.648 0.152505 23.9757 5.32376 24 12.0133ZM5.35625 11.7225C5.85389 12.2579 5.9742 12.8337 5.69318 13.47C5.6241 13.6274 5.69845 13.6844 5.79564 13.7664C6.73593 14.56 7.77965 15.2241 8.89859 15.7407C10.9986 16.717 13.2146 17.093 15.5231 16.9685C15.9162 16.9467 16.2488 16.9333 16.3427 16.4032C16.3905 16.1377 16.7107 15.9178 16.9159 15.6843C16.9674 15.6261 17.05 15.5936 17.1226 15.5462C16.3542 12.2696 14.6762 9.58127 12.0437 7.48683C11.2621 8.01815 10.6272 7.98558 9.8807 7.35771C8.05685 8.4506 6.50914 9.9439 5.35625 11.7231V11.7225ZM16.9393 18.283C16.7397 18.0434 16.569 17.827 16.3831 17.6232C16.3559 17.5967 16.3235 17.5761 16.288 17.5625C16.2525 17.5489 16.2145 17.5426 16.1765 17.5441C14.8177 17.6974 13.4437 17.6528 12.0978 17.4117C9.5745 16.9653 7.3436 15.8995 5.3943 14.2529C5.23359 14.118 5.12294 14.1023 4.93179 14.1799C4.73366 14.2594 4.52049 14.295 4.3071 14.2843C4.08258 14.2704 4.00559 14.3535 3.93533 14.546C3.5258 15.683 3.25877 16.8657 3.14027 18.0675C3.13128 18.1939 3.16508 18.3196 3.23629 18.4246C3.9028 19.3489 4.71758 20.1581 5.6481 20.8201C7.94682 22.4453 10.4998 23.1032 13.3071 22.7938C13.8879 22.7307 14.3481 22.5783 14.7307 22.0796C15.6419 20.8896 16.4168 19.6341 16.9393 18.283ZM19.0127 16.2435C20.1503 15.853 21.2035 15.3027 22.2061 14.6507C22.5159 14.4495 22.6821 14.2145 22.7055 13.8527C22.7243 13.5672 22.7849 13.2836 22.8112 12.9978C23.036 10.598 22.5018 8.37032 21.2542 6.30904C21.2066 6.22038 21.1313 6.14953 21.0396 6.10721C19.8261 5.69899 18.5566 5.47841 17.2757 5.45317C17.2171 5.45317 17.1258 5.468 17.1027 5.50901C16.9768 5.72363 16.8623 5.94523 16.7584 6.17119C16.7385 6.21481 16.7719 6.29304 16.8 6.34568C18.2739 9.10376 18.797 12.0381 18.4027 15.1283C18.362 15.4464 18.3515 15.6904 18.6834 15.8617C18.8137 15.9271 18.8901 16.0952 19.0127 16.2435ZM4.35306 4.6354C4.18767 4.69124 3.9687 4.69967 3.86537 4.81251C3.00953 5.74899 2.33952 6.8377 1.8906 8.02135C1.84885 8.12989 1.84514 8.24925 1.88007 8.36015C2.30743 9.44137 2.88035 10.4601 3.58318 11.3884C3.6265 11.4442 3.76321 11.4596 3.85307 11.453C4.06472 11.4381 4.28222 11.3509 4.48391 11.3811C4.72805 11.4175 4.85129 11.3488 4.98155 11.1523C6.09063 9.4895 7.54002 8.07764 9.23523 7.00873C9.46766 6.86158 9.68808 6.74933 9.55723 6.41896C9.53953 6.3556 9.54397 6.28814 9.56982 6.22761C9.64769 6.02985 9.5505 5.94843 9.38218 5.87194C7.78767 5.15072 6.11911 4.75987 4.35306 4.6354ZM14.5337 4.1797C13.5406 3.0227 12.3658 2.03271 11.0548 1.248C10.9738 1.20648 10.8818 1.19055 10.7914 1.20234C8.94297 1.39733 7.17895 2.0729 5.67708 3.16097C5.31351 3.42271 4.97453 3.71527 4.62325 3.99387C6.45627 4.14627 8.24649 4.62646 9.90763 5.41129C10.6509 4.73253 11.448 4.74707 12.1456 5.4174C12.1849 5.44788 12.2302 5.46975 12.2787 5.48158C12.3271 5.49341 12.3775 5.49493 12.4266 5.48603C12.8613 5.38163 13.2872 5.23709 13.7243 5.14549C14.0152 5.08413 14.2433 5.02451 14.2831 4.66681C14.3033 4.50483 14.4388 4.35651 14.5331 4.17795L14.5337 4.1797ZM17.7358 15.2388C17.7599 15.0905 17.7853 14.9733 17.7988 14.8543C17.9472 13.5325 17.9109 12.1966 17.6908 10.8847C17.4438 9.42828 16.9612 8.02117 16.2617 6.71792C16.2345 6.68198 16.1991 6.65308 16.1583 6.63368C16.1175 6.61429 16.0726 6.60498 16.0275 6.60654C15.245 6.7342 14.7354 6.50155 14.3296 5.83297C14.2986 5.79687 14.2594 5.76865 14.2152 5.75069C14.171 5.73273 14.1231 5.72554 14.0755 5.72973C13.7105 5.80273 13.3522 5.90888 12.9886 5.98972C12.6792 6.05894 12.4146 6.14821 12.491 6.55332C12.498 6.62813 12.4825 6.70333 12.4465 6.76939C12.3756 6.91945 12.4465 6.99274 12.5589 7.08696C14.5546 8.67441 16.0927 10.7574 17.0178 13.1251C17.2853 13.8027 17.4876 14.5062 17.7335 15.2391L17.7358 15.2388ZM12.1687 1.14854C12.193 1.191 12.198 1.21165 12.2114 1.22066C13.2314 1.92944 14.16 2.75991 14.9763 3.69345C15.0275 3.75162 15.1706 3.7711 15.2573 3.75162C16.0201 3.58411 16.6797 3.89702 17.0017 4.61214C17.0728 4.76947 17.1627 4.79797 17.3178 4.80902C17.8764 4.84915 18.4352 4.89219 18.9896 4.96751C19.484 5.0344 19.972 5.14549 20.472 5.23884C18.6161 2.74598 15.2816 1.11975 12.1687 1.14854ZM2.53783 17.3649C2.57764 17.3091 2.59404 17.2969 2.59638 17.2806C2.75908 16.1983 3.03516 15.1359 3.42012 14.1107C3.42706 14.0783 3.4265 14.0447 3.41849 14.0125C3.41048 13.9803 3.39522 13.9504 3.37387 13.9249C2.79544 13.311 2.76441 12.6479 3.14935 11.9904C2.58818 11.0528 2.04253 10.1449 1.48078 9.21136C0.789642 12.0613 1.11545 14.7642 2.53783 17.3649ZM22.2899 15.3999C21.3376 15.9729 20.3326 16.4545 19.2885 16.8382C19.2518 16.8597 19.2204 16.8892 19.1969 16.9244C19.1734 16.9597 19.1582 16.9999 19.1527 17.0418C19.0965 17.6359 18.7879 18.0463 18.2537 18.2856C18.1179 18.3464 18.0795 18.413 18.0763 18.5526C18.0655 19.0548 18.047 19.5571 18.0201 20.0564C17.9987 20.3958 17.951 20.7334 17.9077 21.1324C20.0429 19.6908 21.5036 17.8064 22.2899 15.3999ZM15.4493 22.3407C15.9382 22.1229 16.4347 21.8914 16.9408 21.6812C17.1319 21.6018 17.2078 21.4735 17.2335 21.2865C17.2853 20.9003 17.355 20.5159 17.3925 20.1279C17.4326 19.7208 17.4443 19.3137 17.4662 18.9432L15.4493 22.3407Z" fill="#141B34"/>
</svg>
