<svg width="111" height="110" viewBox="0 0 111 110" fill="none" xmlns="http://www.w3.org/2000/svg">
<path d="M19.1198 17.9677L20.6324 20.5585H20.6324L19.1198 17.9677ZM24.7476 14.6821L23.235 12.0913V12.0913L24.7476 14.6821ZM65.6219 21.4876L66.9645 18.8047L65.6219 21.4876ZM50.352 13.8462L51.6946 11.1634V11.1634L50.352 13.8462ZM98.8177 26.1496L96.6667 28.2407L96.6667 28.2407L98.8177 26.1496ZM26.8854 82.2415L28.3979 84.8323H28.3979L26.8854 82.2415ZM15.5284 87.0165L14.9981 89.9693H14.9981L15.5284 87.0165ZM11.4046 84.5466L9.06303 86.4219L9.06304 86.4219L11.4046 84.5466ZM39.6499 78.0964L40.0584 75.1243L39.6499 78.0964ZM98.5026 45.8327C98.5026 47.4895 99.8458 48.8327 101.503 48.8327C103.159 48.8327 104.503 47.4895 104.503 45.8327H98.5026ZM49.7434 85.7038C51.2251 86.4453 53.0273 85.8452 53.7688 84.3635C54.5102 82.8819 53.9102 81.0796 52.4285 80.3382L49.7434 85.7038ZM34.3359 77.916C34.3359 79.5729 35.6791 80.916 37.3359 80.916C38.9928 80.916 40.3359 79.5729 40.3359 77.916H34.3359ZM72.4193 22.916C72.4193 21.2592 71.0761 19.916 69.4193 19.916C67.7624 19.916 66.4193 21.2592 66.4193 22.916H72.4193ZM66.4193 43.541C66.4193 45.1979 67.7624 46.541 69.4193 46.541C71.0761 46.541 72.4193 45.1979 72.4193 43.541H66.4193ZM84.5825 99.382L86.6329 101.572L86.6331 101.572L84.5825 99.382ZM77.1737 99.382L75.1165 101.566L75.1232 101.572L77.1737 99.382ZM61.8251 67.3277L64.5834 68.5076L61.8251 67.3277ZM80.8781 54.9993V57.9993V54.9993ZM99.931 67.3277L102.689 66.1479L99.931 67.3277ZM80.8776 72.6244C79.2208 72.6244 77.8776 73.9675 77.8776 75.6244C77.8776 77.2812 79.2208 78.6244 80.8776 78.6244V72.6244ZM80.9188 78.6244C82.5756 78.6244 83.9188 77.2812 83.9188 75.6244C83.9188 73.9675 82.5756 72.6244 80.9188 72.6244V78.6244ZM20.6324 20.5585L26.2601 17.2729L23.235 12.0913L17.6073 15.3769L20.6324 20.5585ZM12.8359 72.0298V34.3685H6.83594V72.0298H12.8359ZM66.9645 18.8047L51.6946 11.1634L49.0095 16.5291L64.2794 24.1704L66.9645 18.8047ZM83.1693 20.3878H73.6421V26.3878H83.1693V20.3878ZM83.1693 26.3878C87.5777 26.3878 90.5736 26.3946 92.8166 26.7048C94.9644 27.0018 95.9709 27.525 96.6667 28.2407L100.969 24.0584C98.9798 22.0124 96.4832 21.1547 93.6386 20.7613C90.8892 20.3811 87.4033 20.3878 83.1693 20.3878V26.3878ZM104.503 42.2462C104.503 37.8837 104.509 34.3184 104.142 31.511C103.765 28.6258 102.946 26.0925 100.969 24.0584L96.6667 28.2407C97.374 28.9683 97.8982 30.0384 98.1923 32.2886C98.4966 34.6166 98.5026 37.7187 98.5026 42.2462H104.503ZM25.3728 79.6507C22.3398 81.4214 20.2643 82.6288 18.6457 83.3643C17.0136 84.1058 16.3562 84.1172 16.0588 84.0638L14.9981 89.9693C17.1311 90.3523 19.1766 89.7133 21.1277 88.8268C23.0922 87.9342 25.4799 86.5359 28.3979 84.8323L25.3728 79.6507ZM6.83594 72.0298C6.83594 75.4857 6.8325 78.2999 7.04628 80.4852C7.2584 82.6536 7.72102 84.7462 9.06303 86.4219L13.7463 82.6712C13.5196 82.3882 13.1978 81.7417 13.0178 79.9011C12.8394 78.0773 12.8359 75.6126 12.8359 72.0298H6.83594ZM16.0588 84.0638C15.1685 83.9038 14.3446 83.4184 13.7462 82.6712L9.06304 86.4219C10.5523 88.2815 12.654 89.5482 14.9981 89.9693L16.0588 84.0638ZM26.2601 17.2729C29.3908 15.4451 31.5639 14.18 33.3734 13.3389C35.1271 12.5237 36.3368 12.2075 37.4906 12.1698L37.2948 6.17302C35.0525 6.24622 33.0228 6.88537 30.8444 7.8979C28.7219 8.88446 26.2704 10.3192 23.235 12.0913L26.2601 17.2729ZM51.6946 11.1634C48.5562 9.59294 46.0206 8.32066 43.8409 7.47427C41.6034 6.60541 39.5374 6.09981 37.2948 6.17302L37.4906 12.1698C38.6439 12.1322 39.8698 12.3687 41.6691 13.0674C43.5262 13.7885 45.7722 14.9091 49.0095 16.5291L51.6946 11.1634ZM17.6073 15.3769C15.3938 16.6692 13.5427 17.7459 12.1052 18.7906C10.6113 19.8762 9.37573 21.0561 8.47023 22.6557L13.6917 25.6114C14.0313 25.0116 14.5505 24.4306 15.6325 23.6442C16.7709 22.8169 18.3167 21.9105 20.6324 20.5585L17.6073 15.3769ZM12.8359 34.3685C12.8359 31.6329 12.8392 29.7921 12.9777 28.3549C13.1103 26.9802 13.3497 26.2157 13.6917 25.6114L8.47023 22.6557C7.56726 24.2509 7.18414 25.9253 7.00541 27.7791C6.83272 29.5702 6.83594 31.7472 6.83594 34.3685H12.8359ZM64.2794 24.1704C66.0506 25.0568 67.3582 25.7292 68.7815 26.0664C70.2068 26.4041 71.6726 26.3878 73.6421 26.3878V20.3878C71.407 20.3878 70.7531 20.3674 70.1648 20.2281C69.5744 20.0882 68.9742 19.8105 66.9645 18.8047L64.2794 24.1704ZM28.3979 84.8323C32.6909 82.3259 35.6288 80.5719 39.2414 81.0684L40.0584 75.1243C34.0025 74.2919 29.1619 77.4386 25.3728 79.6507L28.3979 84.8323ZM104.503 45.8327V42.2462H98.5026V45.8327H104.503ZM52.4285 80.3382C51.5785 79.9128 50.7137 79.4406 49.7741 78.9298C48.8525 78.4287 47.8658 77.8943 46.8538 77.3963C44.8421 76.4062 42.5517 75.467 40.0584 75.1243L39.2414 81.0684C40.799 81.2825 42.4162 81.8996 44.2045 82.7797C45.0926 83.2167 45.9791 83.6959 46.9082 84.201C47.8194 84.6964 48.7829 85.2232 49.7434 85.7038L52.4285 80.3382ZM34.3359 9.16602V77.916H40.3359V9.16602H34.3359ZM66.4193 22.916V43.541H72.4193V22.916H66.4193ZM82.532 97.1921C82.1035 97.5933 81.5119 97.8327 80.8781 97.8327V103.833C83.0089 103.833 85.0738 103.032 86.6329 101.572L82.532 97.1921ZM80.8781 97.8327C80.2442 97.8327 79.6526 97.5933 79.2242 97.1921L75.1232 101.572C76.6823 103.032 78.7472 103.833 80.8781 103.833V97.8327ZM97.1727 68.5076C99.6465 74.2908 98.4413 79.1012 95.4016 83.7057C92.2132 88.5354 87.27 92.755 82.5318 97.1923L86.6331 101.572C91.0178 97.4654 96.7187 92.6012 100.409 87.0113C104.248 81.1962 106.155 74.2513 102.689 66.1479L97.1727 68.5076ZM79.2308 97.1983C74.4955 92.7374 69.5532 88.5273 66.3584 83.6986C63.3161 79.1004 62.1064 74.2984 64.5834 68.5076L59.0669 66.1479C55.5965 74.2612 57.5108 81.1998 61.3545 87.0094C65.0458 92.5885 70.7515 97.4535 75.1165 101.566L79.2308 97.1983ZM64.5834 68.5076C67.301 62.1543 73.8938 57.9993 80.8781 57.9993V51.9993C71.6263 51.9993 62.7807 57.4656 59.0669 66.1479L64.5834 68.5076ZM80.8781 57.9993C87.8624 57.9993 94.4551 62.1543 97.1727 68.5076L102.689 66.1479C98.9754 57.4656 90.1298 51.9993 80.8781 51.9993V57.9993ZM80.8776 78.6244H80.9188V72.6244H80.8776V78.6244Z" fill="url(#paint0_linear_2229_23470)"/>
<defs>
<linearGradient id="paint0_linear_2229_23470" x1="-35.436" y1="54.7186" x2="55.6693" y2="146.385" gradientUnits="userSpaceOnUse">
<stop stop-color="#9168CD"/>
<stop offset="0.424673" stop-color="#5556FF"/>
<stop offset="0.73499" stop-color="#45ADCD"/>
<stop offset="1" stop-color="#3EC4CD"/>
</linearGradient>
</defs>
</svg>
