<svg width="110" height="110" viewBox="0 0 110 110" fill="none" xmlns="http://www.w3.org/2000/svg">
<path d="M88.668 66.4585C88.668 68.1154 90.0111 69.4585 91.668 69.4585C93.3248 69.4585 94.668 68.1154 94.668 66.4585H88.668ZM15.3346 66.4585C15.3346 68.1154 16.6778 69.4585 18.3346 69.4585C19.9915 69.4585 21.3346 68.1154 21.3346 66.4585H15.3346ZM18.4242 66.4585V63.4585C17.2998 63.4585 16.2699 64.0872 15.756 65.0871L18.4242 66.4585ZM16.0321 71.1126L18.6694 72.5424C18.6799 72.523 18.6902 72.5036 18.7003 72.484L16.0321 71.1126ZM32.7933 98.5418L32.7933 101.542H32.7933V98.5418ZM77.2093 98.5418L77.2093 95.5418H77.2093V98.5418ZM93.9701 71.1126L96.6075 69.6828L96.6075 69.6828L93.9701 71.1126ZM91.447 66.4585L94.0844 65.0287C93.5598 64.0612 92.5476 63.4585 91.447 63.4585V66.4585ZM99.7169 93.9762L97.0889 92.5293L97.0889 92.5293L99.7169 93.9762ZM10.2857 93.9762L12.9137 92.5293L12.9137 92.5293L10.2857 93.9762ZM73.0016 29.8111C71.7466 28.7294 69.8523 28.8699 68.7706 30.1249C67.6889 31.3799 67.8293 33.2742 69.0843 34.3559L73.0016 29.8111ZM75.2592 35.7176L73.3006 37.99L73.3006 37.99L75.2592 35.7176ZM75.2592 42.1994L73.3006 39.927L73.3006 39.927L75.2592 42.1994ZM69.0843 43.5611C67.8293 44.6428 67.6889 46.5371 68.7706 47.7921C69.8523 49.0471 71.7466 49.1876 73.0016 48.1059L69.0843 43.5611ZM40.9183 34.3559C42.1733 33.2742 42.3137 31.3799 41.232 30.1249C40.1503 28.8699 38.256 28.7294 37.001 29.8111L40.9183 34.3559ZM34.7434 35.7176L36.702 37.99L36.702 37.99L34.7434 35.7176ZM34.7434 42.1994L36.702 39.927L36.702 39.927L34.7434 42.1994ZM37.001 48.1059C38.256 49.1876 40.1503 49.0471 41.232 47.7921C42.3137 46.5371 42.1733 44.6428 40.9183 43.5611L37.001 48.1059ZM62.3701 28.6143C62.9854 27.076 62.2372 25.3301 60.6988 24.7147C59.1605 24.0994 57.4145 24.8476 56.7992 26.386L62.3701 28.6143ZM47.6325 49.3027C47.0172 50.841 47.7654 52.5869 49.3038 53.2023C50.8421 53.8176 52.5881 53.0694 53.2034 51.531L47.6325 49.3027ZM94.668 66.4585V29.7918H88.668V66.4585H94.668ZM73.3346 8.4585H36.668V14.4585H73.3346V8.4585ZM15.3346 29.7918V66.4585H21.3346V29.7918H15.3346ZM36.668 8.4585C32.4316 8.4585 28.9525 8.45212 26.2099 8.82085C23.381 9.20119 20.8909 10.0293 18.8982 12.022L23.1408 16.2647C23.8329 15.5726 24.8458 15.0582 27.0094 14.7674C29.2592 14.4649 32.262 14.4585 36.668 14.4585V8.4585ZM21.3346 29.7918C21.3346 25.3858 21.341 22.3831 21.6435 20.1332C21.9344 17.9697 22.4487 16.9568 23.1408 16.2647L18.8982 12.022C16.9054 14.0148 16.0773 16.5049 15.697 19.3338C15.3283 22.0763 15.3346 25.5554 15.3346 29.7918H21.3346ZM94.668 29.7918C94.668 25.5554 94.6743 22.0763 94.3056 19.3338C93.9253 16.5049 93.0972 14.0148 91.1044 12.022L86.8618 16.2647C87.5539 16.9568 88.0682 17.9697 88.3591 20.1332C88.6616 22.3831 88.668 25.3858 88.668 29.7918H94.668ZM73.3346 14.4585C77.7407 14.4585 80.7434 14.4649 82.9932 14.7674C85.1568 15.0582 86.1697 15.5726 86.8618 16.2647L91.1044 12.022C89.1117 10.0293 86.6216 9.20119 83.7927 8.82085C81.0501 8.45212 77.571 8.4585 73.3346 8.4585V14.4585ZM15.756 65.0871L13.3639 69.7412L18.7003 72.484L21.0924 67.8299L15.756 65.0871ZM32.7933 101.542H77.2093V95.5418H32.7933V101.542ZM96.6075 69.6828L94.0844 65.0287L88.8096 67.8883L91.3328 72.5424L96.6075 69.6828ZM18.4242 69.4585H91.447V63.4585H18.4242V69.4585ZM77.2093 101.542C83.7674 101.542 89.0491 101.551 92.9829 100.935C96.9801 100.309 100.422 98.9157 102.345 95.4231L97.0889 92.5293C96.4982 93.6023 95.3509 94.4914 92.0551 95.0072C88.6958 95.533 83.9805 95.5418 77.2093 95.5418L77.2093 101.542ZM91.3328 72.5424C94.6204 78.6068 96.5321 82.9086 97.3594 86.1488C98.162 89.2928 97.8656 91.1185 97.0889 92.5293L102.345 95.4231C104.082 92.2681 104.219 88.7613 103.173 84.6646C102.152 80.6641 99.933 75.8171 96.6075 69.6828L91.3328 72.5424ZM13.3947 69.6828C10.0691 75.8171 7.85071 80.6642 6.82951 84.6647C5.78375 88.7615 5.92073 92.2682 7.65769 95.423L12.9137 92.5293C12.137 91.1185 11.8405 89.2927 12.6431 86.1487C13.4702 82.9085 15.3818 78.6067 18.6694 72.5424L13.3947 69.6828ZM32.7933 95.5418C26.0221 95.5418 21.3069 95.533 17.9475 95.0072C14.6517 94.4914 13.5045 93.6023 12.9137 92.5293L7.65769 95.423C9.58062 98.9157 13.0225 100.309 17.0198 100.935C20.9535 101.551 26.2352 101.542 32.7933 101.542L32.7933 95.5418ZM69.0843 34.3559L73.3006 37.99L77.2178 33.4452L73.0016 29.8111L69.0843 34.3559ZM73.3006 39.927L69.0843 43.5611L73.0016 48.1059L77.2178 44.4718L73.3006 39.927ZM73.3006 37.99C73.7522 38.3792 74.1087 38.6868 74.4075 38.9576C74.7083 39.2303 74.8921 39.4138 75.0069 39.5434C75.2438 39.811 74.918 39.5499 74.918 38.9585H80.918C80.918 37.4179 80.149 36.3002 79.4996 35.5665C78.8898 34.8777 78.0373 34.1515 77.2178 33.4452L73.3006 37.99ZM77.2178 44.4718C78.0373 43.7655 78.8898 43.0393 79.4996 42.3504C80.149 41.6168 80.918 40.4991 80.918 38.9585H74.918C74.918 38.3671 75.2438 38.106 75.0069 38.3735C74.8921 38.5032 74.7083 38.6867 74.4075 38.9593C74.1087 39.2302 73.7522 39.5378 73.3006 39.927L77.2178 44.4718ZM37.001 29.8111L32.7848 33.4452L36.702 37.99L40.9183 34.3559L37.001 29.8111ZM32.7848 44.4718L37.001 48.1059L40.9183 43.5611L36.702 39.927L32.7848 44.4718ZM32.7848 33.4452C31.9653 34.1515 31.1128 34.8777 30.503 35.5665C29.8536 36.3002 29.0846 37.4179 29.0846 38.9585H35.0846C35.0846 39.5499 34.7588 39.811 34.9957 39.5434C35.1105 39.4138 35.2943 39.2303 35.5951 38.9576C35.8939 38.6868 36.2504 38.3792 36.702 37.99L32.7848 33.4452ZM36.702 39.927C36.2504 39.5378 35.8939 39.2302 35.5951 38.9593C35.2943 38.6867 35.1105 38.5032 34.9957 38.3735C34.7588 38.106 35.0846 38.3671 35.0846 38.9585H29.0846C29.0846 40.4991 29.8536 41.6168 30.503 42.3504C31.1128 43.0393 31.9653 43.7655 32.7848 44.4718L36.702 39.927ZM56.7992 26.386L47.6325 49.3027L53.2034 51.531L62.3701 28.6143L56.7992 26.386Z" fill="url(#paint0_linear_2496_15993)"/>
<defs>
<linearGradient id="paint0_linear_2496_15993" x1="-36.1039" y1="54.7335" x2="50.3052" y2="146.251" gradientUnits="userSpaceOnUse">
<stop stop-color="#9168CD"/>
<stop offset="0.424673" stop-color="#5556FF"/>
<stop offset="0.73499" stop-color="#45ADCD"/>
<stop offset="1" stop-color="#3EC4CD"/>
</linearGradient>
</defs>
</svg>
