<svg width="110" height="110" viewBox="0 0 110 110" fill="none" xmlns="http://www.w3.org/2000/svg">
<path d="M75.0933 60.2831L73.8329 63.0055L73.8329 63.0055L75.0933 60.2831ZM36.6731 52.7176L36.5366 55.7145L36.6731 52.7176ZM75.1074 65.4059C74.526 66.9574 75.3125 68.6864 76.864 69.2678C78.4156 69.8491 80.1446 69.0626 80.7259 67.5111L75.1074 65.4059ZM95.9756 18.2621L98.7849 19.3148C98.7881 19.3063 98.7912 19.2978 98.7943 19.2892L95.9756 18.2621ZM74.5686 19.6402L77.3864 20.6699L77.3864 20.6699L74.5686 19.6402ZM65.75 57.2918C65.75 58.9487 67.0931 60.2918 68.75 60.2918C70.4069 60.2918 71.75 58.9487 71.75 57.2918H65.75ZM92.3693 12.0494L93.1083 9.14184L93.1083 9.14184L92.3693 12.0494ZM38.25 52.7085C38.25 54.3654 39.5931 55.7085 41.25 55.7085C42.9069 55.7085 44.25 54.3654 44.25 52.7085H38.25ZM42.9169 38.7788L40.3959 37.1525L40.3959 37.1525L42.9169 38.7788ZM47.3018 35.0156L46.0892 32.2715L46.0892 32.2715L47.3018 35.0156ZM67.6061 41.5515C69.1378 42.1832 70.8916 41.4537 71.5233 39.922C72.1551 38.3904 71.4256 36.6365 69.8939 36.0048L67.6061 41.5515ZM30.5 61.8752C30.5 60.2183 29.1569 58.8752 27.5 58.8752C25.8431 58.8752 24.5 60.2183 24.5 61.8752H30.5ZM26.8022 83.7164L24.0306 82.5684L24.0306 82.5684L26.8022 83.7164ZM13.75 86.3752C12.0931 86.3752 10.75 87.7183 10.75 89.3752C10.75 91.032 12.0931 92.3752 13.75 92.3752V86.3752ZM21.8413 88.6774L20.6932 85.9058L20.6932 85.9058L21.8413 88.6774ZM58 71.0418C58 69.385 56.6569 68.0418 55 68.0418C53.3431 68.0418 52 69.385 52 71.0418H58ZM52 98.5418C52 100.199 53.3431 101.542 55 101.542C56.6569 101.542 58 100.199 58 98.5418H52ZM45.8333 95.5418C44.1765 95.5418 42.8333 96.885 42.8333 98.5418C42.8333 100.199 44.1765 101.542 45.8333 101.542V95.5418ZM64.1667 101.542C65.8235 101.542 67.1667 100.199 67.1667 98.5418C67.1667 96.885 65.8235 95.5418 64.1667 95.5418V101.542ZM36.6667 74.0418H71.9456V68.0418H36.6667V74.0418ZM76.3536 57.5607C70.9783 55.072 58.6528 50.7161 36.8097 49.7207L36.5366 55.7145C57.6738 56.6777 69.2264 60.8728 73.8329 63.0055L76.3536 57.5607ZM36.8097 49.7207C29.9248 49.407 24.5 55.0725 24.5 61.778H30.5C30.5 58.2509 33.3065 55.5673 36.5366 55.7145L36.8097 49.7207ZM80.9167 65.0075C80.9167 62.0268 79.4043 58.9731 76.3536 57.5607L73.8329 63.0055C74.4123 63.2737 74.9167 63.9529 74.9167 65.0075H80.9167ZM71.9456 74.0418C76.9299 74.0418 80.9167 69.9671 80.9167 65.0075H74.9167C74.9167 66.7132 73.5567 68.0418 71.9456 68.0418V74.0418ZM36.6667 68.0418C33.2907 68.0418 30.5 65.2673 30.5 61.778H24.5C24.5 68.5212 29.9175 74.0418 36.6667 74.0418V68.0418ZM80.7259 67.5111L98.7849 19.3148L93.1664 17.2095L75.1074 65.4059L80.7259 67.5111ZM71.7508 18.6106C68.7631 26.7865 65.75 39.2098 65.75 57.2918H71.75C71.75 39.9075 74.6414 28.1815 77.3864 20.6699L71.7508 18.6106ZM93.1083 9.14184C84.6938 7.00311 74.9268 9.91957 71.7508 18.6106L77.3864 20.6699C79.1475 15.8505 85.0657 13.2884 91.6303 14.9569L93.1083 9.14184ZM98.7943 19.2892C100.442 14.7668 97.517 10.2624 93.1083 9.14184L91.6303 14.9569C93.0637 15.3213 93.4296 16.4867 93.1569 17.2351L98.7943 19.2892ZM44.25 52.7085C44.25 48.868 44.2531 46.1978 44.4452 44.1572C44.6344 42.1463 44.9828 41.1104 45.4378 40.4051L40.3959 37.1525C39.1841 39.0311 38.699 41.1781 38.4716 43.5951C38.2469 45.9824 38.25 48.9851 38.25 52.7085H44.25ZM45.4378 40.4051C46.2002 39.2234 47.2726 38.3083 48.5144 37.7596L46.0892 32.2715C43.7584 33.3016 41.7832 35.002 40.3959 37.1525L45.4378 40.4051ZM48.5144 37.7596C49.2687 37.4262 50.7075 37.263 52.8644 37.4791C54.9207 37.6852 57.2363 38.1916 59.4623 38.8034C61.6741 39.4114 63.7195 40.1015 65.2167 40.6421C65.9631 40.9116 66.5681 41.1421 66.9833 41.3039C67.1907 41.3847 67.3504 41.4483 67.4563 41.4908C67.5093 41.5121 67.5487 41.5281 67.5739 41.5383C67.5866 41.5435 67.5956 41.5472 67.601 41.5494C67.6037 41.5505 67.6055 41.5512 67.6063 41.5516C67.6067 41.5517 67.6069 41.5518 67.6069 41.5518C67.6069 41.5518 67.6067 41.5517 67.6067 41.5517C67.6064 41.5516 67.6061 41.5515 68.75 38.7781C69.8939 36.0048 69.8935 36.0046 69.893 36.0044C69.8927 36.0043 69.8922 36.0041 69.8917 36.0039C69.8907 36.0035 69.8895 36.003 69.888 36.0024C69.8851 36.0012 69.8813 35.9996 69.8765 35.9976C69.8669 35.9937 69.8537 35.9883 69.8368 35.9814C69.803 35.9676 69.7547 35.9481 69.6927 35.9232C69.5687 35.8733 69.3896 35.8021 69.1617 35.7133C68.7061 35.5358 68.0538 35.2874 67.2544 34.9987C65.6599 34.423 63.459 33.6794 61.0525 33.018C58.6603 32.3605 55.9857 31.7619 53.4627 31.509C51.0402 31.2662 48.3103 31.29 46.0892 32.2715L48.5144 37.7596ZM24.5 61.8752V75.6252H30.5V61.8752H24.5ZM24.5 75.6252C24.5 77.8018 24.4984 79.284 24.4197 80.4365C24.3429 81.5622 24.2028 82.1526 24.0306 82.5684L29.5739 84.8645C30.0994 83.5957 30.3082 82.2761 30.4058 80.845C30.5016 79.4408 30.5 77.7197 30.5 75.6252H24.5ZM13.75 92.3752C15.8445 92.3752 17.5657 92.3768 18.9698 92.281C20.4009 92.1833 21.7206 91.9746 22.9893 91.449L20.6932 85.9058C20.2774 86.078 19.687 86.2181 18.5614 86.2949C17.4088 86.3735 15.9266 86.3752 13.75 86.3752V92.3752ZM24.0306 82.5684C23.4047 84.0794 22.2042 85.2799 20.6932 85.9058L22.9893 91.449C25.9705 90.2142 28.339 87.8457 29.5739 84.8645L24.0306 82.5684ZM52 71.0418V98.5418H58V71.0418H52ZM45.8333 101.542H64.1667V95.5418H45.8333V101.542Z" fill="url(#paint0_linear_2496_15987)"/>
<defs>
<linearGradient id="paint0_linear_2496_15987" x1="-26.9947" y1="54.7335" x2="59.4576" y2="137.14" gradientUnits="userSpaceOnUse">
<stop stop-color="#9168CD"/>
<stop offset="0.424673" stop-color="#5556FF"/>
<stop offset="0.73499" stop-color="#45ADCD"/>
<stop offset="1" stop-color="#3EC4CD"/>
</linearGradient>
</defs>
</svg>
