<svg width="111" height="110" viewBox="0 0 111 110" fill="none" xmlns="http://www.w3.org/2000/svg">
<path d="M32.4141 41.2502C32.4141 43.8123 36.1688 45.4303 43.6784 48.6662L46.7255 49.9792C50.9482 51.7987 53.0595 52.7085 55.3307 52.7085M32.4141 41.2502C32.4141 38.688 36.1688 37.0701 43.6784 33.8342L46.7255 32.5212C50.9482 30.7016 53.0595 29.7918 55.3307 29.7918C57.6019 29.7918 59.7133 30.7016 63.9359 32.5212L66.983 33.8342C74.4926 37.0701 78.2474 38.688 78.2474 41.2502M32.4141 41.2502V68.7502C32.4141 71.3123 36.1688 72.9303 43.6784 76.1662L46.7255 77.4792C50.9482 79.2987 53.0595 80.2085 55.3307 80.2085M55.3307 52.7085C57.6019 52.7085 59.7132 51.7987 63.9359 49.9792L66.983 48.6662C74.4926 45.4303 78.2474 43.8123 78.2474 41.2502M55.3307 52.7085V80.2085M78.2474 41.2502V68.7502C78.2474 71.3123 74.4926 72.9303 66.983 76.1662L63.9359 77.4792C59.7132 79.2987 57.6019 80.2085 55.3307 80.2085M42.2419 11.4585C30.0639 11.7369 22.9508 12.9002 18.0908 17.7602C13.2308 22.6203 12.0675 29.7333 11.7891 41.9114M68.4195 11.4585C80.5975 11.7369 87.7106 12.9002 92.5706 17.7602C97.4307 22.6203 98.5939 29.7333 98.8724 41.9114M68.4195 98.5418C80.5975 98.2634 87.7106 97.1001 92.5706 92.2401C97.4307 87.3801 98.594 80.267 98.8724 68.0889M42.2419 98.5418C30.0639 98.2634 22.9508 97.1001 18.0908 92.2401C13.2308 87.3801 12.0675 80.267 11.7891 68.0889" stroke="url(#paint0_linear_2496_15991)" stroke-width="6" stroke-linecap="round" stroke-linejoin="round"/>
<defs>
<linearGradient id="paint0_linear_2496_15991" x1="-31.2193" y1="54.7335" x2="55.3308" y2="141.817" gradientUnits="userSpaceOnUse">
<stop stop-color="#9168CD"/>
<stop offset="0.424673" stop-color="#5556FF"/>
<stop offset="0.73499" stop-color="#45ADCD"/>
<stop offset="1" stop-color="#3EC4CD"/>
</linearGradient>
</defs>
</svg>
