<svg width="111" height="110" viewBox="0 0 111 110" fill="none" xmlns="http://www.w3.org/2000/svg">
<path d="M50.6402 50.6258C49.3168 49.6289 47.4359 49.8936 46.439 51.217C45.4421 52.5404 45.7068 54.4214 47.0302 55.4182L50.6402 50.6258ZM63.6277 67.9208C64.9511 68.9177 66.8321 68.653 67.829 67.3296C68.8259 66.0062 68.5612 64.1253 67.2378 63.1284L63.6277 67.9208ZM16.1437 85.4581C15.2461 86.8507 15.6475 88.7073 17.0401 89.605C18.4328 90.5026 20.2894 90.1012 21.187 88.7086L16.1437 85.4581ZM42.2225 56.0715C43.1201 54.6789 42.7188 52.8223 41.3262 51.9247C39.9335 51.0271 38.0769 51.4284 37.1793 52.821L42.2225 56.0715ZM72.955 64.2166C72.2326 65.7077 72.8558 67.5021 74.3469 68.2244C75.8379 68.9468 77.6323 68.3237 78.3547 66.8326L72.955 64.2166ZM90.1152 42.558C90.8376 41.0669 90.2145 39.2726 88.7234 38.5502C87.2323 37.8278 85.4379 38.4509 84.7155 39.942L90.1152 42.558ZM96.582 99.25C98.2389 99.25 99.582 97.9069 99.582 96.25C99.582 94.5931 98.2389 93.25 96.582 93.25V99.25ZM17.082 13.75C17.082 12.0931 15.7389 10.75 14.082 10.75C12.4252 10.75 11.082 12.0931 11.082 13.75H17.082ZM18.7805 91.5515L16.6592 93.6728L16.6592 93.6728L18.7805 91.5515ZM47.7487 48.125C47.7487 50.2651 46.0138 52 43.8737 52V58C49.3275 58 53.7487 53.5788 53.7487 48.125H47.7487ZM43.8737 52C41.7336 52 39.9987 50.2651 39.9987 48.125H33.9987C33.9987 53.5788 38.4199 58 43.8737 58V52ZM39.9987 48.125C39.9987 45.9849 41.7336 44.25 43.8737 44.25V38.25C38.4199 38.25 33.9987 42.6712 33.9987 48.125H39.9987ZM43.8737 44.25C46.0138 44.25 47.7487 45.9849 47.7487 48.125H53.7487C53.7487 42.6712 49.3275 38.25 43.8737 38.25V44.25ZM75.2487 71.0417C75.2487 73.1818 73.5138 74.9167 71.3737 74.9167V80.9167C76.8275 80.9167 81.2487 76.4955 81.2487 71.0417H75.2487ZM71.3737 74.9167C69.2336 74.9167 67.4987 73.1818 67.4987 71.0417H61.4987C61.4987 76.4955 65.9199 80.9167 71.3737 80.9167V74.9167ZM67.4987 71.0417C67.4987 68.9016 69.2336 67.1667 71.3737 67.1667V61.1667C65.9199 61.1667 61.4987 65.5879 61.4987 71.0417H67.4987ZM71.3737 67.1667C73.5138 67.1667 75.2487 68.9016 75.2487 71.0417H81.2487C81.2487 65.5878 76.8275 61.1667 71.3737 61.1667V67.1667ZM93.582 34.375C93.582 36.5151 91.8471 38.25 89.707 38.25V44.25C95.1608 44.25 99.582 39.8288 99.582 34.375H93.582ZM89.707 38.25C87.5669 38.25 85.832 36.5151 85.832 34.375H79.832C79.832 39.8288 84.2532 44.25 89.707 44.25V38.25ZM85.832 34.375C85.832 32.2349 87.5669 30.5 89.707 30.5V24.5C84.2532 24.5 79.832 28.9212 79.832 34.375H85.832ZM89.707 30.5C91.8471 30.5 93.582 32.2349 93.582 34.375H99.582C99.582 28.9212 95.1608 24.5 89.707 24.5V30.5ZM47.0302 55.4182L63.6277 67.9208L67.2378 63.1284L50.6402 50.6258L47.0302 55.4182ZM21.187 88.7086L42.2225 56.0715L37.1793 52.821L16.1437 85.4581L21.187 88.7086ZM78.3547 66.8326L90.1152 42.558L84.7155 39.942L72.955 64.2166L78.3547 66.8326ZM96.582 93.25H46.1654V99.25H96.582V93.25ZM17.082 64.1667V13.75H11.082V64.1667H17.082ZM46.1654 93.25C38.5184 93.25 33.085 93.2436 28.963 92.6894C24.9273 92.1469 22.6008 91.1291 20.9018 89.4302L16.6592 93.6728C19.6588 96.6724 23.4625 98.0039 28.1636 98.6359C32.7783 99.2564 38.6881 99.25 46.1654 99.25V93.25ZM11.082 64.1667C11.082 71.644 11.0757 77.5537 11.6961 82.1685C12.3281 86.8695 13.6597 90.6733 16.6592 93.6728L20.9018 89.4302C19.2029 87.7313 18.1852 85.4047 17.6426 81.369C17.0884 77.247 17.082 71.8136 17.082 64.1667H11.082Z" fill="url(#paint0_linear_2496_15997)"/>
<defs>
<linearGradient id="paint0_linear_2496_15997" x1="-26.6627" y1="54.7473" x2="55.3321" y2="137.247" gradientUnits="userSpaceOnUse">
<stop stop-color="#9168CD"/>
<stop offset="0.424673" stop-color="#5556FF"/>
<stop offset="0.73499" stop-color="#45ADCD"/>
<stop offset="1" stop-color="#3EC4CD"/>
</linearGradient>
</defs>
</svg>
