<svg width="111" height="110" viewBox="0 0 111 110" fill="none" xmlns="http://www.w3.org/2000/svg">
<path d="M17.6965 66.0431L20.6143 65.3456L20.6143 65.3456L17.6965 66.0431ZM20.6001 78.1902L17.6823 78.8876L17.6823 78.8876L20.6001 78.1902ZM31.1551 78.1902L34.0729 78.8876L34.0729 78.8876L31.1551 78.1902ZM34.0587 66.0431L36.9765 66.7405L36.9765 66.7405L34.0587 66.0431ZM10.8868 62.6981L13.6627 61.5606L13.6627 61.5606L10.8868 62.6981ZM40.8684 62.6981L38.0925 61.5606L38.0925 61.5606L40.8684 62.6981ZM69.4193 22.9165L69.4193 19.9165C69.3449 19.9165 69.2705 19.9193 69.1963 19.9248L69.4193 22.9165ZM69.4193 87.0832L69.1963 90.0749C69.2705 90.0804 69.3449 90.0832 69.4193 90.0832V87.0832ZM22.6753 46.9998H29.0799V40.9998H22.6753V46.9998ZM16.0893 61.7306H13.8339V67.7306H16.0893V61.7306ZM37.9213 61.7306H35.6659V67.7306H37.9213V61.7306ZM14.7787 66.7405L17.6823 78.8876L23.5179 77.4927L20.6143 65.3456L14.7787 66.7405ZM34.0729 78.8876L36.9765 66.7405L31.1409 65.3456L28.2373 77.4927L34.0729 78.8876ZM25.8776 85.4998C29.8462 85.4998 33.1648 82.687 34.0729 78.8876L28.2373 77.4927C27.9347 78.759 26.9014 79.4998 25.8776 79.4998V85.4998ZM17.6823 78.8876C18.5904 82.687 21.909 85.4998 25.8776 85.4998V79.4998C24.8538 79.4998 23.8206 78.759 23.5179 77.4927L17.6823 78.8876ZM35.6659 61.7306C33.4333 61.7306 31.628 63.3078 31.1409 65.3456L36.9765 66.7405C36.8581 67.2357 36.3781 67.7306 35.6659 67.7306V61.7306ZM16.0893 67.7306C15.3771 67.7306 14.8971 67.2357 14.7787 66.7405L20.6143 65.3456C20.1272 63.3078 18.3219 61.7306 16.0893 61.7306V67.7306ZM8.11078 63.8356C9.05409 66.1377 11.2727 67.7306 13.8339 67.7306V61.7306C13.8232 61.7306 13.8032 61.7286 13.772 61.7071C13.7399 61.6849 13.6955 61.6405 13.6627 61.5606L8.11078 63.8356ZM38.0925 61.5606C38.0597 61.6405 38.0153 61.6849 37.9832 61.7071C37.9521 61.7286 37.932 61.7306 37.9213 61.7306V67.7306C40.4826 67.7306 42.7011 66.1377 43.6444 63.8356L38.0925 61.5606ZM29.0799 46.9998C35.9523 46.9998 40.9888 54.4922 38.0925 61.5606L43.6444 63.8356C48.0022 53.2008 40.6229 40.9998 29.0799 40.9998V46.9998ZM22.6753 40.9998C11.1324 40.9998 3.75299 53.2008 8.11078 63.8356L13.6627 61.5606C10.7664 54.4922 15.803 46.9998 22.6753 46.9998V40.9998ZM30.8984 35.7498C30.8984 38.7296 28.5714 40.9998 25.8776 40.9998V46.9998C32.0433 46.9998 36.8984 41.8828 36.8984 35.7498H30.8984ZM25.8776 40.9998C23.1838 40.9998 20.8568 38.7296 20.8568 35.7498H14.8568C14.8568 41.8828 19.7119 46.9998 25.8776 46.9998V40.9998ZM20.8568 35.7498C20.8568 32.7701 23.1838 30.4998 25.8776 30.4998V24.4998C19.7119 24.4998 14.8568 29.6169 14.8568 35.7498H20.8568ZM25.8776 30.4998C28.5714 30.4998 30.8984 32.7701 30.8984 35.7498H36.8984C36.8984 29.6169 32.0433 24.4998 25.8776 24.4998V30.4998ZM87.7526 33.6665C84.4269 33.6665 82.2344 33.6601 80.6086 33.4416C79.0691 33.2346 78.4941 32.8881 78.1376 32.5315L73.8949 36.7742C75.5521 38.4313 77.6043 39.0916 79.8091 39.388C81.9276 39.6729 84.5965 39.6665 87.7526 39.6665V33.6665ZM71.0026 22.9165C71.0026 26.0726 70.9962 28.7415 71.2811 30.86C71.5775 33.0648 72.2378 35.1171 73.8949 36.7742L78.1376 32.5315C77.7811 32.175 77.4345 31.6 77.2276 30.0605C77.009 28.4347 77.0026 26.2422 77.0026 22.9165H71.0026ZM98.5026 22.9165C98.5026 26.2422 98.4962 28.4347 98.2777 30.0605C98.0707 31.6 97.7242 32.175 97.3676 32.5315L101.61 36.7742C103.267 35.1171 103.928 33.0648 104.224 30.86C104.509 28.7415 104.503 26.0726 104.503 22.9165H98.5026ZM87.7526 39.6665C90.9087 39.6665 93.5776 39.6729 95.6961 39.388C97.9009 39.0916 99.9532 38.4313 101.61 36.7742L97.3676 32.5315C97.0111 32.8881 96.4361 33.2346 94.8966 33.4416C93.2708 33.6601 91.0783 33.6665 87.7526 33.6665V39.6665ZM87.7526 12.1665C91.0783 12.1665 93.2708 12.1729 94.8966 12.3915C96.4361 12.5984 97.0111 12.945 97.3676 13.3015L101.61 9.05882C99.9532 7.4017 97.9009 6.74139 95.6961 6.44496C93.5776 6.16013 90.9087 6.1665 87.7526 6.1665V12.1665ZM104.503 22.9165C104.503 19.7604 104.509 17.0915 104.224 14.973C103.928 12.7682 103.267 10.716 101.61 9.05882L97.3676 13.3015C97.7242 13.658 98.0707 14.233 98.2777 15.7725C98.4962 17.3983 98.5026 19.5908 98.5026 22.9165H104.503ZM87.7526 6.1665C84.5965 6.1665 81.9276 6.16013 79.8091 6.44496C77.6043 6.74139 75.5521 7.4017 73.8949 9.05882L78.1376 13.3015C78.4941 12.945 79.0691 12.5984 80.6086 12.3915C82.2344 12.1729 84.4269 12.1665 87.7526 12.1665V6.1665ZM77.0026 22.9165C77.0026 19.5908 77.009 17.3983 77.2276 15.7725C77.4345 14.233 77.7811 13.658 78.1376 13.3015L73.8949 9.05882C72.2378 10.716 71.5775 12.7682 71.2811 14.973C70.9962 17.0915 71.0026 19.7604 71.0026 22.9165H77.0026ZM87.7526 97.8332C84.4269 97.8332 82.2344 97.8268 80.6086 97.6082C79.0691 97.4012 78.4941 97.0547 78.1376 96.6982L73.8949 100.941C75.5521 102.598 77.6043 103.258 79.8091 103.555C81.9276 103.84 84.5965 103.833 87.7526 103.833V97.8332ZM71.0026 87.0832C71.0026 90.2393 70.9962 92.9081 71.2811 95.0267C71.5775 97.2315 72.2378 99.2837 73.8949 100.941L78.1376 96.6982C77.7811 96.3417 77.4345 95.7667 77.2276 94.2272C77.009 92.6014 77.0026 90.4089 77.0026 87.0832H71.0026ZM98.5026 87.0832C98.5026 90.4089 98.4962 92.6014 98.2777 94.2272C98.0707 95.7667 97.7242 96.3417 97.3676 96.6982L101.61 100.941C103.267 99.2837 103.928 97.2315 104.224 95.0267C104.509 92.9081 104.503 90.2393 104.503 87.0832H98.5026ZM87.7526 103.833C90.9087 103.833 93.5776 103.84 95.6961 103.555C97.9009 103.258 99.9532 102.598 101.61 100.941L97.3676 96.6982C97.0111 97.0547 96.4361 97.4012 94.8966 97.6082C93.2708 97.8268 91.0783 97.8332 87.7526 97.8332V103.833ZM87.7526 76.3332C91.0783 76.3332 93.2708 76.3395 94.8966 76.5581C96.4361 76.7651 97.0111 77.1116 97.3676 77.4681L101.61 73.2255C99.9532 71.5684 97.9009 70.9081 95.6961 70.6116C93.5776 70.3268 90.9087 70.3332 87.7526 70.3332V76.3332ZM104.503 87.0832C104.503 83.9271 104.509 81.2582 104.224 79.1397C103.928 76.9349 103.267 74.8826 101.61 73.2255L97.3676 77.4681C97.7242 77.8247 98.0707 78.3997 98.2777 79.9392C98.4962 81.565 98.5026 83.7575 98.5026 87.0832H104.503ZM87.7526 70.3332C84.5965 70.3332 81.9276 70.3268 79.8091 70.6116C77.6043 70.9081 75.5521 71.5684 73.8949 73.2255L78.1376 77.4681C78.4941 77.1116 79.0691 76.7651 80.6086 76.5581C82.2344 76.3395 84.4269 76.3332 87.7526 76.3332V70.3332ZM77.0026 87.0832C77.0026 83.7575 77.009 81.565 77.2276 79.9392C77.4345 78.3997 77.7811 77.8247 78.1376 77.4681L73.8949 73.2255C72.2378 74.8826 71.5775 76.9349 71.2811 79.1397C70.9962 81.2582 71.0026 83.9271 71.0026 87.0832H77.0026ZM58.6693 65.7579V44.2417H52.6693V65.7579H58.6693ZM58.6693 44.2417C58.6693 36.2547 59.3555 31.9801 60.8719 29.5547C62.1348 27.5348 64.3373 26.3035 69.6422 25.9082L69.1963 19.9248C63.2584 20.3673 58.5859 21.8933 55.7845 26.3738C53.2366 30.4489 52.6693 36.418 52.6693 44.2417H58.6693ZM52.6693 65.7579C52.6693 73.5817 53.2366 79.5508 55.7845 83.6258C58.5859 88.1064 63.2584 89.6324 69.1963 90.0749L69.6422 84.0915C64.3373 83.6961 62.1348 82.4649 60.8719 80.445C59.3555 78.0196 58.6693 73.745 58.6693 65.7579H52.6693ZM69.4193 25.9165L74.0026 25.9165L74.0026 19.9165L69.4193 19.9165L69.4193 25.9165ZM69.4193 90.0832H74.0026V84.0832H69.4193V90.0832Z" fill="url(#paint0_linear_2496_15995)"/>
<defs>
<linearGradient id="paint0_linear_2496_15995" x1="-35.436" y1="54.7191" x2="55.6693" y2="146.386" gradientUnits="userSpaceOnUse">
<stop stop-color="#9168CD"/>
<stop offset="0.424673" stop-color="#5556FF"/>
<stop offset="0.73499" stop-color="#45ADCD"/>
<stop offset="1" stop-color="#3EC4CD"/>
</linearGradient>
</defs>
</svg>
