<svg width="111" height="110" viewBox="0 0 111 110" fill="none" xmlns="http://www.w3.org/2000/svg">
<path d="M65.619 30.8734L63.2206 29.0714L63.2206 29.0714L65.619 30.8734ZM71.8787 44.517C73.0503 45.6886 74.9497 45.6886 76.1213 44.517C77.2929 43.3454 77.2929 41.4459 76.1213 40.2744L71.8787 44.517ZM64.1593 32.555L62.038 30.4336L64.1593 32.555ZM96.654 72.5719L94.503 74.6631L94.503 74.6631L96.654 72.5719ZM101.907 77.9749L104.058 75.8837L104.058 75.8837L101.907 77.9749ZM89.6532 67.8522L89.0023 70.7807L89.0023 70.7807L89.6532 67.8522ZM93.1885 69.3584L94.8463 66.8581L94.8463 66.8581L93.1885 69.3584ZM76.0882 102.123L78.2392 100.032L78.2392 100.032L76.0882 102.123ZM103.995 102.123L101.844 100.032L101.844 100.032L103.995 102.123ZM74.6362 71.9093L71.891 70.6993L71.891 70.6993L74.6362 71.9093ZM78.1857 68.2583L79.4536 70.9773L78.1857 68.2583ZM37.0003 74.4983C35.7453 73.4166 33.851 73.557 32.7693 74.812C31.6876 76.067 31.828 77.9613 33.083 79.0431L37.0003 74.4983ZM39.2579 80.4048L37.2993 82.6772L37.2993 82.6772L39.2579 80.4048ZM39.2579 86.8866L41.2165 89.159L41.2165 89.159L39.2579 86.8866ZM33.083 88.2483C31.828 89.33 31.6876 91.2243 32.7693 92.4793C33.851 93.7343 35.7453 93.8748 37.0003 92.7931L33.083 88.2483ZM14.0836 79.0431C15.3386 77.9613 15.4791 76.067 14.3974 74.812C13.3157 73.557 11.4214 73.4166 10.1664 74.4983L14.0836 79.0431ZM7.90877 80.4048L9.8674 82.6772L9.8674 82.6772L7.90877 80.4048ZM7.90877 86.8866L9.8674 84.6142L9.8674 84.6142L7.90877 86.8866ZM10.1664 92.7931C11.4214 93.8748 13.3157 93.7343 14.3974 92.4793C15.4791 91.2243 15.3386 89.33 14.0836 88.2483L10.1664 92.7931ZM30.9521 73.3015C31.5674 71.7632 30.8192 70.0173 29.2808 69.4019C27.7425 68.7866 25.9966 69.5348 25.3812 71.0732L30.9521 73.3015ZM16.2146 93.9898C15.5992 95.5282 16.3475 97.2741 17.8858 97.8894C19.4242 98.5048 21.1701 97.7565 21.7854 96.2182L16.2146 93.9898ZM58.6667 49.2707C58.6667 47.6138 57.3235 46.2707 55.6667 46.2707C54.0098 46.2707 52.6667 47.6138 52.6667 49.2707H58.6667ZM60.4203 67.4337C61.5919 68.6052 63.4914 68.6052 64.663 67.4337C65.8346 66.2621 65.8346 64.3626 64.663 63.191L60.4203 67.4337ZM46.6703 63.191C45.4988 64.3626 45.4988 66.2621 46.6703 67.4337C47.8419 68.6052 49.7414 68.6052 50.913 67.4337L46.6703 63.191ZM53.0476 34.1576C46.0257 34.1576 40.3333 28.4652 40.3333 21.4433H34.3333C34.3333 31.7789 42.712 40.1576 53.0476 40.1576V34.1576ZM40.3333 21.4433C40.3333 14.4214 46.0257 8.729 53.0476 8.729V2.729C42.712 2.729 34.3333 11.1077 34.3333 21.4433H40.3333ZM53.0476 8.729C60.0695 8.729 65.7619 14.4214 65.7619 21.4433H71.7619C71.7619 11.1077 63.3832 2.729 53.0476 2.729V8.729ZM65.7619 21.4433C65.7619 24.3095 64.817 26.9465 63.2206 29.0714L68.0175 32.6754C70.3679 29.5471 71.7619 25.6536 71.7619 21.4433H65.7619ZM76.1213 40.2744L66.2806 30.4336L62.038 34.6763L71.8787 44.517L76.1213 40.2744ZM63.2206 29.0714C62.8587 29.553 62.4634 30.0082 62.038 30.4336L66.2806 34.6763C66.9051 34.0518 67.4858 33.3832 68.0175 32.6754L63.2206 29.0714ZM62.038 30.4336C59.7339 32.7378 56.5594 34.1576 53.0476 34.1576V40.1576C58.2146 40.1576 62.8973 38.0596 66.2806 34.6763L62.038 30.4336ZM91.8241 101.271H88.2593V107.271H91.8241V101.271ZM77 89.604V78.9117H71V89.604H77ZM103.083 88.3458V89.604H109.083V88.3458H103.083ZM94.503 74.6631L99.7559 80.0661L104.058 75.8837L98.805 70.4807L94.503 74.6631ZM109.083 88.3458C109.083 85.5878 109.134 83.3939 108.323 81.3812L102.758 83.6225C103.033 84.3052 103.083 85.1088 103.083 88.3458H109.083ZM99.7559 80.0661C101.982 82.3563 102.486 82.9487 102.758 83.6225L108.323 81.3812C107.509 79.3597 105.953 77.8326 104.058 75.8837L99.7559 80.0661ZM84.9936 70.604C87.4876 70.604 88.282 70.6206 89.0023 70.7807L90.3041 64.9236C88.7913 64.5874 87.2236 64.604 84.9936 64.604V70.604ZM98.805 70.4807C97.2258 68.8564 96.1377 67.7143 94.8463 66.8581L91.5307 71.8587C92.1596 72.2757 92.7417 72.8516 94.503 74.6631L98.805 70.4807ZM89.0023 70.7807C89.8975 70.9797 90.7542 71.3439 91.5307 71.8587L94.8463 66.8581C93.4612 65.9397 91.9227 65.2834 90.3041 64.9236L89.0023 70.7807ZM88.2593 101.271C84.8112 101.271 82.5354 101.264 80.8471 101.03C79.2539 100.81 78.6367 100.44 78.2392 100.032L73.9372 104.214C75.6279 105.953 77.7353 106.657 80.0252 106.974C82.2199 107.277 84.9855 107.271 88.2593 107.271V101.271ZM71 89.604C71 92.9785 70.994 95.8028 71.2863 98.0395C71.5889 100.354 72.258 102.487 73.9372 104.214L78.2392 100.032C77.8302 99.6109 77.4552 98.9413 77.2357 97.2618C77.006 95.5046 77 93.1435 77 89.604H71ZM91.8241 107.271C95.0978 107.271 97.8635 107.277 100.058 106.974C102.348 106.657 104.455 105.953 106.146 104.214L101.844 100.032C101.447 100.44 100.829 100.81 99.2363 101.03C97.548 101.264 95.2722 101.271 91.8241 101.271V107.271ZM103.083 89.604C103.083 93.1435 103.077 95.5046 102.848 97.2618C102.628 98.9413 102.253 99.6109 101.844 100.032L106.146 104.214C107.825 102.487 108.494 100.354 108.797 98.0395C109.089 95.8028 109.083 92.9785 109.083 89.604H103.083ZM77 78.9117C77 77.0153 77.0018 75.7514 77.0718 74.7769C77.1398 73.8307 77.2606 73.3933 77.3813 73.1193L71.891 70.6993C71.3756 71.8686 71.1783 73.0794 71.0872 74.347C70.9982 75.5864 71 77.102 71 78.9117H77ZM84.9936 64.604C83.2379 64.604 81.7536 64.602 80.5373 64.6944C79.2889 64.7893 78.083 64.9961 76.9178 65.5394L79.4536 70.9773C79.6917 70.8662 80.0881 70.7459 80.992 70.6772C81.9282 70.606 83.1462 70.604 84.9936 70.604V64.604ZM77.3813 73.1193C77.8078 72.1516 78.5517 71.3978 79.4536 70.9773L76.9178 65.5394C74.671 66.5872 72.892 68.4283 71.891 70.6993L77.3813 73.1193ZM33.083 79.0431L37.2993 82.6772L41.2165 78.1324L37.0003 74.4983L33.083 79.0431ZM37.2993 84.6142L33.083 88.2483L37.0003 92.7931L41.2165 89.159L37.2993 84.6142ZM37.2993 82.6772C37.7509 83.0664 38.1074 83.374 38.4062 83.6448C38.707 83.9175 38.8908 84.101 39.0056 84.2306C39.2425 84.4982 38.9167 84.237 38.9167 83.6457H44.9167C44.9167 82.1051 44.1477 80.9874 43.4983 80.2537C42.8885 79.5649 42.036 78.8387 41.2165 78.1324L37.2993 82.6772ZM41.2165 89.159C42.036 88.4527 42.8885 87.7265 43.4983 87.0376C44.1477 86.304 44.9167 85.1863 44.9167 83.6457H38.9167C38.9167 83.0543 39.2425 82.7932 39.0056 83.0607C38.8908 83.1904 38.707 83.3738 38.4062 83.6465C38.1074 83.9174 37.7509 84.225 37.2993 84.6142L41.2165 89.159ZM10.1664 74.4983L5.95013 78.1324L9.8674 82.6772L14.0836 79.0431L10.1664 74.4983ZM5.95013 89.159L10.1664 92.7931L14.0836 88.2483L9.8674 84.6142L5.95013 89.159ZM5.95013 78.1324C5.13071 78.8387 4.27813 79.5649 3.66835 80.2537C3.01893 80.9874 2.25 82.1051 2.25 83.6457H8.25C8.25 84.237 7.9242 84.4982 8.16104 84.2306C8.27582 84.101 8.4597 83.9175 8.76049 83.6448C9.05925 83.374 9.41581 83.0664 9.8674 82.6772L5.95013 78.1324ZM9.8674 84.6142C9.41581 84.225 9.05925 83.9174 8.76049 83.6465C8.4597 83.3738 8.27582 83.1904 8.16104 83.0607C7.9242 82.7932 8.25 83.0543 8.25 83.6457H2.25C2.25 85.1863 3.01893 86.304 3.66835 87.0376C4.27813 87.7265 5.13071 88.4527 5.95013 89.159L9.8674 84.6142ZM25.3812 71.0732L16.2146 93.9898L21.7854 96.2182L30.9521 73.3015L25.3812 71.0732ZM52.6667 49.2707V58.4373H58.6667V49.2707H52.6667ZM53.5453 60.5587L60.4203 67.4337L64.663 63.191L57.788 56.316L53.5453 60.5587ZM53.5453 56.316L46.6703 63.191L50.913 67.4337L57.788 60.5587L53.5453 56.316Z" fill="url(#paint0_linear_2496_15989)"/>
<defs>
<linearGradient id="paint0_linear_2496_15989" x1="-44.5491" y1="54.6981" x2="53.3494" y2="155.49" gradientUnits="userSpaceOnUse">
<stop stop-color="#9168CD"/>
<stop offset="0.424673" stop-color="#5556FF"/>
<stop offset="0.73499" stop-color="#45ADCD"/>
<stop offset="1" stop-color="#3EC4CD"/>
</linearGradient>
</defs>
</svg>
