<svg width="110" height="110" viewBox="0 0 110 110" fill="none" xmlns="http://www.w3.org/2000/svg">
<path d="M29.62 89.2047C30.7916 88.0331 30.7916 86.1336 29.62 84.962C28.4484 83.7904 26.549 83.7904 25.3774 84.962L29.62 89.2047ZM16.2107 94.1287C15.0391 95.3003 15.0391 97.1997 16.2107 98.3713C17.3823 99.5429 19.2818 99.5429 20.4534 98.3713L16.2107 94.1287ZM84.62 84.962C83.4484 83.7904 81.5489 83.7904 80.3774 84.962C79.2058 86.1336 79.2058 88.0331 80.3774 89.2047L84.62 84.962ZM89.544 98.3713C90.7156 99.5429 92.6151 99.5429 93.7867 98.3713C94.9583 97.1997 94.9583 95.3003 93.7867 94.1287L89.544 98.3713ZM41.2487 65.75C39.5918 65.75 38.2487 67.0931 38.2487 68.75C38.2487 70.4069 39.5918 71.75 41.2487 71.75V65.75ZM41.2898 71.75C42.9466 71.75 44.2898 70.4069 44.2898 68.75C44.2898 67.0931 42.9466 65.75 41.2898 65.75V71.75ZM68.7076 65.75C67.0508 65.75 65.7076 67.0931 65.7076 68.75C65.7076 70.4069 67.0508 71.75 68.7076 71.75V65.75ZM68.7487 71.75C70.4056 71.75 71.7487 70.4069 71.7487 68.75C71.7487 67.0931 70.4056 65.75 68.7487 65.75V71.75ZM21.6313 49.0874L24.575 49.6659L21.6313 49.0874ZM88.3661 49.0874L85.4224 49.6659L88.3661 49.0874ZM85.8298 36.1821L88.7735 35.6035L85.8298 36.1821ZM24.1676 36.1821L27.1113 36.7606L24.1676 36.1821ZM25.3774 84.962L16.2107 94.1287L20.4534 98.3713L29.62 89.2047L25.3774 84.962ZM80.3774 89.2047L89.544 98.3713L93.7867 94.1287L84.62 84.962L80.3774 89.2047ZM41.2487 71.75H41.2898V65.75H41.2487V71.75ZM68.7076 71.75H68.7487V65.75H68.7076V71.75ZM20.794 43.3713C40.2146 62.7918 72.029 63.0092 89.3398 43.2255L84.8243 39.2745C70.0517 56.1575 42.2828 56.3748 25.0367 39.1287L20.794 43.3713ZM52.4984 16.75H57.499V10.75H52.4984V16.75ZM82.8861 36.7606L85.4224 49.6659L91.3098 48.5089L88.7735 35.6035L82.8861 36.7606ZM24.575 49.6659L27.1113 36.7606L21.2239 35.6036L18.6876 48.5089L24.575 49.6659ZM54.9987 84.0833C45.4208 84.0833 38.5439 84.0769 33.416 83.3856C28.3456 82.7021 25.5733 81.4151 23.7486 79.3175L19.2217 83.2554C22.4397 86.9547 26.9339 88.5661 32.6145 89.3318C38.2375 90.0898 45.5961 90.0833 54.9987 90.0833V84.0833ZM18.6876 48.5089C16.9767 57.2144 15.6203 64.0752 15.3732 69.4765C15.1215 74.9768 15.9838 79.5332 19.2217 83.2554L23.7486 79.3175C21.9439 77.2428 21.1496 74.5005 21.3669 69.7507C21.5887 64.9021 22.8267 58.5619 24.575 49.6659L18.6876 48.5089ZM85.4224 49.6659C87.1707 58.5619 88.4087 64.9021 88.6305 69.7507C88.8478 74.5005 88.0535 77.2428 86.2488 79.3175L90.7757 83.2554C94.0136 79.5332 94.8759 74.9768 94.6242 69.4765C94.3771 64.0752 93.0207 57.2144 91.3098 48.5089L85.4224 49.6659ZM54.9987 90.0833C64.4013 90.0833 71.7599 90.0898 77.3829 89.3318C83.0635 88.5661 87.5577 86.9547 90.7757 83.2554L86.2488 79.3175C84.4241 81.4151 81.6518 82.7021 76.5814 83.3856C71.4535 84.0769 64.5766 84.0833 54.9987 84.0833V90.0833ZM52.4984 10.75C42.8907 10.75 35.753 11.4981 30.6591 15.4034C25.4993 19.3593 23.1092 26.0107 21.2239 35.6036L27.1113 36.7606C28.9899 27.202 31.0851 22.6373 34.3097 20.165C37.6003 17.6422 42.7461 16.75 52.4984 16.75V10.75ZM57.499 16.75C67.2513 16.75 72.3971 17.6422 75.6877 20.165C78.9123 22.6373 81.0075 27.202 82.8861 36.7606L88.7735 35.6035C86.8882 26.0106 84.4981 19.3593 79.3383 15.4034C74.2444 11.4981 67.1067 10.75 57.499 10.75V16.75Z" fill="url(#paint0_linear_2229_23476)"/>
<defs>
<linearGradient id="paint0_linear_2229_23476" x1="-17.8855" y1="54.7473" x2="63.6025" y2="127.627" gradientUnits="userSpaceOnUse">
<stop stop-color="#9168CD"/>
<stop offset="0.424673" stop-color="#5556FF"/>
<stop offset="0.73499" stop-color="#45ADCD"/>
<stop offset="1" stop-color="#3EC4CD"/>
</linearGradient>
</defs>
</svg>
