<svg width="110" height="110" viewBox="0 0 110 110" fill="none" xmlns="http://www.w3.org/2000/svg">
<path d="M41.0125 67.1667C42.6694 67.1667 44.0125 65.8235 44.0125 64.1667C44.0125 62.5098 42.6694 61.1667 41.0125 61.1667V67.1667ZM28.2179 56.507L31.1768 56.0115L28.2179 56.507ZM27.8662 54.4065L24.9074 54.9019L24.9074 54.9019L27.8662 54.4065ZM39.8613 34.375L42.2161 36.2338C42.2412 36.202 42.2657 36.1697 42.2895 36.1369L39.8613 34.375ZM44.8499 27.5L42.4217 25.7381L42.4217 25.7381L44.8499 27.5ZM57.2551 15.5119C58.2281 14.1708 57.9298 12.2949 56.5888 11.3219C55.2478 10.3488 53.3719 10.6471 52.3988 11.9881L57.2551 15.5119ZM93.9185 15.7307C95.0124 14.4864 94.8905 12.5908 93.6461 11.4969C92.4017 10.4029 90.5061 10.5249 89.4122 11.7693L93.9185 15.7307ZM29.7088 47.2361L32.0636 49.0949L32.0636 49.0949L29.7088 47.2361ZM56.4318 96.25C56.4318 97.9069 57.7749 99.25 59.4318 99.25C61.0886 99.25 62.4318 97.9069 62.4318 96.25H56.4318ZM27.6132 50.5223L30.5187 51.269L30.5187 51.269L27.6132 50.5223ZM30.425 63.0805L32.3588 60.787L32.3588 60.787L30.425 63.0805ZM29.082 25.2083C29.082 27.3484 27.3471 29.0833 25.207 29.0833V35.0833C30.6608 35.0833 35.082 30.6621 35.082 25.2083H29.082ZM25.207 29.0833C23.0669 29.0833 21.332 27.3484 21.332 25.2083H15.332C15.332 30.6621 19.7532 35.0833 25.207 35.0833V29.0833ZM21.332 25.2083C21.332 23.0682 23.0669 21.3333 25.207 21.3333V15.3333C19.7532 15.3333 15.332 19.7545 15.332 25.2083H21.332ZM25.207 21.3333C27.3471 21.3333 29.082 23.0682 29.082 25.2083H35.082C35.082 19.7545 30.6608 15.3333 25.207 15.3333V21.3333ZM41.0125 61.1667H37.3022V67.1667H41.0125V61.1667ZM31.1768 56.0115L30.825 53.911L24.9074 54.9019L25.2591 57.0024L31.1768 56.0115ZM42.2895 36.1369L47.278 29.2619L42.4217 25.7381L37.4332 32.6131L42.2895 36.1369ZM47.278 29.2619L57.2551 15.5119L52.3988 11.9881L42.4217 25.7381L47.278 29.2619ZM67.7287 45.5224L93.9185 15.7307L89.4122 11.7693L63.2224 41.5609L67.7287 45.5224ZM43.0081 29.8681L63.6338 45.9098L67.3173 41.1736L46.6917 25.1319L43.0081 29.8681ZM32.0636 49.0949L37.7886 41.8425L33.0791 38.1249L27.3541 45.3773L32.0636 49.0949ZM37.7886 41.8425L42.2161 36.2338L37.5066 32.5162L33.0791 38.1249L37.7886 41.8425ZM56.4318 57.2917V96.25H62.4318V57.2917H56.4318ZM33.679 42.4169L57.6769 59.7249L61.1866 54.8585L37.1888 37.5505L33.679 42.4169ZM62.7292 42.3345L56.6853 56.0845L62.1782 58.4988L68.222 44.7488L62.7292 42.3345ZM30.825 53.911C30.4524 51.6857 30.4732 51.4462 30.5187 51.269L24.7076 49.7757C24.272 51.4707 24.6219 53.1965 24.9074 54.9019L30.825 53.911ZM27.3541 45.3773C26.2808 46.737 25.1428 48.0818 24.7076 49.7757L30.5187 51.269C30.5646 51.0906 30.6634 50.8687 32.0636 49.0949L27.3541 45.3773ZM37.3022 61.1667C35.3625 61.1667 34.1841 61.1613 33.3194 61.0538C32.5366 60.9565 32.3903 60.8135 32.3588 60.787L28.4911 65.374C29.7478 66.4337 31.1771 66.8337 32.5794 67.008C33.8997 67.1721 35.5159 67.1667 37.3022 67.1667V61.1667ZM25.2591 57.0024C25.5527 58.7553 25.8134 60.3458 26.1939 61.618C26.5988 62.9715 27.2329 64.3131 28.4911 65.374L32.3588 60.787C32.3289 60.7617 32.1658 60.6457 31.9423 59.8986C31.6945 59.0701 31.4958 57.9169 31.1768 56.0115L25.2591 57.0024Z" fill="url(#paint0_linear_2497_15999)"/>
<defs>
<linearGradient id="paint0_linear_2497_15999" x1="-17.8855" y1="54.7473" x2="63.6025" y2="127.627" gradientUnits="userSpaceOnUse">
<stop stop-color="#9168CD"/>
<stop offset="0.424673" stop-color="#5556FF"/>
<stop offset="0.73499" stop-color="#45ADCD"/>
<stop offset="1" stop-color="#3EC4CD"/>
</linearGradient>
</defs>
</svg>
