<svg width="111" height="110" viewBox="0 0 111 110" fill="none" xmlns="http://www.w3.org/2000/svg">
<path d="M11.2932 50.3722L14.2876 50.5569L14.2876 50.5569L11.2932 50.3722ZM10.5835 61.8796L7.58924 61.695L10.5835 61.8796ZM100.045 50.3722L97.051 50.5569L97.051 50.5569L100.045 50.3722ZM100.755 61.8796L97.7607 62.0643L97.7607 62.0643L100.755 61.8796ZM97.0857 95.0529L94.8856 93.0134L94.8856 93.0134L97.0857 95.0529ZM97.9821 36.4909L95.2806 37.7954L95.2806 37.7954L97.9821 36.4909ZM89.8209 28.721L90.982 25.9548L90.982 25.9548L89.8209 28.721ZM14.2528 95.0529L16.4529 93.0134L16.4529 93.0134L14.2528 95.0529ZM13.3564 36.4909L10.6549 35.1864L10.6549 35.1864L13.3564 36.4909ZM21.5176 28.721L22.6787 31.4873L22.6787 31.4873L21.5176 28.721ZM32.7616 30.5025C34.4184 30.4976 35.7576 29.1504 35.7526 27.4936C35.7476 25.8367 34.4005 24.4976 32.7436 24.5026L32.7616 30.5025ZM78.5949 24.5026C76.9381 24.4976 75.5909 25.8367 75.5859 27.4936C75.581 29.1504 76.9201 30.4976 78.5769 30.5025L78.5949 24.5026ZM74.5259 21.9335L71.7405 23.0477L71.7405 23.0477L74.5259 21.9335ZM75.8005 33.1978C76.4158 34.7362 78.1618 35.4844 79.7001 34.8691C81.2385 34.2537 81.9867 32.5078 81.3714 30.9695L75.8005 33.1978ZM29.9672 30.9695C29.3518 32.5078 30.1001 34.2537 31.6384 34.8691C33.1768 35.4844 34.9227 34.7362 35.538 33.1978L29.9672 30.9695ZM36.8126 21.9336L34.0272 20.8194L34.0272 20.8194L36.8126 21.9336ZM66.7456 10.3566L65.4145 13.0451L65.4145 13.0451L66.7456 10.3566ZM44.593 10.3566L43.2619 7.66806L43.2619 7.66806L44.593 10.3566ZM41.9193 52.0003C40.2624 52.0003 38.9193 53.3435 38.9193 55.0003C38.9193 56.6572 40.2624 58.0003 41.9193 58.0003V52.0003ZM41.9604 58.0003C43.6172 58.0003 44.9604 56.6572 44.9604 55.0003C44.9604 53.3435 43.6172 52.0003 41.9604 52.0003V58.0003ZM69.3782 52.0003C67.7213 52.0003 66.3782 53.3435 66.3782 55.0003C66.3782 56.6572 67.7213 58.0003 69.3782 58.0003V52.0003ZM69.4193 58.0003C71.0761 58.0003 72.4193 56.6572 72.4193 55.0003C72.4193 53.3435 71.0761 52.0003 69.4193 52.0003V58.0003ZM48.8979 71.5354C47.9048 70.2092 46.0246 69.9392 44.6984 70.9324C43.3722 71.9255 43.1022 73.8057 44.0953 75.1319L48.8979 71.5354ZM67.2039 75.1319C68.197 73.8057 67.927 71.9255 66.6008 70.9324C65.2746 69.9392 63.3944 70.2092 62.4013 71.5354L67.2039 75.1319ZM8.29893 50.1875L7.58924 61.695L13.5779 62.0643L14.2876 50.5569L8.29893 50.1875ZM97.051 50.5569L97.7607 62.0643L103.749 61.695L103.04 50.1875L97.051 50.5569ZM46.6945 103.833H64.644V97.8335H46.6945V103.833ZM97.7607 62.0643C98.3291 71.2814 98.7301 77.8895 98.3602 82.9271C97.9964 87.8824 96.9114 90.8282 94.8856 93.0134L99.2858 97.0925C102.619 93.4972 103.931 88.9872 104.344 83.3665C104.751 77.828 104.307 70.7397 103.749 61.695L97.7607 62.0643ZM64.644 103.833C73.583 103.833 80.6013 103.84 86.0403 103.082C91.5699 102.311 95.947 100.694 99.2858 97.0925L94.8856 93.0134C92.8658 95.1923 90.0497 96.4653 85.2119 97.1397C80.2836 97.8266 73.7604 97.8335 64.644 97.8335V103.833ZM103.04 50.1875C102.816 46.5565 102.64 43.6835 102.338 41.3644C102.031 39.0164 101.572 37.027 100.684 35.1864L95.2806 37.7954C95.7757 38.8207 96.1219 40.1001 96.388 42.1404C96.6579 44.2096 96.822 46.8443 97.051 50.5569L103.04 50.1875ZM88.6599 31.4873C91.5424 32.6972 93.9002 34.9366 95.2806 37.7954L100.684 35.1864C98.6733 31.023 95.2267 27.7365 90.982 25.9548L88.6599 31.4873ZM7.58924 61.695C7.03142 70.7397 6.58774 77.828 6.99439 83.3665C7.40709 88.9872 8.71983 93.4972 12.0527 97.0925L16.4529 93.0134C14.4272 90.8282 13.3421 87.8824 12.9783 82.9271C12.6084 77.8895 13.0094 71.2814 13.5779 62.0643L7.58924 61.695ZM46.6945 97.8335C37.5782 97.8335 31.0549 97.8266 26.1266 97.1397C21.2889 96.4653 18.4728 95.1923 16.4529 93.0134L12.0527 97.0925C15.3915 100.694 19.7686 102.311 25.2982 103.082C30.7373 103.84 37.7555 103.833 46.6945 103.833V97.8335ZM14.2876 50.5569C14.5165 46.8443 14.6806 44.2096 14.9505 42.1404C15.2167 40.1001 15.5629 38.8207 16.058 37.7954L10.6549 35.1864C9.76613 37.027 9.30721 39.0164 9.00094 41.3644C8.69843 43.6835 8.52287 46.5565 8.29893 50.1875L14.2876 50.5569ZM20.3566 25.9548C16.1118 27.7365 12.6653 31.023 10.6549 35.1864L16.058 37.7954C17.4384 34.9366 19.7961 32.6972 22.6787 31.4873L20.3566 25.9548ZM32.7436 24.5026C27.3002 24.5189 23.5581 24.6111 20.3566 25.9548L22.6787 31.4873C24.5656 30.6953 27.0158 30.5198 32.7616 30.5025L32.7436 24.5026ZM78.5769 30.5025C84.3227 30.5198 86.773 30.6953 88.6599 31.4873L90.982 25.9548C87.7805 24.6111 84.0383 24.5189 78.5949 24.5026L78.5769 30.5025ZM71.7405 23.0477L75.8005 33.1978L81.3714 30.9695L77.3113 20.8194L71.7405 23.0477ZM35.538 33.1978L39.5981 23.0477L34.0272 20.8194L29.9672 30.9695L35.538 33.1978ZM55.6693 12.167C58.6108 12.167 60.6307 12.1695 62.2202 12.3049C63.7588 12.4359 64.6733 12.6782 65.4145 13.0451L68.0766 7.66806C66.4151 6.84543 64.6825 6.49287 62.7293 6.32652C60.8269 6.16448 58.5101 6.16699 55.6693 6.16699V12.167ZM55.6693 6.16699C52.8285 6.16699 50.5117 6.16448 48.6092 6.32652C46.656 6.49287 44.9235 6.84543 43.2619 7.66806L45.924 13.0451C46.6653 12.6782 47.5797 12.4359 49.1184 12.3049C50.7078 12.1695 52.7277 12.167 55.6693 12.167V6.16699ZM39.5981 23.0477C40.5433 20.6848 41.2503 18.6504 42.2854 16.8097C43.2708 15.0577 44.3941 13.8026 45.924 13.0451L43.2619 7.66806C40.2875 9.14064 38.3966 11.4844 37.0558 13.8685C35.7648 16.164 34.8337 18.8031 34.0272 20.8194L39.5981 23.0477ZM77.3113 20.8194C76.5048 18.8031 75.5738 16.164 74.2828 13.8685C72.9419 11.4844 71.051 9.14064 68.0766 7.66806L65.4145 13.0451C66.9444 13.8026 68.0678 15.0577 69.0531 16.8097C70.0883 18.6504 70.7953 20.6848 71.7405 23.0477L77.3113 20.8194ZM41.9193 58.0003H41.9604V52.0003H41.9193V58.0003ZM69.3782 58.0003H69.4193V52.0003H69.3782V58.0003ZM46.4966 73.3337C44.0953 75.1319 44.0961 75.1329 44.0968 75.1339C44.0971 75.1342 44.0978 75.1352 44.0983 75.1359C44.0994 75.1373 44.1005 75.1388 44.1016 75.1403C44.104 75.1434 44.1065 75.1467 44.1093 75.1504C44.1148 75.1577 44.1212 75.1661 44.1285 75.1756C44.1432 75.1946 44.1614 75.218 44.1831 75.2455C44.2265 75.3005 44.2842 75.3719 44.356 75.4575C44.4992 75.6284 44.6995 75.857 44.9548 76.1239C45.4631 76.655 46.2037 77.3525 47.1617 78.0503C49.066 79.4373 51.9614 80.917 55.6496 80.917V74.917C53.6172 74.917 51.9361 74.105 50.6941 73.2004C50.079 72.7523 49.6039 72.3039 49.2898 71.9757C49.134 71.8129 49.0215 71.6834 48.9546 71.6037C48.9213 71.5639 48.8997 71.5369 48.8901 71.5247C48.8853 71.5187 48.8835 71.5163 48.8848 71.518C48.8854 71.5188 48.8868 71.5207 48.889 71.5236C48.8901 71.525 48.8914 71.5267 48.8929 71.5287C48.8936 71.5297 48.8944 71.5307 48.8953 71.5318C48.8957 71.5324 48.8964 71.5333 48.8966 71.5336C48.8972 71.5345 48.8979 71.5354 46.4966 73.3337ZM55.6496 80.917C59.3378 80.917 62.2332 79.4373 64.1376 78.0503C65.0955 77.3525 65.8361 76.655 66.3444 76.1239C66.5997 75.857 66.8 75.6284 66.9432 75.4575C67.015 75.3719 67.0727 75.3005 67.1161 75.2455C67.1378 75.218 67.156 75.1946 67.1707 75.1756C67.178 75.1661 67.1844 75.1577 67.1899 75.1504C67.1927 75.1467 67.1952 75.1434 67.1976 75.1403C67.1987 75.1388 67.1998 75.1373 67.2009 75.1359C67.2014 75.1352 67.2021 75.1342 67.2024 75.1339C67.2031 75.1329 67.2039 75.1319 64.8026 73.3337C62.4013 71.5354 62.402 71.5345 62.4026 71.5336C62.4028 71.5333 62.4035 71.5324 62.4039 71.5318C62.4048 71.5307 62.4056 71.5297 62.4063 71.5287C62.4078 71.5267 62.4091 71.525 62.4102 71.5236C62.4124 71.5207 62.4138 71.5188 62.4144 71.518C62.4157 71.5163 62.4139 71.5187 62.4091 71.5247C62.3995 71.5369 62.3779 71.5639 62.3446 71.6037C62.2777 71.6834 62.1652 71.8129 62.0094 71.9757C61.6953 72.3039 61.2202 72.7523 60.6051 73.2004C59.3631 74.105 57.682 74.917 55.6496 74.917V80.917Z" fill="url(#paint0_linear_2497_16001)"/>
<defs>
<linearGradient id="paint0_linear_2497_16001" x1="-35.436" y1="54.7195" x2="55.6692" y2="146.386" gradientUnits="userSpaceOnUse">
<stop stop-color="#9168CD"/>
<stop offset="0.424673" stop-color="#5556FF"/>
<stop offset="0.73499" stop-color="#45ADCD"/>
<stop offset="1" stop-color="#3EC4CD"/>
</linearGradient>
</defs>
</svg>
