<svg width="111" height="110" viewBox="0 0 111 110" fill="none" xmlns="http://www.w3.org/2000/svg">
<path d="M18.837 96.4204C17.6654 97.5919 17.6654 99.4914 18.837 100.663C20.0086 101.835 21.9081 101.835 23.0797 100.663L18.837 96.4204ZM64.6703 100.663C65.8419 101.835 67.7414 101.835 68.913 100.663C70.0846 99.4914 70.0846 97.5919 68.913 96.4204L64.6703 100.663ZM76.7064 44.4046C75.2857 45.2571 74.8251 47.1 75.6776 48.5206C76.5301 49.9413 78.3729 50.4019 79.7936 49.5494L76.7064 44.4046ZM78.8271 46.6307L80.3707 49.2031L80.3707 49.2031L78.8271 46.6307ZM78.8271 67.951L80.3707 65.3786L80.3707 65.3786L78.8271 67.951ZM79.7936 65.0323C78.3729 64.1797 76.5301 64.6403 75.6776 66.061C74.8251 67.4817 75.2857 69.3245 76.7064 70.1771L79.7936 65.0323ZM97.2698 75.2748L96.2524 72.4526L96.2524 72.4526L97.2698 75.2748ZM97.2698 39.3069L98.2873 36.4847L98.2873 36.4847L97.2698 39.3069ZM23.0797 100.663L41.413 82.3297L37.1703 78.087L18.837 96.4204L23.0797 100.663ZM46.337 82.3297L64.6703 100.663L68.913 96.4204L50.5797 78.087L46.337 82.3297ZM40.875 80.2083L40.875 103.125L46.875 103.125L46.875 80.2083L40.875 80.2083ZM41.5833 37.375H46.1667V31.375H41.5833V37.375ZM75.25 54.4271V60.1563H81.25V54.4271H75.25ZM46.1667 77.2083H41.5833V83.2083H46.1667V77.2083ZM12.5 60.1563V54.4271H6.5V60.1563H12.5ZM41.5833 77.2083C33.9678 77.2083 28.4455 77.2058 24.2325 76.8518C20.0135 76.4973 17.5256 75.8135 15.7885 74.7278L12.6085 79.8158C15.5699 81.6666 19.2122 82.4511 23.7301 82.8307C28.2538 83.2109 34.0747 83.2083 41.5833 83.2083V77.2083ZM6.5 60.1563C6.5 64.7497 6.48415 68.6727 7.1544 71.7885C7.88405 75.1804 9.46524 77.8512 12.6085 79.8158L15.7885 74.7278C14.2333 73.7558 13.4652 72.5952 13.0202 70.5266C12.5159 68.182 12.5 65.0155 12.5 60.1563H6.5ZM75.25 60.1563C75.25 65.0155 75.2341 68.182 74.7298 70.5266C74.2848 72.5952 73.5167 73.7558 71.9615 74.7278L75.1415 79.8158C78.2848 77.8512 79.8659 75.1804 80.5956 71.7885C81.2659 68.6727 81.25 64.7497 81.25 60.1563H75.25ZM46.1667 83.2083C53.6753 83.2083 59.4962 83.2109 64.0199 82.8307C68.5378 82.4511 72.1801 81.6666 75.1415 79.8158L71.9615 74.7278C70.2244 75.8135 67.7365 76.4973 63.5175 76.8518C59.3045 77.2058 53.7822 77.2083 46.1667 77.2083V83.2083ZM46.1667 37.375C53.7822 37.375 59.3045 37.3775 63.5175 37.7315C67.7365 38.086 70.2244 38.7698 71.9615 39.8556L75.1415 34.7676C72.1801 32.9167 68.5378 32.1322 64.0199 31.7526C59.4962 31.3725 53.6753 31.375 46.1667 31.375V37.375ZM81.25 54.4271C81.25 49.8337 81.2659 45.9107 80.5956 42.7949C79.8659 39.403 78.2848 36.7321 75.1415 34.7676L71.9615 39.8556C73.5167 40.8276 74.2848 41.9882 74.7298 44.0567C75.2341 46.4014 75.25 49.5679 75.25 54.4271H81.25ZM41.5833 31.375C34.0747 31.375 28.2538 31.3725 23.7301 31.7526C19.2122 32.1322 15.5699 32.9167 12.6085 34.7676L15.7885 39.8556C17.5256 38.7698 20.0135 38.086 24.2325 37.7315C28.4455 37.3775 33.9678 37.375 41.5833 37.375V31.375ZM12.5 54.4271C12.5 49.5679 12.5159 46.4014 13.0202 44.0567C13.4652 41.9882 14.2333 40.8276 15.7885 39.8556L12.6085 34.7676C9.46524 36.7321 7.88405 39.403 7.1544 42.7949C6.48415 45.9107 6.5 49.8337 6.5 54.4271H12.5ZM79.7936 49.5494L80.3707 49.2031L77.2835 44.0583L76.7064 44.4046L79.7936 49.5494ZM98.1667 54.6844V59.8972H104.167V54.6844H98.1667ZM80.3707 65.3786L79.7936 65.0323L76.7064 70.1771L77.2835 70.5234L80.3707 65.3786ZM98.1667 59.8972C98.1667 64.6893 98.153 67.8291 97.7348 69.9796C97.5356 71.0035 97.2842 71.557 97.0682 71.8643C96.8943 72.1118 96.6785 72.2989 96.2524 72.4526L98.2873 78.097C99.8096 77.5482 101.055 76.6263 101.977 75.3142C102.857 74.0621 103.336 72.6056 103.624 71.1251C104.18 68.2668 104.167 64.4203 104.167 59.8972H98.1667ZM77.2835 70.5234C82.0595 73.3893 85.8891 75.6942 89.0169 77.0684C92.1451 78.4428 95.2346 79.1975 98.2873 78.097L96.2524 72.4526C95.4082 72.7569 94.1251 72.7592 91.4304 71.5753C88.7353 70.3911 85.292 68.3317 80.3707 65.3786L77.2835 70.5234ZM80.3707 49.2031C85.292 46.25 88.7353 44.1905 91.4304 43.0064C94.1251 41.8225 95.4082 41.8248 96.2524 42.1291L98.2873 36.4847C95.2346 35.3842 92.1451 36.1388 89.0169 37.5132C85.8891 38.8874 82.0595 41.1923 77.2835 44.0583L80.3707 49.2031ZM104.167 54.6844C104.167 50.1614 104.18 46.3149 103.624 43.4566C103.336 41.9761 102.857 40.5196 101.977 39.2674C101.055 37.9554 99.8096 37.0335 98.2873 36.4847L96.2524 42.1291C96.6785 42.2827 96.8943 42.4699 97.0682 42.7173C97.2842 43.0247 97.5356 43.5782 97.7348 44.6021C98.153 46.7525 98.1667 49.8924 98.1667 54.6844H104.167ZM66.0833 22.9167C66.0833 27.5881 62.2964 31.375 57.625 31.375V37.375C65.6101 37.375 72.0833 30.9018 72.0833 22.9167H66.0833ZM57.625 31.375C52.9536 31.375 49.1667 27.5881 49.1667 22.9167H43.1667C43.1667 30.9018 49.6399 37.375 57.625 37.375V31.375ZM49.1667 22.9167C49.1667 18.2453 52.9536 14.4583 57.625 14.4583V8.45833C49.6399 8.45833 43.1667 14.9316 43.1667 22.9167H49.1667ZM57.625 14.4583C62.2964 14.4583 66.0833 18.2453 66.0833 22.9167H72.0833C72.0833 14.9316 65.6101 8.45833 57.625 8.45833V14.4583ZM43.1667 20.625C43.1667 26.5621 38.3537 31.375 32.4167 31.375V37.375C41.6674 37.375 49.1667 29.8758 49.1667 20.625H43.1667ZM32.4167 31.375C26.4796 31.375 21.6667 26.5621 21.6667 20.625H15.6667C15.6667 29.8758 23.1659 37.375 32.4167 37.375V31.375ZM21.6667 20.625C21.6667 14.6879 26.4796 9.875 32.4167 9.875V3.875C23.1659 3.875 15.6667 11.3742 15.6667 20.625H21.6667ZM32.4167 9.875C38.3537 9.875 43.1667 14.6879 43.1667 20.625H49.1667C49.1667 11.3742 41.6674 3.875 32.4167 3.875V9.875Z" fill="url(#paint0_linear_2497_16003)"/>
<defs>
<linearGradient id="paint0_linear_2497_16003" x1="-35.7719" y1="54.7052" x2="59.8035" y2="146.29" gradientUnits="userSpaceOnUse">
<stop stop-color="#9168CD"/>
<stop offset="0.424673" stop-color="#5556FF"/>
<stop offset="0.73499" stop-color="#45ADCD"/>
<stop offset="1" stop-color="#3EC4CD"/>
</linearGradient>
</defs>
</svg>
