<svg width="111" height="110" viewBox="0 0 111 110" fill="none" xmlns="http://www.w3.org/2000/svg">
<path d="M9.50391 97.8327C7.84705 97.8327 6.50391 99.1758 6.50391 100.833C6.50391 102.49 7.84705 103.833 9.50391 103.833V97.8327ZM98.8789 103.833C100.536 103.833 101.879 102.49 101.879 100.833C101.879 99.1758 100.536 97.8327 98.8789 97.8327V103.833ZM17.0872 59.5827C17.0872 57.9258 15.7441 56.5827 14.0872 56.5827C12.4304 56.5827 11.0872 57.9258 11.0872 59.5827H17.0872ZM11.0872 100.833C11.0872 102.49 12.4304 103.833 14.0872 103.833C15.7441 103.833 17.0872 102.49 17.0872 100.833H11.0872ZM99.5872 59.5827C99.5872 57.9258 98.2441 56.5827 96.5872 56.5827C94.9304 56.5827 93.5872 57.9258 93.5872 59.5827H99.5872ZM93.5872 100.833C93.5872 102.49 94.9304 103.833 96.5872 103.833C98.2441 103.833 99.5872 102.49 99.5872 100.833H93.5872ZM37.7122 36.666C37.7122 35.0092 36.3691 33.666 34.7122 33.666C33.0554 33.666 31.7122 35.0092 31.7122 36.666H37.7122ZM31.7122 100.833C31.7122 102.49 33.0554 103.833 34.7122 103.833C36.3691 103.833 37.7122 102.49 37.7122 100.833H31.7122ZM78.9622 36.666C78.9622 35.0092 77.6191 33.666 75.9622 33.666C74.3054 33.666 72.9622 35.0092 72.9622 36.666H78.9622ZM72.9622 100.833C72.9622 102.49 74.3054 103.833 75.9622 103.833C77.6191 103.833 78.9622 102.49 78.9622 100.833H72.9622ZM78.2539 56.5827C76.597 56.5827 75.2539 57.9258 75.2539 59.5827C75.2539 61.2395 76.597 62.5827 78.2539 62.5827V56.5827ZM101.171 62.5827C102.827 62.5827 104.171 61.2395 104.171 59.5827C104.171 57.9258 102.827 56.5827 101.171 56.5827V62.5827ZM9.50391 56.5827C7.84705 56.5827 6.50391 57.9258 6.50391 59.5827C6.50391 61.2395 7.84705 62.5827 9.50391 62.5827V56.5827ZM32.4206 62.5827C34.0774 62.5827 35.4206 61.2395 35.4206 59.5827C35.4206 57.9258 34.0774 56.5827 32.4206 56.5827V62.5827ZM30.1289 33.666C28.4721 33.666 27.1289 35.0092 27.1289 36.666C27.1289 38.3229 28.4721 39.666 30.1289 39.666V33.666ZM80.5456 39.666C82.2024 39.666 83.5456 38.3229 83.5456 36.666C83.5456 35.0092 82.2024 33.666 80.5456 33.666V39.666ZM52.3372 36.666C52.3372 38.3229 53.6804 39.666 55.3372 39.666C56.9941 39.666 58.3372 38.3229 58.3372 36.666H52.3372ZM73.6706 22.8345V25.8345C75.3274 25.8345 76.6706 24.4913 76.6706 22.8345H73.6706ZM56.0085 9.67813L58.136 11.7932L56.0085 9.67813ZM70.0968 14.6043L68.5238 17.1588L70.0968 14.6043ZM52.3372 100.833C52.3372 102.49 53.6804 103.833 55.3372 103.833C56.9941 103.833 58.3372 102.49 58.3372 100.833H52.3372ZM58.3372 91.666C58.3372 90.0092 56.9941 88.666 55.3372 88.666C53.6804 88.666 52.3372 90.0092 52.3372 91.666H58.3372ZM51.4622 54.9994C51.4622 53.3425 50.1191 51.9994 48.4622 51.9994C46.8054 51.9994 45.4622 53.3425 45.4622 54.9994H51.4622ZM45.4622 57.291C45.4622 58.9479 46.8054 60.291 48.4622 60.291C50.1191 60.291 51.4622 58.9479 51.4622 57.291H45.4622ZM65.2122 54.9994C65.2122 53.3425 63.8691 51.9994 62.2122 51.9994C60.5554 51.9994 59.2122 53.3425 59.2122 54.9994H65.2122ZM59.2122 57.291C59.2122 58.9479 60.5554 60.291 62.2122 60.291C63.8691 60.291 65.2122 58.9479 65.2122 57.291H59.2122ZM51.4622 73.3327C51.4622 71.6758 50.1191 70.3327 48.4622 70.3327C46.8054 70.3327 45.4622 71.6758 45.4622 73.3327H51.4622ZM45.4622 75.6244C45.4622 77.2812 46.8054 78.6244 48.4622 78.6244C50.1191 78.6244 51.4622 77.2812 51.4622 75.6244H45.4622ZM65.2122 73.3327C65.2122 71.6758 63.8691 70.3327 62.2122 70.3327C60.5554 70.3327 59.2122 71.6758 59.2122 73.3327H65.2122ZM59.2122 75.6244C59.2122 77.2812 60.5554 78.6244 62.2122 78.6244C63.8691 78.6244 65.2122 77.2812 65.2122 75.6244H59.2122ZM9.50391 103.833H98.8789V97.8327H9.50391V103.833ZM11.0872 59.5827V100.833H17.0872V59.5827H11.0872ZM93.5872 59.5827V100.833H99.5872V59.5827H93.5872ZM31.7122 36.666V100.833H37.7122V36.666H31.7122ZM72.9622 36.666V100.833H78.9622V36.666H72.9622ZM78.2539 62.5827H101.171V56.5827H78.2539V62.5827ZM9.50391 62.5827H32.4206V56.5827H9.50391V62.5827ZM30.1289 39.666H80.5456V33.666H30.1289V39.666ZM58.3372 36.666V22.8345H52.3372V36.666H58.3372ZM58.3372 22.8345V13.6135H52.3372V22.8345H58.3372ZM73.6706 19.8345H55.3372V25.8345H73.6706V19.8345ZM58.3372 13.6135C58.3372 13.059 58.3374 12.6245 58.3468 12.2518C58.3562 11.8776 58.3735 11.6397 58.3947 11.4814C58.4346 11.1831 58.4476 11.4798 58.136 11.7932L53.8809 7.56309C52.8981 8.55168 52.5755 9.72933 52.4476 10.6865C52.3309 11.5592 52.3372 12.6111 52.3372 13.6135H58.3372ZM58.136 11.7932C57.5217 12.4111 57.0485 12.0357 58.1161 12.2229C58.9304 12.3657 60.0616 12.7476 61.4045 13.3338C64.0536 14.4901 66.9057 16.1625 68.5238 17.1588L71.6698 12.0497C69.9867 11.0134 66.8479 9.16314 63.8048 7.83481C62.3016 7.17867 60.6613 6.57769 59.1524 6.3131C57.8968 6.09293 55.5485 5.88559 53.8809 7.56309L58.136 11.7932ZM68.5238 17.1588C69.9156 18.0158 70.6706 20.0051 70.6706 22.8345H76.6706C76.6706 19.494 75.8534 14.6258 71.6698 12.0497L68.5238 17.1588ZM58.3372 100.833V91.666H52.3372V100.833H58.3372ZM45.4622 54.9994V57.291H51.4622V54.9994H45.4622ZM59.2122 54.9994V57.291H65.2122V54.9994H59.2122ZM45.4622 73.3327V75.6244H51.4622V73.3327H45.4622ZM59.2122 73.3327V75.6244H65.2122V73.3327H59.2122Z" fill="url(#paint0_linear_2229_23482)"/>
<defs>
<linearGradient id="paint0_linear_2229_23482" x1="-35.768" y1="54.7186" x2="55.3373" y2="146.385" gradientUnits="userSpaceOnUse">
<stop stop-color="#9168CD"/>
<stop offset="0.424673" stop-color="#5556FF"/>
<stop offset="0.73499" stop-color="#45ADCD"/>
<stop offset="1" stop-color="#3EC4CD"/>
</linearGradient>
</defs>
</svg>
