<svg width="110" height="110" viewBox="0 0 110 110" fill="none" xmlns="http://www.w3.org/2000/svg">
<path d="M55.0013 82.4994L53.7318 79.7812L53.7318 79.7812L55.0013 82.4994ZM18.3346 85.5821L19.0044 82.6578L19.0044 82.6578L18.3346 85.5821ZM91.668 79.4166L90.9982 82.3409L90.9982 82.3409L91.668 79.4166ZM91.668 10.6666L92.3378 7.74231L92.3378 7.74231L91.668 10.6666ZM18.3346 16.8321L19.0044 13.9078L18.3346 16.8321ZM99.9449 16.1311L102.654 14.8419L102.654 14.8418L99.9449 16.1311ZM97.356 12.8821L95.4944 15.2347L95.4944 15.2347L97.356 12.8821ZM10.0577 80.1176L7.34884 81.4069L7.34884 81.4069L10.0577 80.1176ZM12.6466 83.3666L14.5082 81.014L14.5082 81.014L12.6466 83.3666ZM55.0013 96.2494L56.2708 98.9675L56.2708 98.9675L55.0013 96.2494ZM10.4375 93.5312C8.93629 92.8301 7.15095 93.4786 6.44982 94.9798C5.74869 96.481 6.39726 98.2664 7.89845 98.9675L10.4375 93.5312ZM99.5651 98.9675C101.066 99.6686 102.852 99.0201 103.553 97.5189C104.254 96.0177 103.605 94.2323 102.104 93.5312L99.5651 98.9675ZM28.2096 52.7077C28.2096 51.0508 26.8665 49.7077 25.2096 49.7077C23.5528 49.7077 22.2096 51.0508 22.2096 52.7077H28.2096ZM22.2096 52.7488C22.2096 54.4057 23.5528 55.7488 25.2096 55.7488C26.8665 55.7488 28.2096 54.4057 28.2096 52.7488H22.2096ZM87.793 43.5052C87.793 41.8484 86.4498 40.5052 84.793 40.5052C83.1361 40.5052 81.793 41.8484 81.793 43.5052H87.793ZM81.793 43.5464C81.793 45.2032 83.1361 46.5464 84.793 46.5464C86.4498 46.5464 87.793 45.2032 87.793 43.5464H81.793ZM32.0846 90.0827C41.2369 90.0827 49.7047 88.2842 56.2708 85.2175L53.7318 79.7812C48.083 82.4195 40.5055 84.0827 32.0846 84.0827V90.0827ZM56.2708 85.2175C61.9196 82.5792 69.4971 80.916 77.918 80.916V74.916C68.7657 74.916 60.298 76.7145 53.7318 79.7812L56.2708 85.2175ZM32.0846 21.3327C41.2369 21.3327 49.7047 19.5342 56.2708 16.4675L53.7318 11.0312C48.083 13.6695 40.5055 15.3327 32.0846 15.3327V21.3327ZM56.2708 16.4675C61.9196 13.8292 69.4971 12.166 77.918 12.166V6.16602C68.7657 6.16602 60.298 7.96447 53.7318 11.0312L56.2708 16.4675ZM97.8346 23.4384V72.8103H103.835V23.4384H97.8346ZM6.16797 23.4384V72.8103H12.168V23.4384H6.16797ZM17.6648 88.5064C22.1091 89.5243 26.9835 90.0827 32.0846 90.0827V84.0827C27.4148 84.0827 22.9907 83.5709 19.0044 82.6578L17.6648 88.5064ZM77.918 80.916C82.5878 80.916 87.0119 81.4278 90.9982 82.3409L92.3378 76.4923C87.8935 75.4744 83.0191 74.916 77.918 74.916V80.916ZM77.918 12.166C82.5878 12.166 87.0119 12.6778 90.9982 13.5909L92.3378 7.74231C87.8935 6.72439 83.0191 6.16602 77.918 6.16602V12.166ZM17.6648 19.7564C22.1091 20.7743 26.9835 21.3327 32.0846 21.3327V15.3327C27.4148 15.3327 22.9907 14.8209 19.0044 13.9078L17.6648 19.7564ZM103.835 23.4384C103.835 20.0191 103.894 17.4474 102.654 14.8419L97.2361 17.4204C97.7754 18.5534 97.8346 19.6071 97.8346 23.4384H103.835ZM90.9982 13.5909C93.7774 14.2274 94.4758 14.4287 95.4944 15.2347L99.2175 10.5295C96.9892 8.76635 94.9779 8.34702 92.3378 7.74231L90.9982 13.5909ZM102.654 14.8418C101.949 13.3611 100.503 11.5471 99.2175 10.5295L95.4944 15.2347C96.0603 15.6824 96.926 16.7689 97.2361 17.4204L102.654 14.8418ZM97.8346 72.8103C97.8346 74.9947 95.2717 77.1643 92.3378 76.4923L90.9982 82.3409C96.8639 83.6844 103.835 79.6536 103.835 72.8103H97.8346ZM12.168 23.4384C12.168 21.254 14.7309 19.0844 17.6648 19.7564L19.0044 13.9078C13.1387 12.5643 6.16797 16.5951 6.16797 23.4384H12.168ZM6.16797 72.8103C6.16797 76.2296 6.10871 78.8013 7.34884 81.4069L12.7665 78.8283C12.2272 77.6953 12.168 76.6417 12.168 72.8103H6.16797ZM19.0044 82.6578C16.2252 82.0213 15.5268 81.82 14.5082 81.014L10.7851 85.7192C13.0134 87.4824 15.0247 87.9017 17.6648 88.5064L19.0044 82.6578ZM7.34884 81.4069C8.05361 82.8876 9.49911 84.7016 10.7851 85.7192L14.5082 81.014C13.9423 80.5663 13.0766 79.4798 12.7665 78.8283L7.34884 81.4069ZM32.0846 103.833C41.2369 103.833 49.7047 102.034 56.2708 98.9675L53.7318 93.5312C48.083 96.1695 40.5055 97.8327 32.0846 97.8327V103.833ZM7.89845 98.9675C14.4646 102.034 22.9324 103.833 32.0846 103.833V97.8327C23.6638 97.8327 16.0863 96.1695 10.4375 93.5312L7.89845 98.9675ZM77.918 94.666C86.3389 94.666 93.9163 96.3292 99.5651 98.9675L102.104 93.5312C95.538 90.4645 87.0702 88.666 77.918 88.666V94.666ZM56.2708 98.9675C61.9196 96.3292 69.4971 94.666 77.918 94.666V88.666C68.7657 88.666 60.298 90.4645 53.7318 93.5312L56.2708 98.9675ZM63.4596 48.1243C63.4596 52.7958 59.6727 56.5827 55.0013 56.5827V62.5827C62.9864 62.5827 69.4596 56.1095 69.4596 48.1243H63.4596ZM55.0013 56.5827C50.3299 56.5827 46.543 52.7958 46.543 48.1243H40.543C40.543 56.1095 47.0162 62.5827 55.0013 62.5827V56.5827ZM46.543 48.1243C46.543 43.4529 50.3299 39.666 55.0013 39.666V33.666C47.0162 33.666 40.543 40.1392 40.543 48.1243H46.543ZM55.0013 39.666C59.6727 39.666 63.4596 43.4529 63.4596 48.1243H69.4596C69.4596 40.1392 62.9864 33.666 55.0013 33.666V39.666ZM22.2096 52.7077V52.7488H28.2096V52.7077H22.2096ZM81.793 43.5052V43.5464H87.793V43.5052H81.793Z" fill="url(#paint0_linear_2073_14993)"/>
<defs>
<linearGradient id="paint0_linear_2073_14993" x1="-36.104" y1="54.7186" x2="55.0013" y2="146.385" gradientUnits="userSpaceOnUse">
<stop stop-color="#9168CD"/>
<stop offset="0.424673" stop-color="#5556FF"/>
<stop offset="0.73499" stop-color="#45ADCD"/>
<stop offset="1" stop-color="#3EC4CD"/>
</linearGradient>
</defs>
</svg>
