<svg width="96" height="96" viewBox="0 0 96 96" fill="none" xmlns="http://www.w3.org/2000/svg">
<path d="M15.6756 68.7447L17.3964 66.2873L17.3964 66.2873L15.6756 68.7447ZM11.2553 64.3244L13.7127 62.6036H13.7127L11.2553 64.3244ZM84.7447 64.3244L82.2873 62.6036V62.6036L84.7447 64.3244ZM80.3244 68.7447L82.0451 71.2022L82.0451 71.2022L80.3244 68.7447ZM80.3244 11.2553L82.0451 8.79781L82.0451 8.79781L80.3244 11.2553ZM84.7447 15.6756L82.2873 17.3964V17.3964L84.7447 15.6756ZM15.6756 11.2553L13.9549 8.79781V8.79781L15.6756 11.2553ZM11.2553 15.6756L8.79781 13.9549H8.79781L11.2553 15.6756ZM65.9586 29.7276C64.7036 28.6459 62.8093 28.7864 61.7276 30.0414C60.6459 31.2964 60.7864 33.1907 62.0414 34.2724L65.9586 29.7276ZM68.9062 36.2288L66.9475 38.5012V38.5012L68.9062 36.2288ZM68.9062 43.7712L66.9475 41.4988L68.9062 43.7712ZM62.0414 45.7276C60.7864 46.8093 60.6459 48.7036 61.7276 49.9586C62.8093 51.2136 64.7036 51.3541 65.9586 50.2724L62.0414 45.7276ZM33.9586 34.2724C35.2136 33.1907 35.3541 31.2964 34.2724 30.0414C33.1907 28.7864 31.2964 28.6459 30.0414 29.7276L33.9586 34.2724ZM27.0938 36.2288L29.0525 38.5012L29.0525 38.5012L27.0938 36.2288ZM27.0938 43.7712L29.0525 41.4988L27.0938 43.7712ZM30.0414 50.2724C31.2964 51.3541 33.1907 51.2136 34.2724 49.9586C35.3541 48.7036 35.2136 46.8093 33.9586 45.7276L30.0414 50.2724ZM54.8461 28.9487C55.37 27.3769 54.5205 25.6779 52.9487 25.1539C51.3769 24.63 49.6779 25.4795 49.1539 27.0513L54.8461 28.9487ZM41.1539 51.0513C40.63 52.6231 41.4795 54.3221 43.0513 54.8461C44.6231 55.37 46.3221 54.5205 46.8461 52.9487L41.1539 51.0513ZM56.9475 86.3246L59.0688 84.2032V84.2032L56.9475 86.3246ZM56.5016 90.1213C57.6732 91.2929 59.5727 91.2929 60.7443 90.1213C61.9158 88.9498 61.9158 87.0503 60.7443 85.8787L56.5016 90.1213ZM57.3062 73.3416C58.0472 71.8597 57.4465 70.0577 55.9646 69.3167C54.4827 68.5758 52.6806 69.1764 51.9397 70.6584L57.3062 73.3416ZM37.6775 86.3246L35.5562 84.2032L35.5562 84.2032L37.6775 86.3246ZM33.8807 85.8787C32.7092 87.0503 32.7092 88.9498 33.8807 90.1213C35.0523 91.2929 36.9518 91.2929 38.1234 90.1213L33.8807 85.8787ZM42.6853 70.6584C41.9444 69.1764 40.1423 68.5758 38.6604 69.3167C37.1785 70.0577 36.5778 71.8597 37.3188 73.3416L42.6853 70.6584ZM28 85C26.3431 85 25 86.3431 25 88C25 89.6569 26.3431 91 28 91V85ZM68 91C69.6569 91 71 89.6569 71 88C71 86.3431 69.6569 85 68 85V91ZM40 11H56V5H40V11ZM56 69H40V75H56V69ZM40 69C33.3767 69 28.6434 68.9961 24.9768 68.6096C21.3636 68.2288 19.1334 67.5036 17.3964 66.2873L13.9549 71.2022C16.8668 73.2411 20.2403 74.1436 24.3479 74.5766C28.402 75.0039 33.5064 75 40 75V69ZM5 40C5 46.4936 4.9961 51.598 5.42344 55.6521C5.8564 59.7597 6.75885 63.1332 8.79781 66.0451L13.7127 62.6036C12.4964 60.8666 11.7712 58.6364 11.3904 55.0232C11.0039 51.3566 11 46.6233 11 40H5ZM17.3964 66.2873C15.963 65.2837 14.7163 64.037 13.7127 62.6036L8.79781 66.0451C10.2029 68.0518 11.9482 69.7971 13.9549 71.2022L17.3964 66.2873ZM85 40C85 46.6233 84.9961 51.3566 84.6096 55.0232C84.2288 58.6364 83.5036 60.8666 82.2873 62.6036L87.2022 66.0451C89.2411 63.1332 90.1436 59.7597 90.5766 55.6521C91.0039 51.598 91 46.4936 91 40H85ZM56 75C62.4936 75 67.598 75.0039 71.6521 74.5766C75.7597 74.1436 79.1332 73.2411 82.0451 71.2022L78.6037 66.2873C76.8666 67.5036 74.6364 68.2288 71.0232 68.6096C67.3566 68.9961 62.6233 69 56 69V75ZM82.2873 62.6036C81.2837 64.037 80.037 65.2837 78.6036 66.2873L82.0451 71.2022C84.0518 69.7971 85.7971 68.0518 87.2022 66.0451L82.2873 62.6036ZM56 11C62.6233 11 67.3566 11.0039 71.0232 11.3904C74.6364 11.7712 76.8666 12.4964 78.6037 13.7127L82.0451 8.79781C79.1332 6.75885 75.7597 5.8564 71.6521 5.42344C67.598 4.9961 62.4936 5 56 5V11ZM91 40C91 33.5064 91.0039 28.402 90.5766 24.3479C90.1436 20.2403 89.2411 16.8668 87.2022 13.9549L82.2873 17.3964C83.5036 19.1334 84.2288 21.3636 84.6096 24.9768C84.9961 28.6434 85 33.3767 85 40H91ZM78.6036 13.7127C80.037 14.7163 81.2837 15.963 82.2873 17.3964L87.2022 13.9549C85.7971 11.9482 84.0518 10.2029 82.0451 8.79781L78.6036 13.7127ZM40 5C33.5064 5 28.402 4.9961 24.3479 5.42344C20.2403 5.8564 16.8668 6.75885 13.9549 8.79781L17.3964 13.7127C19.1334 12.4964 21.3636 11.7712 24.9768 11.3904C28.6434 11.0039 33.3767 11 40 11V5ZM11 40C11 33.3767 11.0039 28.6434 11.3904 24.9768C11.7712 21.3636 12.4964 19.1334 13.7127 17.3964L8.79781 13.9549C6.75885 16.8668 5.8564 20.2403 5.42344 24.3479C4.9961 28.402 5 33.5064 5 40H11ZM13.9549 8.79781C11.9482 10.2029 10.2029 11.9482 8.79781 13.9549L13.7127 17.3964C14.7163 15.963 15.963 14.7163 17.3964 13.7127L13.9549 8.79781ZM62.0414 34.2724L66.9475 38.5012L70.8648 33.9564L65.9586 29.7276L62.0414 34.2724ZM66.9475 41.4988L62.0414 45.7276L65.9586 50.2724L70.8648 46.0436L66.9475 41.4988ZM66.9475 38.5012C68.0456 39.4476 68.6312 39.961 68.9802 40.3553C69.2895 40.7048 69 40.5137 69 40H75C75 38.3817 74.1948 37.1939 73.4729 36.3784C72.7906 35.6076 71.8292 34.7877 70.8648 33.9564L66.9475 38.5012ZM70.8648 46.0436C71.8292 45.2123 72.7906 44.3924 73.4729 43.6216C74.1948 42.8061 75 41.6183 75 40H69C69 39.4863 69.2895 39.2952 68.9802 39.6447C68.6312 40.039 68.0456 40.5524 66.9475 41.4988L70.8648 46.0436ZM30.0414 29.7276L25.1352 33.9564L29.0525 38.5012L33.9586 34.2724L30.0414 29.7276ZM25.1352 46.0436L30.0414 50.2724L33.9586 45.7276L29.0525 41.4988L25.1352 46.0436ZM25.1352 33.9564C24.1708 34.7877 23.2094 35.6076 22.5271 36.3784C21.8052 37.1939 21 38.3817 21 40H27C27 40.5137 26.7105 40.7048 27.0198 40.3553C27.3688 39.961 27.9544 39.4476 29.0525 38.5012L25.1352 33.9564ZM29.0525 41.4988C27.9544 40.5524 27.3688 40.039 27.0198 39.6447C26.7105 39.2952 27 39.4863 27 40H21C21 41.6183 21.8052 42.8061 22.5271 43.6216C23.2094 44.3924 24.1708 45.2123 25.1352 46.0436L29.0525 41.4988ZM49.1539 27.0513L41.1539 51.0513L46.8461 52.9487L54.8461 28.9487L49.1539 27.0513ZM54.8262 88.4459L56.5016 90.1213L60.7443 85.8787L59.0688 84.2032L54.8262 88.4459ZM51.9397 70.6584C48.9734 76.5909 50.1361 83.7558 54.8262 88.4459L59.0688 84.2032C56.2049 81.3393 55.495 76.9642 57.3062 73.3416L51.9397 70.6584ZM35.5562 84.2032L33.8807 85.8787L38.1234 90.1213L39.7988 88.4459L35.5562 84.2032ZM37.3188 73.3416C39.13 76.9642 38.4201 81.3393 35.5562 84.2032L39.7988 88.4459C44.4889 83.7558 45.6516 76.5909 42.6853 70.6584L37.3188 73.3416ZM28 91H68V85H28V91Z" fill="url(#paint0_linear_1883_14039)"/>
<defs>
<linearGradient id="paint0_linear_1883_14039" x1="-31.51" y1="47.755" x2="48" y2="127.755" gradientUnits="userSpaceOnUse">
<stop stop-color="#9168CD"/>
<stop offset="0.424673" stop-color="#5556FF"/>
<stop offset="0.73499" stop-color="#45ADCD"/>
<stop offset="1" stop-color="#3EC4CD"/>
</linearGradient>
</defs>
</svg>
