<svg width="110" height="110" viewBox="0 0 110 110" fill="none" xmlns="http://www.w3.org/2000/svg">
<path d="M81.9774 78.4399C81.0011 77.4636 79.4182 77.4636 78.4419 78.4399C77.4656 79.4162 77.4656 80.9991 78.4419 81.9755L81.9774 78.4399ZM99.0669 102.6C100.043 103.577 101.626 103.577 102.602 102.6C103.579 101.624 103.579 100.041 102.602 99.0649L99.0669 102.6ZM39.1656 50.3071C39.1055 48.9277 37.9385 47.8582 36.5591 47.9184C35.1797 47.9785 34.1102 49.1455 34.1703 50.5249L39.1656 50.3071ZM37.24 63.5367L39.7376 63.4278L39.7376 63.4278L37.24 63.5367ZM66.6656 50.5249C66.7257 49.1455 65.6563 47.9785 64.2769 47.9184C62.8975 47.8582 61.7305 48.9277 61.6703 50.3071L66.6656 50.5249ZM63.5959 63.5367L61.0983 63.4278L61.0983 63.4278L63.5959 63.5367ZM38.655 66.0094L40.1112 63.9773L40.1112 63.9773L38.655 66.0094ZM62.1809 66.0094L60.7247 63.9773L60.7247 63.9773L62.1809 66.0094ZM63.5499 63.8713L65.9736 64.484L65.9736 64.484L63.5499 63.8713ZM37.2861 63.8713L39.7098 63.2585L39.7098 63.2585L37.2861 63.8713ZM72.3971 46.9785C72.3971 45.5978 71.2778 44.4785 69.8971 44.4785C68.5164 44.4785 67.3971 45.5978 67.3971 46.9785H72.3971ZM66.6233 70.4989L64.191 69.9211L66.6233 70.4989ZM73.171 70.4989L75.6033 69.9211L75.6033 69.9211L73.171 70.4989ZM78.4419 81.9755L99.0669 102.6L102.602 99.0649L81.9774 78.4399L78.4419 81.9755ZM94.168 50.416C94.168 26.2536 74.5804 6.66602 50.418 6.66602V11.666C71.819 11.666 89.168 29.015 89.168 50.416H94.168ZM50.418 6.66602C26.2555 6.66602 6.66797 26.2536 6.66797 50.416H11.668C11.668 29.015 29.0169 11.666 50.418 11.666V6.66602ZM6.66797 50.416C6.66797 74.5785 26.2555 94.166 50.418 94.166V89.166C29.0169 89.166 11.668 71.8171 11.668 50.416H6.66797ZM50.418 94.166C74.5804 94.166 94.168 74.5785 94.168 50.416H89.168C89.168 71.8171 71.819 89.166 50.418 89.166V94.166ZM30.0013 43.541C30.0013 43.7597 29.9602 43.9267 29.9269 44.0268C29.894 44.1257 29.8622 44.1792 29.8591 44.1845C29.8583 44.1858 29.9137 44.098 30.0878 43.9215C30.4365 43.568 31.0246 43.0951 31.8681 42.5271C33.5365 41.4036 35.874 40.1271 38.4106 38.9142C40.9361 37.7065 43.5837 36.5976 45.8418 35.7969C46.9719 35.3962 47.9773 35.0822 48.8044 34.8715C49.6759 34.6495 50.1959 34.5827 50.418 34.5827V29.5827C49.555 29.5827 48.5452 29.7779 47.57 30.0263C46.5504 30.2861 45.3926 30.6511 44.1707 31.0844C41.7251 31.9516 38.9148 33.1308 36.2536 34.4034C33.6036 35.6706 31.0256 37.0665 29.0754 38.3797C28.1094 39.0301 27.2124 39.7166 26.5282 40.4101C26.1858 40.7572 25.8379 41.1648 25.5629 41.6267C25.2975 42.0724 25.0013 42.734 25.0013 43.541H30.0013ZM75.8346 43.541C75.8346 42.734 75.5384 42.0724 75.2731 41.6267C74.9981 41.1648 74.6501 40.7572 74.3077 40.4101C73.6236 39.7166 72.7265 39.0301 71.7606 38.3797C69.8103 37.0665 67.2324 35.6706 64.5823 34.4034C61.9211 33.1308 59.1108 31.9516 56.6652 31.0844C55.4434 30.6511 54.2855 30.2861 53.266 30.0263C52.2908 29.7779 51.281 29.5827 50.418 29.5827V34.5827C50.64 34.5827 51.1601 34.6495 52.0315 34.8715C52.8586 35.0822 53.8641 35.3962 54.9941 35.7969C57.2523 36.5976 59.8998 37.7065 62.4253 38.9142C64.9619 40.1271 67.2994 41.4036 68.9679 42.5271C69.8113 43.0951 70.3995 43.568 70.7482 43.9215C70.9222 44.098 70.9776 44.1858 70.9768 44.1845C70.9737 44.1792 70.942 44.1257 70.9091 44.0268C70.8757 43.9267 70.8346 43.7597 70.8346 43.541H75.8346ZM70.8346 43.541C70.8346 43.3223 70.8757 43.1554 70.9091 43.0552C70.942 42.9563 70.9737 42.9028 70.9768 42.8975C70.9776 42.8962 70.9222 42.9841 70.7482 43.1605C70.3995 43.514 69.8113 43.987 68.9679 44.5549C67.2994 45.6784 64.9619 46.9549 62.4253 48.1679C59.8998 49.3755 57.2523 50.4844 54.9941 51.2852C53.8641 51.6859 52.8586 51.9998 52.0315 52.2105C51.1601 52.4325 50.64 52.4993 50.418 52.4993V57.4993C51.281 57.4993 52.2908 57.3042 53.266 57.0557C54.2855 56.796 55.4434 56.4309 56.6652 55.9976C59.1108 55.1304 61.9211 53.9512 64.5823 52.6787C67.2324 51.4114 69.8103 50.0155 71.7606 48.7023C72.7265 48.0519 73.6236 47.3654 74.3077 46.6719C74.6501 46.3248 74.9981 45.9172 75.2731 45.4553C75.5384 45.0096 75.8346 44.348 75.8346 43.541H70.8346ZM25.0013 43.541C25.0013 44.348 25.2975 45.0096 25.5629 45.4553C25.8379 45.9172 26.1858 46.3248 26.5282 46.6719C27.2124 47.3654 28.1094 48.0519 29.0754 48.7023C31.0256 50.0155 33.6036 51.4114 36.2536 52.6787C38.9148 53.9512 41.7251 55.1304 44.1707 55.9976C45.3926 56.4309 46.5504 56.796 47.57 57.0557C48.5452 57.3042 49.555 57.4993 50.418 57.4993V52.4993C50.1959 52.4993 49.6759 52.4325 48.8044 52.2105C47.9773 51.9998 46.9719 51.6859 45.8418 51.2852C43.5837 50.4844 40.9361 49.3755 38.4106 48.1679C35.874 46.9549 33.5365 45.6784 31.8681 44.5549C31.0246 43.987 30.4365 43.514 30.0878 43.1605C29.9137 42.9841 29.8583 42.8962 29.8591 42.8975C29.8622 42.9028 29.894 42.9563 29.9269 43.0552C29.9602 43.1554 30.0013 43.3223 30.0013 43.541H25.0013ZM34.1703 50.5249L34.7424 63.6456L39.7376 63.4278L39.1656 50.3071L34.1703 50.5249ZM61.6703 50.3071L61.0983 63.4278L66.0936 63.6456L66.6656 50.5249L61.6703 50.3071ZM37.1988 68.0415C38.8521 69.2263 41.002 70.0093 43.2202 70.5043C45.4709 71.0066 47.9597 71.2494 50.418 71.2494C52.8762 71.2494 55.365 71.0066 57.6157 70.5043C59.834 70.0093 61.9838 69.2263 63.6372 68.0415L60.7247 63.9773C59.8291 64.6191 58.4009 65.2061 56.5267 65.6244C54.6849 66.0354 52.5667 66.2494 50.418 66.2494C48.2692 66.2494 46.151 66.0354 44.3092 65.6244C42.435 65.2061 41.0068 64.6191 40.1112 63.9773L37.1988 68.0415ZM61.1261 63.2585C61.0174 63.6887 60.8398 63.8949 60.7247 63.9773L63.6372 68.0415C64.9442 67.1049 65.6539 65.7485 65.9736 64.484L61.1261 63.2585ZM34.8623 64.484C35.182 65.7485 35.8918 67.1049 37.1988 68.0415L40.1112 63.9773C39.9961 63.8949 39.8186 63.6887 39.7098 63.2585L34.8623 64.484ZM61.0983 63.4278C61.0988 63.4173 61.102 63.354 61.1261 63.2585L65.9736 64.484C66.0531 64.1697 66.0833 63.8816 66.0936 63.6456L61.0983 63.4278ZM34.7424 63.6456C34.7527 63.8817 34.7829 64.1697 34.8623 64.484L39.7098 63.2585C39.7339 63.354 39.7372 63.4173 39.7376 63.4278L34.7424 63.6456ZM67.3971 46.9785V63.0367H72.3971V46.9785H67.3971ZM69.0556 71.0767C69.3665 69.7682 69.9053 68.5554 70.5054 67.3812C71.0311 66.3525 71.8119 64.9944 72.2224 63.955L67.5719 62.1184C67.2761 62.8674 66.7985 63.6472 66.053 65.106C65.382 66.4191 64.6371 68.0432 64.191 69.9211L69.0556 71.0767ZM75.6033 69.9211C75.1572 68.0432 74.4123 66.4191 73.7412 65.106C72.9958 63.6472 72.5182 62.8674 72.2224 62.1184L67.5719 63.955C67.9824 64.9944 68.7632 66.3525 69.2889 67.3812C69.8889 68.5554 70.4278 69.7682 70.7386 71.0767L75.6033 69.9211ZM70.62 70.8327H69.1742V75.8327H70.62V70.8327ZM64.191 69.9211C63.9037 71.1303 63.6268 73.0981 65.0664 74.5421C65.7346 75.2123 66.5407 75.5088 67.1931 75.6535C67.843 75.7977 68.5322 75.8327 69.1742 75.8327V70.8327C68.9346 70.8327 68.7411 70.8255 68.5851 70.8131C68.4276 70.8005 68.3295 70.7841 68.2757 70.7721C68.2213 70.7601 68.2396 70.7586 68.3014 70.7882C68.3683 70.8204 68.4842 70.8884 68.6072 71.0118C68.6678 71.0725 68.7237 71.1404 68.773 71.214C68.8222 71.2875 68.8602 71.3598 68.8888 71.4271C68.9458 71.5612 68.9573 71.6559 68.9593 71.6774C68.9611 71.696 68.9559 71.6602 68.9678 71.5512C68.9795 71.4436 69.0052 71.2889 69.0556 71.0767L64.191 69.9211ZM70.7386 71.0767C70.789 71.2889 70.8148 71.4436 70.8265 71.5512C70.8384 71.6602 70.8332 71.696 70.8349 71.6774C70.8369 71.6559 70.8485 71.5612 70.9055 71.4271C70.9341 71.3598 70.9721 71.2875 71.0212 71.214C71.0705 71.1404 71.1265 71.0725 71.187 71.0118C71.3101 70.8884 71.4259 70.8204 71.4929 70.7882C71.5547 70.7586 71.5729 70.7601 71.5186 70.7721C71.4648 70.7841 71.3667 70.8005 71.2092 70.8131C71.0531 70.8255 70.8596 70.8327 70.62 70.8327V75.8327C71.2621 75.8327 71.9513 75.7977 72.6011 75.6535C73.2536 75.5088 74.0596 75.2123 74.7278 74.5421C76.1675 73.0981 75.8905 71.1303 75.6033 69.9211L70.7386 71.0767Z" fill="url(#paint0_linear_2073_15022)"/>
<defs>
<linearGradient id="paint0_linear_2073_15022" x1="-36.104" y1="54.7186" x2="55.0013" y2="146.385" gradientUnits="userSpaceOnUse">
<stop stop-color="#9168CD"/>
<stop offset="0.424673" stop-color="#5556FF"/>
<stop offset="0.73499" stop-color="#45ADCD"/>
<stop offset="1" stop-color="#3EC4CD"/>
</linearGradient>
</defs>
</svg>
