<svg width="110" height="110" viewBox="0 0 110 110" fill="none" xmlns="http://www.w3.org/2000/svg">
<path d="M21.6537 21.7931L20.7429 18.9348L20.7429 18.9348L21.6537 21.7931ZM88.3424 21.7935L87.4319 24.652L87.4319 24.652L88.3424 21.7935ZM95.6685 24.8162L93.4399 26.8245L93.4399 26.8245L95.6685 24.8162ZM97.305 30.0212L100.257 29.4881L100.257 29.4881L97.305 30.0212ZM47.6119 99.08L46.5404 101.882L46.5404 101.882L47.6119 99.08ZM55.0057 100.833L55.0057 103.833L55.0057 103.833L55.0057 100.833ZM62.3992 99.0799L61.3276 96.2778L61.3276 96.2778L62.3992 99.0799ZM14.3273 24.817L16.5562 26.825L16.5562 26.825L14.3273 24.817ZM12.6914 30.0213L9.73913 29.4883L9.73913 29.4883L12.6914 30.0213ZM8.45918 41.1364C8.39652 42.7921 9.68791 44.185 11.3436 44.2477C12.9992 44.3104 14.3922 43.019 14.4549 41.3633L8.45918 41.1364ZM95.5425 41.3637C95.6054 43.0193 96.9985 44.3105 98.6542 44.2477C100.31 44.1848 101.601 42.7917 101.538 41.136L95.5425 41.3637ZM91.6342 79.5561C92.5397 78.1686 92.149 76.3097 90.7614 75.4042C89.3739 74.4987 87.5151 74.8894 86.6095 76.2769L91.6342 79.5561ZM23.3954 76.2764C22.4896 74.8891 20.6307 74.4987 19.2433 75.4045C17.856 76.3103 17.4656 78.1692 18.3714 79.5566L23.3954 76.2764ZM41.0783 52.8791C39.9067 51.7075 38.0072 51.7075 36.8356 52.8791C35.6641 54.0506 35.6641 55.9501 36.8356 57.1217L41.0783 52.8791ZM46.0023 66.2884C47.1739 67.46 49.0734 67.46 50.2449 66.2884C51.4165 65.1168 51.4165 63.2173 50.2449 62.0457L46.0023 66.2884ZM50.2449 57.1217C51.4165 55.9501 51.4165 54.0507 50.2449 52.8791C49.0734 51.7075 47.1739 51.7075 46.0023 52.8791L50.2449 57.1217ZM36.8356 62.0457C35.6641 63.2173 35.6641 65.1168 36.8356 66.2884C38.0072 67.46 39.9067 67.46 41.0783 66.2884L36.8356 62.0457ZM18.1616 52.8791C16.99 51.7075 15.0905 51.7075 13.919 52.8791C12.7474 54.0506 12.7474 55.9501 13.919 57.1217L18.1616 52.8791ZM23.0856 66.2884C24.2572 67.46 26.1567 67.46 27.3283 66.2884C28.4998 65.1168 28.4998 63.2173 27.3283 62.0457L23.0856 66.2884ZM27.3283 57.1217C28.4998 55.9501 28.4998 54.0506 27.3283 52.8791C26.1567 51.7075 24.2572 51.7075 23.0856 52.8791L27.3283 57.1217ZM13.919 62.0457C12.7474 63.2173 12.7474 65.1168 13.919 66.2884C15.0905 67.46 16.99 67.46 18.1616 66.2884L13.919 62.0457ZM63.9949 52.8791C62.8234 51.7075 60.9239 51.7075 59.7523 52.8791C58.5807 54.0506 58.5807 55.9501 59.7523 57.1217L63.9949 52.8791ZM68.919 66.2884C70.0905 67.46 71.99 67.46 73.1616 66.2884C74.3332 65.1168 74.3332 63.2173 73.1616 62.0457L68.919 66.2884ZM73.1616 57.1217C74.3332 55.9501 74.3332 54.0506 73.1616 52.8791C71.99 51.7075 70.0905 51.7075 68.919 52.8791L73.1616 57.1217ZM59.7523 62.0457C58.5807 63.2173 58.5807 65.1168 59.7523 66.2884C60.9239 67.46 62.8234 67.46 63.9949 66.2884L59.7523 62.0457ZM86.9116 52.8791C85.74 51.7075 83.8405 51.7075 82.6689 52.8791C81.4974 54.0506 81.4974 55.9501 82.6689 57.1217L86.9116 52.8791ZM91.8356 66.2884C93.0072 67.46 94.9067 67.46 96.0783 66.2884C97.2498 65.1168 97.2498 63.2173 96.0783 62.0457L91.8356 66.2884ZM96.0783 57.1217C97.2498 55.9501 97.2498 54.0506 96.0783 52.8791C94.9067 51.7075 93.0072 51.7075 91.8356 52.8791L96.0783 57.1217ZM82.6689 62.0457C81.4974 63.2173 81.4974 65.1168 82.6689 66.2884C83.8405 67.46 85.74 67.46 86.9116 66.2884L82.6689 62.0457ZM22.5646 24.6515C28.1782 22.8626 33.5674 19.4286 38.494 16.8794C43.6186 14.2278 48.7979 12.1665 54.9906 12.1665V6.1665C47.3806 6.1665 41.1837 8.73209 35.7367 11.5505C30.0916 14.4714 25.7137 17.3507 20.7429 18.9348L22.5646 24.6515ZM89.2528 18.935C84.2798 17.351 79.898 14.4713 74.2501 11.5505C68.8003 8.73216 62.6008 6.1665 54.9906 6.1665V12.1665C61.1838 12.1665 66.3658 14.2281 71.4939 16.88C76.4239 19.4296 81.8164 22.8634 87.4319 24.652L89.2528 18.935ZM87.4319 24.652C89.6245 25.3504 91.127 25.8306 92.1996 26.2502C93.3595 26.704 93.5169 26.91 93.4399 26.8245L97.8972 22.808C96.9491 21.7558 95.5952 21.1358 94.3856 20.6626C93.0887 20.1552 91.3636 19.6073 89.2528 18.935L87.4319 24.652ZM100.257 29.4881C100.013 28.1347 99.7937 26.9021 99.5065 25.8972C99.203 24.8354 98.7549 23.7598 97.8972 22.808L93.4399 26.8245C93.4532 26.8393 93.5682 26.9535 93.7376 27.5461C93.9232 28.1958 94.0869 29.0823 94.3527 30.5544L100.257 29.4881ZM46.5404 101.882C49.604 103.054 51.5912 103.833 55.0057 103.833L55.0057 97.8332C52.8028 97.8332 51.7333 97.4441 48.6834 96.2778L46.5404 101.882ZM61.3276 96.2778C58.278 97.444 57.2086 97.8331 55.0057 97.8332L55.0057 103.833C58.4203 103.833 60.4074 103.053 63.4707 101.882L61.3276 96.2778ZM20.7429 18.9348C18.6319 19.6075 16.9068 20.1556 15.6098 20.6632C14.4004 21.1366 13.0464 21.7567 12.0984 22.809L16.5562 26.825C16.4791 26.9106 16.6365 26.7046 17.7966 26.2505C18.8692 25.8307 20.3719 25.3503 22.5646 24.6515L20.7429 18.9348ZM15.6437 30.5543C15.9094 29.0823 16.073 28.196 16.2586 27.5465C16.4279 26.954 16.5428 26.8398 16.5562 26.825L12.0984 22.809C11.2409 23.7608 10.7929 24.8362 10.4895 25.8979C10.2024 26.9026 9.98342 28.1351 9.73913 29.4883L15.6437 30.5543ZM14.4549 41.3633C14.5889 37.8211 14.9839 34.2087 15.6437 30.5543L9.73913 29.4883C9.03102 33.4107 8.60424 37.3034 8.45918 41.1364L14.4549 41.3633ZM101.538 41.136C101.393 37.3031 100.966 33.4104 100.257 29.4881L94.3527 30.5544C95.0127 34.2089 95.408 37.8213 95.5425 41.3637L101.538 41.136ZM63.4707 101.882C75.7932 97.1697 85.2306 89.3682 91.6342 79.5561L86.6095 76.2769C80.9129 85.0057 72.4955 92.007 61.3276 96.2778L63.4707 101.882ZM48.6834 96.2778C37.5146 92.007 29.0946 85.0055 23.3954 76.2764L18.3714 79.5566C24.7776 89.3686 34.2173 97.1699 46.5404 101.882L48.6834 96.2778ZM36.8356 57.1217L41.419 61.705L45.6616 57.4624L41.0783 52.8791L36.8356 57.1217ZM41.419 61.705L46.0023 66.2884L50.2449 62.0457L45.6616 57.4624L41.419 61.705ZM46.0023 52.8791L41.419 57.4624L45.6616 61.7051L50.2449 57.1217L46.0023 52.8791ZM41.419 57.4624L36.8356 62.0457L41.0783 66.2884L45.6616 61.705L41.419 57.4624ZM13.919 57.1217L18.5023 61.705L22.7449 57.4624L18.1616 52.8791L13.919 57.1217ZM18.5023 61.705L23.0856 66.2884L27.3283 62.0457L22.7449 57.4624L18.5023 61.705ZM23.0856 52.8791L18.5023 57.4624L22.7449 61.705L27.3283 57.1217L23.0856 52.8791ZM18.5023 57.4624L13.919 62.0457L18.1616 66.2884L22.7449 61.705L18.5023 57.4624ZM59.7523 57.1217L64.3356 61.705L68.5783 57.4624L63.9949 52.8791L59.7523 57.1217ZM64.3356 61.705L68.919 66.2884L73.1616 62.0457L68.5783 57.4624L64.3356 61.705ZM68.919 52.8791L64.3356 57.4624L68.5783 61.705L73.1616 57.1217L68.919 52.8791ZM64.3356 57.4624L59.7523 62.0457L63.9949 66.2884L68.5783 61.705L64.3356 57.4624ZM82.6689 57.1217L87.2523 61.7051L91.4949 57.4624L86.9116 52.8791L82.6689 57.1217ZM87.2523 61.7051L91.8356 66.2884L96.0783 62.0457L91.4949 57.4624L87.2523 61.7051ZM91.8356 52.8791L87.2523 57.4624L91.4949 61.7051L96.0783 57.1217L91.8356 52.8791ZM87.2523 57.4624L82.6689 62.0457L86.9116 66.2884L91.4949 61.7051L87.2523 57.4624Z" fill="url(#paint0_linear_2495_15981)"/>
<defs>
<linearGradient id="paint0_linear_2495_15981" x1="-31.5513" y1="54.7191" x2="59.4629" y2="141.715" gradientUnits="userSpaceOnUse">
<stop stop-color="#9168CD"/>
<stop offset="0.424673" stop-color="#5556FF"/>
<stop offset="0.73499" stop-color="#45ADCD"/>
<stop offset="1" stop-color="#3EC4CD"/>
</linearGradient>
</defs>
</svg>
