<svg width="110" height="110" viewBox="0 0 110 110" fill="none" xmlns="http://www.w3.org/2000/svg">
<path d="M69.1044 55.4099L72.0874 55.7285L72.0874 55.7285L69.1044 55.4099ZM40.8982 55.4099L37.9152 55.7285L37.9152 55.7285L40.8982 55.4099ZM74.184 49.5776L73.9083 46.5903L73.9083 46.5903L74.184 49.5776ZM35.8186 49.5776L35.5429 52.5649L35.5429 52.5649L35.8186 49.5776ZM55.0004 52C53.3436 52 52.0004 53.3431 52.0004 55C52.0004 56.6569 53.3436 58 55.0004 58V52ZM55.0416 58C56.6984 58 58.0416 56.6569 58.0416 55C58.0416 53.3431 56.6984 52 55.0416 52V58ZM18.3346 10.75C16.6778 10.75 15.3346 12.0931 15.3346 13.75C15.3346 15.4069 16.6778 16.75 18.3346 16.75V10.75ZM36.668 16.75C38.3248 16.75 39.668 15.4069 39.668 13.75C39.668 12.0931 38.3248 10.75 36.668 10.75V16.75ZM24.5013 32.0833C24.5013 33.7402 25.8444 35.0833 27.5013 35.0833C29.1582 35.0833 30.5013 33.7402 30.5013 32.0833H24.5013ZM73.3346 10.75C71.6778 10.75 70.3346 12.0931 70.3346 13.75C70.3346 15.4069 71.6778 16.75 73.3346 16.75V10.75ZM91.668 16.75C93.3248 16.75 94.668 15.4069 94.668 13.75C94.668 12.0931 93.3248 10.75 91.668 10.75V16.75ZM79.5013 32.0833C79.5013 33.7402 80.8445 35.0833 82.5013 35.0833C84.1582 35.0833 85.5013 33.7402 85.5013 32.0833H79.5013ZM19.918 96.25C19.918 97.9069 21.2611 99.25 22.918 99.25C24.5748 99.25 25.918 97.9069 25.918 96.25H19.918ZM84.0846 96.25C84.0846 97.9069 85.4278 99.25 87.0846 99.25C88.7415 99.25 90.0846 97.9069 90.0846 96.25H84.0846ZM64.168 63.4583C62.5111 63.4583 61.168 64.8015 61.168 66.4583C61.168 68.1152 62.5111 69.4583 64.168 69.4583V63.4583ZM45.8346 69.4583C47.4915 69.4583 48.8346 68.1152 48.8346 66.4583C48.8346 64.8015 47.4915 63.4583 45.8346 63.4583V69.4583ZM12.168 41.25C12.168 41.7082 11.9227 41.8152 12.1961 41.548C12.4744 41.276 13.0458 40.8699 14.0522 40.394C16.0497 39.4495 19.1318 38.5197 23.1806 37.7099C31.2288 36.1003 42.4807 35.0833 55.0013 35.0833V29.0833C42.2089 29.0833 30.5441 30.1184 22.0039 31.8264C17.7585 32.6755 14.1284 33.721 11.4874 34.9698C10.1744 35.5906 8.94497 36.3357 8.00223 37.2571C7.05448 38.1835 6.16797 39.5262 6.16797 41.25H12.168ZM55.0013 35.0833C67.5219 35.0833 78.7738 36.1003 86.822 37.7099C90.8708 38.5197 93.9529 39.4495 95.9504 40.394C96.9568 40.8699 97.5282 41.276 97.8066 41.548C98.0799 41.8152 97.8346 41.7082 97.8346 41.25H103.835C103.835 39.5262 102.948 38.1835 102 37.2571C101.058 36.3357 99.8282 35.5906 98.5152 34.9698C95.8742 33.721 92.2441 32.6755 87.9987 31.8264C79.4585 30.1184 67.7937 29.0833 55.0013 29.0833V35.0833ZM66.1214 55.0913C65.4779 61.1163 60.6865 65.75 55.0013 65.75V71.75C64.1298 71.75 71.1598 64.4139 72.0874 55.7285L66.1214 55.0913ZM55.0013 65.75C49.3161 65.75 44.5247 61.1163 43.8812 55.0913L37.9152 55.7285C38.8428 64.4139 45.8728 71.75 55.0013 71.75V65.75ZM97.8346 41.25C97.8346 40.5965 98.2822 40.7047 97.2268 41.4034C96.305 42.0137 94.7616 42.7021 92.5302 43.3857C88.1097 44.7401 81.6734 45.8737 73.9083 46.5903L74.4597 52.5649C82.4271 51.8296 89.3161 50.6458 94.2878 49.1225C96.7525 48.3674 98.922 47.4769 100.539 46.4064C102.022 45.4243 103.835 43.75 103.835 41.25H97.8346ZM36.0943 46.5903C28.3292 45.8736 21.8929 44.7401 17.4724 43.3857C15.241 42.7021 13.6976 42.0137 12.7758 41.4034C11.7204 40.7047 12.168 40.5965 12.168 41.25H6.16797C6.16797 43.75 7.98027 45.4243 9.4637 46.4064C11.0807 47.4769 13.2501 48.3674 15.7148 49.1225C20.6865 50.6458 27.5756 51.8296 35.5429 52.5649L36.0943 46.5903ZM43.8812 55.0913C43.4893 51.4217 40.861 47.0303 36.0943 46.5903L35.5429 52.5649C36.443 52.648 37.7027 53.7394 37.9152 55.7285L43.8812 55.0913ZM72.0874 55.7285C72.2999 53.7394 73.5596 52.648 74.4597 52.5649L73.9083 46.5903C69.1416 47.0303 66.5133 51.4217 66.1214 55.0913L72.0874 55.7285ZM55.0004 58H55.0416V52H55.0004V58ZM18.3346 16.75H27.5013V10.75H18.3346V16.75ZM27.5013 16.75H36.668V10.75H27.5013V16.75ZM24.5013 13.75V32.0833H30.5013V13.75H24.5013ZM73.3346 16.75H82.5013V10.75H73.3346V16.75ZM82.5013 16.75H91.668V10.75H82.5013V16.75ZM79.5013 13.75V32.0833H85.5013V13.75H79.5013ZM19.918 89.375V96.25H25.918V89.375H19.918ZM84.0846 89.375V96.25H90.0846V89.375H84.0846ZM64.168 69.4583C75.1676 69.4583 84.0846 78.3753 84.0846 89.375H90.0846C90.0846 75.0616 78.4814 63.4583 64.168 63.4583V69.4583ZM45.8346 63.4583C31.5213 63.4583 19.918 75.0616 19.918 89.375H25.918C25.918 78.3753 34.835 69.4583 45.8346 69.4583V63.4583Z" fill="url(#paint0_linear_2495_15977)"/>
<defs>
<linearGradient id="paint0_linear_2495_15977" x1="-36.104" y1="54.7473" x2="45.3853" y2="145.849" gradientUnits="userSpaceOnUse">
<stop stop-color="#9168CD"/>
<stop offset="0.424673" stop-color="#5556FF"/>
<stop offset="0.73499" stop-color="#45ADCD"/>
<stop offset="1" stop-color="#3EC4CD"/>
</linearGradient>
</defs>
</svg>
