<svg width="110" height="110" viewBox="0 0 110 110" fill="none" xmlns="http://www.w3.org/2000/svg">
<path d="M95.6161 77.1301L93.4966 75.007L93.4966 75.007L95.6161 77.1301ZM14.5471 77.1301L12.4276 79.2533L12.4276 79.2533L14.5471 77.1301ZM45.8988 12.1665C47.5557 12.1665 48.8988 10.8234 48.8988 9.1665C48.8988 7.50965 47.5557 6.1665 45.8988 6.1665V12.1665ZM103.832 59.7079C103.901 58.0524 102.615 56.6546 100.959 56.5858C99.3039 56.5169 97.9061 57.8031 97.8372 59.4585L103.832 59.7079ZM36.668 97.8332C35.0111 97.8332 33.668 99.1763 33.668 100.833C33.668 102.49 35.0111 103.833 36.668 103.833V97.8332ZM73.3346 103.833C74.9915 103.833 76.3346 102.49 76.3346 100.833C76.3346 99.1763 74.9915 97.8332 73.3346 97.8332V103.833ZM50.418 65.7498C48.7611 65.7498 47.418 67.093 47.418 68.7498C47.418 70.4067 48.7611 71.7498 50.418 71.7498V65.7498ZM59.5846 71.7498C61.2415 71.7498 62.5846 70.4067 62.5846 68.7498C62.5846 67.093 61.2415 65.7498 59.5846 65.7498V71.7498ZM64.4341 14.8485L63.5639 11.9775L63.5639 11.9775L64.4341 14.8485ZM76.7149 49.6276L75.6894 52.4469L75.6894 52.4469L76.7149 49.6276ZM60.1941 18.5512L57.2467 17.9917L57.2467 17.9917L60.1941 18.5512ZM95.9843 14.8487L95.1145 17.7198L95.1145 17.7198L95.9843 14.8487ZM83.7107 49.6275L82.6852 46.8082L82.6852 46.8082L83.7107 49.6275ZM100.225 18.5511L103.172 17.9916L103.172 17.9916L100.225 18.5511ZM60.968 16.2092L63.1461 18.2722L63.1461 18.2722L60.968 16.2092ZM45.8988 85.4998H64.2643V79.4998H45.8988V85.4998ZM64.2643 85.4998C72.8372 85.4998 79.5681 85.5062 84.8152 84.802C90.1481 84.0862 94.3954 82.5875 97.7355 79.2533L93.4966 75.007C91.4575 77.0424 88.6866 78.2286 84.0171 78.8553C79.2619 79.4935 73.0065 79.4998 64.2643 79.4998V85.4998ZM6.16797 45.8332C6.16797 54.3906 6.16158 61.111 6.8672 66.3503C7.58452 71.6763 9.08682 75.9184 12.4276 79.2533L16.6665 75.007C14.6282 72.9722 13.441 70.2082 12.8135 65.5494C12.1744 60.8038 12.168 54.5605 12.168 45.8332H6.16797ZM45.8988 79.4998C37.1566 79.4998 30.9012 79.4935 26.146 78.8553C21.4766 78.2286 18.7056 77.0424 16.6665 75.007L12.4276 79.2533C15.7677 82.5875 20.015 84.0862 25.3479 84.802C30.595 85.5062 37.326 85.4998 45.8988 85.4998V79.4998ZM45.8988 6.1665C37.326 6.1665 30.595 6.16015 25.3479 6.86438C20.015 7.58011 15.7677 9.07881 12.4276 12.413L16.6665 16.6594C18.7056 14.6239 21.4766 13.4378 26.146 12.8111C30.9012 12.1729 37.1566 12.1665 45.8988 12.1665V6.1665ZM12.168 45.8332C12.168 37.1058 12.1744 30.8626 12.8135 26.117C13.441 21.4582 14.6282 18.6941 16.6665 16.6594L12.4276 12.413C9.08682 15.748 7.58452 19.99 6.8672 25.3161C6.16158 30.5553 6.16797 37.2757 6.16797 45.8332H12.168ZM97.8372 59.4585C97.4818 68.0026 96.323 72.1855 93.4966 75.007L97.7355 79.2533C102.33 74.6665 103.473 68.3266 103.832 59.7079L97.8372 59.4585ZM52.0013 82.4998V100.833H58.0013V82.4998H52.0013ZM36.668 103.833H73.3346V97.8332H36.668V103.833ZM50.418 71.7498H59.5846V65.7498H50.418V71.7498ZM65.3044 17.7195C68.1195 16.8662 70.9235 15.1883 73.0737 14.13C75.4126 12.9789 77.6151 12.1665 80.2057 12.1665V6.1665C76.2663 6.1665 73.0868 7.43622 70.4242 8.74666C67.5731 10.1499 65.7563 11.3129 63.5639 11.9775L65.3044 17.7195ZM77.7403 46.8082C65.8906 42.4983 60.7861 31.5205 63.1415 19.1106L57.2467 17.9917C54.4381 32.7897 60.6207 46.9661 75.6894 52.4469L77.7403 46.8082ZM96.8542 11.9775C94.6607 11.313 92.8419 10.1496 89.9895 8.74651C87.3258 7.43621 84.1451 6.1665 80.2057 6.1665V12.1665C82.7966 12.1665 85.0006 12.979 87.3412 14.1304C89.4932 15.189 92.2985 16.8667 95.1145 17.7198L96.8542 11.9775ZM84.7362 52.4468C99.8049 46.9657 105.981 32.7885 103.172 17.9916L97.2772 19.1107C99.6334 31.5216 94.5331 42.4986 82.6852 46.8082L84.7362 52.4468ZM95.1145 17.7198C96.1721 18.0402 96.828 18.2404 97.28 18.4086C97.4965 18.4891 97.5839 18.5329 97.5989 18.541C97.6178 18.5511 97.4634 18.4737 97.2724 18.2721L101.628 14.1457C100.902 13.3789 99.9473 12.9992 99.3726 12.7853C98.7035 12.5363 97.8325 12.2739 96.8542 11.9775L95.1145 17.7198ZM103.172 17.9916C103.063 17.4176 102.942 16.7602 102.775 16.203C102.588 15.5813 102.274 14.8277 101.628 14.1457L97.2724 18.2721C97.0384 18.0251 96.9914 17.8069 97.0283 17.9297C97.0494 17.9999 97.08 18.1195 97.1242 18.3289C97.1684 18.5384 97.2152 18.7842 97.2772 19.1107L103.172 17.9916ZM75.6894 52.4469C77.1452 52.9763 78.3071 53.4165 80.2129 53.4165L80.2128 47.4165C79.461 47.4165 79.1768 47.3307 77.7403 46.8082L75.6894 52.4469ZM82.6852 46.8082C81.2488 47.3307 80.9647 47.4165 80.2128 47.4165L80.2129 53.4165C82.1186 53.4165 83.2805 52.9763 84.7362 52.4468L82.6852 46.8082ZM63.5639 11.9775C62.5855 12.2741 61.7145 12.5366 61.0454 12.7857C60.4707 12.9996 59.5162 13.3794 58.7899 14.1462L63.1461 18.2722C62.9551 18.4739 62.8007 18.5513 62.8197 18.5411C62.8347 18.533 62.9222 18.4893 63.1387 18.4087C63.5907 18.2404 64.2467 18.0401 65.3044 17.7195L63.5639 11.9775ZM63.1415 19.1106C63.2034 18.7841 63.2502 18.5383 63.2944 18.3289C63.3385 18.1195 63.3691 18 63.3902 17.9298C63.4271 17.807 63.3801 18.0252 63.1461 18.2722L58.7899 14.1462C58.144 14.8282 57.8307 15.5817 57.6439 16.2034C57.4765 16.7605 57.3556 17.4179 57.2467 17.9917L63.1415 19.1106Z" fill="url(#paint0_linear_2495_15971)"/>
<defs>
<linearGradient id="paint0_linear_2495_15971" x1="-36.104" y1="54.7191" x2="55.0013" y2="146.386" gradientUnits="userSpaceOnUse">
<stop stop-color="#9168CD"/>
<stop offset="0.424673" stop-color="#5556FF"/>
<stop offset="0.73499" stop-color="#45ADCD"/>
<stop offset="1" stop-color="#3EC4CD"/>
</linearGradient>
</defs>
</svg>
