<svg width="110" height="110" viewBox="0 0 110 110" fill="none" xmlns="http://www.w3.org/2000/svg">
<path d="M15.3346 68.7498C15.3346 70.4067 16.6778 71.7498 18.3346 71.7498C19.9915 71.7498 21.3346 70.4067 21.3346 68.7498H15.3346ZM52.7096 16.7498C54.3665 16.7498 55.7096 15.4067 55.7096 13.7498C55.7096 12.093 54.3665 10.7498 52.7096 10.7498V16.7498ZM88.668 68.7498C88.668 70.4067 90.0111 71.7498 91.668 71.7498C93.3248 71.7498 94.668 70.4067 94.668 68.7498H88.668ZM94.668 54.9998C94.668 53.343 93.3248 51.9998 91.668 51.9998C90.0111 51.9998 88.668 53.343 88.668 54.9998H94.668ZM18.4242 68.7498V65.7498C17.2998 65.7498 16.2699 66.3785 15.756 67.3785L18.4242 68.7498ZM16.0321 73.4039L18.6694 74.8337C18.6799 74.8144 18.6902 74.7949 18.7003 74.7753L16.0321 73.4039ZM32.7933 100.833L32.7933 103.833H32.7933V100.833ZM77.2093 100.833L77.2093 97.8332H77.2093V100.833ZM93.9701 73.404L96.6075 71.9742L96.6075 71.9742L93.9701 73.404ZM91.447 68.7498L94.0844 67.3201C93.5598 66.3525 92.5476 65.7498 91.447 65.7498V68.7498ZM99.7169 96.2675L97.0889 94.8206L97.0889 94.8206L99.7169 96.2675ZM10.2857 96.2675L12.9137 94.8206L12.9137 94.8206L10.2857 96.2675ZM68.908 19.9095L69.2026 22.895C70.6441 22.7527 71.7781 21.6009 71.8978 20.1573L68.908 19.9095ZM15.3346 32.0832V68.7498H21.3346V32.0832H15.3346ZM36.668 10.7498C32.4316 10.7498 28.9525 10.7435 26.2099 11.1122C23.381 11.4925 20.8909 12.3206 18.8982 14.3134L23.1408 18.556C23.8329 17.8639 24.8458 17.3496 27.0094 17.0587C29.2592 16.7562 32.262 16.7498 36.668 16.7498V10.7498ZM21.3346 32.0832C21.3346 27.6772 21.341 24.6744 21.6435 22.4246C21.9344 20.261 22.4487 19.2481 23.1408 18.556L18.8982 14.3134C16.9054 16.3061 16.0773 18.7962 15.697 21.6251C15.3283 24.3677 15.3346 27.8468 15.3346 32.0832H21.3346ZM52.7096 10.7498H36.668V16.7498H52.7096V10.7498ZM94.668 68.7498V54.9998H88.668V68.7498H94.668ZM15.756 67.3785L13.3639 72.0326L18.7003 74.7753L21.0924 70.1212L15.756 67.3785ZM32.7933 103.833H77.2093V97.8332H32.7933V103.833ZM96.6075 71.9742L94.0844 67.3201L88.8096 70.1796L91.3328 74.8337L96.6075 71.9742ZM18.4242 71.7498H91.447V65.7498H18.4242V71.7498ZM77.2093 103.833C83.7674 103.833 89.0491 103.842 92.9829 103.226C96.9801 102.601 100.422 101.207 102.345 97.7144L97.0889 94.8206C96.4982 95.8936 95.3509 96.7827 92.0551 97.2985C88.6958 97.8243 83.9805 97.8332 77.2093 97.8332L77.2093 103.833ZM91.3328 74.8337C94.6204 80.8981 96.5321 85.1999 97.3594 88.4402C98.162 91.5842 97.8656 93.4099 97.0889 94.8206L102.345 97.7144C104.082 94.5594 104.219 91.0527 103.173 86.956C102.152 82.9555 99.933 78.1084 96.6075 71.9742L91.3328 74.8337ZM13.3947 71.9742C10.0691 78.1084 7.85071 82.9555 6.82951 86.9561C5.78375 91.0528 5.92073 94.5595 7.65769 97.7144L12.9137 94.8206C12.137 93.4098 11.8405 91.584 12.6431 88.4401C13.4702 85.1999 15.3818 80.8981 18.6694 74.8337L13.3947 71.9742ZM32.7933 97.8332C26.0221 97.8332 21.3069 97.8243 17.9475 97.2985C14.6517 96.7827 13.5045 95.8936 12.9137 94.8206L7.65769 97.7144C9.58062 101.207 13.0225 102.601 17.0198 103.226C20.9535 103.842 26.2352 103.833 32.7933 103.833L32.7933 97.8332ZM69.8971 38.2498C65.9605 38.2498 62.5846 34.9087 62.5846 30.5554H56.5846C56.5846 38.0149 62.4429 44.2498 69.8971 44.2498V38.2498ZM97.8346 31.6248C97.8346 35.3875 94.9205 38.2498 91.5534 38.2498V44.2498C98.438 44.2498 103.835 38.4937 103.835 31.6248H97.8346ZM91.5534 24.9998C94.9205 24.9998 97.8346 27.8622 97.8346 31.6248H103.835C103.835 24.756 98.438 18.9998 91.5534 18.9998V24.9998ZM62.5846 30.5554C62.5846 26.4638 65.579 23.2526 69.2026 22.895L68.6134 16.924C61.7742 17.5989 56.5846 23.5262 56.5846 30.5554H62.5846ZM71.8978 20.1573C72.2764 15.5892 75.9399 12.1665 80.2096 12.1665V6.1665C72.6128 6.1665 66.5375 12.1918 65.9183 19.6617L71.8978 20.1573ZM69.8971 44.2498H91.5534V38.2498H69.8971V44.2498ZM80.2096 12.1665C82.4383 12.1665 83.9127 12.7822 84.9433 13.563C86.0123 14.3729 86.7917 15.5061 87.3536 16.7877C87.9164 18.0716 88.2136 19.3985 88.3711 20.4422C88.4486 20.9559 88.49 21.3851 88.5148 21.6905C88.5286 21.8616 88.5341 21.9506 88.5441 22.0825C88.5473 22.1241 88.5544 22.2189 88.5655 22.3135C88.5691 22.3441 88.5848 22.4818 88.622 22.6475C88.6352 22.7062 88.6879 22.9445 88.8145 23.2264C88.873 23.3566 89.0256 23.6776 89.3264 24.0105C89.6207 24.3363 90.3667 24.9998 91.5534 24.9998V18.9998C92.7393 18.9998 93.4847 19.663 93.7783 19.988C94.0783 20.3201 94.2302 20.6399 94.288 20.7686C94.4132 21.0474 94.4646 21.2811 94.4764 21.3335C94.5108 21.487 94.5237 21.6062 94.5245 21.6126C94.5299 21.6585 94.5309 21.6813 94.527 21.629C94.5227 21.5729 94.5097 21.3862 94.4952 21.2063C94.4631 20.8099 94.408 20.2365 94.304 19.547C94.0984 18.1845 93.6924 16.3031 92.8487 14.3786C92.004 12.4519 90.6736 10.3768 88.5665 8.78047C86.421 7.155 83.6529 6.1665 80.2096 6.1665V12.1665Z" fill="url(#paint0_linear_2495_15985)"/>
<defs>
<linearGradient id="paint0_linear_2495_15985" x1="-36.104" y1="54.7191" x2="55.0013" y2="146.386" gradientUnits="userSpaceOnUse">
<stop stop-color="#9168CD"/>
<stop offset="0.424673" stop-color="#5556FF"/>
<stop offset="0.73499" stop-color="#45ADCD"/>
<stop offset="1" stop-color="#3EC4CD"/>
</linearGradient>
</defs>
</svg>
