<svg width="110" height="110" viewBox="0 0 110 110" fill="none" xmlns="http://www.w3.org/2000/svg">
<path d="M33.9148 94.8604L32.6097 97.5616L32.6097 97.5616L33.9148 94.8604ZM24.7904 78.4582L27.7099 77.7681L24.7904 78.4582ZM29.2386 91.1852L26.9208 93.0899L26.9208 93.0899L29.2386 91.1852ZM85.2096 78.4582L82.2901 77.7681L85.2096 78.4582ZM80.7614 91.1852L83.0792 93.0899L83.0792 93.0899L80.7614 91.1852ZM76.0852 94.8604L77.3903 97.5616L77.3903 97.5616L76.0852 94.8604ZM83.2989 61.2324L81.5921 63.6996L83.2989 61.2324ZM86.598 65.3585L89.3818 64.2404L89.3818 64.2404L86.598 65.3585ZM26.7012 61.2324L28.4079 63.6996L26.7012 61.2324ZM23.402 65.3585L20.6182 64.2404L20.6182 64.2404L23.402 65.3585ZM13.75 93.25C12.0931 93.25 10.75 94.5931 10.75 96.25C10.75 97.9069 12.0931 99.25 13.75 99.25V93.25ZM96.25 99.25C97.9069 99.25 99.25 97.9069 99.25 96.25C99.25 94.5931 97.9069 93.25 96.25 93.25V99.25ZM50.4167 70.3333C48.7598 70.3333 47.4167 71.6765 47.4167 73.3333C47.4167 74.9902 48.7598 76.3333 50.4167 76.3333V70.3333ZM59.5833 76.3333C61.2402 76.3333 62.5833 74.9902 62.5833 73.3333C62.5833 71.6765 61.2402 70.3333 59.5833 70.3333V76.3333ZM34.2186 48.6826C33.2609 50.0346 33.5806 51.907 34.9326 52.8647C36.2846 53.8224 38.157 53.5028 39.1147 52.1508L34.2186 48.6826ZM70.861 52.116C71.7995 53.4814 73.6672 53.8275 75.0326 52.889C76.3981 51.9505 76.7442 50.0828 75.8057 48.7174L70.861 52.116ZM39.8821 62.5833H70.1179V56.5833H39.8821V62.5833ZM62.5721 93.25H47.4279V99.25H62.5721V93.25ZM47.4279 93.25C43.8337 93.25 41.3167 93.2477 39.3342 93.0862C37.3953 92.9283 36.1967 92.6311 35.2199 92.1592L32.6097 97.5616C34.509 98.4793 36.5213 98.8769 38.8471 99.0664C41.1293 99.2523 43.9308 99.25 47.4279 99.25V93.25ZM21.8709 79.1484C22.6686 82.523 23.3064 85.2311 24.0108 87.3951C24.7293 89.6022 25.582 91.4607 26.9208 93.0899L31.5564 89.2805C30.8743 88.4505 30.312 87.3681 29.7161 85.5378C29.1063 83.6644 28.5304 81.2386 27.7099 77.7681L21.8709 79.1484ZM35.2199 92.1592C33.8005 91.4734 32.5508 90.4905 31.5564 89.2805L26.9208 93.0899C28.469 94.9738 30.4106 96.4991 32.6097 97.5616L35.2199 92.1592ZM82.2901 77.7681C81.4696 81.2386 80.8937 83.6644 80.2839 85.5378C79.6881 87.3681 79.1257 88.4505 78.4436 89.2805L83.0792 93.0899C84.418 91.4607 85.2707 89.6022 85.9892 87.3951C86.6936 85.2311 87.3314 82.523 88.1291 79.1484L82.2901 77.7681ZM62.5721 99.25C66.0692 99.25 68.8707 99.2523 71.153 99.0664C73.4787 98.8769 75.491 98.4793 77.3903 97.5616L74.7801 92.1592C73.8033 92.6311 72.6047 92.9283 70.6658 93.0862C68.6833 93.2477 66.1663 93.25 62.5721 93.25V99.25ZM78.4436 89.2805C77.4492 90.4905 76.1995 91.4733 74.7801 92.1592L77.3903 97.5616C79.5894 96.4991 81.531 94.9738 83.0792 93.0899L78.4436 89.2805ZM70.1179 62.5833C73.7785 62.5833 76.3039 62.5867 78.2203 62.7751C80.1077 62.9606 81.011 63.2976 81.5921 63.6996L85.0056 58.7652C83.2029 57.5181 81.1148 57.0306 78.8071 56.8038C76.5286 56.5799 73.6555 56.5833 70.1179 56.5833V62.5833ZM88.1291 79.1484C88.936 75.7352 89.596 72.9584 89.8967 70.7033C90.2015 68.4173 90.1999 66.2772 89.3818 64.2404L83.8141 66.4767C84.0714 67.1172 84.197 68.0529 83.9493 69.9104C83.6976 71.7987 83.1257 74.2331 82.2901 77.7681L88.1291 79.1484ZM81.5921 63.6996C82.5941 64.3927 83.3653 65.3592 83.8141 66.4767L89.3818 64.2404C88.4926 62.0265 86.9697 60.1239 85.0056 58.7652L81.5921 63.6996ZM39.8821 56.5833C36.3446 56.5833 33.4714 56.5799 31.1929 56.8038C28.8852 57.0306 26.7972 57.5181 24.9944 58.7652L28.4079 63.6996C28.989 63.2976 29.8923 62.9606 31.7797 62.7751C33.6961 62.5867 36.2215 62.5833 39.8821 62.5833V56.5833ZM27.7099 77.7681C26.8743 74.2331 26.3024 71.7987 26.0507 69.9104C25.803 68.0529 25.9286 67.1172 26.1859 66.4767L20.6182 64.2404C19.8001 66.2772 19.7985 68.4173 20.1033 70.7033C20.404 72.9584 21.064 75.7352 21.8709 79.1484L27.7099 77.7681ZM24.9944 58.7652C23.0303 60.1239 21.5074 62.0265 20.6182 64.2404L26.1859 66.4767C26.6347 65.3592 27.4059 64.3927 28.4079 63.6996L24.9944 58.7652ZM13.75 99.25H96.25V93.25H13.75V99.25ZM50.4167 76.3333H59.5833V70.3333H50.4167V76.3333ZM39.1147 52.1508C46.4106 41.8511 63.4936 41.3971 70.861 52.116L75.8057 48.7174C65.9283 34.3467 43.7752 35.1915 34.2186 48.6826L39.1147 52.1508ZM61.1667 22.9167C61.1667 26.3224 58.4058 29.0833 55 29.0833V35.0833C61.7195 35.0833 67.1667 29.6361 67.1667 22.9167H61.1667ZM55 29.0833C51.5942 29.0833 48.8333 26.3224 48.8333 22.9167H42.8333C42.8333 29.6361 48.2805 35.0833 55 35.0833V29.0833ZM48.8333 22.9167C48.8333 19.5109 51.5942 16.75 55 16.75V10.75C48.2805 10.75 42.8333 16.1972 42.8333 22.9167H48.8333ZM55 16.75C58.4058 16.75 61.1667 19.5109 61.1667 22.9167H67.1667C67.1667 16.1972 61.7195 10.75 55 10.75V16.75Z" fill="url(#paint0_linear_2495_15975)"/>
<defs>
<linearGradient id="paint0_linear_2495_15975" x1="-26.9947" y1="54.7473" x2="55" y2="137.247" gradientUnits="userSpaceOnUse">
<stop stop-color="#9168CD"/>
<stop offset="0.424673" stop-color="#5556FF"/>
<stop offset="0.73499" stop-color="#45ADCD"/>
<stop offset="1" stop-color="#3EC4CD"/>
</linearGradient>
</defs>
</svg>
