<svg width="110" height="110" viewBox="0 0 110 110" fill="none" xmlns="http://www.w3.org/2000/svg">
<path d="M68.7513 84.3048C67.0944 84.3048 65.7513 85.648 65.7513 87.3048C65.7513 88.9617 67.0944 90.3048 68.7513 90.3048V84.3048ZM68.7636 90.3048C70.4205 90.3048 71.7636 88.9617 71.7636 87.3048C71.7636 85.648 70.4205 84.3048 68.7636 84.3048V90.3048ZM82.489 84.3048C80.8321 84.3048 79.489 85.648 79.489 87.3048C79.489 88.9617 80.8321 90.3048 82.489 90.3048V84.3048ZM82.5013 90.3048C84.1582 90.3048 85.5013 88.9617 85.5013 87.3048C85.5013 85.648 84.1582 84.3048 82.5013 84.3048V90.3048ZM22.918 84.3048C21.2611 84.3048 19.918 85.648 19.918 87.3048C19.918 88.9617 21.2611 90.3048 22.918 90.3048V84.3048ZM55.0013 90.3048C56.6582 90.3048 58.0013 88.9617 58.0013 87.3048C58.0013 85.648 56.6582 84.3048 55.0013 84.3048V90.3048ZM73.418 61.3615C73.418 59.7046 72.0748 58.3615 70.418 58.3615C68.7611 58.3615 67.418 59.7046 67.418 61.3615H73.418ZM67.418 70.6115C67.418 72.2683 68.7611 73.6115 70.418 73.6115C72.0748 73.6115 73.418 72.2683 73.418 70.6115H67.418ZM67.418 18.1948C67.418 19.8517 68.7611 21.1948 70.418 21.1948C72.0748 21.1948 73.418 19.8517 73.418 18.1948H67.418ZM73.418 8.94482C73.418 7.28797 72.0748 5.94482 70.418 5.94482C68.7611 5.94482 67.418 7.28797 67.418 8.94482H73.418ZM46.6733 49.7919L44.0753 48.2919L46.6733 49.7919ZM39.5846 52.1044L39.5846 49.1044L39.5846 52.1044ZM39.5846 27.4377V30.4377V27.4377ZM46.6733 29.7502L49.2714 28.2502L49.2714 28.2502L46.6733 29.7502ZM31.8763 35.1461H34.8763H31.8763ZM32.4959 29.7502L35.094 31.2502L35.094 31.2502L32.4959 29.7502ZM31.8763 44.3961H34.8763H31.8763ZM32.4959 49.7919L35.094 48.2919L32.4959 49.7919ZM77.5067 59.0419L80.1047 60.5419L77.5067 59.0419ZM77.5067 20.5002L80.1047 19.0002L77.5067 20.5002ZM63.3293 20.5002L60.7312 19.0002L63.3293 20.5002ZM63.3293 59.0419L65.9273 57.5419L63.3293 59.0419ZM42.5846 52.1115C42.5846 50.4546 41.2415 49.1115 39.5846 49.1115C37.9278 49.1115 36.5846 50.4546 36.5846 52.1115H42.5846ZM36.5846 70.6115C36.5846 72.2683 37.9278 73.6115 39.5846 73.6115C41.2415 73.6115 42.5846 72.2683 42.5846 70.6115H36.5846ZM36.5846 27.4448C36.5846 29.1017 37.9278 30.4448 39.5846 30.4448C41.2415 30.4448 42.5846 29.1017 42.5846 27.4448H36.5846ZM42.5846 8.94482C42.5846 7.28797 41.2415 5.94482 39.5846 5.94482C37.9278 5.94482 36.5846 7.28797 36.5846 8.94482H42.5846ZM21.168 76.5547H88.8346V70.5547H21.168V76.5547ZM97.8346 85.5547V89.0547H103.835V85.5547H97.8346ZM88.8346 98.0547H21.168V104.055H88.8346V98.0547ZM12.168 89.0547V85.5547H6.16797V89.0547H12.168ZM21.168 98.0547C16.1974 98.0547 12.168 94.0253 12.168 89.0547H6.16797C6.16797 97.339 12.8837 104.055 21.168 104.055V98.0547ZM97.8346 89.0547C97.8346 94.0253 93.8052 98.0547 88.8346 98.0547V104.055C97.1189 104.055 103.835 97.339 103.835 89.0547H97.8346ZM88.8346 76.5547C93.8052 76.5547 97.8346 80.5842 97.8346 85.5547H103.835C103.835 77.2705 97.1189 70.5547 88.8346 70.5547V76.5547ZM21.168 70.5547C12.8837 70.5547 6.16797 77.2705 6.16797 85.5547H12.168C12.168 80.5842 16.1974 76.5547 21.168 76.5547V70.5547ZM68.7513 90.3048H68.7636V84.3048H68.7513V90.3048ZM82.489 90.3048H82.5013V84.3048H82.489V90.3048ZM22.918 90.3048H55.0013V84.3048H22.918V90.3048ZM67.418 61.3615V70.6115H73.418V61.3615H67.418ZM73.418 18.1948V8.94482H67.418V18.1948H73.418ZM34.8763 44.3961V35.1461H28.8763V44.3961H34.8763ZM44.293 35.1461V44.3961H50.293V35.1461H44.293ZM44.293 44.3961C44.293 45.8921 44.2901 46.8136 44.2278 47.5014C44.1692 48.1479 44.0775 48.288 44.0753 48.2919L49.2714 51.2919C49.8888 50.2226 50.1069 49.1056 50.2033 48.043C50.2958 47.0215 50.293 45.7817 50.293 44.3961H44.293ZM50.293 35.1461C50.293 33.7604 50.2958 32.5206 50.2033 31.4992C50.1069 30.4365 49.8888 29.3195 49.2714 28.2502L44.0753 31.2502C44.0775 31.2541 44.1692 31.3942 44.2278 32.0408C44.2901 32.7285 44.293 33.65 44.293 35.1461H50.293ZM34.8763 35.1461C34.8763 33.65 34.8792 32.7285 34.9415 32.0407C35.0001 31.3942 35.0917 31.2541 35.094 31.2502L29.8979 28.2502C29.2805 29.3195 29.0623 30.4365 28.966 31.4992C28.8734 32.5206 28.8763 33.7604 28.8763 35.1461H34.8763ZM28.8763 44.3961C28.8763 45.7817 28.8734 47.0215 28.966 48.043C29.0623 49.1056 29.2805 50.2226 29.8979 51.2919L35.094 48.2919C35.0917 48.288 35.0001 48.1479 34.9415 47.5014C34.8792 46.8136 34.8763 45.8921 34.8763 44.3961H28.8763ZM39.5846 49.1044C38.0606 49.1044 37.0972 49.1508 36.2196 48.9721C35.5344 48.8325 35.2871 48.6264 35.094 48.2919L29.8979 51.2919C31.1883 53.527 33.1844 54.4771 35.0221 54.8514C36.6675 55.1865 38.5067 55.1044 39.5846 55.1044V49.1044ZM39.5846 55.1044C40.6626 55.1044 42.5018 55.1865 44.1471 54.8514C45.9849 54.4771 47.981 53.527 49.2714 51.2919L44.0753 48.2919C43.8821 48.6264 43.6349 48.8325 42.9497 48.9721C42.072 49.1508 41.1087 49.1044 39.5846 49.1044V55.1044ZM39.5846 30.4377C41.1087 30.4377 42.072 30.3913 42.9497 30.57C43.6349 30.7096 43.8821 30.9158 44.0753 31.2502L49.2714 28.2502C47.981 26.0151 45.9849 25.065 44.1471 24.6907C42.5018 24.3556 40.6626 24.4377 39.5846 24.4377V30.4377ZM39.5846 24.4377C38.5067 24.4377 36.6675 24.3556 35.0221 24.6907C33.1844 25.065 31.1883 26.0151 29.8979 28.2502L35.094 31.2502C35.2871 30.9158 35.5344 30.7096 36.2196 30.57C37.0972 30.3913 38.0606 30.4377 39.5846 30.4377V24.4377ZM65.7096 53.6461V25.8961H59.7096V53.6461H65.7096ZM75.1263 25.8961V53.6461H81.1263V25.8961H75.1263ZM75.1263 53.6461C75.1263 55.1421 75.1234 56.0636 75.0611 56.7514C75.0025 57.3979 74.9108 57.538 74.9086 57.5419L80.1047 60.5419C80.7221 59.4726 80.9403 58.3556 81.0366 57.293C81.1292 56.2715 81.1263 55.0317 81.1263 53.6461H75.1263ZM81.1263 25.8961C81.1263 24.5104 81.1292 23.2706 81.0366 22.2492C80.9403 21.1865 80.7221 20.0696 80.1047 19.0002L74.9086 22.0002C74.9108 22.0042 75.0025 22.1442 75.0611 22.7908C75.1234 23.4785 75.1263 24.4 75.1263 25.8961H81.1263ZM65.7096 25.8961C65.7096 24.4 65.7125 23.4785 65.7748 22.7908C65.8334 22.1442 65.9251 22.0042 65.9273 22.0002L60.7312 19.0002C60.1138 20.0696 59.8956 21.1865 59.7993 22.2492C59.7068 23.2706 59.7096 24.5104 59.7096 25.8961H65.7096ZM59.7096 53.6461C59.7096 55.0317 59.7068 56.2715 59.7993 57.293C59.8956 58.3556 60.1138 59.4726 60.7312 60.5419L65.9273 57.5419C65.9251 57.538 65.8334 57.3979 65.7748 56.7514C65.7125 56.0636 65.7096 55.1421 65.7096 53.6461H59.7096ZM70.418 15.1877C69.34 15.1877 67.5008 15.1056 65.8555 15.4408C64.0177 15.8151 62.0216 16.7651 60.7312 19.0002L65.9273 22.0002C66.1204 21.6658 66.3677 21.4596 67.0529 21.32C67.9305 21.1413 68.8939 21.1877 70.418 21.1877V15.1877ZM70.418 21.1877C71.942 21.1877 72.9054 21.1413 73.783 21.32C74.4682 21.4596 74.7155 21.6658 74.9086 22.0002L80.1047 19.0002C78.8143 16.7651 76.8182 15.815 74.9805 15.4408C73.3351 15.1056 71.4959 15.1877 70.418 15.1877V21.1877ZM70.418 64.3544C71.4959 64.3544 73.3351 64.4365 74.9805 64.1014C76.8182 63.7271 78.8143 62.777 80.1047 60.5419L74.9086 57.5419C74.7155 57.8764 74.4682 58.0825 73.783 58.2221C72.9054 58.4008 71.942 58.3544 70.418 58.3544V64.3544ZM70.418 58.3544C68.8939 58.3544 67.9305 58.4008 67.0529 58.2221C66.3677 58.0825 66.1204 57.8764 65.9273 57.5419L60.7312 60.5419C62.0216 62.777 64.0177 63.7271 65.8555 64.1014C67.5008 64.4365 69.34 64.3544 70.418 64.3544V58.3544ZM36.5846 52.1115V70.6115H42.5846V52.1115H36.5846ZM42.5846 27.4448V8.94482H36.5846V27.4448H42.5846Z" fill="url(#paint0_linear_2495_15973)"/>
<defs>
<linearGradient id="paint0_linear_2495_15973" x1="-36.1039" y1="54.7177" x2="55.4435" y2="146.386" gradientUnits="userSpaceOnUse">
<stop stop-color="#9168CD"/>
<stop offset="0.424673" stop-color="#5556FF"/>
<stop offset="0.73499" stop-color="#45ADCD"/>
<stop offset="1" stop-color="#3EC4CD"/>
</linearGradient>
</defs>
</svg>
