<svg width="110" height="110" viewBox="0 0 110 110" fill="none" xmlns="http://www.w3.org/2000/svg">
<path d="M81.2839 66.8734C80.2476 68.1662 80.4555 70.0543 81.7482 71.0906C83.041 72.1269 84.929 71.919 85.9654 70.6262L81.2839 66.8734ZM24.0346 70.6262C25.071 71.919 26.959 72.1269 28.2518 71.0906C29.5446 70.0543 29.7524 68.1662 28.7161 66.8734L24.0346 70.6262ZM17.4165 99.2883L15.6283 101.697L17.4165 99.2883ZM15.1404 96.7592L17.7113 95.2132L15.1404 96.7592ZM94.8596 96.7592L92.2887 95.2132L94.8596 96.7592ZM92.5835 99.2883L94.3718 101.697L92.5835 99.2883ZM92.5835 70.2947L94.3718 67.886L92.5835 70.2947ZM94.8596 72.8238L92.2887 74.3698L94.8596 72.8238ZM17.4165 70.2947L15.6283 67.886L17.4165 70.2947ZM15.1404 72.8238L17.7113 74.3698L15.1404 72.8238ZM50.4167 79.4998C48.7598 79.4998 47.4167 80.843 47.4167 82.4998C47.4167 84.1567 48.7598 85.4998 50.4167 85.4998V79.4998ZM59.5833 85.4998C61.2402 85.4998 62.5833 84.1567 62.5833 82.4998C62.5833 80.843 61.2402 79.4998 59.5833 79.4998V85.4998ZM84.1714 23.2006C85.3429 22.029 85.3429 20.1295 84.1714 18.9579C82.9998 17.7864 81.1003 17.7864 79.9287 18.9579L84.1714 23.2006ZM70.7097 28.177C69.5381 29.3486 69.5381 31.2481 70.7097 32.4196C71.8812 33.5912 73.7807 33.5912 74.9523 32.4196L70.7097 28.177ZM42.8333 45.8332C42.8333 52.5526 48.2805 57.9998 55 57.9998V51.9998C51.5942 51.9998 48.8333 49.2389 48.8333 45.8332H42.8333ZM55 57.9998C61.7195 57.9998 67.1667 52.5526 67.1667 45.8332H61.1667C61.1667 49.2389 58.4058 51.9998 55 51.9998V57.9998ZM67.1667 45.8332C67.1667 39.1137 61.7195 33.6665 55 33.6665V39.6665C58.4058 39.6665 61.1667 42.4274 61.1667 45.8332H67.1667ZM55 33.6665C48.2805 33.6665 42.8333 39.1137 42.8333 45.8332H48.8333C48.8333 42.4274 51.5942 39.6665 55 39.6665V33.6665ZM94.6667 45.8332C94.6667 23.9259 76.9073 6.1665 55 6.1665V12.1665C73.5936 12.1665 88.6667 27.2396 88.6667 45.8332H94.6667ZM55 6.1665C33.0927 6.1665 15.3333 23.9259 15.3333 45.8332H21.3333C21.3333 27.2396 36.4064 12.1665 55 12.1665V6.1665ZM85.9654 70.6262C91.4087 63.8359 94.6667 55.2109 94.6667 45.8332H88.6667C88.6667 53.7978 85.9047 61.1091 81.2839 66.8734L85.9654 70.6262ZM15.3333 45.8332C15.3333 55.2109 18.5913 63.8359 24.0346 70.6262L28.7161 66.8734C24.0953 61.1091 21.3333 53.7978 21.3333 45.8332H15.3333ZM28.1875 71.7498H81.8125V65.7498H28.1875V71.7498ZM81.8125 97.8332H28.1875V103.833H81.8125V97.8332ZM28.1875 97.8332C25.2216 97.8332 23.2478 97.8287 21.7468 97.659C20.3137 97.4971 19.6557 97.2143 19.2048 96.8796L15.6283 101.697C17.2582 102.907 19.089 103.397 21.0729 103.621C22.9888 103.838 25.36 103.833 28.1875 103.833V97.8332ZM10.75 84.7915C10.75 87.9538 10.7471 90.5289 10.9363 92.5958C11.1288 94.6987 11.541 96.595 12.5694 98.3053L17.7113 95.2132C17.3494 94.6114 17.0664 93.7424 16.9113 92.0487C16.7529 90.3191 16.75 88.0663 16.75 84.7915H10.75ZM19.2048 96.8796C18.6316 96.454 18.1196 95.8922 17.7113 95.2132L12.5694 98.3053C13.3649 99.6281 14.3998 100.785 15.6283 101.697L19.2048 96.8796ZM93.25 84.7915C93.25 88.0663 93.2471 90.3191 93.0887 92.0487C92.9336 93.7424 92.6506 94.6114 92.2887 95.2132L97.4306 98.3053C98.459 96.595 98.8712 94.6987 99.0637 92.5958C99.2529 90.5289 99.25 87.9538 99.25 84.7915H93.25ZM81.8125 103.833C84.64 103.833 87.0112 103.838 88.9271 103.621C90.911 103.397 92.7418 102.907 94.3718 101.697L90.7952 96.8796C90.3443 97.2143 89.6863 97.4971 88.2532 97.659C86.7522 97.8287 84.7784 97.8332 81.8125 97.8332V103.833ZM92.2887 95.2132C91.8804 95.8922 91.3684 96.454 90.7952 96.8796L94.3718 101.697C95.6002 100.785 96.6351 99.6281 97.4306 98.3053L92.2887 95.2132ZM81.8125 71.7498C84.7784 71.7498 86.7522 71.7543 88.2532 71.924C89.6863 72.0859 90.3443 72.3687 90.7952 72.7034L94.3718 67.886C92.7418 66.6758 90.911 66.1862 88.9271 65.9619C87.0112 65.7454 84.64 65.7498 81.8125 65.7498V71.7498ZM99.25 84.7915C99.25 81.6292 99.2529 79.0541 99.0637 76.9872C98.8712 74.8843 98.459 72.988 97.4306 71.2777L92.2887 74.3698C92.6506 74.9716 92.9336 75.8406 93.0887 77.5343C93.2471 79.2639 93.25 81.5167 93.25 84.7915H99.25ZM90.7952 72.7034C91.3684 73.129 91.8804 73.6908 92.2887 74.3698L97.4306 71.2777C96.6351 69.9549 95.6002 68.798 94.3718 67.886L90.7952 72.7034ZM28.1875 65.7498C25.36 65.7498 22.9888 65.7454 21.0729 65.9619C19.089 66.1862 17.2582 66.6758 15.6283 67.886L19.2048 72.7034C19.6557 72.3687 20.3137 72.0859 21.7468 71.924C23.2478 71.7543 25.2216 71.7498 28.1875 71.7498V65.7498ZM16.75 84.7915C16.75 81.5167 16.7529 79.2639 16.9113 77.5343C17.0664 75.8406 17.3494 74.9716 17.7113 74.3698L12.5694 71.2777C11.541 72.988 11.1288 74.8843 10.9363 76.9872C10.7471 79.0541 10.75 81.6292 10.75 84.7915H16.75ZM15.6283 67.886C14.3998 68.798 13.3649 69.9549 12.5694 71.2777L17.7113 74.3698C18.1196 73.6908 18.6316 73.129 19.2048 72.7034L15.6283 67.886ZM50.4167 85.4998H59.5833V79.4998H50.4167V85.4998ZM79.9287 18.9579L70.7097 28.177L74.9523 32.4196L84.1714 23.2006L79.9287 18.9579Z" fill="url(#paint0_linear_2495_15983)"/>
<defs>
<linearGradient id="paint0_linear_2495_15983" x1="-26.9947" y1="54.7191" x2="63.6657" y2="136.816" gradientUnits="userSpaceOnUse">
<stop stop-color="#9168CD"/>
<stop offset="0.424673" stop-color="#5556FF"/>
<stop offset="0.73499" stop-color="#45ADCD"/>
<stop offset="1" stop-color="#3EC4CD"/>
</linearGradient>
</defs>
</svg>
