<svg width="72" height="72" viewBox="0 0 72 72" fill="none" xmlns="http://www.w3.org/2000/svg">
<path d="M57 28.5V24.9C56.9759 16.4914 56.7153 12.0336 53.9011 9.16325C50.7997 6 45.8081 6 35.8248 6L30.1776 6C20.1944 6 15.2028 6 12.1014 9.16325C9 12.3265 9 17.4177 9 27.6L9 41.4C9 51.5823 9 56.6735 12.1014 59.8368C14.8546 62.6449 19.0976 62.9601 27 62.9955" stroke="#141B34" stroke-width="3" stroke-linecap="round"/>
<path d="M56.0259 59.0659L63 66M60 49.5C60 42.0442 53.9558 36 46.5 36C39.0442 36 33 42.0442 33 49.5C33 56.9558 39.0442 63 46.5 63C53.9558 63 60 56.9558 60 49.5Z" stroke="#141B34" stroke-width="3" stroke-linecap="round" stroke-linejoin="round"/>
<path d="M21 21H45" stroke="#141B34" stroke-width="3" stroke-linecap="round"/>
<path d="M21 33H30" stroke="#141B34" stroke-width="3" stroke-linecap="round"/>
</svg>
