<svg width="72" height="72" viewBox="0 0 72 72" fill="none" xmlns="http://www.w3.org/2000/svg">
<path d="M7.5 36C7.5 22.565 7.5 15.8475 11.6737 11.6737C15.8475 7.5 22.565 7.5 36 7.5C49.435 7.5 56.1525 7.5 60.3263 11.6737C64.5 15.8475 64.5 22.565 64.5 36C64.5 49.435 64.5 56.1525 60.3263 60.3263C56.1525 64.5 49.435 64.5 36 64.5C22.565 64.5 15.8475 64.5 11.6737 60.3263C7.5 56.1525 7.5 49.435 7.5 36Z" stroke="#141B34" stroke-width="3"/>
<path d="M48.6973 30C47.6599 28.2066 45.7208 27 43.5 27C40.1863 27 37.5 29.6863 37.5 33V39C37.5 42.3137 40.1863 45 43.5 45C45.7208 45 47.6599 43.7934 48.6973 42" stroke="#141B34" stroke-width="3" stroke-linecap="round"/>
<path d="M24 30L28.5 27V45" stroke="#141B34" stroke-width="3" stroke-linecap="round" stroke-linejoin="round"/>
</svg>
