<svg width="72" height="72" viewBox="0 0 72 72" fill="none" xmlns="http://www.w3.org/2000/svg">
<path d="M50 42L22 42C15.4415 42 12.1623 42 9.83781 43.6276C8.97782 44.2298 8.22981 44.9778 7.62763 45.8378C6 48.1623 6 51.4415 6 58C6 61.2792 6 62.9188 6.81382 64.0811C7.11491 64.5111 7.4889 64.8851 7.91891 65.1862C9.08116 66 10.7208 66 14 66L58 66C61.2792 66 62.9188 66 64.0811 65.1862C64.5111 64.8851 64.8851 64.5111 65.1862 64.0811C66 62.9188 66 61.2792 66 58C66 51.4415 66 48.1623 64.3724 45.8378C63.7702 44.9778 63.0222 44.2298 62.1622 43.6276C59.8377 42 56.5585 42 50 42Z" stroke="#141B34" stroke-width="3" stroke-linecap="round"/>
<path d="M60 42L58.7791 31.0122C57.9329 23.3959 57.5097 19.5877 54.9469 17.2938C52.3841 15 48.5525 15 40.8892 15L31.1108 15C23.4475 15 19.6159 15 17.0531 17.2938C14.4903 19.5877 14.0671 23.3959 13.2209 31.0122L12 42" stroke="#141B34" stroke-width="3" stroke-linecap="round"/>
<path d="M34.5 6H42M49.5 6H42M42 6V15" stroke="#141B34" stroke-width="3" stroke-linecap="round"/>
<path d="M27 52.5L29.9885 54.4923C30.9741 55.1494 32.1321 55.5 33.3167 55.5H38.6833C39.8679 55.5 41.0259 55.1494 42.0115 54.4923L45 52.5" stroke="#141B34" stroke-width="3" stroke-linecap="round"/>
<path d="M24 24H30" stroke="#141B34" stroke-width="3" stroke-linecap="round"/>
</svg>
