<svg width="72" height="72" viewBox="0 0 72 72" fill="none" xmlns="http://www.w3.org/2000/svg">
<rect x="6" y="45" width="60" height="18" rx="9" stroke="#141B34" stroke-width="3"/>
<path d="M18 27C18 18.5147 18 14.2721 20.636 11.636C23.2721 9 27.5147 9 36 9C44.4853 9 48.7279 9 51.364 11.636C54 14.2721 54 18.5147 54 27C54 35.4853 54 39.7279 51.364 42.364C48.7279 45 44.4853 45 36 45C27.5147 45 23.2721 45 20.636 42.364C18 39.7279 18 35.4853 18 27Z" stroke="#141B34" stroke-width="3"/>
<path d="M35.9865 54H36.0135M21 54H21.0269M50.9731 54H51" stroke="#141B34" stroke-width="3" stroke-linecap="round" stroke-linejoin="round"/>
<path d="M31.5 18H40.5" stroke="#141B34" stroke-width="3" stroke-linecap="round" stroke-linejoin="round"/>
</svg>
