<svg width="72" height="72" viewBox="0 0 72 72" fill="none" xmlns="http://www.w3.org/2000/svg">
<path d="M34.5882 66H31.4118C19.4325 66 13.4429 66 9.72147 62.4853C6 58.9706 6 53.3137 6 42L6 30C6 18.6863 6 13.0294 9.72147 9.51472C13.4429 6 19.4325 6 31.4118 6L34.5882 6C46.5675 6 52.5571 6 56.2785 9.51472C60 13.0294 60 18.6863 60 30V31.5" stroke="#141B34" stroke-width="3" stroke-linecap="round"/>
<path d="M21 21H45" stroke="#141B34" stroke-width="3" stroke-linecap="round"/>
<path d="M21 36H36" stroke="#141B34" stroke-width="3" stroke-linecap="round"/>
<path d="M63 45L66.6796 48.1716C68.2265 49.5049 69 50.1716 69 51C69 51.8284 68.2265 52.4951 66.6796 53.8284L63 57" stroke="#141B34" stroke-width="3" stroke-linecap="round" stroke-linejoin="round"/>
<path d="M42 45L38.3204 48.1716C36.7735 49.5049 36 50.1716 36 51C36 51.8284 36.7735 52.4951 38.3204 53.8284L42 57" stroke="#141B34" stroke-width="3" stroke-linecap="round" stroke-linejoin="round"/>
<path d="M55.5 45L49.5 57" stroke="#141B34" stroke-width="3" stroke-linecap="round" stroke-linejoin="round"/>
</svg>
