<svg width="72" height="72" viewBox="0 0 72 72" fill="none" xmlns="http://www.w3.org/2000/svg">
<path d="M23.2507 22.6998C29.0078 13.5666 31.8863 9 36 9C40.1137 9 42.9922 13.5666 48.7493 22.6997L55.4824 33.3814C63.7085 46.4316 67.8216 52.9567 65.2277 57.9783C62.6339 63 55.1503 63 40.1833 63H31.8167C16.8497 63 9.36614 63 6.77227 57.9783C4.1784 52.9567 8.29146 46.4316 16.5176 33.3814L23.2507 22.6998Z" stroke="#141B34" stroke-width="3" stroke-linejoin="round"/>
<path d="M10.5 45H18M21 27H51" stroke="#141B34" stroke-width="3" stroke-linecap="round" stroke-linejoin="round"/>
<path d="M23.8003 37.5C23.8003 36.3215 23.8003 35.7322 24.1664 35.3661C24.5325 35 25.1218 35 26.3003 35C27.4788 35 28.0681 35 28.4342 35.3661C28.8003 35.7322 28.8003 36.3215 28.8003 37.5V40C28.8003 41.1785 28.8003 41.7678 28.4342 42.1339C28.0681 42.5 27.4788 42.5 26.3003 42.5C25.1218 42.5 24.5325 42.5 24.1664 42.1339C23.8003 41.7678 23.8003 41.1785 23.8003 40V37.5Z" stroke="#141B34" stroke-width="2"/>
<path d="M29.4253 50C29.4253 48.8215 29.4253 48.2322 29.7914 47.8661C30.1575 47.5 30.7468 47.5 31.9253 47.5C33.1038 47.5 33.6931 47.5 34.0592 47.8661C34.4253 48.2322 34.4253 48.8215 34.4253 50V52.5C34.4253 53.6785 34.4253 54.2678 34.0592 54.6339C33.6931 55 33.1038 55 31.9253 55C30.7468 55 30.1575 55 29.7914 54.6339C29.4253 54.2678 29.4253 53.6785 29.4253 52.5V50Z" stroke="#141B34" stroke-width="2"/>
<path d="M38.1753 37.5C38.1753 36.3215 38.1753 35.7322 38.5414 35.3661C38.9075 35 39.4968 35 40.6753 35C41.8538 35 42.4431 35 42.8092 35.3661C43.1753 35.7322 43.1753 36.3215 43.1753 37.5V40C43.1753 41.1785 43.1753 41.7678 42.8092 42.1339C42.4431 42.5 41.8538 42.5 40.6753 42.5C39.4968 42.5 38.9075 42.5 38.5414 42.1339C38.1753 41.7678 38.1753 41.1785 38.1753 40V37.5Z" stroke="#141B34" stroke-width="2"/>
<path d="M38.1753 50C38.1753 48.8215 38.1753 48.2322 38.5414 47.8661C38.9075 47.5 39.4968 47.5 40.6753 47.5C41.8538 47.5 42.4431 47.5 42.8092 47.8661C43.1753 48.2322 43.1753 48.8215 43.1753 50V52.5C43.1753 53.6785 43.1753 54.2678 42.8092 54.6339C42.4431 55 41.8538 55 40.6753 55C39.4968 55 38.9075 55 38.5414 54.6339C38.1753 54.2678 38.1753 53.6785 38.1753 52.5V50Z" stroke="#141B34" stroke-width="2"/>
<path d="M32.5503 36.25L34.4253 35V42.5" stroke="#141B34" stroke-width="2" stroke-linecap="round" stroke-linejoin="round"/>
<path d="M23.8003 48.75L25.6753 47.5V55" stroke="#141B34" stroke-width="2" stroke-linecap="round" stroke-linejoin="round"/>
<path d="M46.9253 36.25L48.8003 35V42.5" stroke="#141B34" stroke-width="2" stroke-linecap="round" stroke-linejoin="round"/>
<path d="M46.9253 48.75L48.8003 47.5V55" stroke="#141B34" stroke-width="2" stroke-linecap="round" stroke-linejoin="round"/>
</svg>
