<svg width="72" height="72" viewBox="0 0 72 72" fill="none" xmlns="http://www.w3.org/2000/svg">
<path d="M9 29.042V26.7257C9 22.2352 9 19.99 9.85077 18.0943C10.3755 16.925 11.1273 15.8661 12.0647 14.9759C13.5845 13.5327 15.7383 12.7444 20.0458 11.1677L28.8898 7.93054C32.4059 6.64351 34.164 6 36 6C37.836 6 39.5941 6.64351 43.1102 7.93054L51.9542 11.1677C56.2617 12.7444 58.4155 13.5327 59.9353 14.9759C60.8727 15.8661 61.6245 16.925 62.1492 18.0943C63 19.99 63 22.2352 63 26.7257V29.042C63 36.2532 63 39.8588 62.1097 43.1585C61.0102 47.2336 58.9255 50.9918 56.0307 54.1181C53.6866 56.6496 50.5934 58.6205 44.407 62.5625C41.6375 64.3272 40.2528 65.2096 38.7807 65.62C36.9632 66.1267 35.0368 66.1267 33.2193 65.62C31.7472 65.2096 30.3625 64.3272 27.593 62.5625C21.4066 58.6205 18.3134 56.6496 15.9693 54.1181C13.0745 50.9918 10.9898 47.2336 9.89031 43.1585C9 39.8588 9 36.2532 9 29.042Z" stroke="#141B34" stroke-width="3" stroke-linecap="round" stroke-linejoin="round"/>
<path d="M24 28.4333C27.4465 25.6294 31.5626 24 35.9837 24C40.4187 24 44.5469 25.6397 48 28.4598M42.5228 36C40.5545 34.7726 38.3337 34.082 35.9837 34.082C33.6455 34.082 31.4352 34.7657 29.4743 35.9815" stroke="#141B34" stroke-width="3" stroke-linecap="round"/>
<path d="M36 45H36.0191" stroke="#141B34" stroke-width="3" stroke-linecap="round" stroke-linejoin="round"/>
</svg>
