<svg width="72" height="72" viewBox="0 0 72 72" fill="none" xmlns="http://www.w3.org/2000/svg">
<path d="M21 33H22.875C28.1417 33 30.7751 33 32.6668 31.736C33.4857 31.1888 34.1888 30.4857 34.736 29.6668C36 27.7751 36 25.1417 36 19.875C36 16.715 36 15.1349 35.2416 13.9999C34.9133 13.5086 34.4914 13.0867 34.0001 12.7584C32.8651 12 31.285 12 28.125 12H23.1418C22.7086 12 22.492 12 22.293 11.9708C21.5482 11.8614 20.8822 11.4521 20.4528 10.8398C20.3381 10.6762 20.242 10.4841 20.0498 10.0997C19.2627 8.52536 18.5433 6.94067 16.7989 6.28651C16.0348 6 15.162 6 13.4164 6C10.6917 6 9.32934 6 8.30709 6.57048C7.5784 6.97713 6.97713 7.5784 6.57047 8.3071C6 9.32934 6 10.6917 6 13.4164V18C6 25.0711 6 28.6066 8.1967 30.8033C10.3934 33 13.9289 33 21 33Z" stroke="#141B34" stroke-width="3" stroke-linecap="round"/>
<path d="M51 66H49.125C43.8583 66 41.2249 66 39.3332 64.736C38.5143 64.1888 37.8112 63.4857 37.264 62.6668C36 60.7751 36 58.1417 36 52.875C36 49.715 36 48.1349 36.7584 46.9999C37.0867 46.5086 37.5086 46.0867 37.9999 45.7584C39.1349 45 40.715 45 43.875 45H48.8582C49.2914 45 49.508 45 49.707 44.9708C50.4518 44.8614 51.1178 44.4521 51.5472 43.8398C51.6619 43.6762 51.758 43.4841 51.9502 43.0997C52.7373 41.5254 53.4567 39.9407 55.2011 39.2865C55.9652 39 56.838 39 58.5836 39C61.3083 39 62.6707 39 63.6929 39.5705C64.4216 39.9771 65.0229 40.5784 65.4295 41.3071C66 42.3293 66 43.6917 66 46.4164V51C66 58.0711 66 61.6066 63.8033 63.8033C61.6066 66 58.0711 66 51 66Z" stroke="#141B34" stroke-width="3" stroke-linecap="round"/>
<path d="M58.0075 27H66C64.5 15 57 7.5 48 6" stroke="#141B34" stroke-width="3" stroke-linecap="round" stroke-linejoin="round"/>
<path d="M13.9925 45L6 45C7.5 57 15 64.5 24 66" stroke="#141B34" stroke-width="3" stroke-linecap="round" stroke-linejoin="round"/>
</svg>
