<svg width="72" height="72" viewBox="0 0 72 72" fill="none" xmlns="http://www.w3.org/2000/svg">
<path d="M64.8768 25.5C66.8408 18.7007 66.2895 12.7985 62.7455 9.25452C55.248 1.75699 37.1956 7.6534 22.4245 22.4245C20.8466 24.0025 19.3699 25.6179 18 27.2538M54 44.7462C52.6301 46.3821 51.1534 47.9975 49.5755 49.5755C34.8044 64.3466 16.7521 70.243 9.25452 62.7455C5.45231 58.9433 5.09474 52.4266 7.59239 45" stroke="#141B34" stroke-width="3" stroke-linecap="round" stroke-linejoin="round"/>
<path d="M38.25 27L32.413 33.9012C31.7005 34.8251 31.3442 35.287 31.565 35.6435C31.7857 36 32.4279 36 33.7124 36H38.2876C39.5721 36 40.2143 36 40.435 36.3565C40.6558 36.713 40.2995 37.1749 39.587 38.0988L33.7124 45" stroke="#141B34" stroke-width="3" stroke-linecap="round" stroke-linejoin="round"/>
<path d="M28.5 55.0198C26.4382 53.3713 24.4019 51.5529 22.4245 49.5755C7.6534 34.8044 1.75698 16.7521 9.25452 9.25452C13.0567 5.45231 19.5734 5.09474 27 7.59239M43.5 63.869C51.5438 66.9377 58.6893 66.8017 62.7455 62.7455C70.243 55.248 64.3466 37.1956 49.5755 22.4245C47.5981 20.4471 45.5618 18.6287 43.5 16.9802" stroke="#141B34" stroke-width="3" stroke-linecap="round" stroke-linejoin="round"/>
</svg>
