<svg width="72" height="72" viewBox="0 0 72 72" fill="none" xmlns="http://www.w3.org/2000/svg">
<path d="M7.5 27C7.59135 24.5863 7.86029 22.1301 8.30795 19.6504C8.64179 17.8012 8.8087 16.8767 9.37872 16.2439C9.94873 15.6112 11.3572 15.1624 14.1742 14.2647C21.1022 12.057 26.9602 6 35.9947 6C45.0296 6 50.8942 12.0574 57.8249 14.265C60.6417 15.1621 62.0501 15.6107 62.6203 16.2435C63.1904 16.8762 63.3574 17.8009 63.6914 19.6504C64.1392 22.1301 64.4084 24.5863 64.5 27M58.3352 51C54.3751 57.0679 48.5317 61.9125 40.844 64.8524C38.8433 65.6174 37.843 66 36.0046 66C34.1661 66 33.1658 65.6175 31.165 64.8524C23.4768 61.9126 17.6318 57.068 13.67 51" stroke="#141B34" stroke-width="3" stroke-linecap="round" stroke-linejoin="round"/>
<path d="M25.5 36L28.5 39M28.5 39L31.5 42M28.5 39L31.5 36M28.5 39L25.5 42" stroke="#141B34" stroke-width="3" stroke-linecap="round"/>
<path d="M10.5 36L13.5 39M13.5 39L16.5 42M13.5 39L16.5 36M13.5 39L10.5 42" stroke="#141B34" stroke-width="3" stroke-linecap="round"/>
<path d="M40.5 36L43.5 39M43.5 39L46.5 42M43.5 39L46.5 36M43.5 39L40.5 42" stroke="#141B34" stroke-width="3" stroke-linecap="round"/>
<path d="M55.5 36L58.5 39M58.5 39L61.5 42M58.5 39L61.5 36M58.5 39L55.5 42" stroke="#141B34" stroke-width="3" stroke-linecap="round"/>
</svg>
