<svg width="72" height="72" viewBox="0 0 72 72" fill="none" xmlns="http://www.w3.org/2000/svg">
<path d="M21 6C12.7157 6 6 12.7157 6 21C6 26.5521 9.01649 31.3997 13.5 33.9933V53.5294C13.5 55.9819 13.5 57.2082 13.9567 58.3108C14.4134 59.4134 15.2805 60.2805 17.0147 62.0147L21 66L27.3246 59.6754C27.6163 59.3837 27.7622 59.2378 27.8832 59.0796C28.2009 58.664 28.4045 58.1726 28.4737 57.654C28.5 57.4566 28.5 57.2503 28.5 56.8377C28.5 56.5038 28.5 56.3369 28.4823 56.1747C28.4359 55.7494 28.2991 55.3389 28.081 54.9709C27.9979 54.8305 27.8977 54.697 27.6974 54.4298L24 49.5L26.1 46.7C27.2895 45.114 27.8842 44.3211 28.1921 43.3974C28.5 42.4737 28.5 41.4824 28.5 39.5V33.9933C32.9835 31.3997 36 26.5521 36 21C36 12.7157 29.2843 6 21 6Z" stroke="#141B34" stroke-width="3" stroke-linejoin="round"/>
<path d="M21 21H21.0269" stroke="#141B34" stroke-width="3" stroke-linecap="round" stroke-linejoin="round"/>
<path d="M39 42H57C59.7956 42 61.1935 42 62.2961 42.4567C63.7663 43.0657 64.9343 44.2337 65.5433 45.7039C66 46.8065 66 48.2044 66 51C66 53.7956 66 55.1935 65.5433 56.2961C64.9343 57.7663 63.7663 58.9343 62.2961 59.5433C61.1935 60 59.7956 60 57 60H39" stroke="#141B34" stroke-width="3" stroke-linecap="round"/>
<path d="M45 15H57C59.7957 15 61.1935 15 62.2961 15.4567C63.7663 16.0657 64.9343 17.2337 65.5433 18.7039C66 19.8065 66 21.2044 66 24C66 26.7956 66 28.1935 65.5433 29.2961C64.9343 30.7663 63.7663 31.9343 62.2961 32.5433C61.1935 33 59.7957 33 57 33H45" stroke="#141B34" stroke-width="3" stroke-linecap="round"/>
</svg>
