<svg width="72" height="72" viewBox="0 0 72 72" fill="none" xmlns="http://www.w3.org/2000/svg">
<path d="M62.1311 26.1037L65.7559 38.1864C65.8733 38.5775 65.9319 38.7731 65.9636 38.9741L65.9725 39.0353C66 39.2369 66 39.4411 66 39.8494C66 50.3392 66 55.5841 62.9437 59.0007C62.6471 59.3322 62.3322 59.6471 62.0007 59.9437C58.5841 63 53.3392 63 42.8494 63H29.1506C18.6608 63 13.4159 63 9.99933 59.9437C9.66776 59.6471 9.35294 59.3322 9.05632 59.0007C6 55.5841 6 50.3392 6 39.8494C6 39.4411 6 39.2369 6.02746 39.0353L6.03645 38.9741C6.06807 38.7731 6.12674 38.5775 6.24409 38.1864L9.8689 26.1037C12.3406 17.8645 13.5765 13.745 16.7652 11.3725C19.9539 9 24.2548 9 32.8567 9H39.1433C47.7452 9 52.0461 9 55.2348 11.3725C58.4235 13.745 59.6594 17.8645 62.1311 26.1037Z" stroke="#141B34" stroke-width="3"/>
<path d="M6 39H66" stroke="#141B34" stroke-width="3" stroke-linejoin="round"/>
<path d="M53.9664 51H54M39 51H39.0336" stroke="#141B34" stroke-width="3" stroke-linecap="round" stroke-linejoin="round"/>
</svg>
