<svg width="72" height="72" viewBox="0 0 72 72" fill="none" xmlns="http://www.w3.org/2000/svg">
<path d="M43.5 49.5C43.5 53.6421 40.1421 57 36 57C31.8579 57 28.5 53.6421 28.5 49.5C28.5 45.3579 31.8579 42 36 42C40.1421 42 43.5 45.3579 43.5 49.5Z" stroke="#141B34" stroke-width="3"/>
<path d="M30.8571 6H41.1429C47.3664 6 48 8.77482 48 13.5C48 18.2252 47.3664 21 41.1429 21H30.8571C24.6336 21 24 18.2252 24 13.5C24 8.77482 24.6336 6 30.8571 6Z" stroke="#141B34" stroke-width="3"/>
<path d="M12 39C12.7429 34.1309 15.7341 33 23.9628 33H48.046C56.2747 33 59.2571 34.1309 60 39" stroke="#141B34" stroke-width="3" stroke-linecap="round" stroke-linejoin="round"/>
<path d="M6 45C6 42.1716 6 40.7574 6.87868 39.8787C7.75736 39 9.17157 39 12 39C14.8284 39 16.2426 39 17.1213 39.8787C18 40.7574 18 42.1716 18 45C18 47.8284 18 49.2426 17.1213 50.1213C16.2426 51 14.8284 51 12 51C9.17157 51 7.75736 51 6.87868 50.1213C6 49.2426 6 47.8284 6 45Z" stroke="#141B34" stroke-width="3"/>
<path d="M54 45C54 42.1716 54 40.7574 54.8787 39.8787C55.7574 39 57.1716 39 60 39C62.8284 39 64.2426 39 65.1213 39.8787C66 40.7574 66 42.1716 66 45C66 47.8284 66 49.2426 65.1213 50.1213C64.2426 51 62.8284 51 60 51C57.1716 51 55.7574 51 54.8787 50.1213C54 49.2426 54 47.8284 54 45Z" stroke="#141B34" stroke-width="3"/>
<path d="M36 21L36 42" stroke="#141B34" stroke-width="3" stroke-linecap="round" stroke-linejoin="round"/>
<path d="M36 57L36 66" stroke="#141B34" stroke-width="3" stroke-linecap="round" stroke-linejoin="round"/>
</svg>
