<svg width="72" height="72" viewBox="0 0 72 72" fill="none" xmlns="http://www.w3.org/2000/svg">
<path d="M12 42H25.2633C28.0536 42 29.4487 42 29.8204 42.8404C30.192 43.6808 29.2427 44.6889 27.344 46.7053L16.4307 58.2947C14.5321 60.3111 13.5827 61.3192 13.9544 62.1596C14.326 63 15.7211 63 18.5115 63H30" stroke="#141B34" stroke-width="3" stroke-linecap="round" stroke-linejoin="round"/>
<path d="M12 27L18.3167 12.9158C19.4875 10.3053 20.0729 9 21 9C21.9271 9 22.5125 10.3053 23.6833 12.9158L30 27" stroke="#141B34" stroke-width="3" stroke-linecap="round" stroke-linejoin="round"/>
<path d="M52.5 60V12M52.5 60C50.3993 60 46.4746 54.0171 45 52.5M52.5 60C54.6007 60 58.5254 54.0171 60 52.5" stroke="#141B34" stroke-width="3" stroke-linecap="round" stroke-linejoin="round"/>
</svg>
