<svg width="72" height="72" viewBox="0 0 72 72" fill="none" xmlns="http://www.w3.org/2000/svg">
<path d="M27 15C27 19.9706 22.9706 24 18 24C13.0294 24 9 19.9706 9 15C9 10.0294 13.0294 6 18 6C22.9706 6 27 10.0294 27 15Z" stroke="#141B34" stroke-width="3"/>
<path d="M63 15C63 19.9706 58.9706 24 54 24C49.0294 24 45 19.9706 45 15C45 10.0294 49.0294 6 54 6C58.9706 6 63 10.0294 63 15Z" stroke="#141B34" stroke-width="3"/>
<path d="M27 57C27 61.9706 22.9706 66 18 66C13.0294 66 9 61.9706 9 57C9 52.0294 13.0294 48 18 48C22.9706 48 27 52.0294 27 57Z" stroke="#141B34" stroke-width="3"/>
<path d="M18 48V24" stroke="#141B34" stroke-width="3" stroke-linecap="round" stroke-linejoin="round"/>
<path d="M54 24C54 26.7956 54 34.1935 53.5433 35.2961C52.9343 36.7663 51.7663 37.9343 50.2961 38.5433C49.1935 39 47.7956 39 45 39H27C24.2044 39 22.8065 39 21.7039 39.4567C20.2337 40.0657 19.0657 41.2337 18.4567 42.7039C18 43.8065 18 45.2043 18 48" stroke="#141B34" stroke-width="3" stroke-linecap="round" stroke-linejoin="round"/>
</svg>
