<svg width="72" height="72" viewBox="0 0 72 72" fill="none" xmlns="http://www.w3.org/2000/svg">
<path d="M45 39V42C45 50.4853 45 54.7279 47.636 57.364C50.2721 60 54.5147 60 63 60" stroke="#141B34" stroke-width="3" stroke-linejoin="round"/>
<path d="M62.0781 54L62.0781 66" stroke="#141B34" stroke-width="3" stroke-linecap="round" stroke-linejoin="round"/>
<path d="M27 32.4875L25.3884 32.6667C22.9774 32.9347 21.7719 33.0688 20.8115 32.9647C16.1243 32.4566 12.4299 28.3031 12.0245 23.0858C11.9414 22.0168 12.0752 20.6779 12.3428 18" stroke="#141B34" stroke-width="3" stroke-linejoin="round"/>
<path d="M41.0781 21H41.1051" stroke="#141B34" stroke-width="3" stroke-linecap="round" stroke-linejoin="round"/>
<path d="M51 21L64.5 21" stroke="#141B34" stroke-width="3" stroke-linecap="round" stroke-linejoin="round"/>
<path d="M6.738 12.6725C6.07195 9.98195 5.73892 8.6367 6.24545 7.6353C6.41773 7.2947 6.65291 6.99052 6.93832 6.73913C7.77748 6 9.15058 6 11.8968 6H49.6612C58.6849 6 66 13.3873 66 22.5C66 31.6127 58.6849 39 49.6612 39H35.4154C32.9678 39 31.7439 39 30.6926 38.5809C29.8819 38.2577 29.1516 37.7583 28.5534 37.1182C27.7776 36.2881 27.323 35.1406 26.414 32.8456L24.8017 28.775C23.8693 26.421 23.4031 25.244 22.5408 24.3732C21.6784 23.5024 20.5129 23.0316 18.182 22.09L13.1058 20.0395C10.9256 19.1588 9.83543 18.7184 9.01723 17.9426C8.73039 17.6707 8.47101 17.3706 8.24292 17.0468C7.59228 16.1233 7.30752 14.973 6.738 12.6725Z" stroke="#141B34" stroke-width="3" stroke-linejoin="round"/>
</svg>
