<svg width="72" height="72" viewBox="0 0 72 72" fill="none" xmlns="http://www.w3.org/2000/svg">
<path d="M45.5262 66V63.0352L45.5263 62.9724C45.5416 61.3371 46.8821 60.0152 48.5402 60.0001L48.7653 59.9997C53.0602 59.9656 56.7498 56.9827 57.6261 52.8361L57.658 52.6802L59.2156 45L62.0395 43.6076C63.5507 42.8624 64.3063 42.4899 64.4698 41.8068C64.6333 41.1237 64.1264 40.4572 63.1127 39.1243L57.3903 31.6C56.8209 30.8512 56.5361 30.4768 56.3836 30.0807C56.2311 29.6846 56.1841 29.1233 56.0903 28.0006C55.06 15.6813 44.5948 6 31.8368 6C18.3959 6 7.5 16.7452 7.5 30C7.5 38.249 11.7201 45.526 18.1473 49.846M18.1473 49.846V66M18.1473 49.846C20.0069 51.0958 22.0512 52.0981 24.2315 52.8049" stroke="#141B34" stroke-width="3" stroke-linecap="round" stroke-linejoin="round"/>
<path d="M42 27L44.7597 29.3787C45.9199 30.3787 46.5 30.8787 46.5 31.5C46.5 32.1213 45.9199 32.6213 44.7597 33.6213L42 36" stroke="#141B34" stroke-width="3" stroke-linecap="round" stroke-linejoin="round"/>
<path d="M21 27L18.2403 29.3787C17.0801 30.3787 16.5 30.8787 16.5 31.5C16.5 32.1213 17.0801 32.6213 18.2403 33.6213L21 36" stroke="#141B34" stroke-width="3" stroke-linecap="round" stroke-linejoin="round"/>
<path d="M34.5 24L28.5 39" stroke="#141B34" stroke-width="3" stroke-linecap="round" stroke-linejoin="round"/>
</svg>
