<svg width="72" height="72" viewBox="0 0 72 72" fill="none" xmlns="http://www.w3.org/2000/svg">
<path d="M7.5 36C7.5 22.565 7.5 15.8475 11.6737 11.6737C15.8475 7.5 22.565 7.5 36 7.5C49.435 7.5 56.1525 7.5 60.3263 11.6737C64.5 15.8475 64.5 22.565 64.5 36C64.5 49.435 64.5 56.1525 60.3263 60.3263C56.1525 64.5 49.435 64.5 36 64.5C22.565 64.5 15.8475 64.5 11.6737 60.3263C7.5 56.1525 7.5 49.435 7.5 36Z" stroke="#141B34" stroke-width="3"/>
<path d="M46.5 27.5147C41.696 22.8284 33.9071 22.8284 29.103 27.5147C24.299 32.201 24.299 39.799 29.103 44.4853C33.9071 49.1716 41.696 49.1716 46.5 44.4853" stroke="#141B34" stroke-width="3" stroke-linecap="round"/>
</svg>
