<svg width="72" height="72" viewBox="0 0 72 72" fill="none" xmlns="http://www.w3.org/2000/svg">
<path d="M18 16.5C18 13.6962 18 12.2942 18.6029 11.25C18.9978 10.5659 19.5659 9.99784 20.25 9.60289C21.2942 9 22.6962 9 25.5 9H34.5C37.3038 9 38.7058 9 39.75 9.60289C40.4341 9.99784 41.0022 10.5659 41.3971 11.25C42 12.2942 42 13.6962 42 16.5C42 19.3038 42 20.7058 41.3971 21.75C41.0022 22.4341 40.4341 23.0022 39.75 23.3971C38.7058 24 37.3038 24 34.5 24H25.5C22.6962 24 21.2942 24 20.25 23.3971C19.5659 23.0022 18.9978 22.4341 18.6029 21.75C18 20.7058 18 19.3038 18 16.5Z" stroke="#141B34" stroke-width="3"/>
<path d="M18 46.5C18 43.6962 18 42.2942 18.6029 41.25C18.9978 40.5659 19.5659 39.9978 20.25 39.6029C21.2942 39 22.6962 39 25.5 39H34.5C37.3038 39 38.7058 39 39.75 39.6029C40.4341 39.9978 41.0022 40.5659 41.3971 41.25C42 42.2942 42 43.6962 42 46.5C42 49.3038 42 50.7058 41.3971 51.75C41.0022 52.4341 40.4341 53.0022 39.75 53.3971C38.7058 54 37.3038 54 34.5 54H25.5C22.6962 54 21.2942 54 20.25 53.3971C19.5659 53.0022 18.9978 52.4341 18.6029 51.75C18 50.7058 18 49.3038 18 46.5Z" stroke="#141B34" stroke-width="3"/>
<path d="M62.5194 51.4223C64.8398 49.1019 66 47.9417 66 46.5C66 45.0583 64.8398 43.8981 62.5194 41.5777L61.9223 40.9806C59.6019 38.6602 58.4417 37.5 57 37.5C55.5583 37.5 54.3981 38.6602 52.0777 40.9806L51.4806 41.5777C49.1602 43.8981 48 45.0583 48 46.5C48 47.9417 49.1602 49.1019 51.4806 51.4223L52.0777 52.0194C54.3981 54.3398 55.5583 55.5 57 55.5C58.4417 55.5 59.6019 54.3398 61.9223 52.0194L62.5194 51.4223Z" stroke="#141B34" stroke-width="3"/>
<path d="M18.0181 16.5H6.02355M6.02355 16.5V6M6.02355 16.5V36C6.02355 39.3112 5.56966 43.4036 8.68893 45.4888C10.2016 46.5 12.3073 46.5 16.5188 46.5M42.0073 46.5H48.0046M57.0005 37.5V28.5C57.0005 22.8431 57.0005 20.0147 55.2439 18.2574C53.4874 16.5 50.6602 16.5 45.0059 16.5H42.0073" stroke="#141B34" stroke-width="3" stroke-linecap="round" stroke-linejoin="round"/>
<path d="M66.0005 66C63.2048 66 61.807 66 60.7044 65.6085C59.2342 65.0866 58.0662 64.0854 57.4572 62.8252C57.0005 61.8801 57.0005 60.682 57.0005 58.2857V57" stroke="#141B34" stroke-width="3" stroke-linecap="round" stroke-linejoin="round"/>
</svg>
