<svg width="72" height="72" viewBox="0 0 72 72" fill="none" xmlns="http://www.w3.org/2000/svg">
<path d="M12.1125 37.6162L29.9295 19.7993C34.129 15.5998 36.2288 13.5 38.838 13.5C41.4472 13.5 43.547 15.5998 47.7465 19.7993L52.2007 24.2535C56.4002 28.453 58.5 30.5528 58.5 33.162C58.5 35.7712 56.4003 37.871 52.2007 42.0705L34.3838 59.8875C28.2337 66.0375 18.2626 66.0375 12.1125 59.8875C5.96249 53.7374 5.96249 43.7663 12.1125 37.6162Z" stroke="#141B34" stroke-width="3" stroke-linecap="round" stroke-linejoin="round"/>
<path d="M25.5 51C25.5 48.5147 23.4853 46.5 21 46.5C18.5147 46.5 16.5 48.5147 16.5 51C16.5 53.4853 18.5147 55.5 21 55.5C23.4853 55.5 25.5 53.4853 25.5 51Z" stroke="#141B34" stroke-width="3"/>
<path d="M43.5 16.051L47.6497 11.9014C50.5839 8.96713 52.051 7.5 53.8741 7.5C55.6972 7.5 57.1644 8.96713 60.0986 11.9014C63.0329 14.8356 64.5 16.3028 64.5 18.1259C64.5 19.949 63.0329 21.4161 60.0986 24.3503L55.949 28.5" stroke="#141B34" stroke-width="3" stroke-linejoin="round"/>
</svg>
