<svg width="72" height="72" viewBox="0 0 72 72" fill="none" xmlns="http://www.w3.org/2000/svg">
<path d="M28.5 6V12" stroke="#141B34" stroke-width="3" stroke-linecap="round" stroke-linejoin="round"/>
<path d="M43.5 6V12" stroke="#141B34" stroke-width="3" stroke-linecap="round" stroke-linejoin="round"/>
<path d="M28.5 60V66" stroke="#141B34" stroke-width="3" stroke-linecap="round" stroke-linejoin="round"/>
<path d="M43.5 60V66" stroke="#141B34" stroke-width="3" stroke-linecap="round" stroke-linejoin="round"/>
<path d="M66 43.5L60 43.5" stroke="#141B34" stroke-width="3" stroke-linecap="round" stroke-linejoin="round"/>
<path d="M12 28.5L6 28.5" stroke="#141B34" stroke-width="3" stroke-linecap="round" stroke-linejoin="round"/>
<path d="M12 43.5L6 43.5" stroke="#141B34" stroke-width="3" stroke-linecap="round" stroke-linejoin="round"/>
<path d="M66 28.5L60 28.5" stroke="#141B34" stroke-width="3" stroke-linecap="round" stroke-linejoin="round"/>
<path d="M38.0817 25.5L31.8086 33.112C31.1364 33.9277 31.6182 35.1014 32.7144 35.3186L39.2856 36.6204C40.4544 36.852 40.9001 38.1513 40.0829 38.9446L32.2998 46.5" stroke="#141B34" stroke-width="3" stroke-linecap="round" stroke-linejoin="round"/>
<path d="M12 36C12 24.6863 12 19.0294 15.5147 15.5147C19.0294 12 24.6863 12 36 12C47.3137 12 52.9706 12 56.4853 15.5147C60 19.0294 60 24.6863 60 36C60 47.3137 60 52.9706 56.4853 56.4853C52.9706 60 47.3137 60 36 60C24.6863 60 19.0294 60 15.5147 56.4853C12 52.9706 12 47.3137 12 36Z" stroke="#141B34" stroke-width="3" stroke-linejoin="round"/>
</svg>
