<svg width="72" height="72" viewBox="0 0 72 72" fill="none" xmlns="http://www.w3.org/2000/svg">
<path d="M6 54.6667C6.56598 57.2171 7.70723 60 10.6871 60C15.8435 60 17.1326 54.6667 21 36C24.8674 17.3333 26.1565 12 31.3129 12C34.2928 12 35.434 14.7829 36 17.3333M14.75 29.3333H31.3129" stroke="#141B34" stroke-width="3" stroke-linecap="round" stroke-linejoin="round"/>
<path d="M63 36C67.1413 45.759 66.8561 50.9423 63 60" stroke="#141B34" stroke-width="3" stroke-linecap="round" stroke-linejoin="round"/>
<path d="M36 36C31.8587 45.759 32.1439 50.9423 36 60" stroke="#141B34" stroke-width="3" stroke-linecap="round" stroke-linejoin="round"/>
<path d="M42 52.5C41.1716 52.5 40.5 53.1716 40.5 54C40.5 54.8284 41.1716 55.5 42 55.5V52.5ZM57 43.5C57.8284 43.5 58.5 42.8284 58.5 42C58.5 41.1716 57.8284 40.5 57 40.5V43.5ZM48.1284 45.0154L49.4914 44.3891L49.4914 44.3891L48.1284 45.0154ZM50.8716 50.9846L52.2346 50.3582L52.2346 50.3582L50.8716 50.9846ZM52.1955 53.1933L53.1556 52.0409L53.1556 52.0409L52.1955 53.1933ZM56.1176 55.5C56.9461 55.5 57.6176 54.8284 57.6176 54C57.6176 53.1716 56.9461 52.5 56.1176 52.5V55.5ZM53.1792 53.7588L52.6534 55.1636L52.6534 55.1636L53.1792 53.7588ZM42.8824 40.5C42.0539 40.5 41.3824 41.1716 41.3824 42C41.3824 42.8284 42.0539 43.5 42.8824 43.5V40.5ZM45.8208 42.2412L45.2951 43.6461L45.2951 43.6461L45.8208 42.2412ZM46.8045 42.8067L45.8444 43.9591L45.8444 43.9591L46.8045 42.8067ZM42 55.5C44.0315 55.5 45.6912 54.4713 47.0396 53.2276C48.3787 51.9925 49.5911 50.3736 50.6985 48.902C51.8487 47.3736 52.894 45.9925 53.9943 44.9776C55.0854 43.9713 56.0468 43.5 57 43.5V40.5C54.9685 40.5 53.3088 41.5287 51.9604 42.7724C50.6213 44.0075 49.4089 45.6264 48.3015 47.098C47.1513 48.6264 46.106 50.0075 45.0057 51.0224C43.9146 52.0287 42.9532 52.5 42 52.5V55.5ZM46.7654 45.6418L49.5086 51.6109L52.2346 50.3582L49.4914 44.3891L46.7654 45.6418ZM49.5086 51.6109C50.0004 52.681 50.4139 53.6614 51.2353 54.3458L53.1556 52.0409C52.9762 51.8914 52.8407 51.6773 52.2346 50.3582L49.5086 51.6109ZM56.1176 52.5C54.4638 52.5 54.0331 52.4767 53.7049 52.3539L52.6534 55.1636C53.6144 55.5233 54.713 55.5 56.1176 55.5V52.5ZM51.2353 54.3458C51.6563 54.6965 52.1383 54.9709 52.6534 55.1636L53.7049 52.3539C53.4877 52.2726 53.3031 52.1638 53.1556 52.0409L51.2353 54.3458ZM42.8824 43.5C44.5362 43.5 44.9669 43.5233 45.2951 43.6461L46.3466 40.8364C45.3856 40.4767 44.287 40.5 42.8824 40.5V43.5ZM49.4914 44.3891C48.9996 43.319 48.5861 42.3386 47.7647 41.6542L45.8444 43.9591C46.0238 44.1086 46.1593 44.3227 46.7654 45.6418L49.4914 44.3891ZM45.2951 43.6461C45.5123 43.7274 45.6969 43.8362 45.8444 43.9591L47.7647 41.6542C47.3437 41.3035 46.8617 41.0291 46.3466 40.8364L45.2951 43.6461Z" fill="#141B34"/>
</svg>
