<svg width="72" height="72" viewBox="0 0 72 72" fill="none" xmlns="http://www.w3.org/2000/svg">
<path d="M36 45C36.9687 45 37.8206 45.6011 39.5246 46.8034L50.7574 54.7293C57.3125 59.3546 60.59 61.6673 59.9125 63.8336M36 45C35.0313 45 34.1794 45.6011 32.4754 46.8034L21.2426 54.7293C14.6875 59.3546 11.41 61.6673 12.0875 63.8336M36 45V34.5M59.9125 63.8336C59.2351 66 55.2343 66 47.2328 66H24.7672C16.7657 66 12.7649 66 12.0875 63.8336M59.9125 63.8336V24M12.0875 63.8336V24" stroke="#141B34" stroke-width="3" stroke-linecap="round" stroke-linejoin="round"/>
<path d="M36 6C36.9687 6 37.8206 6.60114 39.5246 7.80343L50.7574 15.7293C57.3125 20.3546 60.59 22.6673 59.9125 24.8336C59.2351 27 55.2343 27 47.2328 27H24.7672C16.7657 27 12.7649 27 12.0875 24.8336C11.41 22.6673 14.6875 20.3546 21.2426 15.7293L32.4754 7.80342C34.1794 6.60114 35.0313 6 36 6ZM36 6V19.5" stroke="#141B34" stroke-width="3" stroke-linecap="round" stroke-linejoin="round"/>
</svg>
