<svg width="72" height="72" viewBox="0 0 72 72" fill="none" xmlns="http://www.w3.org/2000/svg">
<path d="M52.5 51.7523C51.6716 51.7523 51 52.4238 51 53.2523C51 54.0807 51.6716 54.7523 52.5 54.7523V51.7523ZM52.5 26.7009L52.5 25.2009L52.4964 25.2009L52.5 26.7009ZM19.5613 23.8177L19.701 25.3112L19.701 25.3112L19.5613 23.8177ZM29.1101 27.9073C29.7764 28.3996 30.7156 28.2586 31.2079 27.5923C31.7002 26.926 31.5591 25.9867 30.8928 25.4945L29.1101 27.9073ZM47.5799 34.5867C47.0471 35.2211 47.1295 36.1672 47.7639 36.7C48.3982 37.2328 49.3444 37.1504 49.8772 36.516L47.5799 34.5867ZM28.5 44.4018C28.5 45.2302 29.1716 45.9018 30 45.9018C30.8284 45.9018 31.5 45.2302 31.5 44.4018H28.5ZM41.1973 47.352L42.4152 48.2276L42.4553 48.1718L42.4902 48.1125L41.1973 47.352ZM36 10.5C44.3081 10.5 51 17.1166 51 25.2258H54C54 15.4125 45.9173 7.5 36 7.5V10.5ZM64.5 39.9766C64.5 46.4565 59.1512 51.7523 52.5 51.7523V54.7523C60.7605 54.7523 67.5 48.1606 67.5 39.9766H64.5ZM52.5 28.2009C59.1512 28.2009 64.5 33.4966 64.5 39.9766H67.5C67.5 31.7926 60.7605 25.2009 52.5 25.2009V28.2009ZM52.4363 28.2011L52.5036 28.2009L52.4964 25.2009L52.4291 25.2011L52.4363 28.2011ZM51 25.2258C51 25.6773 50.9793 26.1237 50.939 26.5642L53.9265 26.838C53.9752 26.3066 54 25.7689 54 25.2258H51ZM7.5 38.5015C7.5 31.6341 12.8347 25.9537 19.701 25.3112L19.4215 22.3243C11.0692 23.1059 4.5 30.0301 4.5 38.5015H7.5ZM19.701 25.3112C20.1281 25.2712 20.5614 25.2508 21 25.2508V22.2508C20.468 22.2508 19.9414 22.2756 19.4215 22.3243L19.701 25.3112ZM21.0556 23.9483C21.7123 16.4351 28.1335 10.5 36 10.5V7.5C26.6059 7.5 18.8616 14.5964 18.067 23.6871L21.0556 23.9483ZM21 25.2508C24.0478 25.2508 26.8538 26.2403 29.1101 27.9073L30.8928 25.4945C28.1347 23.4567 24.7072 22.2508 21 22.2508V25.2508ZM50.939 26.5642C50.6613 29.5942 49.4484 32.3617 47.5799 34.5867L49.8772 36.516C52.1233 33.8414 53.5907 30.5015 53.9265 26.838L50.939 26.5642ZM31.5 44.4018C31.5 41.9952 33.4909 40.0015 36 40.0015V37.0015C31.8817 37.0015 28.5 40.2911 28.5 44.4018H31.5ZM39.9794 46.4763C36.1783 51.7632 28.1186 53.5566 20.7064 51.9158C13.3084 50.2781 7.5 45.4607 7.5 38.5015H4.5C4.5 47.4888 12.0017 53.0615 20.058 54.8449C28.1002 56.6251 37.6391 54.8705 42.4152 48.2276L39.9794 46.4763ZM36 40.0015C39.3428 40.0015 41.5671 43.7648 39.9044 46.5914L42.4902 48.1125C45.4097 43.1494 41.5027 37.0015 36 37.0015V40.0015Z" fill="#141B34"/>
<path d="M42.4616 65.7439C42.8947 65.9098 43.3607 66 43.8462 66C46.1403 66 48 63.9853 48 61.5C48 59.0147 46.1403 57 43.8462 57C43.0318 57 42.2722 57.2539 41.6311 57.6926C38.4474 60.0674 32.5501 63.1134 25.846 63.9031M17.5384 63.5809C15.6838 63.1904 13.826 62.5624 12 61.6435" stroke="#141B34" stroke-width="3" stroke-linecap="round"/>
<path d="M57 63C57.7742 63 59.867 63 63 63" stroke="#141B34" stroke-width="3" stroke-linecap="round"/>
</svg>
