<svg width="110" height="110" viewBox="0 0 110 110" fill="none" xmlns="http://www.w3.org/2000/svg">
<path d="M14.5377 77.1316L12.4164 79.2529H12.4164L14.5377 77.1316ZM95.4649 14.5377L93.3436 16.659V16.659L95.4649 14.5377ZM84.3572 78.7905C82.7179 79.0311 81.5841 80.5551 81.8248 82.1944C82.0654 83.8337 83.5894 84.9675 85.2287 84.7268L84.3572 78.7905ZM31.9602 85.3385C33.6156 85.4072 35.0133 84.121 35.0821 82.4655C35.1508 80.8101 33.8645 79.4124 32.2091 79.3436L31.9602 85.3385ZM77.918 35.0846C79.5748 35.0846 80.918 33.7415 80.918 32.0846C80.918 30.4278 79.5748 29.0846 77.918 29.0846V35.0846ZM32.0846 29.0846C30.4278 29.0846 29.0846 30.4278 29.0846 32.0846C29.0846 33.7415 30.4278 35.0846 32.0846 35.0846V29.0846ZM61.8763 87.0846L63.3647 84.4799C62.6488 84.0708 61.7961 83.9744 61.0069 84.2134C60.2178 84.4523 59.5618 85.0055 59.193 85.743L61.8763 87.0846ZM55.0013 100.835L52.5305 102.536C53.1325 103.41 54.1515 103.901 55.2103 103.827C56.269 103.753 57.2099 103.126 57.6846 102.176L55.0013 100.835ZM73.9109 81.7543C73.3792 80.1851 71.6761 79.344 70.1069 79.8757C68.5377 80.4073 67.6966 82.1105 68.2282 83.6797L73.9109 81.7543ZM77.918 96.2513L76.4296 98.856C77.7425 99.6063 79.4087 99.2621 80.3168 98.0529C81.2249 96.8437 81.0911 95.1477 80.0046 94.0958L77.918 96.2513ZM45.8346 12.168H64.168V6.16797H45.8346V12.168ZM6.16797 45.8346C6.16797 54.3922 6.1616 61.1122 6.86593 66.351C7.58187 71.6761 9.0812 75.9178 12.4164 79.2529L16.659 75.0103C14.6245 72.9757 13.4389 70.2113 12.8124 65.5515C12.1743 60.8055 12.168 54.5619 12.168 45.8346H6.16797ZM97.8346 45.8346C97.8346 54.5619 97.8283 60.8055 97.1902 65.5515C96.5637 70.2113 95.3782 72.9757 93.3436 75.0103L97.5863 79.2529C100.921 75.9178 102.421 71.6761 103.137 66.351C103.841 61.1122 103.835 54.3922 103.835 45.8346H97.8346ZM64.168 12.168C72.8952 12.168 79.1388 12.1743 83.8849 12.8124C88.5446 13.4389 91.3091 14.6245 93.3436 16.659L97.5863 12.4164C94.2511 9.0812 90.0095 7.58187 84.6844 6.86593C79.4456 6.1616 72.7256 6.16797 64.168 6.16797V12.168ZM103.835 45.8346C103.835 37.277 103.841 30.557 103.137 25.3182C102.421 19.9932 100.921 15.7515 97.5863 12.4164L93.3436 16.659C95.3782 18.6935 96.5637 21.458 97.1902 26.1177C97.8283 30.8638 97.8346 37.1074 97.8346 45.8346H103.835ZM45.8346 6.16797C37.277 6.16797 30.557 6.1616 25.3182 6.86593C19.9932 7.58187 15.7515 9.0812 12.4164 12.4164L16.659 16.659C18.6935 14.6245 21.458 13.4389 26.1177 12.8124C30.8638 12.1743 37.1074 12.168 45.8346 12.168V6.16797ZM12.168 45.8346C12.168 37.1074 12.1743 30.8638 12.8124 26.1177C13.4389 21.458 14.6245 18.6935 16.659 16.659L12.4164 12.4164C9.0812 15.7515 7.58187 19.9932 6.86593 25.3182C6.1616 30.557 6.16797 37.277 6.16797 45.8346H12.168ZM85.2287 84.7268C90.3012 83.9822 94.3667 82.4725 97.5863 79.2529L93.3436 75.0103C91.3776 76.9763 88.7314 78.1483 84.3572 78.7905L85.2287 84.7268ZM32.2091 79.3436C23.6643 78.9888 19.4804 77.8317 16.659 75.0103L12.4164 79.2529C17.0032 83.8397 23.3422 84.9806 31.9602 85.3385L32.2091 79.3436ZM77.918 29.0846H32.0846V35.0846H77.918V29.0846ZM63.4596 66.4596C63.4596 71.131 59.6727 74.918 55.0013 74.918V80.918C62.9864 80.918 69.4596 74.4447 69.4596 66.4596H63.4596ZM55.0013 74.918C50.3299 74.918 46.543 71.131 46.543 66.4596H40.543C40.543 74.4447 47.0162 80.918 55.0013 80.918V74.918ZM46.543 66.4596C46.543 61.7882 50.3299 58.0013 55.0013 58.0013V52.0013C47.0162 52.0013 40.543 58.4745 40.543 66.4596H46.543ZM55.0013 58.0013C59.6727 58.0013 63.4596 61.7882 63.4596 66.4596H69.4596C69.4596 58.4745 62.9864 52.0013 55.0013 52.0013V58.0013ZM59.193 85.743L52.318 99.493L57.6846 102.176L64.5596 88.4263L59.193 85.743ZM57.4721 99.1331C53.9606 94.034 46.543 84.1221 46.543 66.4596H40.543C40.543 86.0677 48.9124 97.2823 52.5305 102.536L57.4721 99.1331ZM71.0696 82.717C68.2282 83.6797 68.2283 83.68 68.2285 83.6804C68.2285 83.6805 68.2286 83.6809 68.2288 83.6813C68.229 83.6819 68.2293 83.6828 68.2296 83.6838C68.2303 83.6858 68.2312 83.6884 68.2323 83.6916C68.2345 83.698 68.2375 83.7069 68.2414 83.7183C68.2491 83.7409 68.2602 83.7731 68.2745 83.8143C68.303 83.8968 68.3445 84.0156 68.3979 84.1665C68.5047 84.468 68.6597 84.8984 68.8559 85.4234C69.2474 86.4712 69.8073 87.9076 70.4789 89.4558C71.1478 90.9974 71.9443 92.6889 72.8128 94.2325C73.6553 95.7299 74.6738 97.2862 75.8313 98.4068L80.0046 94.0958C79.4786 93.5866 78.7992 92.6362 78.0419 91.2903C77.3107 89.9907 76.6056 88.5023 75.9832 87.0677C75.3637 85.6398 74.8428 84.3039 74.4763 83.3232C74.2936 82.8341 74.1503 82.4363 74.0536 82.1632C74.0052 82.0268 73.9686 81.9216 73.9445 81.852C73.9325 81.8172 73.9236 81.7914 73.9179 81.7749C73.9151 81.7667 73.9131 81.7608 73.9119 81.7573C73.9114 81.7556 73.911 81.7545 73.9108 81.754C73.9107 81.7537 73.9107 81.7536 73.9107 81.7537C73.9107 81.7537 73.9108 81.7539 73.9108 81.7539C73.9108 81.7541 73.9109 81.7543 71.0696 82.717ZM79.4064 93.6466L63.3647 84.4799L60.3879 89.6894L76.4296 98.856L79.4064 93.6466Z" fill="url(#paint0_linear_3243_11211)"/>
<defs>
<linearGradient id="paint0_linear_3243_11211" x1="-36.104" y1="54.7206" x2="55.0013" y2="146.387" gradientUnits="userSpaceOnUse">
<stop stop-color="#9168CD"/>
<stop offset="0.424673" stop-color="#5556FF"/>
<stop offset="0.73499" stop-color="#45ADCD"/>
<stop offset="1" stop-color="#3EC4CD"/>
</linearGradient>
</defs>
</svg>
