<svg width="110" height="110" viewBox="0 0 110 110" fill="none" xmlns="http://www.w3.org/2000/svg">
<path d="M80.0426 34.55C78.8743 33.3751 76.9748 33.3698 75.8 34.5381C74.6251 35.7065 74.6198 37.6059 75.7881 38.7808L80.0426 34.55ZM86.3478 45.1449L84.2206 47.2603L86.3478 45.1449ZM86.3478 60.2691L88.4751 62.3845L86.3478 60.2691ZM75.7881 66.6333C74.6198 67.8081 74.6251 69.7076 75.8 70.8759C76.9748 72.0442 78.8743 72.0389 80.0426 70.8641L75.7881 66.6333ZM34.2092 38.7808C35.3776 37.6059 35.3723 35.7065 34.1974 34.5381C33.0226 33.3698 31.1231 33.3751 29.9548 34.55L34.2092 38.7808ZM23.6496 45.1449L25.7768 47.2603H25.7768L23.6496 45.1449ZM23.6496 60.2691L21.5223 62.3845H21.5223L23.6496 60.2691ZM29.9548 70.8641C31.1231 72.0389 33.0226 72.0442 34.1974 70.8759C35.3723 69.7076 35.3776 67.8081 34.2092 66.6333L29.9548 70.8641ZM69.3205 19.2269C69.8147 17.6454 68.9333 15.9628 67.3519 15.4686C65.7704 14.9744 64.0878 15.8558 63.5936 17.4372L69.3205 19.2269ZM40.6769 90.7705C40.1827 92.352 41.0641 94.0346 42.6455 94.5288C44.227 95.023 45.9096 94.1416 46.4038 92.5602L40.6769 90.7705ZM75.7881 38.7808L84.2206 47.2603L88.475 43.0295L80.0426 34.55L75.7881 38.7808ZM84.2206 58.1537L75.7881 66.6333L80.0426 70.8641L88.4751 62.3845L84.2206 58.1537ZM84.2206 47.2603C86.0528 49.1027 87.2099 50.2753 87.946 51.2455C88.6291 52.1458 88.6654 52.5141 88.6654 52.707H94.6654C94.6654 50.685 93.8153 49.0547 92.7259 47.6189C91.6895 46.2529 90.1879 44.7519 88.475 43.0295L84.2206 47.2603ZM88.4751 62.3845C90.1879 60.6622 91.6895 59.1611 92.7259 57.7952C93.8153 56.3594 94.6654 54.729 94.6654 52.707H88.6654C88.6654 52.8999 88.6291 53.2682 87.946 54.1685C87.2099 55.1387 86.0528 56.3113 84.2206 58.1537L88.4751 62.3845ZM29.9548 34.55L21.5223 43.0295L25.7768 47.2603L34.2092 38.7808L29.9548 34.55ZM21.5223 62.3845L29.9548 70.8641L34.2092 66.6333L25.7768 58.1537L21.5223 62.3845ZM21.5223 43.0295C19.8095 44.7519 18.3079 46.2529 17.2715 47.6189C16.1821 49.0547 15.332 50.685 15.332 52.707H21.332C21.332 52.5141 21.3683 52.1458 22.0514 51.2455C22.7875 50.2753 23.9446 49.1027 25.7768 47.2603L21.5223 43.0295ZM25.7768 58.1537C23.9446 56.3113 22.7875 55.1387 22.0514 54.1685C21.3683 53.2682 21.332 52.8999 21.332 52.707H15.332C15.332 54.729 16.1821 56.3594 17.2715 57.7952C18.3079 59.1611 19.8095 60.6622 21.5223 62.3845L25.7768 58.1537ZM63.5936 17.4372L40.6769 90.7705L46.4038 92.5602L69.3205 19.2269L63.5936 17.4372Z" fill="url(#paint0_linear_3243_11224)"/>
<defs>
<linearGradient id="paint0_linear_3243_11224" x1="-17.8855" y1="54.7741" x2="54.9987" y2="128.107" gradientUnits="userSpaceOnUse">
<stop stop-color="#9168CD"/>
<stop offset="0.424673" stop-color="#5556FF"/>
<stop offset="0.73499" stop-color="#45ADCD"/>
<stop offset="1" stop-color="#3EC4CD"/>
</linearGradient>
</defs>
</svg>
