<svg width="110" height="110" viewBox="0 0 110 110" fill="none" xmlns="http://www.w3.org/2000/svg">
<path d="M16.043 89.639L17.6513 87.1066H17.6513L16.043 89.639ZM11.0101 84.1029L8.35378 85.4971H8.35378L11.0101 84.1029ZM98.9925 84.1029L96.3361 82.7086V82.7087L98.9925 84.1029ZM93.9596 89.639L92.3513 87.1065L92.3513 87.1066L93.9596 89.639ZM93.9596 43.2751L92.3513 45.8075V45.8075L93.9596 43.2751ZM98.9925 48.8112L96.3361 50.2054V50.2054L98.9925 48.8112ZM16.043 43.2751L17.6513 45.8075H17.6513L16.043 43.2751ZM11.0101 48.8112L13.6665 50.2054L11.0101 48.8112ZM74.8558 91.5987L74.5879 94.5867L74.8558 91.5987ZM62.2695 84.5354L60.0497 86.5534V86.5534L62.2695 84.5354ZM64.4776 86.87L66.5256 84.6778L64.4776 86.87ZM50.8784 81.9826L48.4871 80.171L50.8784 81.9826ZM47.1763 86.532L45.0726 84.3932L47.1763 86.532ZM37.6319 91.4494L38.1125 94.4107L37.6319 91.4494ZM52.41 79.9609L54.8013 81.7725L52.41 79.9609ZM54.3334 77.9216L55.5013 80.685L54.3334 77.9216ZM57.8635 79.6888L60.0833 77.6708L57.8635 79.6888ZM55.7801 77.8494L54.8873 80.7135L55.7801 77.8494ZM73.3346 56.582C71.6778 56.582 70.3346 57.9252 70.3346 59.582C70.3346 61.2389 71.6778 62.582 73.3346 62.582V56.582ZM82.5013 62.582C84.1582 62.582 85.5013 61.2389 85.5013 59.582C85.5013 57.9252 84.1582 56.582 82.5013 56.582V62.582ZM97.8346 68.7487C97.8346 70.4056 99.1778 71.7487 100.835 71.7487C102.491 71.7487 103.835 70.4056 103.835 68.7487H97.8346ZM6.16797 68.7487C6.16797 70.4056 7.51111 71.7487 9.16797 71.7487C10.8248 71.7487 12.168 70.4056 12.168 68.7487H6.16797ZM13.6849 37.1402L10.9919 35.8182H10.9919L13.6849 37.1402ZM10.2388 45.0019L7.35954 44.1594H7.35954L10.2388 45.0019ZM9.52238 48.1632L6.56158 47.6798H6.56158L9.52238 48.1632ZM96.3177 37.1402L93.6247 38.4622V38.4622L96.3177 37.1402ZM99.7638 45.0019L96.8845 45.8444V45.8444L99.7638 45.0019ZM100.48 48.1632L103.441 47.6798L103.441 47.6798L100.48 48.1632ZM26.5745 19.8933L25.2723 17.1907V17.1907L26.5745 19.8933ZM22.1321 22.9675L20.079 20.7801L20.079 20.7801L22.1321 22.9675ZM83.4281 19.8933L84.7303 17.1907L84.7303 17.1907L83.4281 19.8933ZM87.8705 22.9675L85.8175 25.155V25.155L87.8705 22.9675ZM32.0846 44.2487H77.918V38.2487H32.0846V44.2487ZM32.0846 88.6654C27.7403 88.6654 24.7026 88.6619 22.3452 88.4269C20.0411 88.1972 18.6938 87.7687 17.6513 87.1066L14.4346 92.1714C16.5828 93.5357 18.9727 94.1204 21.75 94.3973C24.4739 94.6688 27.8616 94.6654 32.0846 94.6654V88.6654ZM6.16797 66.457C6.16797 71.1188 6.16559 74.7976 6.40837 77.7441C6.65375 80.7223 7.16553 83.2332 8.35378 85.4971L13.6665 82.7086C13.0126 81.4628 12.6033 79.8628 12.3881 77.2515C12.1703 74.6086 12.168 71.2193 12.168 66.457H6.16797ZM17.6513 87.1066C16.0258 86.0742 14.6418 84.5669 13.6665 82.7086L8.35378 85.4971C9.79205 88.2374 11.8796 90.5488 14.4346 92.1714L17.6513 87.1066ZM97.8346 66.457C97.8346 71.2193 97.8322 74.6086 97.6145 77.2515C97.3993 79.8628 96.99 81.4628 96.3361 82.7086L101.649 85.4971C102.837 83.2332 103.349 80.7223 103.594 77.7441C103.837 74.7976 103.835 71.1188 103.835 66.457H97.8346ZM77.918 94.6654C82.141 94.6654 85.5287 94.6688 88.2526 94.3973C91.0299 94.1204 93.4198 93.5357 95.568 92.1714L92.3513 87.1066C91.3088 87.7687 89.9615 88.1972 87.6574 88.4269C85.3 88.6619 82.2623 88.6654 77.918 88.6654V94.6654ZM96.3361 82.7087C95.3608 84.567 93.9768 86.0742 92.3513 87.1065L95.5679 92.1715C98.123 90.5488 100.211 88.2374 101.649 85.4971L96.3361 82.7087ZM77.918 44.2487C82.2623 44.2487 85.3 44.2522 87.6574 44.4872C89.9615 44.7169 91.3088 45.1454 92.3513 45.8075L95.568 40.7426C93.4198 39.3784 91.0299 38.7937 88.2526 38.5168C85.5287 38.2452 82.141 38.2487 77.918 38.2487V44.2487ZM103.835 66.457C103.835 61.7953 103.837 58.1165 103.594 55.1699C103.349 52.1918 102.837 49.6809 101.649 47.417L96.3361 50.2054C96.99 51.4513 97.3993 53.0513 97.6145 55.6626C97.8322 58.3055 97.8346 61.6948 97.8346 66.457H103.835ZM92.3513 45.8075C93.9768 46.8398 95.3608 48.3471 96.3361 50.2054L101.649 47.417C100.211 44.6767 98.123 42.3653 95.568 40.7426L92.3513 45.8075ZM32.0846 38.2487C27.8616 38.2487 24.4739 38.2452 21.75 38.5168C18.9727 38.7937 16.5828 39.3784 14.4346 40.7426L17.6513 45.8075C18.6938 45.1454 20.0411 44.7169 22.3452 44.4872C24.7026 44.2522 27.7403 44.2487 32.0846 44.2487V38.2487ZM12.168 66.457C12.168 61.6948 12.1703 58.3055 12.3881 55.6626C12.6033 53.0513 13.0126 51.4513 13.6665 50.2054L8.35378 47.417C7.16553 49.6809 6.65375 52.1918 6.40837 55.1699C6.16559 58.1165 6.16797 61.7953 6.16797 66.457H12.168ZM14.4346 40.7426C11.8796 42.3653 9.79205 44.6767 8.35378 47.417L13.6665 50.2054C14.6418 48.3471 16.0258 46.8398 17.6513 45.8075L14.4346 40.7426ZM50.0187 78.1493L48.4871 80.171L53.2697 83.7942L54.8013 81.7725L50.0187 78.1493ZM64.4893 82.5174L60.0833 77.6708L55.6437 81.7068L60.0497 86.5534L64.4893 82.5174ZM77.918 88.6654C76.3188 88.6654 75.7024 88.6626 75.1237 88.6107L74.5879 94.5867C75.4961 94.6682 76.4256 94.6654 77.918 94.6654V88.6654ZM60.0497 86.5534C61.1095 87.7192 61.7507 88.428 62.4297 89.0623L66.5256 84.6778C66.0674 84.2498 65.6156 83.7562 64.4893 82.5174L60.0497 86.5534ZM75.1237 88.6107C71.9948 88.3301 68.984 86.9744 66.5256 84.6778L62.4297 89.0623C65.82 92.2295 70.0688 94.1815 74.5879 94.5867L75.1237 88.6107ZM48.4871 80.171C46.6328 82.6187 45.8828 83.5963 45.0726 84.3932L49.28 88.6708C50.4752 87.4952 51.5248 86.0974 53.2697 83.7942L48.4871 80.171ZM32.0846 94.6654C34.7978 94.6654 36.4872 94.6744 38.1125 94.4107L37.1513 88.4882C36.1152 88.6563 34.9935 88.6654 32.0846 88.6654V94.6654ZM45.0726 84.3932C42.8197 86.6091 40.061 88.016 37.1513 88.4882L38.1125 94.4107C42.3037 93.7305 46.1822 91.7178 49.28 88.6708L45.0726 84.3932ZM54.8013 81.7725C55.0333 81.4662 55.2167 81.2242 55.3782 81.018C55.5401 80.8114 55.6515 80.6774 55.7334 80.5865C55.9108 80.3896 55.8133 80.5531 55.5013 80.685L53.1656 75.1583C52.2968 75.5254 51.6931 76.1072 51.2757 76.5705C50.8728 77.0177 50.4423 77.5901 50.0187 78.1493L54.8013 81.7725ZM60.0833 77.6708C59.6163 77.1571 59.138 76.627 58.6969 76.2189C58.2389 75.7952 57.5805 75.2683 56.673 74.9854L54.8873 80.7135C54.5536 80.6095 54.4337 80.4487 54.6224 80.6233C54.7095 80.7039 54.8302 80.8247 55.0079 81.0139C55.1851 81.2025 55.3872 81.4247 55.6437 81.7068L60.0833 77.6708ZM55.5013 80.685C55.3143 80.764 55.092 80.7773 54.8873 80.7135L56.673 74.9854C55.515 74.6244 54.2774 74.6884 53.1656 75.1583L55.5013 80.685ZM73.3346 62.582H82.5013V56.582H73.3346V62.582ZM69.1387 15.332H40.8639V21.332H69.1387V15.332ZM97.8346 57.0715V68.7487H103.835V57.0715H97.8346ZM6.16797 57.0715V68.7487H12.168V57.0715H6.16797ZM10.9919 35.8182C9.14302 39.5843 8.05828 41.7715 7.35954 44.1594L13.1181 45.8444C13.6392 44.0635 14.4452 42.3991 16.3779 38.4622L10.9919 35.8182ZM12.168 57.0715C12.168 52.4849 12.177 50.522 12.4832 48.6465L6.56158 47.6798C6.15894 50.1461 6.16797 52.6749 6.16797 57.0715H12.168ZM7.35954 44.1594C7.02291 45.3098 6.75642 46.4864 6.56158 47.6798L12.4832 48.6465C12.6389 47.6925 12.8513 46.7559 13.1181 45.8444L7.35954 44.1594ZM93.6247 38.4622C95.5574 42.3991 96.3634 44.0635 96.8845 45.8444L102.643 44.1594C101.944 41.7715 100.86 39.5843 99.0107 35.8182L93.6247 38.4622ZM103.835 57.0715C103.835 52.6749 103.844 50.1461 103.441 47.6798L97.5194 48.6465C97.8256 50.522 97.8346 52.4849 97.8346 57.0715H103.835ZM96.8845 45.8444C97.1513 46.7559 97.3637 47.6925 97.5194 48.6465L103.441 47.6798C103.246 46.4864 102.98 45.3098 102.643 44.1594L96.8845 45.8444ZM40.8639 15.332C33.7813 15.332 29.2733 15.2629 25.2723 17.1907L27.8767 22.596C30.3566 21.4011 33.2146 21.332 40.8639 21.332V15.332ZM16.3779 38.4622C20.2816 30.5102 21.9202 27.2808 24.1851 25.155L20.079 20.7801C16.8188 23.84 14.6676 28.3305 10.9919 35.8182L16.3779 38.4622ZM25.2723 17.1907C23.3921 18.0966 21.646 19.3094 20.079 20.7801L24.1851 25.155C25.3307 24.0798 26.5752 23.223 27.8767 22.596L25.2723 17.1907ZM69.1387 21.332C76.788 21.332 79.646 21.4011 82.1259 22.596L84.7303 17.1907C80.7293 15.2629 76.2213 15.332 69.1387 15.332V21.332ZM99.0107 35.8182C95.335 28.3305 93.1838 23.84 89.9236 20.7801L85.8175 25.155C88.0824 27.2808 89.721 30.5102 93.6247 38.4622L99.0107 35.8182ZM82.1259 22.596C83.4274 23.223 84.6719 24.0798 85.8175 25.155L89.9236 20.7801C88.3566 19.3094 86.6105 18.0966 84.7303 17.1907L82.1259 22.596Z" fill="url(#paint0_linear_3243_11236)"/>
<defs>
<linearGradient id="paint0_linear_3243_11236" x1="-36.1039" y1="54.7741" x2="34.9069" y2="144.085" gradientUnits="userSpaceOnUse">
<stop stop-color="#9168CD"/>
<stop offset="0.424673" stop-color="#5556FF"/>
<stop offset="0.73499" stop-color="#45ADCD"/>
<stop offset="1" stop-color="#3EC4CD"/>
</linearGradient>
</defs>
</svg>
