<svg width="110" height="110" viewBox="0 0 110 110" fill="none" xmlns="http://www.w3.org/2000/svg">
<path d="M57.6876 28.1265C58.0329 26.506 56.9992 24.9124 55.3787 24.5672C53.7582 24.2219 52.1646 25.2557 51.8194 26.8761L57.6876 28.1265ZM43.9279 78.31L46.862 78.9352L43.9279 78.31ZM46.5101 86.7709L48.6075 84.6259H48.6075L46.5101 86.7709ZM58.5189 98.5129L56.4216 100.658L56.4216 100.658L58.5189 98.5129ZM71.9345 26.8761C71.5892 25.2557 69.9956 24.2219 68.3752 24.5672C66.7547 24.9124 65.7209 26.506 66.0662 28.1265L71.9345 26.8761ZM79.826 78.31L76.8918 78.9352L79.826 78.31ZM77.2437 86.7709L75.1464 84.6259H75.1464L77.2437 86.7709ZM65.2349 98.5129L67.3323 100.658L67.3323 100.658L65.2349 98.5129ZM52.0915 26.1317L50.3279 28.5586L52.0915 26.1317ZM48.6202 16.1315L45.6447 16.5143V16.5143L48.6202 16.1315ZM51.2328 25.3952L53.3635 23.2833L51.2328 25.3952ZM75.1336 16.1315L72.1581 15.7486V15.7486L75.1336 16.1315ZM72.521 25.3952L70.3904 23.2833L72.521 25.3952ZM71.6623 26.1317L73.4259 28.5586L71.6623 26.1317ZM75.3667 14.3198L78.3422 14.7026V14.7026L75.3667 14.3198ZM48.3871 14.3198L51.3626 13.937V13.937L48.3871 14.3198ZM30.969 63.6884L28.2208 64.8915H28.2208L30.969 63.6884ZM31.5214 55.7928L34.0714 57.3731H34.0714L31.5214 55.7928ZM29.8033 59.634L32.7962 59.84V59.84L29.8033 59.634ZM51.8194 26.8761L40.9937 77.6848L46.862 78.9352L57.6876 28.1265L51.8194 26.8761ZM44.4127 88.9159L56.4216 100.658L60.6163 96.3679L48.6075 84.6259L44.4127 88.9159ZM66.0662 28.1265L76.8918 78.9352L82.7601 77.6848L71.9345 26.8761L66.0662 28.1265ZM75.1464 84.6259L63.1376 96.3679L67.3323 100.658L79.3411 88.9159L75.1464 84.6259ZM56.4216 100.658C57.1529 101.373 57.9116 102.124 58.6288 102.659C59.4179 103.247 60.486 103.835 61.8769 103.835V97.8346C62.2843 97.8346 62.4649 98.0349 62.2166 97.8496C62.0832 97.7501 61.8955 97.5916 61.6157 97.3315C61.337 97.0723 61.02 96.7626 60.6163 96.3679L56.4216 100.658ZM63.1376 96.3679C62.7339 96.7626 62.4169 97.0723 62.1381 97.3315C61.8584 97.5915 61.6707 97.7501 61.5373 97.8496C61.289 98.0349 61.4695 97.8346 61.8769 97.8346V103.835C63.2678 103.835 64.3359 103.247 65.125 102.659C65.8422 102.124 66.601 101.373 67.3323 100.658L63.1376 96.3679ZM40.9937 77.6848C40.5404 79.8125 40.2976 81.8351 40.9139 83.8467C41.5281 85.8512 42.8592 87.3969 44.4127 88.9159L48.6075 84.6259C47.1914 83.2413 46.8006 82.5782 46.6507 82.0889C46.503 81.6068 46.4539 80.8508 46.862 78.9352L40.9937 77.6848ZM76.8918 78.9352C77.3 80.8508 77.2509 81.6068 77.1031 82.0889C76.9532 82.5782 76.5624 83.2413 75.1464 84.6259L79.3411 88.9159C80.8946 87.3969 82.2257 85.8512 82.8399 83.8467C83.4562 81.8351 83.2134 79.8125 82.7601 77.6848L76.8918 78.9352ZM53.0682 12.168H70.6856V6.16797H53.0682V12.168ZM72.3912 13.937L72.1581 15.7486L78.1091 16.5143L78.3422 14.7026L72.3912 13.937ZM51.5957 15.7486L51.3626 13.937L45.4117 14.7026L45.6447 16.5143L51.5957 15.7486ZM61.8769 24.5013C59.1757 24.5013 57.3945 24.497 56.0447 24.3482C54.7577 24.2062 54.2088 23.9618 53.8551 23.7048L50.3279 28.5586C51.8589 29.6711 53.5692 30.1116 55.387 30.312C57.1419 30.5056 59.311 30.5013 61.8769 30.5013V24.5013ZM45.6447 16.5143C45.9623 18.9824 46.2287 21.0905 46.6482 22.7748C47.0857 24.5316 47.7615 26.1546 49.1021 27.5071L53.3635 23.2833C53.0715 22.9887 52.7676 22.5186 52.4704 21.3249C52.155 20.0585 51.9315 18.3583 51.5957 15.7486L45.6447 16.5143ZM53.8551 23.7048C53.6789 23.5767 53.5146 23.4357 53.3635 23.2833L49.1021 27.5071C49.4816 27.89 49.8916 28.2415 50.3279 28.5586L53.8551 23.7048ZM72.1581 15.7486C71.8224 18.3583 71.5988 20.0585 71.2835 21.3249C70.9862 22.5186 70.6823 22.9887 70.3904 23.2833L74.6517 27.5071C75.9924 26.1546 76.6681 24.5316 77.1056 22.7748C77.5251 21.0905 77.7915 18.9824 78.1091 16.5143L72.1581 15.7486ZM61.8769 30.5013C64.4428 30.5013 66.612 30.5056 68.3669 30.312C70.1846 30.1116 71.8949 29.6711 73.4259 28.5586L69.8987 23.7048C69.545 23.9618 68.9962 24.2062 67.7091 24.3482C66.3593 24.497 64.5781 24.5013 61.8769 24.5013V30.5013ZM70.3904 23.2833C70.2393 23.4357 70.0749 23.5767 69.8987 23.7048L73.4259 28.5586C73.8622 28.2415 74.2722 27.89 74.6517 27.5071L70.3904 23.2833ZM70.6856 12.168C71.3195 12.168 71.8229 12.1682 72.2551 12.1791C72.6896 12.1901 72.9748 12.2107 73.1705 12.2374C73.5569 12.29 73.2311 12.3188 72.9055 11.9605L77.3462 7.92555C76.3164 6.79221 75.0158 6.43342 73.9809 6.29234C73.0201 6.16137 71.8434 6.16797 70.6856 6.16797V12.168ZM78.3422 14.7026C78.4848 13.5941 78.6408 12.4395 78.6259 11.4752C78.6095 10.4155 78.3901 9.07442 77.3462 7.92555L72.9055 11.9605C72.7651 11.8059 72.6776 11.6313 72.6367 11.4986C72.6055 11.3972 72.6238 11.3911 72.6266 11.568C72.6293 11.746 72.616 12.0126 72.5738 12.429C72.5317 12.8431 72.47 13.3249 72.3912 13.937L78.3422 14.7026ZM53.0682 6.16797C51.9105 6.16797 50.7337 6.16137 49.773 6.29234C48.738 6.43341 47.4374 6.79221 46.4076 7.92555L50.8483 11.9605C50.5227 12.3188 50.1969 12.29 50.5834 12.2374C50.7791 12.2107 51.0642 12.1901 51.4987 12.1791C51.9309 12.1682 52.4343 12.168 53.0682 12.168V6.16797ZM51.3626 13.937C51.2839 13.3249 51.2221 12.8431 51.1801 12.429C51.1378 12.0126 51.1245 11.746 51.1273 11.568C51.13 11.3911 51.1483 11.3972 51.1171 11.4986C51.0763 11.6313 50.9888 11.8059 50.8483 11.9605L46.4076 7.92555C45.3637 9.07442 45.1444 10.4155 45.128 11.4752C45.113 12.4396 45.269 13.5941 45.4117 14.7026L51.3626 13.937ZM43.5799 66.7724C42.3055 68.2244 41.2233 69.1618 40.3684 69.7167C39.4873 70.2885 39.035 70.3346 38.9596 70.3346V76.3346C40.615 76.3346 42.2074 75.676 43.6348 74.7496C45.0883 73.8063 46.5782 72.4521 48.0894 70.7302L43.5799 66.7724ZM28.2208 64.8915C29.2134 67.159 30.7894 69.7884 32.439 71.8857C33.2623 72.9325 34.1758 73.939 35.1182 74.7142C35.9317 75.3833 37.2995 76.3346 38.9596 76.3346V70.3346C39.5097 70.3346 39.5454 70.5867 38.9297 70.0803C38.4428 69.6798 37.83 69.0346 37.155 68.1763C35.8077 66.4634 34.4983 64.2697 33.7172 62.4853L28.2208 64.8915ZM52.584 25.7246C49.2983 30.1951 45.1153 34.6276 40.8005 39.3722C36.5567 44.0387 32.2153 48.978 28.9714 54.2125L34.0714 57.3731C36.9921 52.6602 40.9865 48.0856 45.2394 43.409C49.4213 38.8106 53.8959 34.071 57.4186 29.278L52.584 25.7246ZM33.7172 62.4853C32.7975 60.3844 32.7742 60.1609 32.7962 59.84L26.8104 59.428C26.6669 61.5123 27.4759 63.19 28.2208 64.8915L33.7172 62.4853ZM28.9714 54.2125C27.9966 55.7853 26.9544 57.3352 26.8104 59.428L32.7962 59.84C32.8061 59.6964 32.8327 59.5465 32.9898 59.219C33.187 58.8076 33.495 58.3031 34.0714 57.3731L28.9714 54.2125Z" fill="url(#paint0_linear_3243_11230)"/>
<defs>
<linearGradient id="paint0_linear_3243_11230" x1="4.89311" y1="54.7206" x2="82.0887" y2="97.4403" gradientUnits="userSpaceOnUse">
<stop stop-color="#9168CD"/>
<stop offset="0.424673" stop-color="#5556FF"/>
<stop offset="0.73499" stop-color="#45ADCD"/>
<stop offset="1" stop-color="#3EC4CD"/>
</linearGradient>
</defs>
</svg>
