<svg width="110" height="110" viewBox="0 0 110 110" fill="none" xmlns="http://www.w3.org/2000/svg">
<g clip-path="url(#clip0_3243_11191)">
<path d="M48.1263 36.668H84.793M48.1263 55.0013H59.5846M48.1263 73.3346H59.5846M73.3346 73.3346H84.793M73.3346 55.0013H84.793M32.0846 34.3763H27.5013C18.8589 34.3763 14.5377 34.3763 11.8528 37.0612C9.16797 39.746 9.16797 44.0672 9.16797 52.7096V82.5013C9.16797 88.8296 14.298 93.9596 20.6263 93.9596M32.0846 34.3763V82.5013C32.0846 88.8296 26.9546 93.9596 20.6263 93.9596M32.0846 34.3763C32.0846 30.1139 32.0846 27.9827 32.5532 26.2342C33.8246 21.4892 37.5309 17.7829 42.2759 16.5115C44.0244 16.043 46.1556 16.043 50.418 16.043H73.3346C86.2983 16.043 92.7801 16.043 96.8074 20.0703C100.835 24.0975 100.835 30.5793 100.835 43.543V66.4596C100.835 79.4233 100.835 85.9051 96.8074 89.9324C92.7801 93.9596 86.2983 93.9596 73.3346 93.9596H20.6263" stroke="url(#paint0_linear_3243_11191)" stroke-width="6" stroke-linecap="round" stroke-linejoin="round"/>
</g>
<defs>
<linearGradient id="paint0_linear_3243_11191" x1="-36.104" y1="54.7627" x2="40.2484" y2="145.143" gradientUnits="userSpaceOnUse">
<stop stop-color="#9168CD"/>
<stop offset="0.424673" stop-color="#5556FF"/>
<stop offset="0.73499" stop-color="#45ADCD"/>
<stop offset="1" stop-color="#3EC4CD"/>
</linearGradient>
<clipPath id="clip0_3243_11191">
<rect width="110" height="110" fill="white"/>
</clipPath>
</defs>
</svg>
