<svg width="110" height="110" viewBox="0 0 110 110" fill="none" xmlns="http://www.w3.org/2000/svg">
<path d="M43.0917 88.2858L42.3347 91.1888L43.0917 88.2858ZM36.8588 80.7298L34 81.6394L36.8588 80.7298ZM38.3737 84.7232L35.8081 86.2781L38.3737 84.7232ZM73.1362 80.7298L75.995 81.6394L73.1362 80.7298ZM71.6212 84.7232L74.1868 86.2781L71.6212 84.7232ZM66.9032 88.2858L67.6603 91.1888L66.9032 88.2858ZM72.1591 76.3923L73.2875 73.6126L72.1591 76.3923ZM73.6565 78.5688L76.6534 78.4317L73.6565 78.5688ZM37.8358 76.3923L36.7074 73.6126L37.8358 76.3923ZM36.3384 78.5688L33.3415 78.4317L36.3384 78.5688ZM69.7294 89.0932C70.0411 87.466 68.9747 85.8941 67.3475 85.5823C65.7202 85.2705 64.1483 86.3369 63.8365 87.9642L69.7294 89.0932ZM66.2749 91.1804L69.2213 91.7449L66.2749 91.1804ZM43.7196 91.1804L40.7732 91.7449L43.7196 91.1804ZM46.1579 87.9642C45.8462 86.3369 44.2743 85.2705 42.647 85.5823C41.0198 85.8941 39.9533 87.466 40.2651 89.0932L46.1579 87.9642ZM49.5498 100.419L48.5736 103.256L49.5498 100.419ZM45.1753 96.6754L42.5392 98.1075L45.1753 96.6754ZM64.8192 96.6754L67.4553 98.1075L64.8192 96.6754ZM60.4447 100.419L61.4209 103.256L60.4447 100.419ZM25.17 69.9707C25.8434 71.4845 27.6165 72.1658 29.1304 71.4923C30.6442 70.8188 31.3254 69.0457 30.652 67.5319L25.17 69.9707ZM79.3506 67.5319C78.6772 69.0457 79.3584 70.8188 80.8722 71.4923C82.3861 72.1658 84.1592 71.4845 84.8326 69.9707L79.3506 67.5319ZM58.0013 9.16797C58.0013 7.51111 56.6582 6.16797 55.0013 6.16797C53.3444 6.16797 52.0013 7.51111 52.0013 9.16797H58.0013ZM52.0013 13.7513C52.0013 15.4082 53.3444 16.7513 55.0013 16.7513C56.6582 16.7513 58.0013 15.4082 58.0013 13.7513H52.0013ZM100.835 58.0013C102.491 58.0013 103.835 56.6582 103.835 55.0013C103.835 53.3444 102.491 52.0013 100.835 52.0013V58.0013ZM96.2513 52.0013C94.5945 52.0013 93.2513 53.3444 93.2513 55.0013C93.2513 56.6582 94.5945 58.0013 96.2513 58.0013V52.0013ZM13.7513 58.0013C15.4082 58.0013 16.7513 56.6582 16.7513 55.0013C16.7513 53.3444 15.4082 52.0013 13.7513 52.0013V58.0013ZM9.16797 52.0013C7.51111 52.0013 6.16797 53.3444 6.16797 55.0013C6.16797 56.6582 7.51111 58.0013 9.16797 58.0013V52.0013ZM89.5282 24.7137C90.6998 23.5421 90.6998 21.6426 89.5282 20.471C88.3567 19.2995 86.4572 19.2995 85.2856 20.471L89.5282 24.7137ZM82.0447 23.7119C80.8731 24.8835 80.8731 26.783 82.0447 27.9546C83.2163 29.1261 85.1157 29.1261 86.2873 27.9546L82.0447 23.7119ZM23.7149 27.9565C24.8865 29.128 26.786 29.128 27.9576 27.9565C29.1292 26.7849 29.1292 24.8854 27.9576 23.7138L23.7149 27.9565ZM24.7167 20.4729C23.5451 19.3013 21.6456 19.3013 20.474 20.4729C19.3025 21.6445 19.3025 23.544 20.474 24.7156L24.7167 20.4729ZM39.9572 79.2261H70.0377V73.2261H39.9572V79.2261ZM62.808 85.5287H47.1869V91.5287H62.808V85.5287ZM47.1869 85.5287C44.9075 85.5287 44.3177 85.5052 43.8487 85.3829L42.3347 91.1888C43.7283 91.5522 45.2478 91.5287 47.1869 91.5287V85.5287ZM34 81.6394C34.6184 83.5832 35.0637 85.0498 35.8081 86.2781L40.9393 83.1684C40.6549 82.6991 40.4331 82.0692 39.7175 79.8202L34 81.6394ZM43.8487 85.3829C42.6789 85.0779 41.6265 84.3022 40.9393 83.1684L35.8081 86.2781C37.2762 88.7006 39.6026 90.4763 42.3347 91.1888L43.8487 85.3829ZM70.2774 79.8202C69.5618 82.0692 69.34 82.6991 69.0556 83.1684L74.1868 86.2781C74.9313 85.0498 75.3765 83.5832 75.995 81.6394L70.2774 79.8202ZM62.808 91.5287C64.7471 91.5287 66.2666 91.5522 67.6603 91.1888L66.1462 85.3829C65.6772 85.5052 65.0875 85.5287 62.808 85.5287V91.5287ZM69.0556 83.1684C68.3684 84.3022 67.316 85.0779 66.1462 85.3829L67.6603 91.1888C70.3924 90.4763 72.7187 88.7006 74.1868 86.2781L69.0556 83.1684ZM70.0377 79.2261C70.3282 79.2261 70.5587 79.2261 70.7578 79.2285C70.9572 79.2308 71.0919 79.2352 71.188 79.2411C71.4038 79.2545 71.2706 79.2693 71.0308 79.172L73.2875 73.6126C72.6383 73.349 72.015 73.2808 71.5578 73.2526C71.1071 73.2247 70.5703 73.2261 70.0377 73.2261V79.2261ZM75.995 81.6394C76.1648 81.1055 76.3315 80.5853 76.4452 80.1426C76.5603 79.6948 76.684 79.1011 76.6534 78.4317L70.6597 78.7059C70.6501 78.4959 70.6941 78.4156 70.6339 78.6498C70.5724 78.8892 70.4684 79.2198 70.2774 79.8202L75.995 81.6394ZM71.0308 79.172C70.7555 79.0602 70.6659 78.8426 70.6597 78.7059L76.6534 78.4317C76.5582 76.3513 75.2948 74.4274 73.2875 73.6126L71.0308 79.172ZM39.9572 73.2261C39.4246 73.2261 38.8878 73.2247 38.4372 73.2526C37.9799 73.2808 37.3566 73.349 36.7074 73.6126L38.9641 79.172C38.7243 79.2693 38.5911 79.2545 38.8069 79.2411C38.9031 79.2352 39.0377 79.2308 39.2372 79.2285C39.4363 79.2261 39.6667 79.2261 39.9572 79.2261V73.2261ZM39.7175 79.8202C39.5265 79.2198 39.4225 78.8892 39.361 78.6498C39.3009 78.4156 39.3449 78.496 39.3353 78.7059L33.3415 78.4317C33.3109 79.1011 33.4346 79.6947 33.5497 80.1426C33.6634 80.5853 33.8301 81.1055 34 81.6394L39.7175 79.8202ZM36.7074 73.6126C34.7001 74.4274 33.4367 76.3513 33.3415 78.4317L39.3353 78.7059C39.329 78.8426 39.2395 79.0602 38.9641 79.172L36.7074 73.6126ZM63.8365 87.9642L63.3285 90.6158L69.2213 91.7449L69.7294 89.0932L63.8365 87.9642ZM46.666 90.6158L46.1579 87.9642L40.2651 89.0932L40.7732 91.7449L46.666 90.6158ZM54.9972 97.8313C51.9335 97.8313 51.1337 97.7913 50.5261 97.5822L48.5736 103.256C50.3627 103.871 52.3956 103.831 54.9972 103.831V97.8313ZM40.7732 91.7449C41.2877 94.4305 41.6393 96.4509 42.5392 98.1075L47.8114 95.2433C47.4665 94.6084 47.2625 93.7292 46.666 90.6158L40.7732 91.7449ZM50.5261 97.5822C49.405 97.1964 48.427 96.3765 47.8114 95.2433L42.5392 98.1075C43.8483 100.517 45.989 102.366 48.5736 103.256L50.5261 97.5822ZM63.3285 90.6158C62.732 93.7293 62.528 94.6084 62.183 95.2433L67.4553 98.1075C68.3552 96.4509 68.7068 94.4305 69.2213 91.7449L63.3285 90.6158ZM54.9972 103.831C57.5989 103.831 59.6318 103.871 61.4209 103.256L59.4684 97.5822C58.8608 97.7913 58.061 97.8313 54.9972 97.8313V103.831ZM62.183 95.2433C61.5674 96.3765 60.5895 97.1964 59.4684 97.5822L61.4209 103.256C64.0055 102.366 66.1462 100.517 67.4553 98.1075L62.183 95.2433ZM28.2096 55.9449C28.2096 40.5383 40.2922 28.2096 55.0013 28.2096V22.2096C36.8035 22.2096 22.2096 37.4023 22.2096 55.9449H28.2096ZM55.0013 28.2096C69.7104 28.2096 81.793 40.5383 81.793 55.9449H87.793C87.793 37.4023 73.1991 22.2096 55.0013 22.2096V28.2096ZM30.652 67.5319C29.0858 64.0116 28.2096 60.0891 28.2096 55.9449H22.2096C22.2096 60.9416 23.2673 65.6939 25.17 69.9707L30.652 67.5319ZM81.793 55.9449C81.793 60.0891 80.9168 64.0116 79.3506 67.5319L84.8326 69.9707C86.7353 65.6939 87.793 60.9416 87.793 55.9449H81.793ZM52.0013 9.16797V13.7513H58.0013V9.16797H52.0013ZM100.835 52.0013H96.2513V58.0013H100.835V52.0013ZM13.7513 52.0013H9.16797V58.0013H13.7513V52.0013ZM85.2856 20.471L82.0447 23.7119L86.2873 27.9546L89.5282 24.7137L85.2856 20.471ZM27.9576 23.7138L24.7167 20.4729L20.474 24.7156L23.7149 27.9565L27.9576 23.7138Z" fill="url(#paint0_linear_3243_11205)"/>
<defs>
<linearGradient id="paint0_linear_3243_11205" x1="-36.104" y1="54.7189" x2="54.998" y2="146.386" gradientUnits="userSpaceOnUse">
<stop stop-color="#9168CD"/>
<stop offset="0.424673" stop-color="#5556FF"/>
<stop offset="0.73499" stop-color="#45ADCD"/>
<stop offset="1" stop-color="#3EC4CD"/>
</linearGradient>
</defs>
</svg>
