<svg width="110" height="110" viewBox="0 0 110 110" fill="none" xmlns="http://www.w3.org/2000/svg">
<path d="M100.835 50.418L100.237 53.3577C101.17 53.5477 102.139 53.2829 102.846 52.6442C103.553 52.0056 103.915 51.069 103.82 50.1208L100.835 50.418ZM8.41036 40.3503C7.91277 41.9307 8.79053 43.6152 10.3709 44.1128C11.9513 44.6104 13.6358 43.7326 14.1334 42.1523L8.41036 40.3503ZM92.2665 45.6125C90.6429 45.2821 89.0589 46.3304 88.7285 47.954C88.398 49.5775 89.4463 51.1616 91.0699 51.492L92.2665 45.6125ZM42.2211 42.2586L43.5931 44.9265L42.2211 42.2586ZM47.6564 39.4633L46.2844 36.7954L47.6564 39.4633ZM62.3466 39.4633L63.7187 36.7954L62.3466 39.4633ZM67.782 42.2586L66.4099 44.9265L67.782 42.2586ZM42.2211 58.5773L43.5931 55.9094L42.2211 58.5773ZM47.6564 61.3726L46.2844 64.0405L47.6564 61.3726ZM62.3466 61.3726L63.7187 64.0405L62.3466 61.3726ZM67.782 58.5773L66.4099 55.9094L67.782 58.5773ZM74.9182 64.168C74.9182 65.8248 76.2613 67.168 77.9182 67.168C79.575 67.168 80.9182 65.8248 80.9182 64.168H74.9182ZM54.8879 100.835V97.8346V100.835ZM9.16797 59.5846L9.76628 56.6449C8.8326 56.4549 7.86416 56.7197 7.15708 57.3583C6.44999 57.997 6.08835 58.9336 6.18272 59.8818L9.16797 59.5846ZM101.593 69.6523C102.09 68.0719 101.213 66.3874 99.6322 65.8898C98.0518 65.3922 96.3673 66.27 95.8697 67.8503L101.593 69.6523ZM17.7366 64.3901C19.3601 64.7205 20.9442 63.6722 21.2746 62.0486C21.605 60.4251 20.5567 58.841 18.9332 58.5106L17.7366 64.3901ZM55.1152 12.168C77.389 12.168 95.6963 29.0789 97.8498 50.7151L103.82 50.1208C101.363 25.4349 80.4913 6.16797 55.1152 6.16797V12.168ZM14.1334 42.1523C19.6049 24.7746 35.8848 12.168 55.1152 12.168V6.16797C33.1989 6.16797 14.6485 20.5379 8.41036 40.3503L14.1334 42.1523ZM101.433 47.4782L92.2665 45.6125L91.0699 51.492L100.237 53.3577L101.433 47.4782ZM43.5931 44.9265L49.0285 42.1312L46.2844 36.7954L40.849 39.5908L43.5931 44.9265ZM60.9746 42.1312L66.4099 44.9265L69.154 39.5908L63.7187 36.7954L60.9746 42.1312ZM40.849 61.2452L46.2844 64.0405L49.0285 58.7048L43.5931 55.9094L40.849 61.2452ZM63.7187 64.0405L69.154 61.2452L66.4099 55.9094L60.9746 58.7048L63.7187 64.0405ZM46.2844 64.0405C48.0496 64.9483 49.5446 65.7202 50.8407 66.2478C52.188 66.7962 53.5197 67.168 55.0015 67.168V61.168C54.5736 61.168 54.0446 61.0739 53.1027 60.6905C52.1095 60.2863 50.8869 59.6605 49.0285 58.7048L46.2844 64.0405ZM60.9746 58.7048C59.1162 59.6605 57.8935 60.2863 56.9004 60.6905C55.9585 61.0739 55.4295 61.168 55.0015 61.168V67.168C56.4833 67.168 57.8151 66.7962 59.1624 66.2478C60.4584 65.7202 61.9535 64.9483 63.7187 64.0405L60.9746 58.7048ZM66.4099 44.9265C69.8852 46.7138 72.1597 47.8938 73.6117 48.957C75.0143 49.9842 74.9182 50.3747 74.9182 50.418H80.9182C80.9182 47.5148 79.1327 45.5633 77.1566 44.1162C75.2298 42.7052 72.4362 41.2787 69.154 39.5908L66.4099 44.9265ZM69.154 61.2452C72.4362 59.5572 75.2298 58.1307 77.1566 56.7197C79.1327 55.2726 80.9182 53.3211 80.9182 50.418H74.9182C74.9182 50.4613 75.0143 50.8518 73.6117 51.8789C72.1597 52.9422 69.8852 54.1221 66.4099 55.9094L69.154 61.2452ZM49.0285 42.1312C50.8869 41.1754 52.1095 40.5497 53.1027 40.1454C54.0446 39.7621 54.5736 39.668 55.0015 39.668V33.668C53.5197 33.668 52.188 34.0398 50.8407 34.5882C49.5446 35.1157 48.0496 35.8876 46.2844 36.7954L49.0285 42.1312ZM63.7187 36.7954C61.9535 35.8876 60.4584 35.1157 59.1624 34.5882C57.8151 34.0398 56.4833 33.668 55.0015 33.668V39.668C55.4295 39.668 55.9585 39.7621 56.9004 40.1454C57.8935 40.5497 59.1162 41.1754 60.9746 42.1312L63.7187 36.7954ZM40.849 39.5908C37.5668 41.2787 34.7733 42.7052 32.8465 44.1162C30.8703 45.5633 29.0849 47.5148 29.0849 50.418H35.0849C35.0849 50.3747 34.9887 49.9842 36.3914 48.957C37.8433 47.8938 40.1178 46.7138 43.5931 44.9265L40.849 39.5908ZM43.5931 55.9094C40.1178 54.1221 37.8433 52.9422 36.3914 51.8789C34.9887 50.8518 35.0849 50.4613 35.0849 50.418H29.0849C29.0849 53.3211 30.8703 55.2726 32.8465 56.7197C34.7733 58.1307 37.5668 59.5572 40.849 61.2452L43.5931 55.9094ZM65.7515 71.0195C65.7515 70.9196 65.6589 71.8498 63.6929 72.9908C61.9045 74.0289 59.009 74.918 55.0015 74.918V80.918C59.8537 80.918 63.8332 79.8468 66.7048 78.1801C69.399 76.6164 71.7515 74.0974 71.7515 71.0195H65.7515ZM55.0015 74.918C50.9941 74.918 48.0986 74.0289 46.3101 72.9908C44.3441 71.8498 44.2515 70.9196 44.2515 71.0195H38.2515C38.2515 74.0974 40.6041 76.6164 43.2982 78.1801C46.1699 79.8468 50.1494 80.918 55.0015 80.918V74.918ZM71.7515 71.0195V58.0783H65.7515V71.0195H71.7515ZM44.2515 71.0195V58.0783H38.2515V71.0195H44.2515ZM74.9182 50.418V64.168H80.9182V50.418H74.9182ZM54.8879 97.8346C32.614 97.8346 14.3067 80.9237 12.1532 59.2875L6.18272 59.8818C8.63975 84.5677 29.5117 103.835 54.8879 103.835V97.8346ZM95.8697 67.8503C90.3981 85.228 74.1182 97.8346 54.8879 97.8346V103.835C76.8041 103.835 95.3546 89.4647 101.593 69.6523L95.8697 67.8503ZM8.56966 62.5244L17.7366 64.3901L18.9332 58.5106L9.76628 56.6449L8.56966 62.5244Z" fill="url(#paint0_linear_3243_11217)"/>
<defs>
<linearGradient id="paint0_linear_3243_11217" x1="-36.1042" y1="54.7206" x2="55.0011" y2="146.388" gradientUnits="userSpaceOnUse">
<stop stop-color="#9168CD"/>
<stop offset="0.424673" stop-color="#5556FF"/>
<stop offset="0.73499" stop-color="#45ADCD"/>
<stop offset="1" stop-color="#3EC4CD"/>
</linearGradient>
</defs>
</svg>
