<svg width="110" height="110" viewBox="0 0 110 110" fill="none" xmlns="http://www.w3.org/2000/svg">
<path d="M50.4167 24.5C48.7598 24.5 47.4167 25.8431 47.4167 27.5C47.4167 29.1569 48.7598 30.5 50.4167 30.5V24.5ZM96.25 30.5C97.9069 30.5 99.25 29.1569 99.25 27.5C99.25 25.8431 97.9069 24.5 96.25 24.5V30.5ZM50.4167 52C48.7598 52 47.4167 53.3431 47.4167 55C47.4167 56.6569 48.7598 58 50.4167 58V52ZM96.25 58C97.9069 58 99.25 56.6569 99.25 55C99.25 53.3431 97.9069 52 96.25 52V58ZM50.4167 79.5C48.7598 79.5 47.4167 80.8431 47.4167 82.5C47.4167 84.1569 48.7598 85.5 50.4167 85.5V79.5ZM96.25 85.5C97.9069 85.5 99.25 84.1569 99.25 82.5C99.25 80.8431 97.9069 79.5 96.25 79.5V85.5ZM13.75 65.75C12.0931 65.75 10.75 67.0931 10.75 68.75C10.75 70.4069 12.0931 71.75 13.75 71.75V65.75ZM27.5 99.25C29.1569 99.25 30.5 97.9069 30.5 96.25C30.5 94.5931 29.1569 93.25 27.5 93.25V99.25ZM14.1527 95.8473L16.2741 93.726L16.274 93.726L14.1527 95.8473ZM18.177 82.6057L18.7623 85.548H18.7623L18.177 82.6057ZM13.8557 86.927L16.798 87.5123L13.8557 86.927ZM27.3943 78.073L24.452 77.4877L24.452 77.4877L27.3943 78.073ZM23.073 82.3943L22.4877 79.452H22.4877L23.073 82.3943ZM23.073 68.8557L23.6583 65.9133H23.6583L23.073 68.8557ZM27.3943 73.177L24.452 73.7623L24.452 73.7623L27.3943 73.177ZM13.75 10.75C12.0931 10.75 10.75 12.0931 10.75 13.75C10.75 15.4069 12.0931 16.75 13.75 16.75V10.75ZM13.75 38.25C12.0931 38.25 10.75 39.5931 10.75 41.25C10.75 42.9069 12.0931 44.25 13.75 44.25V38.25ZM27.5 44.25C29.1569 44.25 30.5 42.9069 30.5 41.25C30.5 39.5931 29.1569 38.25 27.5 38.25V44.25ZM50.4167 30.5H96.25V24.5L50.4167 24.5V30.5ZM50.4167 58H96.25V52H50.4167V58ZM50.4167 85.5H96.25V79.5H50.4167V85.5ZM13.75 71.75H20.625V65.75H13.75V71.75ZM10.75 89.375V93.5H16.75V89.375H10.75ZM16.5 99.25H27.5V93.25H16.5V99.25ZM10.75 93.5C10.75 94.0634 10.7436 94.7877 10.8271 95.4085C10.9222 96.1156 11.1797 97.1169 12.0314 97.9686L16.274 93.726C16.3682 93.8201 16.4542 93.9255 16.5288 94.0393C16.6028 94.1522 16.6563 94.2592 16.6943 94.3515C16.7666 94.5272 16.7775 94.6378 16.7736 94.609C16.7695 94.5783 16.7605 94.4866 16.7553 94.2813C16.7502 94.0776 16.75 93.8352 16.75 93.5H10.75ZM16.5 93.25C16.1648 93.25 15.9224 93.2498 15.7186 93.2447C15.5134 93.2395 15.4217 93.2305 15.391 93.2264C15.3622 93.2225 15.4728 93.2334 15.6485 93.3057C15.7408 93.3437 15.8478 93.3972 15.9607 93.4712C16.0745 93.5458 16.1799 93.6318 16.2741 93.726L12.0314 97.9686C12.8831 98.8203 13.8844 99.0778 14.5915 99.1729C15.2123 99.2564 15.9366 99.25 16.5 99.25V93.25ZM20.625 79.5C19.491 79.5 18.4859 79.4855 17.5917 79.6633L18.7623 85.548C18.9307 85.5145 19.2034 85.5 20.625 85.5V79.5ZM16.75 89.375C16.75 87.9534 16.7645 87.6807 16.798 87.5123L10.9133 86.3417C10.7355 87.2359 10.75 88.241 10.75 89.375H16.75ZM17.5917 79.6633C14.2199 80.334 11.584 82.9699 10.9133 86.3417L16.798 87.5123C16.9953 86.5205 17.7705 85.7453 18.7623 85.548L17.5917 79.6633ZM24.5 75.625C24.5 77.0466 24.4855 77.3193 24.452 77.4877L30.3367 78.6583C30.5145 77.7641 30.5 76.759 30.5 75.625H24.5ZM20.625 85.5C21.759 85.5 22.7641 85.5145 23.6583 85.3367L22.4877 79.452C22.3193 79.4855 22.0466 79.5 20.625 79.5V85.5ZM24.452 77.4877C24.2547 78.4795 23.4795 79.2547 22.4877 79.452L23.6583 85.3367C27.0301 84.666 29.666 82.0301 30.3367 78.6583L24.452 77.4877ZM20.625 71.75C22.0466 71.75 22.3193 71.7645 22.4877 71.798L23.6583 65.9133C22.7641 65.7355 21.759 65.75 20.625 65.75V71.75ZM30.5 75.625C30.5 74.491 30.5145 73.4859 30.3367 72.5917L24.452 73.7623C24.4855 73.9307 24.5 74.2034 24.5 75.625H30.5ZM22.4877 71.798C23.4795 71.9953 24.2547 72.7705 24.452 73.7623L30.3367 72.5917C29.666 69.2199 27.0301 66.584 23.6583 65.9133L22.4877 71.798ZM13.75 16.75H19.25V10.75H13.75V16.75ZM17.625 15.125V41.25H23.625V15.125H17.625ZM13.75 44.25H20.625V38.25H13.75V44.25ZM20.625 44.25H27.5V38.25H20.625V44.25ZM19.25 16.75C18.3525 16.75 17.625 16.0225 17.625 15.125H23.625C23.625 12.7088 21.6662 10.75 19.25 10.75V16.75Z" fill="url(#paint0_linear_3243_11198)"/>
<defs>
<linearGradient id="paint0_linear_3243_11198" x1="-26.9947" y1="54.7473" x2="55" y2="137.247" gradientUnits="userSpaceOnUse">
<stop stop-color="#9168CD"/>
<stop offset="0.424673" stop-color="#5556FF"/>
<stop offset="0.73499" stop-color="#45ADCD"/>
<stop offset="1" stop-color="#3EC4CD"/>
</linearGradient>
</defs>
</svg>
